/* XPM */ 
static const char * const alignright_xpm[] = {
"16 16 65 1",
" 	c None",
"!	c black",
"#	c #767676",
"$	c #747474",
"%	c #707070",
"&	c #6C6C6C",
"'	c #686868",
"(	c #636363",
")	c #5E5E5E",
"*	c #595959",
"+	c #535353",
",	c #4E4E4E",
"-	c #484848",
".	c #424242",
"0	c #616161",
"1	c #5C5C5C",
"2	c #575757",
"3	c #515151",
"4	c #4B4B4B",
"5	c #454545",
"6	c #3F3F3F",
"7	c #393939",
"8	c #333333",
"9	c #646464",
":	c #5F5F5F",
";	c #5A5A5A",
"<	c #545454",
"=	c #4F4F4F",
">	c #494949",
"?	c #434343",
"@	c #3D3D3D",
"A	c #373737",
"B	c #313131",
"C	c #2B2B2B",
"D	c #252525",
"E	c #464646",
"F	c #404040",
"G	c #3A3A3A",
"H	c #343434",
"I	c #2E2E2E",
"J	c #282828",
"K	c #232323",
"L	c #1D1D1D",
"M	c #181818",
"N	c #4A4A4A",
"O	c #444444",
"P	c #3E3E3E",
"Q	c #383838",
"R	c #323232",
"S	c #2C2C2C",
"T	c #262626",
"U	c #202020",
"V	c #1B1B1B",
"W	c #161616",
"X	c #111111",
"Y	c #0C0C0C",
"Z	c #292929",
"[	c #242424",
"]	c #1E1E1E",
"^	c #191919",
"_	c #141414",
"`	c #0F0F0F",
"a	c #0B0B0B",
"b	c #070707",
"c	c #030303",
"                ",
"                ",
"                ",
"  #$%&'()*+,-.  ",
"                ",
"     012345678  ",
"                ",
"  9:;<=>?@ABCD  ",
"                ",
"     EFGHIJKLM  ",
"                ",
"  NOPQRSTUVWXY  ",
"                ",
"     Z[]^_`abc  ",
"                ",
"                "};