/* XPM */
static char *astyle_xpm[] = {
/* columns rows colors chars-per-pixel */
"16 16 87 1",
". c Black",
"- c #F7F7F7",
"a c #99BBEC",
"r c #94B4E9",
"q c #83AEE9",
"m c #F0F3F7",
"W c #F5F7F9",
"g c #EBEFF8",
"> c #F0F0F0",
"  c #FFFFFF",
"N c #83ABE7",
"x c #8DB3E9",
"S c #689AE2",
"& c #E9E9E9",
"z c #86AFE9",
"X c #F8F8F8",
") c #A8B8E9",
"7 c #C9D7F0",
"H c #CED8F2",
"$ c #F1F1F1",
"( c #6190DE",
"y c #89AAE7",
", c #EAEAEA",
"; c #F9F9F9",
"Y c #EFF1F9",
"Z c #78A1E0",
"6 c #A7BFEB",
"U c #D4DDF3",
"b c #E8EDF8",
"8 c #F2F2F2",
"w c #94B9EC",
"K c #80A6E1",
"n c #80A6E2",
"! c #3761D0",
"/ c #6595E0",
"3 c #4774BD",
"k c #ADC4E8",
"9 c #EBEBEB",
"_ c #FAFAFA",
"D c #88AEE8",
"1 c #999999",
"e c #97B7EA",
"J c #F3F6F9",
"~ c #5E8EDB",
": c #F3F3F3",
"f c #77A2E4",
"B c #86AEE8",
"A c #D8E2F1",
"u c #ECECEC",
"' c #C4CFEF",
"E c #CED7F1",
"s c #4875C1",
"F c #3155AA",
"o c #FBFBFB",
"5 c #8EB3E8",
"4 c #8EB3E9",
"p c #5F95E2",
"d c #A4BAEA",
"v c #AEBFEB",
"^ c #6E9BE2",
"@ c #F4F4F4",
"0 c #538ADE",
"I c #6293DD",
"` c #C5D0EF",
"l c #EDEDED",
"O c #FCFCFC",
"C c #8FB1E5",
"T c #87A0E3",
"L c #3F6ED6",
"i c #E6E6E6",
"# c #F5F5F5",
"+ c #949494",
"P c #81A9E6",
"t c #8BB1E8",
"c c #315498",
"2 c #5288DA",
"G c #88A1E3",
"* c #E7E7E7",
"j c #F1F2F4",
"< c #F6F6F6",
"M c #7FA6E1",
"= c #959595",
"V c #2A4787",
"Q c #B1C8EB",
"h c #B1C8EC",
"% c #EFEFEF",
"R c #6996E0",
/* pixels */
"  ............  ",
"  .XoOOOOOOX+.. ",
"  .o@###$%&O*=..",
" ..O-;--:>,O<@1.",
" 234567-<89OOOO.",
"0qwertyoX#$u,iO.",
"pasOOdfghXjk%lO.",
"zxcOOOvbnomM:8O.",
"NBVOOOCZZZZZZAO.",
"SDFOOOGHnOJK;XO.",
"LPIUYTREhoWQXXO.",
" !~^/()oo_____O.",
" ..`'OOOooooooO.",
" ..OOOOOOOOOOOO.",
"  .;OOOOOOOOOO;.",
"  .............."
};
