/* XPM */
static const char *bookmark_prev_xpm[] = {
/* columns rows colors chars-per-pixel */
"16 15 94 2",
"+  c #C82513",
"   c None",
"f  c #1F64CF",
"J  c #94C0FE",
"!  c #74AEFE",
"3  c #9F1506",
"d  c #ED7367",
"]  c #1356B7",
"M  c #0E4FAC",
"u  c #EA6356",
"D  c #5EA1FD",
"x  c #2268D5",
"w  c #9D1507",
"o  c #D02715",
"m  c #1153B3",
"4  c #F18D83",
"1  c #B31C0C",
"h  c #1B5EC5",
"t  c #1B5EC6",
"U  c #66A6FE",
".  c #B88F02",
"A  c #75AFFE",
"K  c #8EBDFE",
"y  c #195BC1",
"V  c #98C2FF",
"7  c #EF8478",
"`  c #78B0FE",
"5  c #F29187",
"z  c #971204",
"<  c #B91E0F",
"I  c #71ACFD",
".. c #1051AF",
"}  c #1558BA",
"$  c #F39B93",
"'  c #1558BB",
"=  c #A61809",
">  c #F39890",
"a  c #9A1306",
"c  c #A8CCFF",
"R  c #88BAFE",
")  c #185CC1",
"k  c #E74F3F",
"_  c #7CB2FE",
"P  c #7CB2FF",
"H  c #95C0FE",
"2  c #AC1A0B",
"i  c #E85648",
"l  c #E54331",
"@  c #B68E02",
"r  c #EF8378",
":  c #F5A098",
"Q  c #7DB3FE",
"e  c #EF8074",
"C  c #8CBCFE",
"|  c #6CAAFE",
"j  c #E95A4B",
"O  c #CF2715",
"p  c #E64A39",
"B  c #A0C6FF",
"(  c #06459B",
"T  c #06459D",
"n  c #1557BA",
"^  c #60A2FD",
"%  c #F6A79F",
"8  c #ED776C",
"*  c #C12211",
"s  c #ED7165",
"E  c #88B9FE",
" . c #1354B6",
"-  c #E75142",
"v  c #9CC6FF",
"q  c #E74E3F",
"6  c #F18E83",
"L  c #86B9FE",
"F  c #07469E",
"Z  c #81B5FE",
"#  c #A17901",
"&  c #F49B93",
",  c #F18B80",
"G  c #90BEFE",
"9  c #EB6B5D",
"~  c #6BA8FE",
"Y  c #5A9FFE",
"W  c #84B6FE",
"S  c #69A8FE",
"X  c #A27A00",
"b  c #1C60C7",
"N  c #A0C8FF",
"0  c #E95C4E",
"g  c #9BC4FF",
"{  c #0B4BA6",
"[  c #1052B2",
"/  c #569CFD",
";  c #F3998F",
/* pixels */
"                                ",
"    . X o O +                   ",
"    @ # $ % & *       = -       ",
"    . # ; : > , < 1 2 - 3       ",
"    @ X 4 5 6 7 8 9 0 q w       ",
"    @ # e r e t y u i p a       ",
"    . X s d f g h j k l z       ",
"    . # u x c v b y n m M       ",
"    . # f N B V C Z A S D F     ",
"    . t G H J K L P I U Y T     ",
"    @ # t R E W Q ! ~ ^ / (     ",
"    . #   ) _ ` ' ] [ M {       ",
"    . #     } |  .              ",
"    . #       [ ..              ",
"                                "
};
