/* XPM */ 
static char * bookmark_next_xpm[] = {
"16 16 69 1",
" 	c None",
"!	c black",
"#	c #E50101",
"$	c #E30101",
"%	c #FF8686",
"&	c #E10101",
"'	c #FF8484",
"(	c #FD7474",
")	c #DE0101",
"*	c #FF8181",
"+	c #FC7171",
",	c #FD7373",
"-	c #DC0101",
".	c #FF7E7E",
"0	c #FB6F6F",
"1	c #FC7070",
"2	c #D90101",
"3	c #FF7B7B",
"4	c #F96C6C",
"5	c #FA6D6D",
"6	c #D50101",
"7	c #FF7878",
"8	c #F86868",
"9	c #F96A6A",
":	c #D20101",
";	c #FF7575",
"<	c #F66565",
"=	c #F76767",
">	c #CE0101",
"?	c #FF7171",
"@	c #F46262",
"A	c #F56464",
"B	c #CB0101",
"C	c #FF6E6E",
"D	c #F35F5F",
"E	c #F46060",
"F	c #3E9CE7",
"G	c #C70101",
"H	c #FF6C6C",
"I	c #F15C5C",
"J	c #F25D5D",
"K	c #3894DF",
"L	c #3793DE",
"M	c #C30101",
"N	c #FF6969",
"O	c #F86262",
"P	c #F55F5F",
"Q	c #56639A",
"R	c #2E87D2",
"S	c #97E5FF",
"T	c #2D85D0",
"U	c #BF0101",
"V	c #2379C3",
"W	c #92E3FF",
"X	c #6AD5FF",
"Y	c #5DD1FF",
"Z	c #73D8FF",
"[	c #B60000",
"]	c #196CB7",
"^	c #186AB5",
"_	c #38C5FF",
"`	c #A80000",
"a	c #6D0000",
"b	c #0D5BA6",
"c	c #0A457C",
"d	c #9C0000",
"e	c #540000",
"f	c #043C74",
"g	c #043A70",
"            #   ",
"           $%$  ",
"          &'(%& ",
"         )*+,(%)",
"        -.01+'- ",
"       23450*2  ",
"      67894.6   ",
"     :;<=83:    ",
"    >?@A<7>     ",
"   BCDE@;B  FF  ",
"  GHIJD?G   KKL ",
" MNOPICMQRRRRSRT",
"UUUUOHU VWXYYYZV",
"   [N[  ]^^^^_^]",
"   ``a      bbc ",
"   de       fg  "};