/* XPM */
static const char *bookmark_next_xpm[] = {
/* columns rows colors chars-per-pixel */
"16 15 97 2",
"+  c #C82513",
"I  c #99C4FF",
"P  c #A3C9FF",
"3  c #9F1506",
"d  c #ED7367",
"J  c #0948A1",
"x  c #EA6356",
"w  c #9D1507",
"o  c #D02715",
"i  c #1153B3",
"4  c #F18D83",
"1  c #B31C0C",
"V  c #2065CF",
"Q  c #1B5EC5",
".  c #B88F02",
"h  c #EB6457",
"K  c #1E62CB",
"c  c #2369D7",
"7  c #EF8478",
"5  c #F29187",
"{  c #1254B4",
"B  c #0D4DA9",
"|  c #62A3FE",
"^  c #91BEFF",
"z  c #971204",
"<  c #B91E0F",
"k  c #71ACFE",
"X. c #0B4AA4",
"u  c #1558BA",
"$  c #F39B93",
"O. c #0B4AA5",
"=  c #A61809",
"b  c #1F63CD",
">  c #F39890",
"!  c #99C3FE",
"G  c #6AA8FE",
"a  c #9A1306",
"Z  c #A8CCFE",
"f  c #ED7265",
"D  c #83B6FE",
"v  c #2267D4",
"}  c #6DA9FE",
"j  c #1659BD",
"   c None",
"g  c #EB6C5F",
"t  c #EE796D",
"2  c #AC1A0B",
"M  c #75AEFE",
"@  c #B68E02",
"r  c #EF8378",
":  c #F5A098",
"(  c #7DB3FE",
"e  c #EF8074",
"R  c #5DA1FD",
"m  c #175ABF",
"_  c #67A6FE",
"O  c #CF2715",
"T  c #76AFFE",
"L  c #A5CAFF",
"p  c #E64A39",
"E  c #5199FD",
"[  c #1557B9",
".. c #65A6FE",
"%  c #F6A79F",
"8  c #ED776C",
"*  c #C12211",
"C  c #ADCFFF",
" . c #0949A2",
"H  c #5EA2FD",
"s  c #ED7165",
"/  c #88B9FE",
"U  c #8DBDFF",
"]  c #185BC0",
"-  c #E75142",
"q  c #E74E3F",
"F  c #77B0FE",
")  c #72ACFE",
"o. c #0C4DA8",
"6  c #F18E83",
"'  c #07469E",
"#  c #A17901",
"&  c #F49B93",
"n  c #1B5FC6",
",  c #F18B80",
"S  c #90BEFE",
"9  c #EB6B5D",
"W  c #054399",
"l  c #0F51AF",
"`  c #5A9FFD",
"N  c #69A8FE",
"~  c #98C3FF",
"X  c #A27A00",
"Y  c #82B6FE",
"y  c #EC6F62",
"A  c #9BC4FE",
"0  c #E95C4E",
";  c #F3998F",
/* pixels */
"                                ",
"    . X o O +                   ",
"    @ # $ % & *       = -       ",
"    . # ; : > , < 1 2 - 3       ",
"    @ X 4 5 6 7 8 9 0 q w       ",
"    @ # e r e t y u i p a       ",
"    . X s d f g h j k l z       ",
"    . # x c v b n m M N B       ",
"    . # V C Z A S D F G H J     ",
"    . X K L P I U Y T N R E W   ",
"    @ # Q ! ~ ^ / ( ) _ ` '     ",
"    . #   ] m j [ { } |  .      ",
"    . #           l ..X.        ",
"    . #           o.O.          ",
"                                "
};
