/* XPM */ 
static char * bookmark_clear_xpm[] = {
"16 16 83 1",
" 	c None",
"!	c black",
"#	c #E50101",
"$	c #E30101",
"%	c #FF8686",
"&	c #E10101",
"'	c #FF8484",
"(	c #FD7474",
")	c #DE0101",
"*	c #FF8181",
"+	c #FC7171",
",	c #FD7373",
"-	c #DC0101",
".	c #FF7E7E",
"0	c #FB6F6F",
"1	c #FC7070",
"2	c #D90101",
"3	c #FF7B7B",
"4	c #F96C6C",
"5	c #FA6D6D",
"6	c #D50101",
"7	c #FF7878",
"8	c #F86868",
"9	c #F96A6A",
":	c #D20101",
";	c #FF7575",
"<	c #F66565",
"=	c #F76767",
">	c #CE0101",
"?	c #FF7171",
"@	c #F46262",
"A	c #F56464",
"B	c #CB0101",
"C	c #FF6E6E",
"D	c #F35F5F",
"E	c #F46060",
"F	c #C3571D",
"G	c #BF4C0E",
"H	c #BB4104",
"I	c #B84403",
"J	c #C70101",
"K	c #FF6C6C",
"L	c #F15C5C",
"M	c #F25D5D",
"N	c #C3561D",
"O	c #D17237",
"P	c #F7B48C",
"Q	c #FED6B7",
"R	c #F5A771",
"S	c #CB6A2C",
"T	c #B94204",
"U	c #C30101",
"V	c #FF6969",
"W	c #F86262",
"X	c #F55F5F",
"Y	c #B84303",
"Z	c #F6B48C",
"[	c #FF914C",
"]	c #FF7611",
"^	c #FF8520",
"_	c #EB893F",
"`	c #BF0101",
"a	c #FECDAD",
"b	c white",
"c	c #EF7E17",
"d	c #B60000",
"e	c #F49C62",
"f	c #FF7E17",
"g	c #F87500",
"h	c #EE7500",
"i	c #E16703",
"j	c #A80000",
"k	c #6D0000",
"l	c #C25619",
"m	c #C96324",
"n	c #E67620",
"o	c #EA7805",
"p	c #DD6301",
"q	c #BC4C04",
"r	c #B74403",
"s	c #9C0000",
"t	c #540000",
"u	c #C3561C",
"            #   ",
"           $%$  ",
"          &'(%& ",
"         )*+,(%)",
"        -.01+'- ",
"       23450*2  ",
"      67894.6   ",
"     :;<=83:    ",
"    >?@A<7>     ",
"   BCDE@;>FGHII ",
"  JKLMD?JNOPQRST",
" UVWXLCU YZ[]^_Y",
"````WK`  HabbbcH",
"   dVd   IefghiI",
"   jjk   lmnopqr",
"   st     uIHIr "};