/* XPM */
static char *bookmark_clear_xpm[] = {
/* columns rows colors chars-per-pixel */
"16 15 89 1",
"+ c #C82513",
"g c #6E6D6D",
"3 c #9F1506",
"d c #ED7367",
"u c #EA6356",
"^ c #444444",
"` c #3A3939",
"H c #9D1506",
"D c #585756",
"w c #9D1507",
"o c #D02715",
"4 c #F18D83",
"1 c #B31C0C",
". c #B88F02",
"Y c #4C4C4C",
"M c #515050",
"h c #EB6457",
"C c #A51709",
"7 c #EF8478",
"5 c #F29187",
"Z c #686767",
"< c #B91E0F",
"$ c #F39B93",
"m c #E64535",
"= c #A61809",
"> c #F39890",
"a c #9A1306",
"P c #4B4A4A",
"c c #EA6557",
"f c #696868",
"k c #E74F3F",
"x c #3F3F3F",
"  c None",
"t c #EE796D",
"( c #383839",
"2 c #AC1A0B",
"E c #4C4B4B",
"v c #6A6969",
"i c #E85648",
"l c #E54331",
"@ c #B68E02",
"F c #4F4F4E",
"Q c #454444",
"r c #EF8378",
": c #F5A098",
"e c #EF8074",
"! c #393939",
"N c #484848",
"j c #E95A4B",
"O c #CF2715",
"R c #4D4C4D",
"p c #E64A39",
"n c #6B6A6A",
"% c #F6A79F",
"8 c #ED776C",
"S c #5F5F5E",
"I c #555454",
"* c #C12211",
"s c #ED7165",
"- c #E75142",
"W c #494948",
"q c #E74E3F",
"B c #3F3E3E",
"K c #585858",
"J c #5D5C5C",
"6 c #F18E83",
"b c #716F6F",
"# c #A17901",
"& c #F49B93",
", c #F18B80",
"V c #A71809",
"9 c #EB6B5D",
") c #333332",
"U c #515151",
"G c #474646",
"] c #2C2C2B",
"_ c #2C2C2C",
"T c #454645",
"' c #3B3B3B",
"X c #A27A00",
"y c #EC6F62",
"[ c #252525",
"~ c #434342",
"/ c #434343",
"0 c #E95C4E",
"L c #525252",
"z c #484747",
"A c #666565",
"; c #F3998F",
/* pixels */
"                ",
"  .XoO+         ",
"  @#$%&*   =-   ",
"  .#;:>,<12-3   ",
"  @X4567890qw   ",
"  @#eretyuipa   ",
"  .Xsdfghjklzx  ",
"  .#ucvbnkmMNB  ",
"  .#VVCZASDFG   ",
"  .X   HJKLP5   ",
"  @#    IUYT    ",
"  .#   REWQx!   ",
"  .#  ~^/  ()_  ",
"  .#  `'    ][  ",
"                "
};
