/* XPM */
static char *bookmark_toggle_xpm[] = {
/* columns rows colors chars-per-pixel */
"16 16 69 1",
"+ c #C82513",
"L c #8E0F02",
"1 c #9F1506",
"a c #ED7367",
"t c #EA6356",
"n c #931004",
"Z c #E1301E",
"S c #9D1506",
"0 c #9D1507",
"o c #D02715",
"C c #E43A29",
"K c #911003",
"2 c #F18D83",
", c #B31C0C",
"H c #8F1002",
"z c #EB6455",
"f c #EB6457",
"J c #941103",
"V c #E54433",
"M c #A51709",
"5 c #EF8478",
"D c #E53E2D",
"3 c #F29187",
"k c #971204",
"> c #B91E0F",
"B c #E64B3B",
"@ c #F39B93",
"v c #E64535",
"& c #A61809",
"; c #F39890",
"i c #9A1306",
"X c #A88105",
"l c #EA6557",
"s c #ED7265",
"h c #E74F3F",
". c #BF9810",
"G c #E12F1D",
"  c None",
"d c #EB6C5F",
"e c #EE796D",
"c c #E85949",
"< c #AC1A0B",
"A c #8F0F03",
"y c #E85648",
"j c #E54331",
"w c #EF8378",
"- c #F5A098",
"q c #EF8074",
"g c #E95A4B",
"O c #CF2715",
"u c #E64A39",
"b c #E33A29",
"F c #E33725",
"# c #F6A79F",
"6 c #ED776C",
"% c #C12211",
"p c #ED7165",
"N c #E75141",
"* c #E75142",
"9 c #E74E3F",
"4 c #F18E83",
"$ c #F49B93",
": c #F18B80",
"m c #A71809",
"7 c #EB6B5D",
"r c #EC6F62",
"x c #E95F51",
"8 c #E95C4E",
"= c #F3998F",
/* pixels */
"                ",
"  .XoO+         ",
"  .X@#$%   &*   ",
"  .X=-;:>,<*1   ",
"  .X234567890   ",
"  .Xqwqertyui   ",
"  .Xpasdfghjk   ",
"  .Xtlzxchvbn   ",
"  .XmmMNBVCZA   ",
"  .X   SDFGH3   ",
"  .X    JKL3    ",
"  .X            ",
"  .X            ",
"  .X            ",
"  .X            ",
"  .X            ",
"                "
};
