/* XPM */ 
static char * bookmark_prev_xpm[] = {
"16 16 66 1",
" 	c None",
"!	c black",
"#	c #E50101",
"$	c #E30101",
"%	c #FF8686",
"&	c #E10101",
"'	c #FF8484",
"(	c #FD7474",
")	c #DE0101",
"*	c #FF8181",
"+	c #FC7171",
",	c #FD7373",
"-	c #DC0101",
".	c #FF7E7E",
"0	c #FB6F6F",
"1	c #FC7070",
"2	c #D90101",
"3	c #FF7B7B",
"4	c #F96C6C",
"5	c #FA6D6D",
"6	c #D50101",
"7	c #FF7878",
"8	c #F86868",
"9	c #F96A6A",
":	c #D20101",
";	c #FF7575",
"<	c #F66565",
"=	c #F76767",
">	c #CE0101",
"?	c #FF7171",
"@	c #F46262",
"A	c #F56464",
"B	c #CB0101",
"C	c #FF6E6E",
"D	c #F35F5F",
"E	c #F46060",
"F	c #C70101",
"G	c #FF6C6C",
"H	c #F15C5C",
"I	c #F25D5D",
"J	c #3E9CE7",
"K	c #C30101",
"L	c #FF6969",
"M	c #F86262",
"N	c #F55F5F",
"O	c #3793DE",
"P	c #3894DF",
"Q	c #BF0101",
"R	c #2D85D0",
"S	c #2E87D2",
"T	c #97E5FF",
"U	c #196CB7",
"V	c #B60000",
"W	c #2379C3",
"X	c #73D8FF",
"Y	c #5DD1FF",
"Z	c #6AD5FF",
"[	c #92E3FF",
"]	c #A80000",
"^	c #6D0000",
"_	c #186AB5",
"`	c #38C5FF",
"a	c #9C0000",
"b	c #540000",
"c	c #0A457C",
"d	c #0D5BA6",
"            #   ",
"           $%$  ",
"          &'(%& ",
"         )*+,(%)",
"        -.01+'- ",
"       23450*2  ",
"      67894.6   ",
"     :;<=83:    ",
"    >?@A<7>     ",
"   BCDE@;B      ",
"  FGHID?B JJ    ",
" KLMNHCK OPP    ",
"QQQQMGQ RSTSSSSU",
"   VLV  WXYYYZ[W",
"   ]]^  U_`____U",
"   ab    cdd    "};