/* XPM */
static char *case_xpm[] = {
/* columns rows colors chars-per-pixel */
"16 15 115 2",
"@. c #EE344F",
"3  c #FEE0AD",
"}  c #FDE5F8",
"|  c #FFF6CC",
"j  c #FF697C",
"2  c #FEF2F9",
"k  c #F8DBFA",
"C  c #F4C1FC",
"D  c #FEE9E9",
"#  c #FFFFFC",
"m  c #FFFCF5",
"v  c #EF2F2C",
"f  c #FEA58E",
",  c #FFFCF8",
"-. c #FFFCFE",
"+. c #FE996C",
"s  c #F9E8FF",
"i  c #FCECEB",
")  c #FCC3E8",
"b  c #FF6696",
"W  c #FDFFFF",
"/  c #FECBA3",
"]  c #F7603F",
"I  c #F8B4A0",
"#. c #F04256",
"R  c #F99B9A",
"p  c #F9865B",
"n  c #F8C6EC",
"V  c #FA4455",
"o. c #F7B0E1",
"r  c #FBF9FD",
">. c #FDEDED",
"&  c #FFB5CA",
"2. c #FDEDEF",
"P  c #F26B91",
"=. c #FDEDF4",
"~  c #F8C0EE",
"x  c #F13A39",
"5  c #FCF7DC",
"^  c #FEF7FC",
"w  c #EE304A",
"'  c #F3B0ED",
"q  c #F32B37",
"<  c #FEEEEE",
"T  c #FEEBE7",
"{  c #F25C98",
"9  c #FFFBEC",
";. c #FFFEF9",
"@  c #FEBFE2",
"*  c #F9EAFE",
"K  c #FFEFCF",
"F  c #FCEBE3",
"4  c #FFD5FA",
"%  c #FF7642",
"O  c #FECD9A",
"h  c #FFB79F",
"X. c #FE4F80",
"   c None",
"8  c #FDFEFF",
";  c #FFAB88",
"M  c #FFEFED",
"X  c #FFF2F7",
"0  c #FEC49A",
"L  c #FE9276",
"d  c #FFDDBB",
"%. c #F05095",
"G  c #FE9589",
"l  c #FEFCDE",
">  c #F8C5ED",
"J  c #FBFBFF",
"E  c #FFECF8",
"4. c #FDEFF3",
"*. c #FDECEC",
"a  c #FFB1C4",
"6  c #F76883",
"!  c #FFA8B0",
"_  c #FFCBA8",
"g  c #FDBADE",
"$  c #FC9295",
"Z  c #FEE1AF",
"N  c #FDD4BA",
"<. c #FEF6FB",
"O. c #FFFAD6",
"&. c #FEEDE8",
"+  c #FE5779",
"c  c #EF3941",
"7  c #FDAED9",
"[  c #EF363C",
".  c #FFFDF8",
"t  c #FFFDFC",
":  c #FF96AE",
"1. c #FFF7F3",
"A  c #FFCEED",
"o  c #FFFAFE",
":. c #FFF4F3",
"=  c #FEFECA",
"3. c #FFF1F0",
"y  c #FCA69F",
",. c #FFEEF1",
"Y  c #F5C3FC",
"e  c #FA5D9F",
"$. c #FB5246",
"H  c #FEA6C2",
"u  c #FFE8EB",
"1  c #FDEEEE",
"S  c #FCDBE9",
"Q  c #FEB481",
" . c #FE856B",
"`  c #FF6653",
"B  c #F74C2C",
"-  c #FE9DC8",
".. c #F0252C",
"U  c #FF6354",
"(  c #FF9271",
"z  c #FE7C60",
/* pixels */
"                                ",
"                                ",
"      . X o                     ",
"      O + @                     ",
"    # $ % & *                   ",
"    = - ; : >         , < 1 2   ",
"    3 4 5 6 7 8     9 0 q w e r ",
"  t y u i p a s     d f g h j k ",
"  l z x c v b n     m M N B V C ",
"  Z A S D F G H J   K L P I U Y ",
"T R E W     Q ! ~ ^ / ( ) _ ` ' ",
"] [ { }   |  ...X.o.O.+.@.#.$.%.",
"&.*.=.-.  ;.:.>.,.<.  1.>.2.3.4.",
"                                ",
"                                "
};
