/* XPM */ 
static char * closepreview_xpm[] = {
"16 16 146 2",
"  	c None",
"! 	c black",
"# 	c #E16A6B",
"$ 	c #DD6A68",
"% 	c #DC6463",
"& 	c #DA6461",
"' 	c #D9635D",
"( 	c #D6635B",
") 	c #E36C6D",
"* 	c #DF6A6A",
"+ 	c #ED938E",
", 	c #F8C3BE",
"- 	c #F9D3CC",
". 	c #F9CBC4",
"0 	c #F4B4AA",
"1 	c #E27066",
"2 	c #D15E53",
"3 	c #CE5D50",
"4 	c #E0696A",
"5 	c #F2ADAA",
"6 	c #FDDCD8",
"7 	c #FABAAE",
"8 	c #FAA391",
"9 	c #FA9D8B",
": 	c #FBA99C",
"; 	c #FCC7BA",
"< 	c #E97B70",
"= 	c #CC5B4C",
"> 	c #CA5848",
"? 	c #F3A7A3",
"@ 	c #FDDBD4",
"A 	c #FA9A87",
"B 	c #F0917F",
"C 	c #F18E7A",
"D 	c #F8947F",
"E 	c #F9927E",
"F 	c #F88C76",
"G 	c #F8B6A8",
"H 	c #E36E63",
"I 	c #C75745",
"J 	c #EA837D",
"K 	c #FCD4CD",
"L 	c #FAB5A7",
"M 	c #F9C4BA",
"N 	c #F6846C",
"O 	c #FAC2B7",
"P 	c #F9B2A4",
"Q 	c #F37963",
"R 	c #F8AFA4",
"S 	c #D04F3E",
"T 	c #C2543E",
"U 	c #DE6A67",
"V 	c #F5AFA5",
"W 	c #FAAB9D",
"X 	c #EE7F6C",
"Y 	c #F9C0B7",
"Z 	c #FCD2CA",
"[ 	c #F8ADA1",
"] 	c #F8ACA0",
"^ 	c #FBD0C8",
"_ 	c #F9BEB5",
"` 	c #F27763",
"a 	c #F48E81",
"b 	c #E97F78",
"c 	c #C0533A",
"d 	c #DB6964",
"e 	c #F9B9AF",
"f 	c #FA937F",
"g 	c #EF7B67",
"h 	c #EB6556",
"i 	c #F8AFA3",
"j 	c #FCCFC7",
"k 	c #FCD0C7",
"l 	c #E9594D",
"m 	c #EE6A5E",
"n 	c #F19D96",
"o 	c #BE4F36",
"p 	c #DA635F",
"q 	c #F7ABA1",
"r 	c #F88670",
"s 	c #F17560",
"t 	c #EB6253",
"u 	c #F7AB9F",
"v 	c #FBCEC6",
"w 	c #EA665C",
"x 	c #F19C96",
"y 	c #BC5032",
"z 	c #D7625C",
"{ 	c #EE8C81",
"| 	c #F7917E",
"} 	c #F16F5B",
"~ 	c #F8BAB0",
" !	c #FBCDC5",
"!!	c #F7AA9E",
"#!	c #FBCFC7",
"$!	c #F8BDB4",
"%!	c #E95B4F",
"&!	c #F0837B",
"'!	c #E27B75",
"(!	c #BA4B2E",
")!	c #D46058",
"*!	c #DB564B",
"+!	c #F6ABA2",
",!	c #F06456",
"-!	c #F8A99C",
".!	c #F7B9AF",
"0!	c #F8B6AC",
"1!	c #E65A52",
"2!	c #F5A39F",
"3!	c #C45034",
"4!	c #B84A2A",
"5!	c #CF6153",
"6!	c #E36B61",
"7!	c #F5ACA1",
"8!	c #EC5F54",
"9!	c #EA5C50",
":!	c #E6594E",
";!	c #E6564C",
"<!	c #E65650",
"=!	c #F4A29E",
">!	c #D66054",
"?!	c #CD5A4D",
"@!	c #CB5949",
"A!	c #E0655C",
"B!	c #F5A6A1",
"C!	c #EF867E",
"D!	c #E9635B",
"E!	c #E75D59",
"F!	c #EE847D",
"G!	c #F4A09E",
"H!	c #D75D51",
"I!	c #B74A2B",
"J!	c #B54B29",
"K!	c #C85846",
"L!	c #C65542",
"M!	c #CC523C",
"N!	c #E87A75",
"O!	c #EE928F",
"P!	c #E47871",
"Q!	c #C14D33",
"R!	c #C2503A",
"S!	c #BE5338",
"T!	c #BD5135",
"U!	c #BC4B30",
"V!	c #B84E2E",
"W!	c #B74C2B",
"                                ",
"          # $ % & ' (           ",
"      ) * + , - . 0 1 2 3       ",
"    ) 4 5 6 7 8 9 : ; < = >     ",
"    4 ? @ A B C D E F G H I     ",
"  4 J K 9 L M N N O P Q R S T   ",
"  U V W X Y Z [ ] ^ _ ` a b c   ",
"  d e f g h i j k i l l m n o   ",
"  p q r s t u v v ] l l w x y   ",
"  z { | } ~  !!!] #!$!%!&!'!(!  ",
"  )!*!+!,!-!.!l l 0!u 1!2!3!4!  ",
"    5!6!7!8!9!l :!;!<!=!>!4!    ",
"    ?!@!A!B!C!D!E!F!G!H!I!J!    ",
"      K!L!M!N!O!O!P!Q!I!J!      ",
"          R!S!T!U!V!W!          ",
"                                "};