/* XPM */
static char *closepreview_xpm[] = {
/* columns rows colors chars-per-pixel */
"16 15 137 2",
"   c None",
"X. c #DF483E",
"F  c #FBE5E7",
"4  c #FF8F74",
"e. c #FD5D3B",
"w  c #EF613D",
"%. c #BD362B",
"c  c #FFC1AB",
"B  c #E77F5C",
"O  c #B82919",
"n  c #FFFFFF",
"p  c #FFBEAB",
"&. c #FF867A",
"p. c #B12514",
"@  c #B62918",
"X  c #B9362B",
"5. c #FF7D72",
"i  c #B92D1C",
"6. c #FF7767",
"*. c #E03D26",
"+. c #FFEDED",
" . c #FFEDEE",
"9. c #FF7461",
"E  c #D9453C",
"#. c #F5664E",
"Q  c #FF715A",
"]  c #FA6A50",
"h. c #C44E49",
"@. c #DA5850",
"#  c #B22919",
"L  c #CB4333",
"!  c #C63C29",
"%  c #BC3428",
"1  c #FFA38E",
"w. c #FF684C",
".  c #BD4A3F",
"<  c #FFA08D",
"&  c #BD473B",
"f  c #F47652",
"a. c #B72414",
"3  c #FF9A85",
"|  c #E06351",
"<. c #D23223",
"N  c #FEF4F1",
"{  c #B52718",
"j. c #CC8581",
"f. c #B52412",
"Z  c #B32A1A",
"8  c #F77148",
"O. c #FEEBE8",
"J  c #D33920",
"=. c #DE5D4B",
"d  c #F7EDEC",
"R  c #F9E4E6",
"H  c #E04E3A",
"e  c #EE7959",
"u. c #BB352A",
"T  c #F9DEDB",
"7  c #FFBAA2",
"'  c #DB4A3C",
"}  c #FF8881",
"$. c #C73428",
"-. c #D44C40",
"r  c #EC7F63",
"6  c #B9382C",
"j  c #FFF2F1",
"4. c #FF7C70",
"7. c #FF765F",
"s  c #FFEFF0",
"[  c #CA3528",
"-  c #FFAE9E",
"x  c #B92C1C",
",  c #FFAB95",
"i. c #B42515",
"y  c #FFA27E",
"t  c #E96040",
"r. c #C95144",
"K  c #FC8F72",
"m  c #FDE9E7",
"M  c #FDE6E0",
"q. c #FD6D51",
"y. c #C75451",
">. c #DA4E42",
"*  c #C16C6B",
"Y  c #DF4C39",
"t. c #D38888",
"$  c #B52918",
"o  c #B52919",
"C  c #C74534",
"D  c #EE5542",
"S  c #E94B2F",
"3. c #CA5247",
"I  c #FF9690",
"^  c #FF8D7F",
":. c #CB2714",
"q  c #F46343",
"+  c #B82A19",
"(  c #FEEAEA",
")  c #F9E6EA",
"G  c #F9E3E5",
"~  c #B82718",
"5  c #BC4D3F",
"a  c #F68F73",
"d. c #B82413",
"=  c #BC4D44",
"v  c #EF8E6C",
"`  c #FCEAE7",
"1. c #FE654B",
"_  c #F7E3E5",
"9  c #F68366",
"8. c #FF7861",
".. c #FCE7F1",
"0  c #F17C5D",
"g  c #F17954",
"u  c #CB4D3C",
"2. c #C84033",
"h  c #FFEEEF",
";  c #FFAD9A",
"A  c #FFAA96",
"z  c #CB4735",
"k  c #E88163",
"V  c #FFA17D",
"P  c #B92819",
"0. c #FF6F5A",
"o. c #D74636",
"b  c #FDF1F5",
":  c #FFA796",
"l  c #FF9E7E",
">  c #FFA493",
"U  c #E53927",
"g. c #BC3229",
"s. c #B22414",
",. c #D85951",
"2  c #FF9B82",
"/  c #E95948",
";. c #D42A15",
"W  c #CF2312",
/* pixels */
"                                ",
"                                ",
"      . X o O + @ # $ % & *     ",
"    = - ; : > , < 1 2 3 4 5     ",
"    6 7 8 9 0 q w e r t y u     ",
"    i p a s d f g h j k l z     ",
"    x c v b n m M n N B V C     ",
"    Z A S D F n n G H J K L     ",
"    P I U Y T n n R E W Q !     ",
"    ~ ^ / ( n ) _ n ` ' ] [     ",
"    { } |  ...X.o.O.+.@.#.$.    ",
"    %.&.*.=.-.;.:.>.,.<.1.2.    ",
"    3.4.5.6.7.8.9.0.q.w.e.r.    ",
"    t.y.u.i.p.a.s.d.f.g.h.j.    ",
"                                "
};
