/* XPM */ 
static char * closeall_xpm[] = {
"16 16 122 2",
"  	c None",
"! 	c #5485CC",
"# 	c #5687CC",
"$ 	c #5587CB",
"% 	c #5587CC",
"& 	c #5686CB",
"' 	c #4F82CA",
"( 	c #4178C3",
") 	c black",
"* 	c #5384CA",
"+ 	c white",
", 	c #E9F3FD",
"- 	c #EAF3FD",
". 	c #E8F2FC",
"0 	c #E3EFFA",
"1 	c #E7F2FA",
"2 	c #87BAEA",
"3 	c #5484CF",
"4 	c #5585CB",
"5 	c #EDF5FE",
"6 	c #C3DDF9",
"7 	c #9CC2EA",
"8 	c #95BEE6",
"9 	c #91BAE4",
": 	c #6B9FD1",
"; 	c #6C9DD0",
"< 	c #5E95CC",
"= 	c #5485CB",
"> 	c #F0F6FE",
"? 	c #CAE0FA",
"@ 	c #95BDE5",
"A 	c #FEFFFF",
"B 	c #F1F7FE",
"C 	c #D0E4FC",
"D 	c #92BAE4",
"E 	c #5385CB",
"F 	c #F2F7FF",
"G 	c #D7E7FF",
"H 	c #5284CB",
"I 	c #F0F7FF",
"J 	c #C4DEFC",
"K 	c #C7E0FB",
"L 	c #C1DCF9",
"M 	c #B3D3F5",
"N 	c #F3F9FE",
"O 	c #C3E2FA",
"P 	c #92C0EC",
"Q 	c #477CC2",
"R 	c #5183CA",
"S 	c #F1F7FF",
"T 	c #90BAE4",
"U 	c #CDE2FC",
"V 	c #CDE3FC",
"W 	c #C8DFFA",
"X 	c #BBD9F7",
"Y 	c #DDE9F5",
"Z 	c #EBF3FA",
"[ 	c #F3F8FB",
"] 	c #5282CA",
"^ 	c #5182CC",
"_ 	c #EEF5FB",
"` 	c #90B9E4",
"a 	c #D2E5FC",
"b 	c #D1E4FC",
"c 	c #CCE2FB",
"d 	c #BAD7F6",
"e 	c #AED1F3",
"f 	c #E4EFFA",
"g 	c #5786CC",
"h 	c #5281CF",
"i 	c #E7F1EF",
"j 	c #D5E7FE",
"k 	c #C9A093",
"l 	c #C05D29",
"m 	c #BB4205",
"n 	c #BE581E",
"o 	c #D7A489",
"p 	c #2D64B8",
"q 	c #4D7BC8",
"r 	c #ECF3FC",
"s 	c #EAF2FB",
"t 	c #D5E7FF",
"u 	c #D1753C",
"v 	c #F7B48C",
"w 	c #FED6B7",
"x 	c #F5A771",
"y 	c #C96A2E",
"z 	c #786167",
"{ 	c #4978C7",
"| 	c #4A78C8",
"} 	c #4474C8",
"~ 	c #D9E9FF",
" !	c #AA5223",
"!!	c #F6B48C",
"#!	c #FF914C",
"$!	c #FF7611",
"%!	c #FF8520",
"&!	c #EB893F",
"'!	c #B84303",
"(!	c #4878C7",
")!	c #FECDAD",
"*!	c #EF7E17",
"+!	c #BB4104",
",!	c #4172C4",
"-!	c #4474C5",
".!	c #AF511D",
"0!	c #F49C62",
"1!	c #FF7E17",
"2!	c #F87500",
"3!	c #EE7500",
"4!	c #E16703",
"5!	c #B84403",
"6!	c #E8F1FA",
"7!	c #CA6527",
"8!	c #E67620",
"9!	c #EA7805",
":!	c #DD6301",
";!	c #BA4C06",
"<!	c #755D6D",
"=!	c #A74818",
">!	c #BA4105",
"?!	c #AC4713",
"! ! # $ % & ' (                 ",
"* + , - . 0 1 2 3               ",
"4 5 6 7 8 9 9 : ; < (           ",
"= > ? @ A , - . 0 1 2 3         ",
"= B C D 5 6 7 8 9 9 : ; < (     ",
"E F G 9 > ? @ A , - . 0 1 2 3   ",
"H I G 9 B C D 5 J K L M N O P Q ",
"R S G T F G 9 > U V W X Y Z [ ] ",
"^ _ _ ` I G 9 B a b c 6 d e f g ",
"h i i R S G T F j b k l m n o p ",
"q r r ^ _ s ` I t k u v w x y z ",
"{ | } h i i R S ~  !!!#!$!%!&!'!",
"      (!r r ^ _ ~ m )!+ + + *!+!",
"      ,!-!-!h i ~ .!0!1!2!3!4!5!",
"            (!r 6!o 7!8!9!:!;!<!",
"            ,!-!} p <!=!>!?!<!} "};