/* XPM */ 
static const char * const columnmode_xpm[] = {
"16 16 76 1",
" 	c None",
"!	c black",
"#	c #437CC0",
"$	c #4C8AC8",
"%	c #4E8BC8",
"&	c #4E8CC8",
"'	c #4E8BC9",
"(	c #4E8AC7",
")	c #4A88C4",
"*	c #3A75C3",
"+	c #4884C3",
",	c #ECF2F7",
"-	c #EEF4F8",
".	c #EDF4F8",
"0	c #EDF3F8",
"1	c #ECF2F8",
"2	c #D7E6F2",
"3	c #7CB1E2",
"4	c #6493DB",
"5	c #A1C1EE",
"6	c #F4F7FB",
"7	c #FF2424",
"8	c #B3D8F6",
"9	c #7CAFE1",
":	c #6391DB",
";	c #9EBFEC",
"<	c #B5CDEA",
"=	c #CDE6FC",
">	c #C9E5FA",
"?	c #83B5E2",
"@	c #4178BE",
"A	c #9BBDEB",
"B	c white",
"C	c #FF0000",
"D	c #447DC1",
"E	c #98BAE9",
"F	c #A6C3E9",
"G	c #94B7E7",
"H	c #F2F6FB",
"I	c #EBF1F7",
"J	c #8FB4E5",
"K	c #F2F6FA",
"L	c #DEE7F2",
"M	c #8CB1E3",
"N	c #F1F6FA",
"O	c #DBE5F1",
"P	c #5586C6",
"Q	c #87AEE1",
"R	c #F0F4FA",
"S	c #D8E2F0",
"T	c #5486C4",
"U	c #82AADF",
"V	c #EFF3F9",
"W	c #FF4848",
"X	c #5F8DC8",
"Y	c #7EA8DD",
"Z	c #BAD0EB",
"[	c #BBD0EB",
"]	c #5C8AC6",
"^	c #7AA4D9",
"_	c #EEF3F9",
"`	c #5F8CC6",
"a	c #75A1D7",
"b	c #EDF2F8",
"c	c #EAF0F7",
"d	c #E6EDF6",
"e	c #5D8AC5",
"f	c #729ED6",
"g	c #6E99D3",
"h	c #6896D1",
"i	c #6392CE",
"j	c #5E8ECB",
"k	c #5B8AC9",
"l	c #5687C7",
"m	c #5284C3",
"n	c #4277BB",
" #$%%%%&'()*    ",
" +,-.0001,234   ",
" 566677776689:  ",
" ;6<<7<<7<6=>?@ ",
" A6BBCBB7BBBB6D ",
" E6FFCFF7FFFF6D ",
" G6BBCBB7HBBBID ",
" JKFFCFF7FFFFLD ",
" MNBBCBB7HBBBOP ",
" QRFFCFF7FFFFST ",
" UVBBWBBWHHBBSX ",
" YVZ[WWWW<<<<S] ",
" ^_BBBBBBBBBBS` ",
" abcdSSSSSSSSSe ",
" fghijklmmmmmmn ",
"                "};