/* XPM */ 
static char * columnmode_xpm[] = {
"16 16 79 1",
" 	c None",
"!	c black",
"#	c #437CC0",
"$	c #4C8AC8",
"%	c #4E8BC8",
"&	c #4E8CC8",
"'	c #4E8BC9",
"(	c #4E8AC7",
")	c #4A88C4",
"*	c #3A75C3",
"+	c #4884C3",
",	c #ECF2F7",
"-	c #EEF4F8",
".	c #EDF4F8",
"0	c #EDF3F8",
"1	c #ECF2F8",
"2	c #D7E6F2",
"3	c #7CB1E2",
"4	c #6493DB",
"5	c #A1C1EE",
"6	c #F4F7FB",
"7	c #B3D8F6",
"8	c #7CAFE1",
"9	c #6391DB",
":	c #9EBFEC",
";	c #B5CDEA",
"<	c #CDE6FC",
"=	c #C9E5FA",
">	c #83B5E2",
"?	c #4178BE",
"@	c #9BBDEB",
"A	c white",
"B	c #FF8E8E",
"C	c #447DC1",
"D	c #98BAE9",
"E	c #A6C3E9",
"F	c #94B7E7",
"G	c #FF8F8F",
"H	c #F2F6FB",
"I	c #EBF1F7",
"J	c #8FB4E5",
"K	c #F2F6FA",
"L	c #DEE7F2",
"M	c #8CB1E3",
"N	c #F1F6FA",
"O	c #DBE5F1",
"P	c #5586C6",
"Q	c #87AEE1",
"R	c #F0F4FA",
"S	c #D8E2F0",
"T	c #5486C4",
"U	c #82AADF",
"V	c #EFF3F9",
"W	c #FFACAC",
"X	c #FFAAAA",
"Y	c #5F8DC8",
"Z	c #7EA8DD",
"[	c #BAD0EB",
"]	c #BBD0EB",
"^	c #FFAEAE",
"_	c #FFA3A3",
"`	c #5C8AC6",
"a	c #7AA4D9",
"b	c #EEF3F9",
"c	c #5F8CC6",
"d	c #75A1D7",
"e	c #EDF2F8",
"f	c #EAF0F7",
"g	c #E6EDF6",
"h	c #5D8AC5",
"i	c #729ED6",
"j	c #6E99D3",
"k	c #6896D1",
"l	c #6392CE",
"m	c #5E8ECB",
"n	c #5B8AC9",
"o	c #5687C7",
"p	c #5284C3",
"q	c #4277BB",
" #$%%%%&'()*    ",
" +,-.0001,234   ",
" 5666666666789  ",
" :6;;;;;;;6<=>? ",
" @6AABBBAAAAA6C ",
" D6EEBEBEEEEE6C ",
" F6AAGAGAHAAAIC ",
" JKEEBEBEEEEELC ",
" MNAABABAHAAAOP ",
" QREEGEGEEEEEST ",
" UVAAWAXAHHAASY ",
" ZV[]W^_;;;;;S` ",
" abAAAAAAAAAASc ",
" defgSSSSSSSSSh ",
" ijklmnoppppppq ",
"                "};