/* XPM */ 
static const char * const comment_xpm[] = {
"16 16 131 2",
"  	c None",
"! 	c black",
"# 	c #FEDFB5",
"$ 	c #FAD2A1",
"% 	c #F9D19B",
"& 	c #F8CD96",
"' 	c #F7CA91",
"( 	c #F6C58B",
") 	c #F5C184",
"* 	c #F4BE7D",
"+ 	c #F4B975",
", 	c #F1B56D",
"- 	c #F0B164",
". 	c #F0AC5C",
"0 	c #FDDCB1",
"1 	c #FFFEFA",
"2 	c #FEFDFA",
"3 	c #FFFDFA",
"4 	c #EEA752",
"5 	c #F6CC96",
"6 	c #FFFDF9",
"7 	c #FEFBF0",
"8 	c #FEFCF0",
"9 	c #FDFBEE",
": 	c #FDFBEF",
"; 	c #FDFBF0",
"< 	c #FEFDF7",
"= 	c #EDA249",
"> 	c #F5C892",
"? 	c #FDF7E1",
"@ 	c #F9EAA9",
"A 	c #F9E8A2",
"B 	c #F8E79C",
"C 	c #F8E595",
"D 	c #F7E38F",
"E 	c #F7E187",
"F 	c #F6DF7F",
"G 	c #F5DD76",
"H 	c #FBF1C8",
"I 	c #EB9D3F",
"J 	c #F4C48B",
"K 	c #FDF7DD",
"L 	c #F8E8A1",
"M 	c #F8E594",
"N 	c #F7E38E",
"O 	c #F7E186",
"P 	c #F6DF7E",
"Q 	c #F4DB6C",
"R 	c #FBF0C3",
"S 	c #EA9736",
"T 	c #F0B878",
"U 	c #FCF6DB",
"V 	c #F8E79B",
"W 	c #F7E185",
"X 	c #F5DF7D",
"Y 	c #F5DD75",
"Z 	c #F4D963",
"[ 	c #FBF0BF",
"] 	c #E9932B",
"^ 	c #EEB570",
"_ 	c #F4D19D",
"` 	c #F0CA77",
"a 	c #F0C771",
"b 	c #F0C56D",
"c 	c #EDBD5F",
"d 	c #F4DB6B",
"e 	c #F3D65A",
"f 	c #FBEFBD",
"g 	c #E88E22",
"h 	c #EBAC5D",
"i 	c #F0C282",
"j 	c #FCF3D3",
"k 	c #FCF3D1",
"l 	c #FAEDB1",
"m 	c #EDBB5A",
"n 	c #F4DA6B",
"o 	c #F4D961",
"p 	c #B2B559",
"q 	c #749657",
"r 	c #658D4E",
"s 	c #5F833D",
"t 	c #48772D",
"u 	c #ECAB5C",
"v 	c #EBAC54",
"w 	c #EBAE46",
"x 	c #F9E9AB",
"y 	c #FAEAAC",
"z 	c #EBBA55",
"{ 	c #ACB154",
"| 	c #80AA60",
"} 	c #B3D494",
"~ 	c #D0E6B9",
" !	c #8EBA69",
"!!	c #568E2C",
"#!	c #366A18",
"$!	c #EBAA5C",
"%!	c #F8E3B3",
"&!	c #E69E31",
"'!	c #E9AA3A",
"(!	c #F8E9A7",
")!	c #EBB94D",
"*!	c #F3D659",
"+!	c #618843",
",!	c #B0D38F",
"-!	c #B0D691",
".!	c white",
"0!	c #8BBB64",
"1!	c #8EBB66",
"2!	c #EBA654",
"3!	c #F9E6B5",
"4!	c #F1D194",
"5!	c #E8A64A",
"6!	c #EBAE59",
"7!	c #EEC17C",
"8!	c #FBEEBA",
"9!	c #4B7A30",
":!	c #B5D49B",
";!	c #B1D294",
"<!	c #EAA24C",
"=!	c #E89D45",
">!	c #E7993D",
"?!	c #E69434",
"@!	c #E28B1D",
"A!	c #E28B1F",
"B!	c #E48C20",
"C!	c #3D6C1A",
"D!	c #8AB961",
"E!	c #86B95F",
"F!	c #86B85F",
"G!	c #528B27",
"H!	c #8CB963",
"                                ",
"                                ",
"    # $ % & ' ( ) * + , - .     ",
"    0 1 1 1 1 1 2 3 1 1 3 4     ",
"    5 6 7 7 8 9 : : ; ; < =     ",
"    > ? @ A B C D E F G H I     ",
"    J K L B M N O P G Q R S     ",
"    T U V M N W X Y Q Z [ ]     ",
"    ^ _ ` a b c Y d Z e f g     ",
"    h i j k l m n o p q r s t   ",
"    u v w x y z o { | } ~  !!!#!",
"    $!%!&!'!(!)!*!+!,!-!.!0!1!#!",
"    2!3!4!5!6!7!8!9!:!.!.!.!;!#!",
"    <!=!>!?!@!A!B!C!D!E!.!F!1!#!",
"                  #!G!H!;!H!G!#!",
"                    #!#!#!#!#!  "};