/* XPM */ 
static char * copy_xpm[] = {
"16 16 113 2",
"  	c None",
"! 	c #4678C7",
"# 	c #5485CC",
"$ 	c #5687CC",
"% 	c #5587CB",
"& 	c #5587CC",
"' 	c #5686CB",
"( 	c #4F82CA",
") 	c #4178C3",
"* 	c black",
"+ 	c #5384CA",
", 	c white",
"- 	c #E9F3FD",
". 	c #EAF3FD",
"0 	c #E8F2FC",
"1 	c #E3EFFA",
"2 	c #E7F2FA",
"3 	c #87BAEA",
"4 	c #5484CF",
"5 	c #5585CB",
"6 	c #EDF5FE",
"7 	c #C4DEFC",
"8 	c #C7E0FB",
"9 	c #C1DCF9",
": 	c #B3D3F5",
"; 	c #F3F9FE",
"< 	c #C3E2FA",
"= 	c #92C0EC",
"> 	c #477CC2",
"? 	c #5485CB",
"@ 	c #F0F6FE",
"A 	c #CDE2FC",
"B 	c #CDE3FC",
"C 	c #C8DFFA",
"D 	c #BBD9F7",
"E 	c #DDE9F5",
"F 	c #EBF3FA",
"G 	c #F3F8FB",
"H 	c #6494CD",
"I 	c #F1F7FE",
"J 	c #D2E5FC",
"K 	c #D1E4FC",
"L 	c #CCE2FB",
"M 	c #C3DDF9",
"N 	c #9CC2EA",
"O 	c #95BEE6",
"P 	c #91BAE4",
"Q 	c #6B9FD1",
"R 	c #6C9DD0",
"S 	c #5E95CC",
"T 	c #5385CB",
"U 	c #F2F7FF",
"V 	c #D5E7FE",
"W 	c #D1E5FD",
"X 	c #CAE0FA",
"Y 	c #95BDE5",
"Z 	c #FEFFFF",
"[ 	c #5284CB",
"] 	c #F0F7FF",
"^ 	c #D5E7FF",
"_ 	c #D6E7FD",
"` 	c #D4E6FD",
"a 	c #D0E4FC",
"b 	c #92BAE4",
"c 	c #5183CA",
"d 	c #F1F7FF",
"e 	c #D9E9FF",
"f 	c #DBEAFF",
"g 	c #D7E7FF",
"h 	c #5282CA",
"i 	c #5182CC",
"j 	c #EEF5FB",
"k 	c #BAD7F6",
"l 	c #AED1F3",
"m 	c #E4EFFA",
"n 	c #5786CC",
"o 	c #5281CF",
"p 	c #E7F1EF",
"q 	c #90BAE4",
"r 	c #C3DEF9",
"s 	c #E7F2FD",
"t 	c #5686CC",
"u 	c #4D7BC8",
"v 	c #ECF3FC",
"w 	c #E8F1FA",
"x 	c #E7F0FA",
"y 	c #E9F1FB",
"z 	c #EAF2FB",
"{ 	c #90B9E4",
"| 	c #CBE3FB",
"} 	c #C1DCFA",
"~ 	c #E8F3FE",
" !	c #5585CC",
"!!	c #4978C7",
"#!	c #4A78C8",
"$!	c #4474C8",
"%!	c #4474C7",
"&!	c #D2E5FF",
"'!	c #CBE2FF",
"(!	c #5484CB",
")!	c #EFF6FB",
"*!	c #5482CC",
"+!	c #E8F2EF",
",!	c #5580CE",
"-!	c #4878C7",
".!	c #EBF2FB",
"0!	c #EEF4FD",
"1!	c #537FCA",
"2!	c #4172C4",
"3!	c #4474C5",
"4!	c #4574C8",
"5!	c #4373C4",
"6!	c #527ECA",
"! # $ % & ' ( )                 ",
"+ , - . 0 1 2 3 4               ",
"5 6 7 8 9 : ; < = >             ",
"? @ A B C D E F G H             ",
"? I J K L M N O P P Q R S )     ",
"T U V V W X Y Z - . 0 1 2 3 4   ",
"[ ] ^ _ ` a b 6 7 8 9 : ; < = > ",
"c d e f e g P @ A B C D E F G h ",
"i j e f e g P I J K L M k l m n ",
"o p e f e g q U V V W X r D s t ",
"u v w x y z { ] ^ _ ` a | } ~  !",
"!!#!$!%!$!%!c d e f e g &!'!d (!",
"            i j e f e g &!'!)!*!",
"            o p e f e g &!'!+!,!",
"            -!v w x y z z .!0!1!",
"            2!3!$!%!$!%!%!4!5!6!"};