/* XPM */ 
static char * cplusplus_xpm[] = {
"16 16 85 1",
" 	c None",
"!	c black",
"#	c #F8F8F8",
"$	c #FBFBFB",
"%	c #FCFCFC",
"&	c #939393",
"'	c #F4F4F4",
"(	c #F5F5F5",
")	c #F1F1F1",
"*	c #EFEFEF",
"+	c #E9E9E9",
",	c #E7E7E7",
"-	c #949494",
".	c #F7F7F7",
"0	c #F9F9F9",
"1	c #F3F3F3",
"2	c #F0F0F0",
"3	c #EAEAEA",
"4	c #F6F6F6",
"5	c #989898",
"6	c #4673BC",
"7	c #8DB2E9",
"8	c #8DB2E8",
"9	c #A6BEEB",
":	c #C9D7F0",
";	c #F2F2F2",
"<	c #EBEBEB",
"=	c #82ADE9",
">	c #93B8EC",
"?	c #96B6EA",
"@	c #93B3E9",
"A	c #8AB0E8",
"B	c #88A9E7",
"C	c #ECECEC",
"D	c #E6E6E6",
"E	c #5E94E2",
"F	c #98BAEC",
"G	c #4774C0",
"H	c #A3B9EA",
"I	c #76A1E4",
"J	c #EBEFF8",
"K	c #B0C8EC",
"L	c #F1F2F4",
"M	c #ACC3E8",
"N	c #EDEDED",
"O	c #85AEE9",
"P	c #8CB2E9",
"Q	c #305397",
"R	c #ADBEEB",
"S	c #E8EDF8",
"T	c #7FA5E2",
"U	c #F0F3F7",
"V	c #7EA5E1",
"W	c #82AAE7",
"X	c #85ADE8",
"Y	c #294686",
"Z	c #8EB0E5",
"[	c #77A0E0",
"]	c #D8E2F1",
"^	c #6799E2",
"_	c #87ADE8",
"`	c #3054A9",
"a	c #87A0E3",
"b	c #CED8F2",
"c	c #F3F6F9",
"d	c #7FA5E1",
"e	c #3E6DD6",
"f	c #80A8E6",
"g	c #6192DD",
"h	c #D4DDF3",
"i	c #EFF1F9",
"j	c #869FE3",
"k	c #6895E0",
"l	c #CED7F1",
"m	c #F5F7F9",
"n	c #B0C8EB",
"o	c #3660D0",
"p	c #5D8DDB",
"q	c #6D9AE2",
"r	c #6494E0",
"s	c #608FDE",
"t	c #A7B7E9",
"u	c #FAFAFA",
"v	c #C4D0EF",
"w	c #C3CFEF",
"                ",
"   #$%%%%%%#&   ",
"   $'((()*+%,-  ",
"   %.0..123%4'5 ",
"  6789:.4;<%%%% ",
" =>?@AB$#()C3D% ",
"EFG%%HIJK#LM*N% ",
"OPQ%%%RST$UV1;% ",
"WXY%%%Z[[[[[[]% ",
"^_`%%%abT%cd0#% ",
"efghijklK$mn##% ",
" opqrst$$uuuuu% ",
"   vw%%%$$$$$$% ",
"   %%%%%%%%%%%% ",
"   0%%%%%%%%%%0 ",
"                "};