/* XPM */ 
static char * cplusplus_xpm[] = {
"16 16 178 2",
"  	c None",
"! 	c black",
"# 	c #437CC0",
"$ 	c #4C8AC8",
"% 	c #4E8BC8",
"& 	c #4E8CC8",
"' 	c #4E8BC9",
"( 	c #4E8AC7",
") 	c #4A88C4",
"* 	c #3A75C3",
"+ 	c #4884C3",
", 	c #ECF2F7",
"- 	c #EEF4F8",
". 	c #EDF4F8",
"0 	c #EDF3F8",
"1 	c #ECF2F8",
"2 	c #D7E6F2",
"3 	c #7CB1E2",
"4 	c #6493DB",
"5 	c #4A87C4",
"6 	c #F2F6FA",
"7 	c #C7E0FA",
"8 	c #C9E1FB",
"9 	c #C9E2FB",
": 	c #C8E0FB",
"; 	c #C4DFF9",
"< 	c #C0DBF8",
"= 	c #B7D6F4",
"> 	c #F8FBFF",
"? 	c #B3D8F6",
"@ 	c #7CAFE1",
"A 	c #6391DB",
"B 	c #4B88C5",
"C 	c #F1F5F9",
"D 	c #CDE3FC",
"E 	c #CEE3FB",
"F 	c #CDE3FB",
"G 	c #CBE2FB",
"H 	c #C8E0F9",
"I 	c #C1DCF8",
"J 	c #B9D6F5",
"K 	c #F8FBFD",
"L 	c #CDE6FC",
"M 	c #C9E5FA",
"N 	c #83B5E2",
"O 	c #4178BE",
"P 	c #4581C3",
"Q 	c #4673BC",
"R 	c #8DB2E9",
"S 	c #8DB2E8",
"T 	c #A6BEEB",
"U 	c #C9D7F0",
"V 	c #CAE1FA",
"W 	c #C3DDF9",
"X 	c #BBD9F6",
"Y 	c #DFE9F4",
"Z 	c #F3F7FB",
"[ 	c #447DC1",
"] 	c #82ADE9",
"^ 	c #93B8EC",
"_ 	c #96B6EA",
"` 	c #93B3E9",
"a 	c #8AB0E8",
"b 	c #88A9E7",
"c 	c #D1E4FC",
"d 	c #C8E0FA",
"e 	c #BAD6F5",
"f 	c #B4D4F3",
"g 	c #5E94E2",
"h 	c #98BAEC",
"i 	c #4774C0",
"j 	c #D7E7FE",
"k 	c #D6E7FD",
"l 	c #A3B9EA",
"m 	c #76A1E4",
"n 	c #D4E6FD",
"o 	c #B0C8EC",
"p 	c #CCE1FB",
"q 	c #C7DFFA",
"r 	c #ACC3E8",
"s 	c #BCDAF6",
"t 	c #FDFEFE",
"u 	c #4582C5",
"v 	c #85AEE9",
"w 	c #8CB2E9",
"x 	c #305397",
"y 	c #D8E8FE",
"z 	c #D7E8FE",
"{ 	c #ADBEEB",
"| 	c #D6E7FE",
"} 	c #7FA5E2",
"~ 	c #7EA5E1",
" !	c #C2DDF9",
"!!	c #4481C5",
"#!	c #82AAE7",
"$!	c #85ADE8",
"%!	c #294686",
"&!	c #D6E8FE",
"'!	c #8EB0E5",
"(!	c #77A0E0",
")!	c #D8E2F1",
"*!	c #417FC5",
"+!	c #6799E2",
",!	c #87ADE8",
"-!	c #3054A9",
".!	c #87A0E3",
"0!	c #CED8F2",
"1!	c #CDE2FC",
"2!	c #7FA5E1",
"3!	c #CBE1FB",
"4!	c #3E7BC4",
"5!	c #3E6DD6",
"6!	c #80A8E6",
"7!	c #6192DD",
"8!	c #D4DDF3",
"9!	c #D3E5FD",
":!	c #869FE3",
";!	c #6895E0",
"<!	c #CED7F1",
"=!	c #CEE2FC",
">!	c #CCE2FC",
"?!	c #B0C8EB",
"@!	c #C9E0FB",
"A!	c #3A75C0",
"B!	c #3660D0",
"C!	c #5D8DDB",
"D!	c #6D9AE2",
"E!	c #6494E0",
"F!	c #608FDE",
"G!	c #A7B7E9",
"H!	c #53B4F7",
"I!	c #52B3F8",
"J!	c #52B1F8",
"K!	c #51B2F7",
"L!	c #4EB1F7",
"M!	c #356EBE",
"N!	c #DFEBF5",
"O!	c #C4D0EF",
"P!	c #C3CFEF",
"Q!	c #6DC1FD",
"R!	c #9FD8FF",
"S!	c #9DD7FF",
"T!	c #9AD6FF",
"U!	c #97D7FF",
"V!	c #95D6FF",
"W!	c #94D6FF",
"X!	c #64BDFB",
"Y!	c #3066BA",
"Z!	c #3770BE",
"[!	c #67BEFD",
"]!	c #66BCFC",
"^!	c #63BDFC",
"_!	c #61BCFC",
"`!	c #62BCFB",
"a!	c #60BBFB",
"b!	c #5FBDFC",
"c!	c #61BBFC",
"d!	c #2C63B8",
"e!	c #3268BB",
"f!	c #EAF1F8",
"g!	c #DFECF7",
"h!	c #DEEBF6",
"i!	c #DEEAF6",
"j!	c #DCEAF6",
"k!	c #EBF3FA",
"l!	c #EAF2FA",
"m!	c #F3F7FC",
"n!	c #F4F8FC",
"o!	c #295FB6",
"p!	c #3369BA",
"q!	c #2F64B9",
"r!	c #3065BA",
"s!	c #2F65B9",
"t!	c #2E64B9",
"u!	c #2D64B8",
"v!	c #2D63B8",
"w!	c #2B61B6",
"x!	c #2D61B6",
"  # $ % % % % & ' ( ) *         ",
"  + , - . 0 0 0 1 , 2 3 4       ",
"  5 6 7 8 9 : ; < = > ? @ A     ",
"  B C D E F G H I J K L M N O   ",
"  P Q R S T U D V W X Y , Z [   ",
"  ] ^ _ ` a b c F d I e f K P   ",
"g h i j k l m n o p q r s t u   ",
"v w x y y z { | } c p ~  !K !!  ",
"#!$!%!&!z k '!(!(!(!(!(!(!)!*!  ",
"+!,!-!| k k .!0!} c 1!2!3!K 4!  ",
"5!6!7!8!9!:!;!<!o =!>!?!@!t A!  ",
"  B!C!D!E!F!G!H!I!J!K!K!L!K M!  ",
"  [ N!O!P!Q!R!S!T!U!V!W!X!t Y!  ",
"  Z!N![!]!X!^!^!_!`!a!b!c!K d!  ",
"  e!f!g!h!i!j!j!k!k!l!m!n!t o!  ",
"  p!q!r!s!s!s!q!t!u!u!v!v!w!x!  "};