/* XPM */ 
static const char * const cut_xpm[] = {
"16 16 87 1",
" 	c None",
"!	c black",
"#	c #427DA9",
"$	c #417CA7",
"%	c #8AAFCC",
"&	c #4680A9",
"'	c #9EBCD6",
"(	c #4A7FA8",
")	c #4A82AB",
"*	c #AEC9DE",
"+	c #7BA3C2",
",	c #628FB4",
"-	c #4F86AE",
".	c #C0D5E7",
"0	c #82A6C4",
"1	c #9CBBD5",
"2	c #6392B4",
"3	c #5288B0",
"4	c #CEDFEE",
"5	c #1F6596",
"6	c #7BA2C1",
"7	c #C4D8E9",
"8	c #4D81A8",
"9	c #568BB2",
":	c #D4E2F1",
";	c #8DB1CE",
"<	c #E0EBF5",
"=	c #497EA5",
">	c #598DB3",
"?	c #DDEAF6",
"@	c #B3CDE1",
"A	c #5C8CB0",
"B	c #A6251A",
"C	c #B93329",
"D	c #9C1B11",
"E	c #6897BA",
"F	c #D0E0F0",
"G	c #5E90B6",
"H	c #B8342B",
"I	c #CF453B",
"J	c #CA3D32",
"K	c #D74B3E",
"L	c #99BBD8",
"M	c #E1EAF6",
"N	c #5991BA",
"O	c #A8271C",
"P	c #CC453A",
"Q	c #8F1107",
"R	c #D4473A",
"S	c #9BBCDB",
"T	c #A5CCEE",
"U	c #DE4B3F",
"V	c #D14239",
"W	c #97180F",
"X	c #C23B31",
"Y	c #AC2D22",
"Z	c #A72419",
"[	c #D24F41",
"]	c #74A2CB",
"^	c #D64E40",
"_	c #A22015",
"`	c #BF382E",
"a	c #BD372D",
"b	c #BC392E",
"c	c #C93E34",
"d	c #B22F24",
"e	c #DD493E",
"f	c #AB291E",
"g	c #B12F23",
"h	c #C53B31",
"i	c #9C1A11",
"j	c #C84036",
"k	c #96180F",
"l	c #C73C31",
"m	c #CF4036",
"n	c #AA281E",
"o	c #B32C22",
"p	c #CC3F34",
"q	c #A7261B",
"r	c #C43D33",
"s	c #9A1B12",
"t	c #D94A3F",
"u	c #BE342B",
"v	c #D1463C",
"w	c #A8261C",
"x	c #A5261B",
"y	c #AE2C21",
"        #       ",
"       $%       ",
"       &'    (  ",
"       )*   +,  ",
"       -.  012  ",
"       345678   ",
"       9:;<=    ",
"       >?@A     ",
"    BCDEFG      ",
"   HIJKLMN      ",
"  OP QRSTUVW    ",
"  XY Z[]^_`a    ",
"  bcdefgh ij    ",
"  klmn op qr    ",
"       stuvw    ",
"        xcy     "};