/* XPM */ 
static char * dateadd_xpm[] = {
"16 16 113 2",
"  	c None",
"! 	c black",
"# 	c #909090",
"$ 	c #9A9A9A",
"% 	c #DC0000",
"& 	c #C70000",
"' 	c #CBB4B4",
"( 	c #E6E6E6",
") 	c #C9B2B2",
"* 	c #CEB7B7",
"+ 	c #CDB5B5",
", 	c #D20707",
"- 	c #D6C3C3",
". 	c #E3E3E3",
"0 	c #D5C3C3",
"1 	c #D00303",
"2 	c #ED0202",
"3 	c #CF0101",
"4 	c #D6C4C4",
"5 	c #CF0000",
"6 	c #DA0B0B",
"7 	c #ADA0A0",
"8 	c #E0E0E0",
"9 	c #AD9E9E",
": 	c #CE1313",
"; 	c #E11212",
"< 	c #E10E0E",
"= 	c #CC0909",
"> 	c #AD9D9D",
"? 	c #D70000",
"@ 	c #EB0F0F",
"A 	c #BC2727",
"B 	c #971B1B",
"C 	c #BB1E1E",
"D 	c #DD1D1D",
"E 	c #DF1A1A",
"F 	c #DE1515",
"G 	c #D71212",
"H 	c #B40D0D",
"I 	c #910808",
"J 	c #B30606",
"K 	c #E60101",
"L 	c #F31313",
"M 	c #E93A3A",
"N 	c #E83232",
"O 	c #E72C2C",
"P 	c #E32727",
"Q 	c #E12222",
"R 	c #DF1D1D",
"S 	c #DD1A1A",
"T 	c #DC1616",
"U 	c #DB1313",
"V 	c #DC1111",
"W 	c #ED0404",
"X 	c #C9C9C9",
"Y 	c #FCFCFC",
"Z 	c #FBFBFB",
"[ 	c #F7F7F7",
"] 	c white",
"^ 	c #F5F5F5",
"_ 	c #CBCBCB",
"` 	c #EEEEEE",
"a 	c #CACACA",
"b 	c #C7C7C7",
"c 	c #B7B7B7",
"d 	c #FEFEFE",
"e 	c #AEAEAE",
"f 	c #F9F9F9",
"g 	c #E8E8E8",
"h 	c #C1C1C1",
"i 	c #FAFAFA",
"j 	c #F8F8F8",
"k 	c #C8C8C8",
"l 	c #ADADAD",
"m 	c #BBBBBB",
"n 	c #ABBDA0",
"o 	c #74985F",
"p 	c #658D4E",
"q 	c #608848",
"r 	c #89A07C",
"s 	c #90A384",
"t 	c #80AA60",
"u 	c #B3D494",
"v 	c #D0E6B9",
"w 	c #8EBA69",
"x 	c #568E2C",
"y 	c #366A18",
"z 	c #BDBDBD",
"{ 	c #608948",
"| 	c #B0D38F",
"} 	c #B0D691",
"~ 	c #8BBB64",
" !	c #8EBB66",
"!!	c #F3F3F3",
"#!	c #4B7A30",
"$!	c #B5D49B",
"%!	c #B1D294",
"&!	c #EFEFEF",
"'!	c #F6F6F6",
"(!	c #3E6F21",
")!	c #8AB961",
"*!	c #86B95F",
"+!	c #86B85F",
",!	c #949494",
"-!	c #BEBEBE",
".!	c #C2C2C2",
"0!	c #7A946A",
"1!	c #528B27",
"2!	c #8CB963",
"3!	c #838383",
"4!	c #607C50",
"5!	c #3B6C1E",
"6!	c #5A7749",
"        #             $         ",
"  % & ' ( ) & % % & * ( + & %   ",
"  % , - . 0 1 2 2 3 4 . - 5 %   ",
"  % 6 7 8 9 : ; < = > 8 > ? %   ",
"  % @ A B C D E F G H I J K %   ",
"  % L M N O P Q R S T U V W %   ",
"  X Y Y Y Y Y Y Y Z [ [ ] Y X   ",
"  X Y Y Y ^ _ ` a b c ] d Y X   ",
"  X Y Y Y _ e Z f g h Z i j k   ",
"  X Y Z Y Y l i j m n o p q r   ",
"  X Y Z Z Z l i g s t u v w x y ",
"  X Y Z Z Z l f z { | } ] ~  !y ",
"  X Z Z Z Z Z j !!#!$!] ] ] %!y ",
"  m &!Z Y Y Y f '!(!)!*!] +! !y ",
"  ,!-!.!.!.!.!.!.!0!1!2!%!2!1!y ",
"  3!# # # # # # # # 4!5!y 5!6!  "};