/* XPM */ 
static char * delete_xpm[] = {
"16 16 92 1",
" 	c None",
"!	c black",
"#	c #F75A5C",
"$	c #FF7679",
"%	c #FE7578",
"&	c #F86063",
"'	c #F96769",
"(	c #F35053",
")	c #FF7D80",
"*	c #FE7D80",
"+	c #FD7073",
",	c #F85E61",
"-	c #FB6C6E",
".	c #FF7B7D",
"0	c #F04649",
"1	c #FE7073",
"2	c #FE797C",
"3	c #FF8689",
"4	c #FD787B",
"5	c #FB686B",
"6	c #F85D60",
"7	c #FA6B6D",
"8	c #FF797C",
"9	c #F75E60",
":	c #F04548",
";	c #FC6A6D",
"<	c #FD7376",
"=	c #FF8185",
">	c #FC7275",
"?	c #F86163",
"@	c #F75C5F",
"A	c #FA696C",
"B	c #FF787A",
"C	c #EF4447",
"D	c #F96265",
"E	c #FB6C6F",
"F	c #FF7D7F",
"G	c #FF7A7D",
"H	c #FF787B",
"I	c #FF7678",
"J	c #F75B5D",
"K	c #EF4346",
"L	c #F6595C",
"M	c #FF787C",
"N	c #FF5A5D",
"O	c #FF575A",
"P	c #FF7375",
"Q	c #EF4245",
"R	c #FF7578",
"S	c #FF5558",
"T	c #FF5356",
"U	c #FF6F71",
"V	c #F04547",
"W	c #F6595B",
"X	c #FA6366",
"Y	c #FF7173",
"Z	c #FF6F72",
"[	c #FF6D6F",
"]	c #FF6B6D",
"^	c #F75456",
"_	c #EE3C3E",
"`	c #F6585A",
"a	c #FA6265",
"b	c #FF7073",
"c	c #F65759",
"d	c #EE4042",
"e	c #EC3B3D",
"f	c #F44C4F",
"g	c #FF6667",
"h	c #F54D4F",
"i	c #EB3335",
"j	c #F6575A",
"k	c #FA6164",
"l	c #FF6F70",
"m	c #F65558",
"n	c #EE3F41",
"o	c #E93134",
"p	c #F24446",
"q	c #FF6162",
"r	c #F44749",
"s	c #E92C2E",
"t	c #F55557",
"u	c #FA6062",
"v	c #F65457",
"w	c #ED3E40",
"x	c #E6292B",
"y	c #F13E40",
"z	c #F6494B",
"{	c #EA2E30",
"|	c #F24B4E",
"}	c #ED3D3F",
"~	c #E42123",
"                ",
"            #   ",
"   $%      &'(  ",
"  $)*+    ,-.,0 ",
"  12345  6789:  ",
"   ;<=>?@AB@C   ",
"    DEFGHIJK    ",
"     LMNOPQ     ",
"     #RSTUV     ",
"    WXYZ[]^_    ",
"   `abcdefghi   ",
"  jklmn  opqrs  ",
"  tuvw    xyz{  ",
"   |}      ~{   ",
"                ",
"                "};