/* XPM */
static const char *dnd_none_xpm[] = {
/* columns rows colors chars-per-pixel */
"32 32 3 1",
"X c Black",
". c #FFFFFF",
"  c None",
/* pixels */
"                                ",
"                                ",
"                                ",
"                                ",
"                                ",
"                                ",
"             ......             ",
"           ..XXXXXX..           ",
"          .XXXXXXXXXX.          ",
"         .XXXX....XXXX.         ",
"        .XXX..    ..XXX.        ",
"       .XXXXX.      .XXX.       ",
"       .XX.XXX.      .XX.       ",
"      .XXX..XXX.     .XXX.      ",
"      .XX.  .XXX.     .XX.      ",
"      .XX.   .XXX.    .XX.      ",
"      .XX.    .XXX.   .XX.      ",
"      .XX.     .XXX.  .XX.      ",
"      .XXX.     .XXX..XXX.      ",
"       .XX.      .XXX.XX.       ",
"       .XXX.      .XXXXX.       ",
"        .XXX..     .XXX.        ",
"         .XXXX.....XXX.         ",
"          .XXXXXXXXXX.          ",
"           ..XXXXXX..           ",
"             ......             ",
"                                ",
"                                ",
"                                ",
"                                ",
"                                ",
"                                "
};
