/* XPM */
static const char *dnd_copy_xpm[] = {
/* columns rows colors chars-per-pixel */
"32 32 3 1",
"  c Black",
"X c #FFFFFF",
". c None",
/* pixels */
" ...............................",
"  ..............................",
" X .............................",
" XX ............................",
" XXX ...........................",
" XXXX ..........................",
" XXXXX .........................",
" XXXXXX ........................",
" XXXXXXX .......................",
" XXXXXXXX ......................",
" XXXXX     .....................",
" XX XX .........................",
" X . XX ........................",
"  .. XX ........................",
" .... XX .......................",
"..... XX .......................",
".. X X XX  X X .................",
"..X X  XX X X X.................",
".. X...   ...X .................",
"..X ......... X.................",
".. X......           ...........",
"..X ...... XXXXXXXXX ...........",
".. X...... XXXXXXXXX ...........",
"..X X X X  XXXX XXXX ...........",
".. X X X X XXXX XXXX ...........",
".......... XX     XX ...........",
".......... XXXX XXXX ...........",
".......... XXXX XXXX ...........",
".......... XXXXXXXXX ...........",
".......... XXXXXXXXX ...........",
"..........           ...........",
"................................"
};
