/* XPM */ 
static char * dotmatchnewline_xpm[] = {
"16 16 21 1",
" 	c None",
"!	c black",
"#	c #E2E2E2",
"$	c #9E9E9E",
"%	c #D1D1D1",
"&	c #C9C9C9",
"'	c #929292",
"(	c #AAC0E2",
")	c #ADC3E2",
"*	c #D9D9D9",
"+	c #8A8A8A",
",	c #838383",
"-	c #9B9B9B",
".	c #BCCEEB",
"0	c #2558AB",
"1	c #ADC3E4",
"2	c #BDD0F0",
"3	c #3D6BBB",
"4	c #A2BDE4",
"5	c #A1BEEB",
"6	c #A4C0EB",
"                ",
"                ",
"                ",
"            #   ",
"            $   ",
"            $   ",
"         %  $   ",
"        &'  $   ",
"   ()  *+,--#   ",
"  .001  &'      ",
"  2334   %      ",
"   56           ",
"                ",
"                ",
"                ",
"                "};