/* XPM */
static char *dotmatchnewline_xpm[] = {
/* columns rows colors chars-per-pixel */
"16 15 32 1",
"= c Black",
"; c #D9D9D9",
"5 c #080808",
"3 c #D2D2D2",
"  c None",
"+ c #808080",
"X c #9E9E9E",
"1 c #ADADAD",
"< c #E2E2E2",
"q c #CDCDCD",
". c #FAFAFA",
": c #8A8A8A",
"> c #838383",
"% c #929292",
"# c #A1A1A1",
"- c #DDDDDD",
"O c #ECECEC",
"0 c #A9A9A9",
"4 c #C7C7C7",
"7 c #E5E5E5",
"w c #FCFCFC",
"@ c #505050",
", c #9B9B9B",
"* c #0D0D0D",
"6 c #2B2B2B",
"e c #FDFDFD",
"9 c #BABABA",
"$ c #C9C9C9",
"8 c #F6F6F6",
"& c #B3B3B3",
"2 c #070707",
"o c #D1D1D1",
/* pixels */
"                ",
"                ",
"                ",
"            .   ",
"            X   ",
"         o  X   ",
"  O+@#. $%  X   ",
"  &*=*-;:>,,<   ",
"  12==3 $%      ",
"  45=67  o      ",
"  890qw         ",
"    e           ",
"                ",
"                ",
"                "
};
