/* XPM */
static char *dotnewline_xpm[] = {
/* columns rows colors chars-per-pixel */
"16 15 25 1",
"6 c #B7FFFF",
"3 c #FFBE94",
"4 c #3C5313",
"= c #DBFFFF",
". c #DB9D44",
"< c #685394",
", c #915313",
"% c #3C9DDC",
"2 c #91BEFF",
": c #062844",
"X c #072912",
"1 c #B77944",
"5 c #06286D",
"  c None",
"; c #682813",
"$ c #3C2813",
"O c #FFDF94",
"* c #065394",
"+ c #3C2844",
"# c #68BEFF",
"- c #FFFFB9",
"& c #FFBE6D",
"o c #0679B9",
"> c #FFFFDC",
"@ c #91DFFF",
/* pixels */
"                ",
"                ",
"                ",
" .XXo           ",
"O+@.X#          ",
"O$%&X#          ",
"   .*=-;X:@>,*= ",
"  -<= &:@1@>,*= ",
"  O2  O$:@      ",
"       >,X#     ",
" >,o  &#O$%>,*= ",
" >,o  34X56>,*= ",
"                ",
"                ",
"                "
};
