/* XPM */ 
static const char * const down_xpm[] = {
"16 16 26 1",
" 	c None",
"!	c black",
"#	c #90A1B7",
"$	c #99A7B7",
"%	c #C4CDD7",
"&	c #AFBFD1",
"'	c #9FB0C4",
"(	c #B4C5D7",
")	c #ACBBCC",
"*	c #C9D6E4",
"+	c #B9C9DC",
",	c #AEBCCE",
"-	c #CDDAE9",
".	c #BECFE2",
"0	c #AFBDCF",
"1	c #D1DEED",
"2	c #C3D4E8",
"3	c #B0BED0",
"4	c #D4E2F1",
"5	c #C7D9ED",
"6	c #B1BFD1",
"7	c #D7E5F5",
"8	c #CBDDF2",
"9	c #B2C1D3",
":	c #DAE9F9",
";	c #B3C1D3",
"   ##########   ",
"   #$$$$$$$$#   ",
"   #%%%%%%%%#   ",
"   ##########   ",
"                ",
"   ##########   ",
"   #&&&&&&&&#   ",
"###'(((((((('###",
"#)*++++++++++*)#",
" #,-........-,# ",
"  #0122222210#  ",
"   #34555543#   ",
"    #678876#    ",
"     #9::9#     ",
"      #;;#      ",
"       ##       "};