/* XPM */ 
static char * encoding_xpm[] = {
"16 16 115 2",
"  	c None",
"! 	c black",
"# 	c #F9D9DF",
"$ 	c white",
"% 	c #ED778C",
"& 	c #DB0019",
"' 	c #DD0026",
"( 	c #F6C3CD",
") 	c #F8CBD3",
"* 	c #DB001E",
"+ 	c #DD032C",
", 	c #DA0019",
"- 	c #F094A5",
". 	c #E32C4E",
"0 	c #F9DBE1",
"1 	c #F6C7D0",
"2 	c #FDF6F7",
"3 	c #E53D5C",
"4 	c #DC0020",
"5 	c #DB001C",
"6 	c #FEFCFD",
"7 	c #E32D4F",
"8 	c #E42D4F",
"9 	c #FADCE2",
": 	c #ED788D",
"; 	c #DD0027",
"< 	c #F7C8D1",
"= 	c #F8D4DB",
"> 	c #DD072A",
"? 	c #DB0018",
"@ 	c #F19EAD",
"A 	c #FAE3E8",
"B 	c #E42E50",
"C 	c #F7C7D0",
"D 	c #FDF8F9",
"E 	c #EC7088",
"F 	c #DA0014",
"G 	c #E43656",
"H 	c #E95772",
"I 	c #E74765",
"J 	c #DF0E35",
"K 	c #FEFBFB",
"L 	c #FEFCFC",
"M 	c #FCEFF1",
"N 	c #DE0C2E",
"O 	c #EC758C",
"P 	c #F8D0D8",
"Q 	c #F5B5C1",
"R 	c #E22448",
"S 	c #FEFDFD",
"T 	c #EF899C",
"U 	c #EF8C9E",
"V 	c #FAE2E7",
"W 	c #F7C5CF",
"X 	c #F5B6C2",
"Y 	c #F6BEC9",
"Z 	c #FEFEFE",
"[ 	c #FCF0F2",
"] 	c #F8CFD7",
"^ 	c #FADEE3",
"_ 	c #EC7389",
"` 	c #DB021B",
"a 	c #F6C2CD",
"b 	c #F3A7B5",
"c 	c #E32B4C",
"d 	c #FEFFFF",
"e 	c #FBE0E5",
"f 	c #E3264B",
"g 	c #FADDE3",
"h 	c #FEFDFE",
"i 	c #F2A3B2",
"j 	c #DA0012",
"k 	c #DF1036",
"l 	c #FAE2E6",
"m 	c #F6BEC8",
"n 	c #D9000F",
"o 	c #F198A9",
"p 	c #FDF7F8",
"q 	c #DA0112",
"r 	c #F4B1BE",
"s 	c #F6BBC6",
"t 	c #F9D4DB",
"u 	c #EF8499",
"v 	c #DA0015",
"w 	c #DF1437",
"x 	c #FBE8EB",
"y 	c #DA0013",
"z 	c #E22B4A",
"{ 	c #FBE3E8",
"| 	c #F5BAC5",
"} 	c #DE0D2E",
"~ 	c #DD022A",
" !	c #E95973",
"!!	c #FCFCFD",
"#!	c #FAE0E5",
"$!	c #EE001F",
"%!	c #F42C4C",
"&!	c #FFC3D0",
"'!	c #FFFEFF",
"(!	c #FF9FB0",
")!	c #EF0A2E",
"*!	c #E90025",
"+!	c #ED012D",
",!	c #EF022C",
"-!	c #EE0024",
".!	c #FFD3DD",
"0!	c #FFEDF3",
"1!	c #F22F54",
"2!	c #040000",
"3!	c #030305",
"4!	c #020001",
"5!	c #020200",
"6!	c #000101",
"7!	c #000303",
"8!	c #000302",
"  # $ % & ' ( $ ) * + , - $ #   ",
". 0 $ % & ' 1 $ 2 3 4 5 - 6 0 7 ",
"8 9 $ : & ; < $ $ = > ? @ $ A B ",
"8 9 $ : & ; C $ D $ E F G H I J ",
"8 9 $ : & ; < $ K L M N O P Q R ",
"8 9 $ : & ; C $ D S $ T U $ V B ",
"8 9 $ : & ; W $ X Y Z [ ] S ^ 8 ",
"B 9 $ _ ` ' a $ b c L S d $ e 8 ",
"f g h i j k l 6 m n o $ p $ e 8 ",
"q r $ L s t Z $ u v w x h $ e 8 ",
"y z { $ $ $ $ | } ~ 5  !!!$ #!. ",
"  $!%!&!$ '!(!)!*!+!,!-!.!$ 0!1!",
"          2!    3!  4!5!        ",
"! ! 6!7!! ! 8!!   ! ! ! 6!! !   ",
"  ! ! ! ! ! ! !   ! ! ! ! ! !   ",
"  !       !     !     !         "};