/* XPM */
static char *encoding_xpm[] = {
/* columns rows colors chars-per-pixel */
"16 16 121 2",
";. c #9190FC",
"G  c #C9C9FC",
"n  c #8C8CFC",
"@. c #9E9FFC",
"Y  c #6666FC",
"O. c #BFBEFC",
"u  c #BABAFD",
"#. c #9E9CFC",
"9. c #8F90FC",
"+  c #5757FD",
"H  c #FFFFFE",
"%  c #8A89FD",
";  c #D4D5FC",
"`  c #A1A0FE",
"Q  c #9C9CFD",
"l  c #CFCEFC",
"'  c #9291FD",
"A  c #C5C6FC",
"x  c #5554FC",
"R  c #8D8DFD",
"B  c #5554FD",
"b  c #A4A4FC",
"7. c #9FA0FC",
"!  c #A4A4FD",
"@  c #5858FD",
"D  c #E9E9FC",
"-  c #5354FF",
"|  c #A7A8FC",
"1  c #ACACFE",
">. c #BEBFFC",
"0  c #DADAFC",
"$. c #9D9DFC",
"5. c #9899FC",
"W  c #9D9DFD",
"f  c #6060FD",
"6. c #AAA9FC",
"L  c #A5A5FD",
"y  c #B7B8FD",
"w  c #9696FC",
">  c #5455FD",
"O  c #5455FE",
"   c #5455FF",
"P  c #ADADFD",
"<  c #FCFDFF",
")  c #999AFD",
"T  c #9E9EFE",
"S  c #F2F2FD",
"%. c #B0B1FC",
"j  c #5756FE",
"2  c #FAFAFD",
"9  c #FAFAFE",
"r  c #B8B9FD",
"E  c #9C9BFC",
"X. c #9797FC",
"3. c #C5C5FB",
"C  c #FDFEFB",
"t  c #C5C5FD",
"8. c #A4A3FB",
"Z  c #DCDCFC",
"X  c #6262FE",
"$  c #BBBAFE",
"/  c #9090FE",
"2. c #A7A7FB",
"(  c #A2A3FD",
"q  c #FBFBFD",
"4  c #D0D1FC",
"[  c #9898FE",
":. c #B4B3FB",
",  c #5B5BFF",
".. c #8E8DFC",
":  c #DDDDFC",
"}  c #9B9CFC",
"J  c #D8D9FE",
"d  c #B7B7FD",
"-. c #9191FC",
"a  c #C9CAFE",
"^  c #A8A8FD",
"=  c #6B6BFD",
"h  c #C4C3FD",
"4. c #9999FC",
"_  c #9999FD",
"I  c #9495FC",
"=. c #B0B0FC",
"V  c #A6A5FC",
" . c #A1A1FD",
"F  c #6464FC",
",. c #807FFB",
"k  c #F5F5FC",
"1. c #B8B8FC",
"6  c #807FFC",
"z  c #5555FC",
"8  c #5555FD",
"o  c #5555FE",
"e  c #5555FF",
"m  c #FDFDFB",
"v  c #FDFDFC",
"+. c #C0C0FC",
"*  c #BBBCFC",
"#  c #5859FE",
"g  c #EEEEFC",
"c  c #7474FC",
"*. c #8B8BFC",
"o. c #A7A6FC",
"p  c #6565FC",
"i  c #F1F2FC",
"&  c #B9B9FD",
"&. c #9393FB",
"M  c #ECEBFB",
"5  c #5656FE",
"]  c #A5A6FD",
"3  c #FEFEFD",
"7  c #8484FC",
"{  c #9B9BFB",
"<. c #9B9BFC",
"s  c #D8D8FD",
"~  c #9B9BFD",
"N  c #D8D8FE",
".  c #6362FE",
"U  c #5E5EFE",
"0. c #B2B2FC",
"K  c #7A79FD",
/* pixels */
"                              . ",
"                              X ",
"    o O       o o O     + @ O X ",
"  # $ %     # & * = O - ; : > X ",
"  , < 1     , 2 3 4 5   6 7 8 X ",
"  , < 1     , 9 0 q w e r t > X ",
"  , < 1     , 2 y u i p a s O X ",
"  , < 1     , 2 d f g h a s O X ",
"  j k l z x c v b 8 n m M N O X ",
"  B V C Z A S D F O   G H J O X ",
"  O o K L P I U O   O Y T R O X ",
"      O O O o         O   O O X ",
"e e e e e e e e e e e e e e e X ",
"E W Q ! ~ ~ ^ / ( ) _ ` ' ] [ { ",
"} |  ...w X.o.O.+.@.#.$.%.&.*.=.",
"-.;.:.>.,.<.1.2.3.4.5.6.7.8.9.0."
};
