/* XPM */ 
static char * encoding_xpm[] = {
"16 16 73 1",
" 	c None",
"!	c black",
"#	c #3A3A34",
"$	c #89897A",
"%	c #878778",
"&	c #888879",
"'	c #8A8A7B",
"(	c #3E3E37",
")	c #8D8D7E",
"*	c white",
"+	c #FFFFFE",
",	c #FFFFFD",
"-	c #949584",
".	c #8C8C7D",
"0	c #FDFDFF",
"1	c #FCFCFF",
"2	c #ECEBEC",
"3	c #969685",
"4	c #8B8B7C",
"5	c #FEFEFE",
"6	c #FCFCFD",
"7	c #FEFEFD",
"8	c #F5F5F4",
"9	c #D1D1D1",
":	c #ADAFB0",
";	c #8C9496",
"<	c #64655A",
"=	c #F9F9FB",
">	c #CBCBCC",
"?	c #808D93",
"@	c #ACBAC2",
"A	c #B4C6D7",
"B	c #A0B0BD",
"C	c #7D878D",
"D	c #FBFBFC",
"E	c #FAFAFA",
"F	c #AEB0B1",
"G	c #AFBEC7",
"H	c #99A5AC",
"I	c #98935E",
"J	c #BAC4B6",
"K	c #9DACB8",
"L	c #DEDEDE",
"M	c #7E888C",
"N	c #B5C7D5",
"O	c #979059",
"P	c #BEA11B",
"Q	c #98914D",
"R	c #B5C8DD",
"S	c #676F71",
"T	c #FBFBFA",
"U	c #B1B3B3",
"V	c #A9BAC9",
"W	c #B5BB9E",
"X	c #948945",
"Y	c #A9B7BD",
"Z	c #A0AEB7",
"[	c #CBCCCC",
"]	c #818D92",
"^	c #A5B5C4",
"_	c #B4C8DC",
"`	c #A1AFB8",
"a	c #7A848A",
"b	c #FBFBFF",
"c	c #F5F5F7",
"d	c #D4D4D5",
"e	c #B0B1B3",
"f	c #889195",
"g	c #65655A",
"h	c #FBFBF0",
"i	c #989887",
"j	c #868677",
"k	c #8F8F81",
"                ",
"                ",
"   #$%&%&%'(    ",
"   )*+**,**-    ",
"   .010**023    ",
"   456789:;<    ",
"   .*=*>?@ABC   ",
"   .*DEFGHIJK   ",
"   .**LMNOPQRS  ",
"   .*DTUVWXYZ   ",
"   45=*[]^_`a   ",
"   .0b0cdefg    ",
"   )*++***hi    ",
"   #$%&%j&k(    ",
"                ",
"                "};