/* XPM */ 
static char * filesave_xpm[] = {
"16 16 22 1",
" 	c None",
"!	c #5F666D",
"#	c black",
"$	c #1B4467",
"%	c #65839D",
"&	c white",
"'	c #5D7C93",
"(	c #7A90AC",
")	c #BCBDBE",
"*	c #305F81",
"+	c #A5B0BA",
",	c #B7BFC7",
"-	c #C6CCD3",
".	c #D2D9E0",
"0	c #E1E6EE",
"1	c #446A8C",
"2	c #C0C7D1",
"3	c #D5D6D8",
"4	c #DCE2EA",
"5	c #C3C5C8",
"6	c #CAD2DC",
"7	c #D6DFE7",
"!!!!!!!!!!!!!!! ",
"!$%&&&&&&&&&'$! ",
"!(%&)))))))&'(! ",
"!(%&&&&&&&&&'(! ",
"!(%&)))))))&'(! ",
"!(%&&&&&&&&&'(! ",
"!(('''''''''((! ",
"!(((((((((((((! ",
"!(((********((! ",
"!((*+++,-.0&*(! ",
"!((*+$11-.0&*(! ",
"!((*+$11234&*(! ",
"!((*+$11567&*(! ",
"!((*557&&&&&*(! ",
"!$((********($! ",
" !!!!!!!!!!!!!  "};