/* XPM */ 
static const char * const fileopen_xpm[] = {
"16 16 177 2",
"  	c None",
"! 	c black",
"# 	c #9CC2EA",
"$ 	c #95BEE6",
"% 	c #91BAE4",
"& 	c #6B9FD1",
"' 	c #6C9DD0",
"( 	c #5E95CC",
") 	c #4178C3",
"* 	c #95BDE5",
"+ 	c #FEFFFF",
", 	c #E9F3FD",
"- 	c #EAF3FD",
". 	c #E8F2FC",
"0 	c #E3EFFA",
"1 	c #E7F2FA",
"2 	c #87BAEA",
"3 	c #5484CF",
"4 	c #92BAE4",
"5 	c #EDF5FE",
"6 	c #C4DEFC",
"7 	c #C7E0FB",
"8 	c #C1DCF9",
"9 	c #B3D3F5",
": 	c #F3F9FE",
"; 	c #C3E2FA",
"< 	c #92C0EC",
"= 	c #477CC2",
"> 	c #F0F6FE",
"? 	c #CDE2FC",
"@ 	c #CDE3FC",
"A 	c #C8DFFA",
"B 	c #BBD9F7",
"C 	c #DDE9F5",
"D 	c #EBF3FA",
"E 	c #F3F8FB",
"F 	c #5282CA",
"G 	c #F1F7FE",
"H 	c #D2E5FC",
"I 	c #D1E4FC",
"J 	c #CCE2FB",
"K 	c #C3DDF9",
"L 	c #BAD7F6",
"M 	c #AED1F3",
"N 	c #E4EFFA",
"O 	c #5786CC",
"P 	c #D9B333",
"Q 	c #E1C15D",
"R 	c #E2C25F",
"S 	c #E2C25E",
"T 	c #90BAE4",
"U 	c #F2F7FF",
"V 	c #D5E7FE",
"W 	c #D1E5FD",
"X 	c #CAE0FA",
"Y 	c #C3DEF9",
"Z 	c #E7F2FD",
"[ 	c #5686CC",
"] 	c #DAB235",
"^ 	c #FEFEFD",
"_ 	c #FFFFFE",
"` 	c #FFFEFE",
"a 	c #FFFEFD",
"b 	c #90B9E4",
"c 	c #F0F7FF",
"d 	c #D5E7FF",
"e 	c #D6E7FD",
"f 	c #D4E6FD",
"g 	c #D0E4FC",
"h 	c #CBE3FB",
"i 	c #C1DCFA",
"j 	c #E8F3FE",
"k 	c #5585CC",
"l 	c #DAAE34",
"m 	c #FEFCF7",
"n 	c #F8E48D",
"o 	c #F5DE90",
"p 	c #F5E09E",
"q 	c #F6E1AB",
"r 	c #5183CA",
"s 	c #F1F7FF",
"t 	c #D9E9FF",
"u 	c #DBEAFF",
"v 	c #D7E7FF",
"w 	c #D2E5FF",
"x 	c #CBE2FF",
"y 	c #5484CB",
"z 	c #DAA935",
"{ 	c #FDFAF1",
"| 	c #F5DE93",
"} 	c #F4DC92",
"~ 	c #E9BB63",
" !	c #DA9334",
"!!	c #EFF6FB",
"#!	c #5482CC",
"$!	c #DAAA34",
"%!	c #FBF6E8",
"&!	c #E7BB6F",
"'!	c #E2A954",
"(!	c #E0A44C",
")!	c #EBC990",
"*!	c #EFF3FA",
"+!	c #FDFEFD",
",!	c #FCFDFF",
"-!	c #FCFDFE",
".!	c #FBFCFE",
"0!	c #FDFEFE",
"1!	c #E8F2EF",
"2!	c #5580CE",
"3!	c #DAA536",
"4!	c #FFFDF8",
"5!	c #FFFDF6",
"6!	c #FFFCF5",
"7!	c #FEFCF3",
"8!	c #F4E499",
"9!	c #F7E699",
":!	c #F6E69A",
";!	c #F5E59C",
"<!	c #F5E59D",
"=!	c #F4E59E",
">!	c #F8F3DA",
"?!	c #EEF4FD",
"@!	c #537FCA",
"A!	c #DAA035",
"B!	c #FEFCF6",
"C!	c #F8E593",
"D!	c #F8E592",
"E!	c #F8E590",
"F!	c #E9DB92",
"G!	c #E3D792",
"H!	c #DCD292",
"I!	c #D7CE8F",
"J!	c #CFC88B",
"K!	c #C5C085",
"L!	c #D6D8C9",
"M!	c #4373C4",
"N!	c #527ECA",
"O!	c #DA9935",
"P!	c #FDFAF2",
"Q!	c #F8E693",
"R!	c #F8E591",
"S!	c #F8E58F",
"T!	c #F8E38A",
"U!	c #F7E285",
"V!	c #F7E17E",
"W!	c #F6DE76",
"X!	c #F6DC6B",
"Y!	c #F4D95D",
"Z!	c #F3D54E",
"[!	c #FBF2CC",
"]!	c #FEFAEF",
"^!	c #F8E48E",
"_!	c #F8E388",
"`!	c #F7E181",
"a!	c #F7DF79",
"b!	c #F6DE70",
"c!	c #F5DB66",
"d!	c #F4D85A",
"e!	c #F3D44C",
"f!	c #F2D13F",
"g!	c #FBF2CA",
"h!	c #D98D32",
"i!	c #FAF0DC",
"j!	c #F6E197",
"k!	c #F6E094",
"l!	c #F6DF91",
"m!	c #F5DE8D",
"n!	c #F5DC88",
"o!	c #F4DA84",
"p!	c #F4D97F",
"q!	c #F3D779",
"r!	c #F3D573",
"s!	c #F2D36F",
"t!	c #F8EAC1",
"u!	c #D8852B",
"v!	c #D8872C",
"w!	c #D8862C",
"            # $ % % & ' ( )     ",
"            * + , - . 0 1 2 3   ",
"            4 5 6 7 8 9 : ; < = ",
"            % > ? @ A B C D E F ",
"            % G H I J K L M N O ",
"P Q R R R S T U V V W X Y B Z [ ",
"] ^ _ ` a _ b c d e f g h i j k ",
"l m n o p q r s t u t v w x s y ",
"z { | } ~  ! ! ! ! ! ! ! ! !!!#!",
"$!%!&!'!(!)!*!+!,!,!-!.!0! !1!2!",
"3!_ 4!5!6!7!8!9!:!;!<!=!>! !?!@!",
"A!B!C!D!D!E!F!G!H!I!J!K!L! !M!N!",
"O!P!Q!R!S!T!U!V!W!X!Y!Z![! !    ",
" !]!D!^!_!`!a!b!c!d!e!f!g! !    ",
"h!i!j!k!l!m!n!o!p!q!r!s!t! !    ",
"u!v!w!v!v!v!v!v!v!v!v!w!v!u!    "};