/* XPM */ 
static char * filesave_xpm[] = {
"16 16 156 2",
"  	c None",
"! 	c #356ABB",
"# 	c #356ABA",
"$ 	c #3569BA",
"% 	c #386BBB",
"& 	c #3A6DBC",
"' 	c #396CBA",
"( 	c #376ABA",
") 	c #3D6FBA",
"* 	c #3468B5",
"+ 	c black",
", 	c #D1E0F6",
"- 	c #D1E0F7",
". 	c #F8FBFE",
"0 	c #F7FBFE",
"1 	c #F6F9FD",
"2 	c #F0F5FC",
"3 	c #EAF0FA",
"4 	c #EDF2FB",
"5 	c #F7FAFD",
"6 	c #EBF1FB",
"7 	c #DFE9F8",
"8 	c #BCD0EC",
"9 	c #5D88C9",
": 	c #3468B4",
"; 	c #D1DFF6",
"< 	c #7FA9E9",
"= 	c #F6FAFE",
"> 	c #F6FAFD",
"? 	c #638BC8",
"@ 	c #EEF3FB",
"A 	c #EAF1FB",
"B 	c #F2F6FC",
"C 	c #F1F6FC",
"D 	c #E2ECF9",
"E 	c #DBE7F8",
"F 	c #B9D0EE",
"G 	c #D0DFF6",
"H 	c #7DA7E8",
"I 	c #E9F1FA",
"J 	c #EEF4FB",
"K 	c #E8F0FA",
"L 	c #DDE8F8",
"M 	c #DBE6F7",
"N 	c #79A2E1",
"O 	c #C2D5EF",
"P 	c #3468B6",
"Q 	c #CCDDF5",
"R 	c #7DA7E7",
"S 	c #658CC9",
"T 	c #E9F0FA",
"U 	c #F3F8FD",
"V 	c #F8FAFE",
"W 	c #EFF4FC",
"X 	c #DFE9F9",
"Y 	c #DBE7F7",
"Z 	c #D9E5F7",
"[ 	c #77A1E0",
"] 	c #A8C1E7",
"^ 	c #3467B5",
"_ 	c #C9DCF4",
"` 	c #7CA6E7",
"a 	c #E1ECF9",
"b 	c #E3EDF9",
"c 	c #EEF4FC",
"d 	c #F3F7FD",
"e 	c #E5EDFA",
"f 	c #D8E5F6",
"g 	c #769FDE",
"h 	c #A3BDE4",
"i 	c #3366B3",
"j 	c #C7D9F4",
"k 	c #7CA5E6",
"l 	c #648CC9",
"m 	c #668DC9",
"n 	c #6B91CB",
"o 	c #6C91CB",
"p 	c #688FCA",
"q 	c #648BC8",
"r 	c #739BDA",
"s 	c #9EB9E1",
"t 	c #3365B2",
"u 	c #C4D8F2",
"v 	c #7AA3E3",
"w 	c #79A2E3",
"x 	c #79A3E3",
"y 	c #7AA3E2",
"z 	c #7AA2E2",
"{ 	c #7AA2E1",
"| 	c #78A1E1",
"} 	c #769FDF",
"~ 	c #759EDE",
" !	c #739DDD",
"!!	c #719BDB",
"#!	c #739CDC",
"$!	c #99B4DD",
"%!	c #3364B0",
"&!	c #C1D5F2",
"'!	c #77A0E0",
"(!	c #749DDE",
")!	c #729ADA",
"*!	c #729AD9",
"+!	c #94AFDA",
",!	c #3263AE",
"-!	c #BDD2F0",
".!	c #79A2E2",
"0!	c #769EDE",
"1!	c #759EDD",
"2!	c #719AD9",
"3!	c #7098D8",
"4!	c #6F98D6",
"5!	c #8DAAD5",
"6!	c #3262AC",
"7!	c #3569B9",
"8!	c #BAD0EF",
"9!	c #79A1E2",
":!	c #6C95D3",
";!	c #89A6D2",
"<!	c #3161AA",
"=!	c #B7CEEF",
">!	c #F7FAFE",
"?!	c #87BF61",
"@!	c #6992CF",
"A!	c #83A2CE",
"B!	c #3160A9",
"C!	c #376BBA",
"D!	c #B5CCEE",
"E!	c #79A1E1",
"F!	c #C1DCBE",
"G!	c #678FCD",
"H!	c #809DCC",
"I!	c #3160A7",
"J!	c #366AB9",
"K!	c #B2CAED",
"L!	c #79A1E0",
"M!	c #648CCA",
"N!	c #7B9AC9",
"O!	c #305FA6",
"P!	c #3469B9",
"Q!	c #ACC5EB",
"R!	c #ACC4EA",
"S!	c #7B99C8",
"T!	c #7897C7",
"U!	c #3468B8",
"V!	c #3468B7",
"W!	c #3467B6",
"X!	c #3467B4",
"Y!	c #3365B1",
"Z!	c #3264AF",
"[!	c #3263AD",
"]!	c #3162AB",
"^!	c #3161A9",
"_!	c #3160A8",
"`!	c #305FA7",
"a!	c #305FA5",
"b!	c #3060A7",
"! ! ! ! ! # # $ $ % & ' ( ) *   ",
"! , - . 0 1 2 3 4 1 5 6 7 8 9 : ",
"! ; < = > ? @ A B . C D E F 8 ) ",
"! G H C C ? I J 5 1 K L M N O P ",
"! Q R K K S T U V W X Y Z [ ] ^ ",
"# _ ` a a b c 5 d e Y Z f g h i ",
"# j k ? l m n o p q ? ? ? r s t ",
"$ u v w x y z { | } ~  !!!#!$!%!",
"$ &!w w z z y | '!g (!#!)!*!+!,!",
"$ -!.!.!N z { '!0!1!#!2!3!4!5!6!",
"7!8!9!. . . . . . . . . . :!;!<!",
"( =!| >!?!?!?!?!?!?!?!?!1 @!A!B!",
"C!D!E!>!F!F!F!F!F!F!F!F!1 G!H!I!",
"J!K!L!>!?!?!?!?!?!?!?!?!1 M!N!O!",
"P!Q!R!. . . . . . . . . . S!T!O!",
"7!U!V!W!X!i Y!Z![!]!^!_!`!O!a!b!"};