/* XPM */ 
static const char * const fileclose_xpm[] = {
"16 16 181 2",
"  	c None",
"! 	c black",
"# 	c #437CC0",
"$ 	c #4C8AC8",
"% 	c #4E8BC8",
"& 	c #4E8CC8",
"' 	c #4E8BC9",
"( 	c #4E8AC7",
") 	c #4A88C4",
"* 	c #3A75C3",
"+ 	c #4884C3",
", 	c #ECF2F7",
"- 	c #EEF4F8",
". 	c #EDF4F8",
"0 	c #EDF3F8",
"1 	c #ECF2F8",
"2 	c #D7E6F2",
"3 	c #7CB1E2",
"4 	c #6493DB",
"5 	c #4A87C4",
"6 	c #F2F6FA",
"7 	c #C7E0FA",
"8 	c #C9E1FB",
"9 	c #C9E2FB",
": 	c #C8E0FB",
"; 	c #C4DFF9",
"< 	c #C0DBF8",
"= 	c #B7D6F4",
"> 	c #F8FBFF",
"? 	c #B3D8F6",
"@ 	c #7CAFE1",
"A 	c #6391DB",
"B 	c #4B88C5",
"C 	c #F1F5F9",
"D 	c #CDE3FC",
"E 	c #CEE3FB",
"F 	c #CDE3FB",
"G 	c #CBE2FB",
"H 	c #C8E0F9",
"I 	c #C1DCF8",
"J 	c #B9D6F5",
"K 	c #F8FBFD",
"L 	c #CDE6FC",
"M 	c #C9E5FA",
"N 	c #83B5E2",
"O 	c #4178BE",
"P 	c #4A88C5",
"Q 	c #CFE3FC",
"R 	c #D0E4FB",
"S 	c #CFE4FC",
"T 	c #CAE1FA",
"U 	c #C3DDF9",
"V 	c #BBD9F6",
"W 	c #DFE9F4",
"X 	c #F3F7FB",
"Y 	c #E9EFF5",
"Z 	c #447DC1",
"[ 	c #F0F4F9",
"] 	c #D3E6FC",
"^ 	c #D4E6FC",
"_ 	c #D3E7FD",
"` 	c #D1E4FC",
"a 	c #C8E0FA",
"b 	c #BAD6F5",
"c 	c #B4D4F3",
"d 	c #B2D2F1",
"e 	c #F0F4F8",
"f 	c #4581C3",
"g 	c #4987C5",
"h 	c #EFF4F9",
"i 	c #D7E7FE",
"j 	c #D6E7FD",
"k 	c #D5E7FD",
"l 	c #D4E6FD",
"m 	c #D2E6FC",
"n 	c #CCE1FB",
"o 	c #C7DFFA",
"p 	c #BCDAF6",
"q 	c #BAD8F6",
"r 	c #EFF4FA",
"s 	c #4582C5",
"t 	c #4887C5",
"u 	c #EDF4F9",
"v 	c #D8E8FE",
"w 	c #D7E8FE",
"x 	c #D6E7FE",
"y 	c #D3E5FD",
"z 	c #C2DDF9",
"{ 	c #EDF4FA",
"| 	c #4481C5",
"} 	c #4683C5",
"~ 	c #ECF3F9",
" !	c #D6E8FE",
"!!	c #CCE3FB",
"#!	c #C5DFFA",
"$!	c #EAF2FA",
"%!	c #417FC5",
"&!	c #4481C4",
"'!	c #EBF2F8",
"(!	c #D5E6FD",
")!	c #C9A093",
"*!	c #C05D29",
"+!	c #BB4205",
",!	c #BE581E",
"-!	c #786167",
".!	c #417FC4",
"0!	c #E8F1F8",
"1!	c #D5E5FE",
"2!	c #D3E5FC",
"3!	c #D1753C",
"4!	c #F7B48C",
"5!	c #FED6B7",
"6!	c #F5A771",
"7!	c #C96A2E",
"8!	c #B94204",
"9!	c #3F7BC3",
":!	c #E6F0F7",
";!	c #54B3F8",
"<!	c #55B3F7",
"=!	c #53B4F7",
">!	c #52B3F8",
"?!	c #52B1F8",
"@!	c #51B2F7",
"A!	c #AA5223",
"B!	c #F6B48C",
"C!	c #FF914C",
"D!	c #FF7611",
"E!	c #FF8520",
"F!	c #EB893F",
"G!	c #B84303",
"H!	c #3B77C0",
"I!	c #E3EDF7",
"J!	c #6DC1FD",
"K!	c #9FD8FF",
"L!	c #9DD7FF",
"M!	c #9AD6FF",
"N!	c #97D7FF",
"O!	c #95D6FF",
"P!	c #FECDAD",
"Q!	c white",
"R!	c #EF7E17",
"S!	c #BB4104",
"T!	c #3770BE",
"U!	c #DFEBF5",
"V!	c #67BEFD",
"W!	c #66BCFC",
"X!	c #64BDFB",
"Y!	c #63BDFC",
"Z!	c #61BCFC",
"[!	c #AF511D",
"]!	c #F49C62",
"^!	c #FF7E17",
"_!	c #F87500",
"`!	c #EE7500",
"a!	c #E16703",
"b!	c #B84403",
"c!	c #3268BB",
"d!	c #EAF1F8",
"e!	c #DFECF7",
"f!	c #DEEBF6",
"g!	c #DEEAF6",
"h!	c #DCEAF6",
"i!	c #EBF3FA",
"j!	c #D7A489",
"k!	c #CA6527",
"l!	c #E67620",
"m!	c #EA7805",
"n!	c #DD6301",
"o!	c #BA4C06",
"p!	c #B74403",
"q!	c #3369BA",
"r!	c #2F64B9",
"s!	c #3065BA",
"t!	c #2F65B9",
"u!	c #2E64B9",
"v!	c #2D64B8",
"w!	c #755D6D",
"x!	c #A74818",
"y!	c #BA4105",
"z!	c #AC4713",
"{!	c #8E4D38",
"  # $ % % % % & ' ( ) *         ",
"  + , - . 0 0 0 1 , 2 3 4       ",
"  5 6 7 8 9 : ; < = > ? @ A     ",
"  B C D E F G H I J K L M N O   ",
"  P C Q R S D T U V W , X Y Z   ",
"  P [ ] ^ _ ` F a I b c d e f   ",
"  g h i j k l m n o I p q r s   ",
"  t u v v w x y ` n 7 z I { |   ",
"  } ~  !w j j k y R !!o #!$!%!  ",
"  &!'!x j j j (!y ` )!*!+!,!-!  ",
"  .!0!1!y y 2!2!` )!3!4!5!6!7!8!",
"  9!:!;!<!=!>!?!@!A!B!C!D!E!F!G!",
"  H!I!J!K!L!M!N!O!+!P!Q!Q!Q!R!S!",
"  T!U!V!W!X!Y!Y!Z![!]!^!_!`!a!b!",
"  c!d!e!f!g!h!h!i!j!k!l!m!n!o!p!",
"  q!r!s!t!t!t!r!u!v!w!x!y!z!{!  "};