/* XPM */ 
static const char * const filehandle_xpm[] = {
"16 16 183 2",
"  	c None",
"! 	c black",
"# 	c #437CC0",
"$ 	c #4C8AC8",
"% 	c #4E8BC8",
"& 	c #4E8CC8",
"' 	c #4E8BC9",
"( 	c #4E8AC7",
") 	c #4A88C4",
"* 	c #3A75C3",
"+ 	c #4884C3",
", 	c #ECF2F7",
"- 	c #EEF4F8",
". 	c #EDF4F8",
"0 	c #EDF3F8",
"1 	c #ECF2F8",
"2 	c #D7E6F2",
"3 	c #7CB1E2",
"4 	c #6493DB",
"5 	c #4A87C4",
"6 	c #F2F6FA",
"7 	c #C7E0FA",
"8 	c #C9E1FB",
"9 	c #C9E2FB",
": 	c #C8E0FB",
"; 	c #C4DFF9",
"< 	c #C0DBF8",
"= 	c #B7D6F4",
"> 	c #F8FBFF",
"? 	c #B3D8F6",
"@ 	c #7CAFE1",
"A 	c #6391DB",
"B 	c #4B88C5",
"C 	c #F1F5F9",
"D 	c #CDE3FC",
"E 	c #CEE3FB",
"F 	c #CDE3FB",
"G 	c #CBE2FB",
"H 	c #C8E0F9",
"I 	c #C1DCF8",
"J 	c #B9D6F5",
"K 	c #F8FBFD",
"L 	c #CDE6FC",
"M 	c #C9E5FA",
"N 	c #83B5E2",
"O 	c #4178BE",
"P 	c #4A88C5",
"Q 	c #CFE3FC",
"R 	c #D0E4FB",
"S 	c #CFE4FC",
"T 	c #CAE1FA",
"U 	c #C3DDF9",
"V 	c #BBD9F6",
"W 	c #DFE9F4",
"X 	c #F3F7FB",
"Y 	c #E9EFF5",
"Z 	c #447DC1",
"[ 	c #F0F4F9",
"] 	c #D3E6FC",
"^ 	c #D4E6FC",
"_ 	c #D3E7FD",
"` 	c #D1E4FC",
"a 	c #C8E0FA",
"b 	c #BAD6F5",
"c 	c #B4D4F3",
"d 	c #B2D2F1",
"e 	c #F0F4F8",
"f 	c #4581C3",
"g 	c #4987C5",
"h 	c #EFF4F9",
"i 	c #D7E7FE",
"j 	c #D6E7FD",
"k 	c #D5E7FD",
"l 	c #D4E6FD",
"m 	c #D2E6FC",
"n 	c #CCE1FB",
"o 	c #C7DFFA",
"p 	c #BCDAF6",
"q 	c #BAD8F6",
"r 	c #EFF4FA",
"s 	c #4582C5",
"t 	c #4887C5",
"u 	c #EDF4F9",
"v 	c #D8E8FE",
"w 	c #D7E8FE",
"x 	c #D6E7FE",
"y 	c #D3E5FD",
"z 	c #C2DDF9",
"{ 	c #EDF4FA",
"| 	c #4481C5",
"} 	c #4683C5",
"~ 	c #ECF3F9",
" !	c #D6E8FE",
"!!	c #CCE3FB",
"#!	c #C5DFFA",
"$!	c #EAF2FA",
"%!	c #417FC5",
"&!	c #4481C4",
"'!	c #EBF2F8",
"(!	c #CFE0F5",
")!	c #A3ADB9",
"*!	c #898B8C",
"+!	c #9D9D9D",
",!	c #85878A",
"-!	c #BACADD",
".!	c #C3D7EE",
"0!	c #86888C",
"1!	c #8B8C8C",
"2!	c #52739A",
"3!	c #417FC4",
"4!	c #E8F1F8",
"5!	c #D1E1F9",
"6!	c #89919C",
"7!	c #909090",
"8!	c #E8E8E8",
"9!	c #DDDDDD",
":!	c #C0C0C0",
";!	c #8A8D90",
"<!	c #8D9399",
"=!	c #D9D9DA",
">!	c #C3C3C3",
"?!	c #4B4B4B",
"@!	c #3F7BC3",
"A!	c #E6F0F7",
"B!	c #498BBA",
"C!	c #70767A",
"D!	c #CED3D3",
"E!	c #567185",
"F!	c #4A4B4C",
"G!	c #646464",
"H!	c #919191",
"I!	c #787878",
"J!	c #848586",
"K!	c #727272",
"L!	c #3B77C0",
"M!	c #E3EDF7",
"N!	c #4D738E",
"O!	c #828485",
"P!	c #97D1F8",
"Q!	c #424547",
"R!	c #BCBCBC",
"S!	c #CECECE",
"T!	c #C1C1C1",
"U!	c #ACACAC",
"V!	c #404447",
"W!	c #EEF0F4",
"X!	c #818181",
"Y!	c #3770BE",
"Z!	c #DFEBF5",
"[!	c #4F82A6",
"]!	c #666B6F",
"^!	c #566F80",
"_!	c #414244",
"`!	c #454545",
"a!	c #505050",
"b!	c #7E7F7F",
"c!	c #666666",
"d!	c #3268BB",
"e!	c #EAF1F8",
"f!	c #C1CDD6",
"g!	c #636567",
"h!	c #919293",
"i!	c #ADAEAE",
"j!	c #ADADAD",
"k!	c #969696",
"l!	c #707070",
"m!	c #777777",
"n!	c #AFAFAF",
"o!	c #878A8E",
"p!	c #4C4C4C",
"q!	c #3369BA",
"r!	c #2F64B9",
"s!	c #3064B8",
"t!	c #325EA1",
"u!	c #464C57",
"v!	c #616367",
"w!	c #686A6C",
"x!	c #696A6C",
"y!	c #3C5F93",
"z!	c #38609D",
"{!	c #676A6E",
"|!	c #616366",
"}!	c #484A4F",
"  # $ % % % % & ' ( ) *         ",
"  + , - . 0 0 0 1 , 2 3 4       ",
"  5 6 7 8 9 : ; < = > ? @ A     ",
"  B C D E F G H I J K L M N O   ",
"  P C Q R S D T U V W , X Y Z   ",
"  P [ ] ^ _ ` F a I b c d e f   ",
"  g h i j k l m n o I p q r s   ",
"  t u v v w x y ` n 7 z I { |   ",
"  } ~  !w j j k y R !!o #!$!%!  ",
"  &!'!x (!)!*!+!,!-!.!0!+!1!2!  ",
"  3!4!5!6!7!8!9!:!;!<!=!9!>!7!?!",
"  @!A!B!C!D!E!F!G!H!I!G!F!J!>!K!",
"  L!M!N!O!D!P!Q!R!S!T!U!V!W!>!X!",
"  Y!Z![!]!D!^!_!`!a!a!`!_!b!>!c!",
"  d!e!f!g!h!i!j!k!l!m!k!j!n!o!p!",
"  q!r!s!t!u!v!w!x!y!z!{!w!|!}!  "};