/* XPM */ 
static char * findprev_xpm[] = {
"16 16 35 1",
" 	c None",
"!	c black",
"#	c #72C566",
"$	c #71C465",
"%	c #87CA7D",
"&	c #67B75C",
"'	c #71C365",
"(	c #86CA7B",
")	c #A6D69D",
"*	c #7CBF72",
"+	c #5DAB54",
",	c #70C264",
"-	c #6DBE61",
".	c #82C578",
"0	c #A2D499",
"1	c #85C27C",
"2	c #57A34E",
"3	c #529D49",
"4	c #64B35A",
"5	c #9ED295",
"6	c #64AB5C",
"7	c #58A54F",
"8	c #94CC8D",
"9	c #499141",
":	c #4B9444",
";	c #8BC784",
"<	c #3C8135",
"=	c #3E8438",
">	c #81C17C",
"?	c #2F712A",
"@	c #2C6D27",
"A	c #286824",
"B	c #215F1D",
"C	c #808080",
"D	c white",
"   #            ",
"  $%&           ",
" '()*+          ",
",-.0123         ",
"  456           ",
"  789           ",
"  :;<  !!   !!  ",
"  =>?  !!   !!  ",
"  @AB !!!C C!!! ",
"     !C!!!!!!C!!",
"     !D!!!C!!D!!",
"     !!!!!!!!!!!",
"     !C!!   !!C!",
"     !D!!   !!D!",
"     !!!!   !!!!",
"                "};