/* XPM */ 
static const char * const findnext_xpm[] = {
"16 16 39 1",
" 	c None",
"!	c black",
"#	c #73C767",
"$	c #72C566",
"%	c #6CBD61",
"&	c #69BA5E",
"'	c #A2D499",
"(	c #5CA952",
")	c #5EAC55",
"*	c #99CF92",
"+	c #4F9947",
",	c #529D49",
"-	c #90CA89",
".	c #42893B",
"0	c #54994D",
"1	c #86C480",
"2	c #357930",
"3	c #499141",
"4	c #448B3C",
"5	c #6BAC64",
"6	c #81C17C",
"7	c #4F914A",
"8	c #2B6C26",
"9	c #276723",
":	c #3D8237",
";	c #569850",
"<	c #7DBF78",
"=	c #4A8C45",
">	c #266522",
"?	c #32742C",
"@	c #4C8E47",
"A	c #256421",
"B	c #286824",
"C	c #808080",
"D	c white",
"E	c #2A2E32",
"F	c #24282B",
"G	c #202326",
"H	c #1A1C1F",
"  #$%           ",
"  &'(           ",
"  )*+           ",
"  ,-.           ",
"  012           ",
"3456789         ",
" :;<=> !!   !!  ",
"  ?@A  !!   !!  ",
"   B  !!!C C!!! ",
"     !C!!!!!!C!!",
"     !D!!!C!!D!!",
"     !!!!!!!!!!!",
"     !C!!   !!C!",
"     !D!!   !!D!",
"     EFGH   !!!!",
"                "};