/* XPM */ 
static const char * const folderfind_xpm[] = {
"16 16 162 2",
"  	c None",
"! 	c black",
"# 	c #626B74",
"$ 	c #565E67",
"% 	c #828E9B",
"& 	c #5A626B",
"' 	c #393E44",
"( 	c #7F8B97",
") 	c #545C64",
"* 	c #464C53",
"+ 	c #737E89",
", 	c #31363A",
"- 	c #555D65",
". 	c #6E7784",
"0 	c #383E47",
"1 	c #707C8A",
"2 	c #3F4955",
"3 	c #738291",
"4 	c #3F464E",
"5 	c #33383D",
"6 	c #4C535A",
"7 	c #8F9FAF",
"8 	c #505C68",
"9 	c #647385",
": 	c #4D5762",
"; 	c #8797A9",
"< 	c #495059",
"= 	c #111315",
"> 	c #576068",
"? 	c #474E55",
"@ 	c #2B2E31",
"A 	c #131314",
"B 	c #2C2F33",
"C 	c #3B4145",
"D 	c #32373C",
"E 	c #08090A",
"F 	c #D9B333",
"G 	c #E1C15D",
"H 	c #E2C25F",
"I 	c #E2C25E",
"J 	c #DBB53B",
"K 	c #AEB8C3",
"L 	c #8C99A6",
"M 	c #3F4446",
"N 	c #545A62",
"O 	c #A3AEBA",
"P 	c #8A97A5",
"Q 	c #202326",
"R 	c #DAB235",
"S 	c #FEFEFD",
"T 	c #FFFFFE",
"U 	c #FFFEFE",
"V 	c #FFFEFD",
"W 	c #FBF7EA",
"X 	c #5E6770",
"Y 	c #AAB5C0",
"Z 	c #656F78",
"[ 	c #535349",
"] 	c #A5945B",
"^ 	c #5C656D",
"_ 	c #A4B0BC",
"` 	c #69737D",
"a 	c #1A1C1F",
"b 	c #DAAE34",
"c 	c #FEFCF7",
"d 	c #F8E48D",
"e 	c #F5DE90",
"f 	c #F5E09E",
"g 	c #F6E1AB",
"h 	c #FEFBEF",
"i 	c #535A62",
"j 	c #5D666F",
"k 	c #3A3F43",
"l 	c #ABA9A2",
"m 	c #4D545B",
"n 	c #7E8995",
"o 	c #131315",
"p 	c #DAA935",
"q 	c #FDFAF1",
"r 	c #F5DE93",
"s 	c #F4DC92",
"t 	c #F2D580",
"u 	c #E9BF5F",
"v 	c #E1AD4E",
"w 	c #DA9334",
"x 	c #111314",
"y 	c #030404",
"z 	c #DAAA34",
"{ 	c #FBF6E8",
"| 	c #EAC47D",
"} 	c #E3AD5A",
"~ 	c #E1A750",
" !	c #E4AE5F",
"!!	c #FDFAEB",
"#!	c #FEFAEC",
"$!	c #FCF5E5",
"%!	c #FCF6E5",
"&!	c #FCF5E4",
"'!	c #DAA536",
"(!	c #FFFDF8",
")!	c #FFFDF6",
"*!	c #FFFCF5",
"+!	c #FEFAE8",
",!	c #FAECAE",
"-!	c #F8E386",
".!	c #F7E07C",
"0!	c #F6DD71",
"1!	c #F5DB67",
"2!	c #FDF9E9",
"3!	c #DAA035",
"4!	c #FEFCF6",
"5!	c #FCF2C8",
"6!	c #FBEFB8",
"7!	c #FAECAB",
"8!	c #F8E48B",
"9!	c #F8E389",
":!	c #F7E181",
";!	c #F7DF78",
"<!	c #F6DD6C",
"=!	c #F5DA60",
">!	c #F4D756",
"?!	c #FDF8E7",
"@!	c #DA9935",
"A!	c #FDFAF2",
"B!	c #FAEDB2",
"C!	c #F9E9A3",
"D!	c #F8E694",
"E!	c #F7E284",
"F!	c #F7E180",
"G!	c #F7E079",
"H!	c #F6DD6E",
"I!	c #F5DA61",
"J!	c #F3D653",
"K!	c #F2D346",
"L!	c #FDF9E8",
"M!	c #FEFAEF",
"N!	c #F9E9A0",
"O!	c #F8E590",
"P!	c #F6DE71",
"Q!	c #F5DA62",
"R!	c #F4D753",
"S!	c #F3D346",
"T!	c #F2D038",
"U!	c #F1CD2D",
"V!	c #F0CB25",
"W!	c #FBF2CA",
"X!	c #D98D32",
"Y!	c #FAF0DC",
"Z!	c #F4DDA6",
"[!	c #F4DB9D",
"]!	c #F3DA95",
"^!	c #F3D88D",
"_!	c #F3D785",
"`!	c #F2D47E",
"a!	c #F2D378",
"b!	c #F1D271",
"c!	c #F1D06B",
"d!	c #F1CF68",
"e!	c #F8EAC1",
"f!	c #D8852B",
"g!	c #D8872C",
"h!	c #D8862C",
"                  # $ % & '     ",
"                ( % ' ) * + ,   ",
"                - . 0 1 2 3 4   ",
"              5 6 7 8 9 : ; < = ",
"              - > ? @ A B C D E ",
"F G H H H I J # K L M   N O P Q ",
"R S T U V T W X Y Z [ ] ^ _ ` a ",
"b c d e f g h i L j k l m n - o ",
"p q r s t u v w w w w w w w x y ",
"z { | } ~  !!!#!$!%!&!&!T w     ",
"'!T (!)!*!+!,!d -!.!0!1!2!w     ",
"3!4!5!6!7!8!9!:!;!<!=!>!?!w     ",
"@!A!B!C!D!E!F!G!H!I!J!K!L!w     ",
"w M!N!O!F!P!Q!R!S!T!U!V!W!w     ",
"X!Y!Z![!]!^!_!`!a!b!c!d!e!X!    ",
"f!g!h!g!g!g!g!g!g!g!g!h!g!f!    "};