/* XPM */ 
static char * font_xpm[] = {
"16 16 72 1",
" 	c None",
"!	c black",
"#	c #428AD8",
"$	c #488DDA",
"%	c #4288D9",
"&	c #3F83D8",
"'	c #4083D8",
"(	c #3972D3",
")	c #3D82D7",
"*	c #6BA6E2",
"+	c #90BBE9",
",	c #8EB9E7",
"-	c #8AB6E7",
".	c #70A3E2",
"0	c #417DD6",
"1	c #5595DD",
"2	c #72A8E3",
"3	c #72A7E1",
"4	c #70A3E1",
"5	c #3D76D3",
"6	c #3B78D4",
"7	c #6FA5E2",
"8	c #4687DA",
"9	c #427DD6",
":	c #81ADE4",
";	c #396CCF",
"<	c #629ADE",
"=	c #5D95DC",
">	c #3468CF",
"?	c #7BA8E2",
"@	c #396BD1",
"A	c #417FD7",
"B	c #699EDF",
"C	c #3365CD",
"D	c #3260CC",
"E	c #78A5E1",
"F	c #4379D5",
"G	c #3569CF",
"H	c #679CDF",
"I	c #518ADA",
"J	c #3666CD",
"K	c #79A5E1",
"L	c #5285D8",
"M	c #5D92DB",
"N	c #78A6E2",
"O	c #4982D8",
"P	c #3969CF",
"Q	c #3867CE",
"R	c #4479D5",
"S	c #80A7E3",
"T	c #5585D9",
"U	c #3E73D3",
"V	c #3665CC",
"W	c #3662CC",
"X	c #769FDF",
"Y	c #5988DA",
"Z	c #74A3E1",
"[	c #578BDA",
"]	c #2647C2",
"^	c #6A95DC",
"_	c #5F8EDB",
"`	c #203EBC",
"a	c #3767CE",
"b	c #5C8EDA",
"c	c #5F8FDB",
"d	c #4F82D7",
"e	c #2A4FC3",
"f	c #2A4CC2",
"g	c #4170D0",
"h	c #507DD6",
"i	c #4C7BD5",
"j	c #3054C5",
"                ",
"                ",
"       #$%&'(   ",
"      )*+,-.0   ",
"       12345    ",
"      6789:;    ",
"      <=>>?@    ",
"     ABC DEF    ",
"    GHI  JKL    ",
"    MNOPQRST    ",
"   U?V   WXY    ",
"   Z[    ]^_`   ",
" abcde  fghij   ",
"                ",
"                ",
"                "};