/* XPM */ 
static char * fontsizedec_xpm[] = {
"16 16 86 1",
" 	c None",
"!	c black",
"#	c #8E8E8E",
"$	c #848484",
"%	c #7A7A7A",
"&	c #717171",
"'	c #696969",
"(	c #626262",
")	c #5C5C5C",
"*	c #A2A2A2",
"+	c #A8A8A8",
",	c #B1B1B1",
"-	c #999999",
".	c #898989",
"0	c #949494",
"1	c #767676",
"2	c #428AD8",
"3	c #488DDA",
"4	c #4288D9",
"5	c #3F83D8",
"6	c #4083D8",
"7	c #3972D3",
"8	c #3D82D7",
"9	c #6BA6E2",
":	c #90BBE9",
";	c #8EB9E7",
"<	c #8AB6E7",
"=	c #70A3E2",
">	c #417DD6",
"?	c #5595DD",
"@	c #72A8E3",
"A	c #72A7E1",
"B	c #70A3E1",
"C	c #3D76D3",
"D	c #3B78D4",
"E	c #6FA5E2",
"F	c #4687DA",
"G	c #427DD6",
"H	c #81ADE4",
"I	c #396CCF",
"J	c #629ADE",
"K	c #5D95DC",
"L	c #3468CF",
"M	c #7BA8E2",
"N	c #396BD1",
"O	c #417FD7",
"P	c #699EDF",
"Q	c #3365CD",
"R	c #3260CC",
"S	c #78A5E1",
"T	c #4379D5",
"U	c #3569CF",
"V	c #679CDF",
"W	c #518ADA",
"X	c #3666CD",
"Y	c #79A5E1",
"Z	c #5285D8",
"[	c #5D92DB",
"]	c #78A6E2",
"^	c #4982D8",
"_	c #3969CF",
"`	c #3867CE",
"a	c #4479D5",
"b	c #80A7E3",
"c	c #5585D9",
"d	c #3E73D3",
"e	c #3665CC",
"f	c #3662CC",
"g	c #769FDF",
"h	c #5988DA",
"i	c #74A3E1",
"j	c #578BDA",
"k	c #2647C2",
"l	c #6A95DC",
"m	c #5F8EDB",
"n	c #203EBC",
"o	c #3767CE",
"p	c #5C8EDA",
"q	c #5F8FDB",
"r	c #4F82D7",
"s	c #2A4FC3",
"t	c #2A4CC2",
"u	c #4170D0",
"v	c #507DD6",
"w	c #4C7BD5",
"x	c #3054C5",
"                ",
" #$%&'()        ",
"  *+,-%         ",
"   .01   234567 ",
"    &   89:;<=> ",
"         ?@ABC  ",
"        DEFGHI  ",
"        JKLLMN  ",
"       OPQ RST  ",
"      UVW  XYZ  ",
"      []^_`abc  ",
"     dMe   fgh  ",
"     ij    klmn ",
"   opqrs  tuvwx ",
"                ",
"                "};