/* XPM */ 
static char * fontsizedec_xpm[] = {
"16 16 43 1",
" 	c None",
"!	c black",
"#	c #8E8E8E",
"$	c #848484",
"%	c #7A7A7A",
"&	c #717171",
"'	c #696969",
"(	c #626262",
")	c #5C5C5C",
"*	c #A2A2A2",
"+	c #A8A8A8",
",	c #B1B1B1",
"-	c #999999",
".	c #898989",
"0	c #949494",
"1	c #767676",
"2	c #72A6E0",
"3	c #488DDA",
"4	c #4288D9",
"5	c #3F83D8",
"6	c #518ADA",
"7	c #4687DA",
"8	c #427DD6",
"9	c #396BD1",
":	c #6498DA",
";	c #5F97DF",
"<	c #3666CD",
"=	c #4379D5",
">	c #619BE2",
"?	c #4479D5",
"@	c #5285D8",
"A	c #679CDF",
"B	c #4982D8",
"C	c #3867CE",
"D	c #3662CC",
"E	c #5585D9",
"F	c #2647C2",
"G	c #5988DA",
"H	c #3767CE",
"I	c #5C8EDA",
"J	c #4170D0",
"K	c #5F8EDB",
"L	c #3054C5",
"                ",
" #$%&'()        ",
"  *+,-%         ",
"   .01          ",
"    &           ",
"                ",
"                ",
"          2345  ",
"          6789  ",
"          :;<=  ",
"         >6 ?@  ",
"        A6BCDE  ",
"        6B  FG  ",
"      HIF  AJKL ",
"                ",
"                "};