/* XPM */ 
static char * fontsizedec_xpm[] = {
"16 16 67 1",
" 	c None",
"!	c black",
"#	c #B7B7B7",
"$	c #BABABA",
"%	c #B3B3B3",
"&	c #ABABAB",
"'	c #A2A2A2",
"(	c #989898",
")	c #7F7F7F",
"*	c #A8A8A8",
"+	c #B1B1B1",
",	c #999999",
"-	c #7A7A7A",
".	c #898989",
"0	c #949494",
"1	c #767676",
"2	c #717171",
"3	c #65A9E2",
"4	c #7DBBE8",
"5	c #95C5EB",
"6	c #8FC1EA",
"7	c #7EB8E7",
"8	c #61A2E0",
"9	c #7DC7EC",
":	c #C5E5F6",
";	c #C4E3F6",
"<	c #4098DD",
"=	c #2E8FD9",
">	c #A1D4F0",
"?	c #3A93DB",
"@	c #6CB4E6",
"A	c #3888D7",
"B	c #1F7FD4",
"C	c #B0D9F3",
"D	c #2A7DD4",
"E	c #79B7E7",
"F	c #458FD9",
"G	c #73B8E8",
"H	c #98CBEE",
"I	c #93C0EB",
"J	c #4E93DB",
"K	c #3183D5",
"L	c #B2D7F2",
"M	c #9DC9EE",
"N	c #8FBFEA",
"O	c #97C0EB",
"P	c #BFD9F2",
"Q	c #5C99DD",
"R	c #1B68CC",
"S	c #A3CCEE",
"T	c #4D95DC",
"U	c #1854C4",
"V	c #1750C2",
"W	c #164DC0",
"X	c #94BBE8",
"Y	c #639ADD",
"Z	c #6AABE3",
"[	c #91BFEA",
"]	c #6197DC",
"^	c #6799DE",
"_	c #87B8E7",
"`	c #95C0EA",
"a	c #82B4E6",
"b	c #6297DB",
"c	c #528BD8",
"d	c #A5C1EC",
"e	c #5A91DE",
"                ",
"                ",
" #$%&'()        ",
"  '*+,-         ",
"   .01          ",
"    2   345678  ",
"         9:;<   ",
"        =>?@A   ",
"       BCD EF   ",
"       GH  IJ   ",
"      KLMNOPQ   ",
"     RSTUVWXY   ",
"     Z[    ]^R  ",
"    _`ab  cdeb_ ",
"                ",
"                "};