/* XPM */ 
static char * footprint_xpm[] = {
"16 16 52 1",
" 	c None",
"!	c black",
"#	c #C8C8C8",
"$	c #C6C6C6",
"%	c #C4C4C4",
"&	c #C1C1C1",
"'	c #BDBDBD",
"(	c #C7C7C7",
")	c #E5E5E5",
"*	c #E3E3E3",
"+	c #C3C3C3",
",	c #E8E8E8",
"-	c #E6E6E6",
".	c #E7E7E7",
"0	c #B1B1B1",
"1	c #EBEBEB",
"2	c #E4E4E4",
"3	c #EAEAEA",
"4	c #AAAAAA",
"5	c #C2C2C2",
"6	c #EEEEEE",
"7	c #E9E9E9",
"8	c #DFDFDF",
"9	c #EDEDED",
":	c #9E9E9E",
";	c #F0F0F0",
"<	c #F1F1F1",
"=	c #F8F8F8",
">	c #9A9A9A",
"?	c #F3F3F3",
"@	c #959595",
"A	c #C0C0C0",
"B	c #F6F6F6",
"C	c #9D9D9D",
"D	c #BBBBBB",
"E	c #F9F9F9",
"F	c #B7B7B7",
"G	c #CCCCCC",
"H	c #D6D6D6",
"I	c #EFEFEF",
"J	c #C9C9C9",
"K	c #9B9B9B",
"L	c #AFAFAF",
"M	c #D8D8D8",
"N	c #FAFAFA",
"O	c #A5A5A5",
"P	c #A8A8A8",
"Q	c #DBDBDB",
"R	c #FBFBFB",
"S	c #CECECE",
"T	c #A0A0A0",
"U	c #989898",
"         #$     ",
"        #%&'    ",
"       (%)*+'   ",
"      (+,-.*0'  ",
"     $+1.2)3*4' ",
"    $567288.99: ",
"   %&;72888<=#> ",
"  %&?72888<=+@  ",
" +AB72888<=%C   ",
" DE?2888<=(@    ",
" FGHI88<=JK     ",
"  LGM<<NGO      ",
"   PGQRST       ",
"    TGH@        ",
"     U@         ",
"                "};