/* XPM */ 
static char * footprint_xpm[] = {
"16 16 50 1",
" 	c None",
"!	c black",
"#	c #6D6D6D",
"$	c #4C4C4C",
"%	c #5A5A5A",
"&	c #717171",
"'	c #7F7F7F",
"(	c #484848",
")	c #5B5B5B",
"*	c #808080",
"+	c #363636",
",	c #464646",
"-	c #5C5C5C",
".	c #707070",
"0	c #585858",
"1	c #6A6A6A",
"2	c #7B7B7B",
"3	c #353535",
"4	c #474747",
"5	c #818181",
"6	c #595959",
"7	c #7C7C7C",
"8	c #313131",
"9	c #6E6E6E",
":	c #383838",
";	c #7A7A7A",
"<	c #434343",
"=	c #4B4B4B",
">	c #6C6C6C",
"?	c #282828",
"@	c #767676",
"A	c #2A2A2A",
"B	c #6B6B6B",
"C	c #080808",
"D	c #1C1C1C",
"E	c #2E2E2E",
"F	c #4A4A4A",
"G	c #565656",
"H	c #0E0E0E",
"I	c #212121",
"J	c #373737",
"K	c #131313",
"L	c #272727",
"M	c #0C0C0C",
"N	c #333333",
"O	c #070707",
"P	c #202020",
"Q	c #050505",
"R	c #141414",
"S	c #252525",
"                ",
"              # ",
"            $%&'",
"            ()&*",
"           +,-.'",
"     012   34)&5",
"    4617   84-9 ",
"   :461;   <=-> ",
"  ?3(61@     -  ",
"  A:4%B  CDE    ",
"    FG   HIJ4   ",
" KL      MIN    ",
"OKL:      P     ",
"QK?3            ",
"ORS             ",
"                ",
};