/* XPM */ 
static const char * const fullscreen_xpm[] = {
"16 16 70 1",
" 	c None",
"!	c #6486EC",
"#	c #6587ED",
"$	c #5E80E5",
"%	c #B9C3E0",
"&	c #DCDCDC",
"'	c #D9D9D8",
"(	c #D5D5D5",
")	c #D1D1D0",
"*	c #CCCCCC",
"+	c #C8C8C8",
",	c #C6C6C6",
"-	c #C5C5C6",
".	c #C5C5C9",
"0	c #C6C6CD",
"1	c #C7C7D1",
"2	c #CBCBD7",
"3	c #ADB7DE",
"4	c #5476DA",
"5	c #BBBBBB",
"6	c #BABABA",
"7	c #B8B8B8",
"8	c #B6B6B6",
"9	c #B3B3B3",
":	c #B0B0B0",
";	c #AEAEAE",
"<	c #ABABAB",
"=	c #A8A8A8",
">	c #A6A6A6",
"?	c #A3A3A3",
"@	c #A0A0A0",
"A	c #9E9E9E",
"B	c #9C9C9C",
"C	c #486ACE",
"D	c white",
"E	c #3C5EC2",
"F	c #FEFEFE",
"G	c #6D87D2",
"H	c #FDFDFD",
"I	c #3254B7",
"J	c #FCFCFC",
"K	c #647EC8",
"L	c #FAFAFA",
"M	c #294BAF",
"N	c #F9F9F9",
"O	c #5D76C1",
"P	c #F7F7F7",
"Q	c #2345AB",
"R	c #F6F6F6",
"S	c #F3F3F3",
"T	c #2244AC",
"U	c #EFEFEF",
"V	c #2446B2",
"W	c #F1F1F1",
"X	c #EBEBEB",
"Y	c #294BBC",
"Z	c #EEEEEE",
"[	c #5973C8",
"]	c #E7E7E7",
"^	c #2F51C8",
"_	c #5D76D0",
"`	c #E4E4E4",
"a	c #3658D4",
"b	c #E9E9E9",
"c	c #617BD9",
"d	c #E1E1E1",
"e	c #3D5FE0",
"f	c #314AAF",
"g	c #4163E9",
"h	c black",
"!##############!",
"$%&'()*+,-.0123$",
"456789:;<=>?@AB4",
"CDDDDDDDDDDDDDDC",
"EFEEGHHHHHHGEEFE",
"IJIKLLLLLLLLKIJI",
"MNOPPPPPPPPPPONM",
"QRSSSSSSSSSSSSRQ",
"TSUUUUUUUUUUUUST",
"VWXXXXXXXXXXXXWV",
"YZ[]]]]]]]]]][ZY",
"^X^_````````_^X^",
"abaacddddddcaaba",
"eX]]]]]]]]]]]]Xe",
"fggggggggggggggf",
"                "};