/* XPM */ 
static char * goback_xpm[] = {
"16 16 188 2",
"  	c None",
"! 	c black",
"# 	c #437CC0",
"$ 	c #4C8AC8",
"% 	c #4E8BC8",
"& 	c #4E8CC8",
"' 	c #4E8BC9",
"( 	c #4E8AC7",
") 	c #4A88C4",
"* 	c #3A75C3",
"+ 	c #4884C3",
", 	c #ECF2F7",
"- 	c #EEF4F8",
". 	c #EDF4F8",
"0 	c #EDF3F8",
"1 	c #ECF2F8",
"2 	c #D7E6F2",
"3 	c #7CB1E2",
"4 	c #6493DB",
"5 	c #4A87C4",
"6 	c #F2F6FA",
"7 	c #C7E0FA",
"8 	c #C9E1FB",
"9 	c #C9E2FB",
": 	c #C8E0FB",
"; 	c #C4DFF9",
"< 	c #C0DBF8",
"= 	c #B7D6F4",
"> 	c #F8FBFF",
"? 	c #B3D8F6",
"@ 	c #7CAFE1",
"A 	c #6391DB",
"B 	c #4B88C5",
"C 	c #F1F5F9",
"D 	c #CDE3FC",
"E 	c #CEE3FB",
"F 	c #CDE3FB",
"G 	c #CBE2FB",
"H 	c #C8E0F9",
"I 	c #C1DCF8",
"J 	c #B9D6F5",
"K 	c #F8FBFD",
"L 	c #CDE6FC",
"M 	c #C9E5FA",
"N 	c #83B5E2",
"O 	c #4178BE",
"P 	c #4A88C5",
"Q 	c #CFE3FC",
"R 	c #D0E4FB",
"S 	c #CFE4FC",
"T 	c #CAE1FA",
"U 	c #C3DDF9",
"V 	c #BBD9F6",
"W 	c #DFE9F4",
"X 	c #F3F7FB",
"Y 	c #E9EFF5",
"Z 	c #447DC1",
"[ 	c #F0F4F9",
"] 	c #D3E6FC",
"^ 	c #D4E6FC",
"_ 	c #D3E7FD",
"` 	c #D1E4FC",
"a 	c #C8E0FA",
"b 	c #BAD6F5",
"c 	c #B4D4F3",
"d 	c #B2D2F1",
"e 	c #F0F4F8",
"f 	c #4581C3",
"g 	c #4987C5",
"h 	c #EFF4F9",
"i 	c #D7E7FE",
"j 	c #D6E7FD",
"k 	c #D5E7FD",
"l 	c #D4E6FD",
"m 	c #D2E6FC",
"n 	c #CCE1FB",
"o 	c #C7DFFA",
"p 	c #BCDAF6",
"q 	c #BAD8F6",
"r 	c #EFF4FA",
"s 	c #4582C5",
"t 	c #4887C5",
"u 	c #EDF4F9",
"v 	c #D8E8FE",
"w 	c #649E30",
"x 	c #71A745",
"y 	c #D6E7FE",
"z 	c #D3E5FD",
"{ 	c #C2DDF9",
"| 	c #EDF4FA",
"} 	c #4481C5",
"~ 	c #4683C5",
" !	c #ECF3F9",
"!!	c #569727",
"#!	c #80B259",
"$!	c #6AA340",
"%!	c #CCE3FB",
"&!	c #C5DFFA",
"'!	c #EAF2FA",
"(!	c #417FC5",
")!	c #4481C4",
"*!	c #47901A",
"+!	c #73AA4E",
",!	c #A9CB90",
"-!	c #7BAE54",
".!	c #629D31",
"0!	c #68A135",
"1!	c #6EA339",
"2!	c #6EA43C",
"3!	c #CDE2FC",
"4!	c #CBE1FB",
"5!	c #F2F7FB",
"6!	c #3E7BC4",
"7!	c #34860A",
"8!	c #67A445",
"9!	c #A0C789",
":!	c #8FBB73",
";!	c #A7CB8F",
"<!	c #ACCD93",
"=!	c #AFCE95",
">!	c #6AA236",
"?!	c #CCE2FC",
"@!	c #C9E0FB",
"A!	c #C8E1FB",
"B!	c #F7FAFD",
"C!	c #3A75C0",
"D!	c #247E00",
"E!	c #5B9F3B",
"F!	c #97C182",
"G!	c #81B466",
"H!	c #7FB260",
"I!	c #84B565",
"J!	c #88B76A",
"K!	c #8DB96E",
"L!	c #629E30",
"M!	c #50B1F7",
"N!	c #4EB1F7",
"O!	c #F5F9FC",
"P!	c #356EBE",
"Q!	c #22791C",
"R!	c #65A447",
"S!	c #96C181",
"T!	c #84B569",
"U!	c #9DC487",
"V!	c #A0C589",
"W!	c #A4C88C",
"X!	c #A8CA8F",
"Y!	c #5A9A28",
"Z!	c #93D5FF",
"[!	c #92D4FF",
"]!	c #64BDFB",
"^!	c #F4F7FB",
"_!	c #3066BA",
"`!	c #3770BE",
"a!	c #45932D",
"b!	c #61A245",
"c!	c #95C07F",
"d!	c #5D9E39",
"e!	c #3A8A11",
"f!	c #428E16",
"g!	c #48901C",
"h!	c #509622",
"i!	c #60BBFB",
"j!	c #5FBDFC",
"k!	c #61BBFC",
"l!	c #2C63B8",
"m!	c #3268BB",
"n!	c #EAF1F8",
"o!	c #499331",
"p!	c #5EA042",
"q!	c #398B14",
"r!	c #DCEAF6",
"s!	c #EBF3FA",
"t!	c #F3F7FC",
"u!	c #F4F8FC",
"v!	c #FDFEFE",
"w!	c #295FB6",
"x!	c #3369BA",
"y!	c #2F64B9",
"z!	c #3065BA",
"{!	c #1D7A03",
"|!	c #217A0E",
"}!	c #2F65B9",
"~!	c #2E64B9",
" #	c #2D64B8",
"!#	c #2D63B8",
"##	c #2B61B6",
"$#	c #2D61B6",
"  # $ % % % % & ' ( ) *         ",
"  + , - . 0 0 0 1 , 2 3 4       ",
"  5 6 7 8 9 : ; < = > ? @ A     ",
"  B C D E F G H I J K L M N O   ",
"  P C Q R S D T U V W , X Y Z   ",
"  P [ ] ^ _ ` F a I b c d e f   ",
"  g h i j k l m n o I p q r s   ",
"  t u v w x y z ` n 7 { I | }   ",
"  ~  !!!#!$!j k z R %!o &!'!(!  ",
"  )!*!+!,!-!.!0!1!2!3!4!8 5!6!  ",
"  7!8!9!:!;!,!<!=!>!?!@!A!B!C!  ",
"D!E!F!G!H!I!J!K!<!L!M!N!N!O!P!  ",
"  Q!R!S!T!U!V!W!X!Y!Z![!]!^!_!  ",
"  `!a!b!c!d!e!f!g!h!i!j!k!K l!  ",
"  m!n!o!p!q!r!r!s!s!'!t!u!v!w!  ",
"  x!y!z!{!|!}!y!~! # #!#!###$#  "};