/* XPM */ 
static const char * const goforward_xpm[] = {
"16 16 186 2",
"  	c None",
"! 	c black",
"# 	c #437CC0",
"$ 	c #4C8AC8",
"% 	c #4E8BC8",
"& 	c #4E8CC8",
"' 	c #4E8BC9",
"( 	c #4E8AC7",
") 	c #4A88C4",
"* 	c #3A75C3",
"+ 	c #4884C3",
", 	c #ECF2F7",
"- 	c #EEF4F8",
". 	c #EDF4F8",
"0 	c #EDF3F8",
"1 	c #ECF2F8",
"2 	c #D7E6F2",
"3 	c #7CB1E2",
"4 	c #6493DB",
"5 	c #4A87C4",
"6 	c #F2F6FA",
"7 	c #C7E0FA",
"8 	c #C9E1FB",
"9 	c #C9E2FB",
": 	c #C8E0FB",
"; 	c #C4DFF9",
"< 	c #C0DBF8",
"= 	c #B7D6F4",
"> 	c #F8FBFF",
"? 	c #B3D8F6",
"@ 	c #7CAFE1",
"A 	c #6391DB",
"B 	c #4B88C5",
"C 	c #F1F5F9",
"D 	c #CDE3FC",
"E 	c #CEE3FB",
"F 	c #CDE3FB",
"G 	c #CBE2FB",
"H 	c #C8E0F9",
"I 	c #C1DCF8",
"J 	c #B9D6F5",
"K 	c #F8FBFD",
"L 	c #CDE6FC",
"M 	c #C9E5FA",
"N 	c #83B5E2",
"O 	c #4178BE",
"P 	c #4A88C5",
"Q 	c #CFE3FC",
"R 	c #D0E4FB",
"S 	c #CFE4FC",
"T 	c #CAE1FA",
"U 	c #C3DDF9",
"V 	c #BBD9F6",
"W 	c #DFE9F4",
"X 	c #F3F7FB",
"Y 	c #E9EFF5",
"Z 	c #447DC1",
"[ 	c #F0F4F9",
"] 	c #D3E6FC",
"^ 	c #D4E6FC",
"_ 	c #D3E7FD",
"` 	c #D1E4FC",
"a 	c #C8E0FA",
"b 	c #BAD6F5",
"c 	c #B4D4F3",
"d 	c #B2D2F1",
"e 	c #F0F4F8",
"f 	c #4581C3",
"g 	c #4987C5",
"h 	c #EFF4F9",
"i 	c #D7E7FE",
"j 	c #D6E7FD",
"k 	c #D5E7FD",
"l 	c #D4E6FD",
"m 	c #D2E6FC",
"n 	c #CCE1FB",
"o 	c #C7DFFA",
"p 	c #BCDAF6",
"q 	c #BAD8F6",
"r 	c #EFF4FA",
"s 	c #4582C5",
"t 	c #4887C5",
"u 	c #EDF4F9",
"v 	c #D8E8FE",
"w 	c #D7E8FE",
"x 	c #D6E7FE",
"y 	c #D3E5FD",
"z 	c #71A745",
"{ 	c #649E30",
"| 	c #EDF4FA",
"} 	c #4481C5",
"~ 	c #4683C5",
" !	c #ECF3F9",
"!!	c #D6E8FE",
"#!	c #6AA340",
"$!	c #80B259",
"%!	c #569727",
"&!	c #EAF2FA",
"'!	c #417FC5",
"(!	c #4481C4",
")!	c #EBF2F8",
"*!	c #6EA43C",
"+!	c #6EA339",
",!	c #68A135",
"-!	c #629D31",
".!	c #7BAE54",
"0!	c #A9CB90",
"1!	c #73AA4E",
"2!	c #47901A",
"3!	c #3E7BC3",
"4!	c #417FC4",
"5!	c #E8F1F8",
"6!	c #D5E5FE",
"7!	c #6AA236",
"8!	c #AFCE95",
"9!	c #ACCD93",
":!	c #A7CB8F",
";!	c #8FBB73",
"<!	c #A0C789",
"=!	c #67A445",
">!	c #34860A",
"?!	c #3F7BC3",
"@!	c #E6F0F7",
"A!	c #54B3F8",
"B!	c #55B3F7",
"C!	c #53B4F7",
"D!	c #629E30",
"E!	c #8DB96E",
"F!	c #88B76A",
"G!	c #84B565",
"H!	c #7FB260",
"I!	c #81B466",
"J!	c #97C182",
"K!	c #5B9F3B",
"L!	c #247E00",
"M!	c #3B77C0",
"N!	c #E3EDF7",
"O!	c #6DC1FD",
"P!	c #9FD8FF",
"Q!	c #9DD7FF",
"R!	c #5A9A28",
"S!	c #A8CA8F",
"T!	c #A4C88C",
"U!	c #A0C589",
"V!	c #9DC487",
"W!	c #84B569",
"X!	c #96C181",
"Y!	c #65A447",
"Z!	c #22791C",
"[!	c #3770BE",
"]!	c #DFEBF5",
"^!	c #67BEFD",
"_!	c #66BCFC",
"`!	c #64BDFB",
"a!	c #509622",
"b!	c #48901C",
"c!	c #428E16",
"d!	c #3A8A11",
"e!	c #5D9E39",
"f!	c #95C07F",
"g!	c #61A245",
"h!	c #45932D",
"i!	c #2B64B3",
"j!	c #3268BB",
"k!	c #EAF1F8",
"l!	c #DFECF7",
"m!	c #DEEBF6",
"n!	c #DEEAF6",
"o!	c #DCEAF6",
"p!	c #EBF3FA",
"q!	c #398B14",
"r!	c #5EA042",
"s!	c #499331",
"t!	c #F8FBF8",
"u!	c #295FB6",
"v!	c #3369BA",
"w!	c #2F64B9",
"x!	c #3065BA",
"y!	c #2F65B9",
"z!	c #2E64B9",
"{!	c #2D64B8",
"|!	c #217A0E",
"}!	c #1D7A03",
"~!	c #2D63B5",
" #	c #2B61B6",
"!#	c #2D61B6",
"  # $ % % % % & ' ( ) *         ",
"  + , - . 0 0 0 1 , 2 3 4       ",
"  5 6 7 8 9 : ; < = > ? @ A     ",
"  B C D E F G H I J K L M N O   ",
"  P C Q R S D T U V W , X Y Z   ",
"  P [ ] ^ _ ` F a I b c d e f   ",
"  g h i j k l m n o I p q r s   ",
"  t u v v w x y ` n z { I | }   ",
"  ~  !!!w j j k y R #!$!%!&!'!  ",
"  (!)!x j j *!+!,!-!.!0!1!2!3!  ",
"  4!5!6!y y 7!8!9!0!:!;!<!=!>!  ",
"  ?!@!A!B!C!D!9!E!F!G!H!I!J!K!L!",
"  M!N!O!P!Q!R!S!T!U!V!W!X!Y!Z!  ",
"  [!]!^!_!`!a!b!c!d!e!f!g!h!i!  ",
"  j!k!l!m!n!o!o!p!p!q!r!s!t!u!  ",
"  v!w!x!y!y!y!w!z!{!|!}!~! #!#  "};