/* XPM */ 
static const char * const goposition_xpm[] = {
"16 16 203 2",
"  	c None",
"! 	c #495348",
"# 	c #5C695B",
"$ 	c #5F6C5E",
"% 	c #606C5E",
"& 	c #606C5F",
"' 	c #616C5F",
"( 	c #626C5F",
") 	c #5E695D",
"* 	c #4A5349",
"+ 	c #FBFCFB",
", 	c #FCFEFC",
"- 	c #F8FCF7",
". 	c #F8FCF8",
"0 	c #F9FCF7",
"1 	c #EEF7EC",
"2 	c #EEF7ED",
"3 	c #EDF6EF",
"4 	c #ECF4EE",
"5 	c #EBF4EB",
"6 	c #F9F99C",
"7 	c #EDB36B",
"8 	c #FE7061",
"9 	c #E9E77F",
": 	c #F4F48B",
"; 	c #CDCD51",
"< 	c #A3C1EC",
"= 	c #89ACDD",
"> 	c #96B9EB",
"? 	c #7FA6DD",
"@ 	c #82AAE2",
"A 	c #749FDA",
"B 	c #D4EAD9",
"C 	c #636D60",
"D 	c #EAEA89",
"E 	c #DEDD71",
"F 	c #F06455",
"G 	c #DF9E55",
"H 	c #E8E872",
"I 	c #C0C045",
"J 	c #A4BABA",
"K 	c #82A3D0",
"L 	c #8DAFDE",
"M 	c #799DD1",
"N 	c #79A1D6",
"O 	c #7097CF",
"P 	c #D5EBD7",
"Q 	c #636D61",
"R 	c #F9F99E",
"S 	c #EAE984",
"T 	c #FAD383",
"U 	c #F05951",
"V 	c #F7F286",
"W 	c #D7DA5F",
"X 	c #CAD597",
"Y 	c #9BB6E0",
"Z 	c #A8C7ED",
"[ 	c #93B2E0",
"] 	c #97B7E6",
"^ 	c #8BADDE",
"_ 	c #D6ECD7",
"` 	c #636D62",
"a 	c #EAEA8F",
"b 	c #DEDD77",
"c 	c #EAE980",
"d 	c #E26A4D",
"e 	c #EE9C62",
"f 	c #D7D75D",
"g 	c #C9CB5A",
"h 	c #96AFD4",
"i 	c #9EB9E2",
"j 	c #8EABD6",
"k 	c #90AFDB",
"l 	c #85A6D4",
"m 	c #D7EDD6",
"n 	c #F9F9A5",
"o 	c #EAE98A",
"p 	c #FAF898",
"q 	c #EBD377",
"r 	c #FF6A64",
"s 	c #EADC76",
"t 	c #DEDF6F",
"u 	c #B4C4C0",
"v 	c #B9D1F1",
"w 	c #A8C0E5",
"x 	c #ADC7EA",
"y 	c #A0BCE4",
"z 	c #636E62",
"{ 	c #F1F19E",
"| 	c #DFDD80",
"} 	c #EBEA89",
"~ 	c #DEDE74",
" !	c #EE9064",
"!!	c #E27D54",
"#!	c #DDDC67",
"$!	c #B6BE76",
"%!	c #B1C8E5",
"&!	c #A2B9DA",
"'!	c #A5BBDE",
"(!	c #9EB6D9",
")!	c #D8EDD6",
"*!	c #636E63",
"+!	c #FAFAAE",
",!	c #EBEB93",
"-!	c #FAF9A1",
".!	c #F3ED94",
"0!	c #EB5E58",
"1!	c #E6D986",
"2!	c #D1D25B",
"3!	c #C9DBDC",
"4!	c #CDD4AB",
"5!	c #D4DA96",
"6!	c #CED176",
"7!	c #DBEFD4",
"8!	c #646E63",
"9!	c #EDEBA3",
":!	c #DFDF8C",
";!	c #EBEB96",
"<!	c #B6CF71",
"=!	c #98CA73",
">!	c #AF8255",
"?!	c #D7775F",
"@!	c #B5C250",
"A!	c #CDD58F",
"B!	c #C5C54F",
"C!	c #DDD07D",
"D!	c #DB9863",
"E!	c #DCE4CA",
"F!	c #656E63",
"G!	c #626D60",
"H!	c #F9FCF8",
"I!	c #FBFBBB",
"J!	c #DFE79C",
"K!	c #BAE192",
"L!	c #96C976",
"M!	c #A8DA88",
"N!	c #97C574",
"O!	c #F37B70",
"P!	c #ACAD6A",
"Q!	c #DDE181",
"R!	c #E1A657",
"S!	c #E68B55",
"T!	c #BC9E60",
"U!	c #DBE9D0",
"V!	c #F8FBF7",
"W!	c #C3DE9A",
"X!	c #92C272",
"Y!	c #9ECF7F",
"Z!	c #8EC06E",
"[!	c #9CCE7D",
"]!	c #8BBE6D",
"^!	c #BAA36F",
"_!	c #DA5747",
"`!	c #D17B4B",
"a!	c #B58C50",
"b!	c #9CBD72",
"c!	c #8EC273",
"d!	c #DAEFD7",
"e!	c #AEDB95",
"f!	c #99C97E",
"g!	c #A9D88E",
"h!	c #96C879",
"i!	c #A8D689",
"j!	c #ABA15E",
"k!	c #D78754",
"l!	c #E05C47",
"m!	c #C9A778",
"n!	c #98C97E",
"o!	c #9FD086",
"p!	c #99CA7F",
"q!	c #DAEED6",
"r!	c #EFF8EE",
"s!	c #BBDBA3",
"t!	c #A5CA8B",
"u!	c #B0D597",
"v!	c #A0C985",
"w!	c #BFAC73",
"x!	c #C58655",
"y!	c #B5C182",
"z!	c #AEAB76",
"{!	c #EB6F68",
"|!	c #A2C480",
"}!	c #A5D08B",
"~!	c #9FCA84",
" #	c #D7E9D2",
"!#	c #666E63",
"##	c #5F695E",
"$#	c #ECF5EB",
"%#	c #D7EDD4",
"&#	c #D7EED4",
"'#	c #D8EED4",
"(#	c #D8EED5",
")#	c #D9EED5",
"*#	c #DAEFD6",
"+#	c #ECE2D4",
",#	c #D6E5CF",
"-#	c #D9EDD5",
".#	c #DCEFD8",
"0#	c #626B60",
"1#	c #4B534A",
"2#	c #60695E",
"3#	c #666F63",
"4#	c #4D544B",
"! # $ $ $ $ % % % % & ' ' ( ) * ",
"# + , - - - . 0 . . 1 2 3 4 5 ) ",
"$ - 6 7 8 9 : ; < = > ? @ A B C ",
"$ - D E F G H I J K L M N O P Q ",
"% - R S T U V W X Y Z [ ] ^ _ ` ",
"% . a b c d e f g h i j k l m ` ",
"% . n o p q r s t u v w x y m z ",
"& . { | } ~  !!!#!$!%!&!'!(!)!*!",
"' . +!,!-!} .!0!1!2!3!4!5!6!7!8!",
"( . 9!:!;!<!=!>!?!@!A!B!C!D!E!F!",
"G!H!I!J!K!L!M!N!O!P!Q!R!S!T!U!F!",
"G!V!W!X!Y!Z![!]!^!_!`!a!b!c!d!F!",
"C 1 e!f!g!h!i!j!k!l!m!n!o!p!q!F!",
"Q r!s!t!u!v!w!x!y!z!{!|!}!~! #!#",
"##$#%#&#'#(#)#)#*#*#+#,#-#.#-#0#",
"1#2#z *!8!8!F!F!F!F!F!!#!#3#0#4#"};