/* XPM */ 
static const char * const help_xpm[] = {
"16 16 155 2",
"  	c None",
"! 	c black",
"# 	c #C1DAF8",
"$ 	c #BFD8F7",
"% 	c #BDD7F6",
"& 	c #BBD5F4",
"' 	c #B8D3F3",
"( 	c #B6D1F1",
") 	c #BED8F6",
"* 	c #BCD6F5",
"+ 	c #DCE9F9",
", 	c #DDE8F6",
"- 	c #DAE5F3",
". 	c #DCE7F5",
"0 	c #D6E4F5",
"1 	c #ABC8EB",
"2 	c #A8C5E9",
"3 	c #BAD4F4",
"4 	c #B7D2F2",
"5 	c #DFEAF7",
"6 	c #D0DEEE",
"7 	c #A6C0E3",
"8 	c #88ADD8",
"9 	c #85ABD7",
": 	c #9BBADD",
"; 	c #C7D6EB",
"< 	c #D9E6F3",
"= 	c #9EBDE3",
"> 	c #9BBAE1",
"? 	c #B2CEEF",
"@ 	c #DDE9F6",
"A 	c #C5D8EC",
"B 	c #80ABD7",
"C 	c #99BADC",
"D 	c #E3ECF6",
"E 	c #E2ECF5",
"F 	c #ADC8E4",
"G 	c #7AA6D2",
"H 	c #B9CEE6",
"I 	c #D5E2F1",
"J 	c #90B2DB",
"K 	c #ACC9EB",
"L 	c #D4E3F4",
"M 	c #CDDCEF",
"N 	c #7DA7D5",
"O 	c #769FD0",
"P 	c #F5F8FB",
"Q 	c #F5F8FC",
"R 	c #80A7D1",
"S 	c #7AA3CF",
"T 	c #C2D5EA",
"U 	c #C1D4EA",
"V 	c #82A6D2",
"W 	c #A2C0E6",
"X 	c #D9E5F3",
"Y 	c #9DBADF",
"Z 	c #749FCF",
"[ 	c #719DCD",
"] 	c #E3EBF5",
"^ 	c #B3CBE4",
"_ 	c #BED3E7",
"` 	c #F6F8FB",
"a 	c #BED3E5",
"b 	c #6A97C3",
"c 	c #90B3D6",
"d 	c #D2E0EE",
"e 	c #779DCC",
"f 	c #98B8E0",
"g 	c #DAE5F2",
"h 	c #7DA5D1",
"i 	c #709CCC",
"j 	c #6B99C7",
"k 	c #6A97C4",
"l 	c #B5CCE2",
"m 	c #EEF3F8",
"n 	c #E8EEF6",
"o 	c #A0BCD9",
"p 	c #6793C1",
"q 	c #709AC4",
"r 	c #D6E2F0",
"s 	c #6B94C4",
"t 	c #8EAFD9",
"u 	c #D9E4F2",
"v 	c #79A4D1",
"w 	c #6A98C4",
"x 	c #6996C3",
"y 	c #6895C3",
"z 	c #F2F6FA",
"{ 	c #E1EAF3",
"| 	c #6C94C1",
"} 	c #648EBD",
"~ 	c #638EBD",
" !	c #6C94BF",
"!!	c #D5E3EF",
"#!	c #608BBE",
"$!	c #83A6D3",
"%!	c #D3E1EF",
"&!	c #94B4D9",
"'!	c #6B97C7",
"(!	c #6894C2",
")!	c #6692C0",
"*!	c #658FBE",
"+!	c #628ABA",
",!	c #6289B8",
"-!	c #6189B7",
".!	c #85A6CB",
"0!	c #CCDCEA",
"1!	c #5682B7",
"2!	c #B8CCE4",
"3!	c #C4D6EA",
"4!	c #7098C7",
"5!	c #ECF1F7",
"6!	c #EAF0F6",
"7!	c #5E88B6",
"8!	c #6288B4",
"9!	c #BACEE2",
":!	c #A5BCD9",
";!	c #4C7AB1",
"<!	c #6991C2",
"=!	c #C9D8EA",
">!	c #B9CDE3",
"?!	c #6A93BF",
"@!	c #618BB9",
"A!	c #93AFCF",
"B!	c #6086B1",
"C!	c #A9BFDA",
"D!	c #BFD1E4",
"E!	c #4574AD",
"F!	c #5E88BC",
"G!	c #5A86BA",
"H!	c #C3D5E7",
"I!	c #BED2E5",
"J!	c #84A5C9",
"K!	c #668DB7",
"L!	c #6489B5",
"M!	c #7FA0C4",
"N!	c #B9CCE0",
"O!	c #BDD0E3",
"P!	c #3F6FAA",
"Q!	c #3C6DA8",
"R!	c #507DB4",
"S!	c #4D7BB2",
"T!	c #A2BAD7",
"U!	c #CADAE9",
"V!	c #D1E0EC",
"W!	c #C8D8E8",
"X!	c #9BB4D3",
"Y!	c #396BA6",
"Z!	c #3769A5",
"[!	c #4071AB",
"]!	c #3E6FA9",
"^!	c #3B6CA7",
"_!	c #396AA6",
"`!	c #3668A4",
"a!	c #3467A3",
"                                ",
"          # $ % & ' (           ",
"      ) * + , - - . 0 1 2       ",
"    3 4 5 6 7 8 9 : ; < = >     ",
"    ? @ A B C D E F G H I J     ",
"  K L M N O P Q Q P R S T U V   ",
"  W X Y Z [ ] ^ _ ` a b c d e   ",
"  f g h i j k l m n o p q r s   ",
"  t u v w x y z { | } ~  !!!#!  ",
"  $!%!&!'!(!)!*!*!+!,!-!.!0!1!  ",
"  e 2!3!4!*!*!5!6!7!7!8!9!:!;!  ",
"    <!=!>!?!@!A!A!7!B!C!D!E!    ",
"    F!G!H!I!J!K!L!M!N!O!P!Q!    ",
"      R!S!T!U!V!V!W!X!Y!Z!      ",
"          [!]!^!_!`!a!          ",
"                                "};