/* XPM */ 
static char * hexmode_xpm[] = {
"16 16 99 2",
"  	c None",
"! 	c black",
"# 	c #437CC0",
"$ 	c #4C8AC8",
"% 	c #4E8BC8",
"& 	c #4E8CC8",
"' 	c #4E8BC9",
"( 	c #4E8AC7",
") 	c #4A88C4",
"* 	c #3A75C3",
"+ 	c #4884C3",
", 	c #ECF2F7",
"- 	c #EEF4F8",
". 	c #EDF4F8",
"0 	c #EDF3F8",
"1 	c #ECF2F8",
"2 	c #D7E6F2",
"3 	c #7CB1E2",
"4 	c #6493DB",
"5 	c #4A87C4",
"6 	c #F3FCFC",
"7 	c #EBF3F3",
"8 	c #7CAFE1",
"9 	c #6391DB",
": 	c #4B88C5",
"; 	c #D9E8E8",
"< 	c #C9E5FA",
"= 	c #83B5E2",
"> 	c #4178BE",
"? 	c #4A88C5",
"@ 	c #D4E5E5",
"A 	c #B8C3C3",
"B 	c #838383",
"C 	c #C6D4D4",
"D 	c #C8D6D6",
"E 	c #E1F2F2",
"F 	c #E9EFF5",
"G 	c #D6E6E6",
"H 	c #808080",
"I 	c #C9D7D7",
"J 	c #E5F4F4",
"K 	c #F0F4F8",
"L 	c #4987C5",
"M 	c #D8E8E8",
"N 	c #7C7C7C",
"O 	c #CBD8D8",
"P 	c #EFF4FA",
"Q 	c #4887C5",
"R 	c #DCEAEA",
"S 	c #BAC3C3",
"T 	c #787878",
"U 	c #CBD6D6",
"V 	c #C0CBCB",
"W 	c #E3F3F3",
"X 	c #EDF4FA",
"Y 	c #4683C5",
"Z 	c #E1EDED",
"[ 	c #E4F4F4",
"] 	c #EAF2FA",
"^ 	c #4481C4",
"_ 	c #E6F0F0",
"` 	c #C0C6C6",
"a 	c #707070",
"b 	c #BDC3C3",
"c 	c #E7F5F5",
"d 	c #417FC4",
"e 	c #ECF3F3",
"f 	c #D9DFDF",
"g 	c #6D6D6D",
"h 	c #EBF6F6",
"i 	c #3F7BC3",
"j 	c #F1F6F6",
"k 	c #DDE1E1",
"l 	c #6A6A6A",
"m 	c #EEF8F8",
"n 	c #3B77C0",
"o 	c #C7CACA",
"p 	c #686868",
"q 	c #DDE0E0",
"r 	c #C5C7C7",
"s 	c #F2FAFA",
"t 	c #3770BE",
"u 	c #E8EFEF",
"v 	c #E0E8E8",
"w 	c #E4EBEB",
"x 	c #E7EEEE",
"y 	c #EBF1F1",
"z 	c #EFF4F4",
"{ 	c #F3F6F6",
"| 	c #F6F9F9",
"} 	c #F8FCFC",
"~ 	c white",
" !	c #3268BB",
"!!	c #3369BA",
"#!	c #2F64B9",
"$!	c #3065BA",
"%!	c #2F65B9",
"&!	c #2E64B9",
"'!	c #2D64B8",
"  # $ % % % % & ' ( ) *         ",
"  + , - . 0 0 0 1 , 2 3 4       ",
"  5 6 7 7 7 7 7 7 7 7 7 8 9     ",
"  : ; ; ; ; ; ; ; ; ; ; < = >   ",
"  ? @ A B A C B D A B A E F ?   ",
"  ? G H G H G H I H G H J K ?   ",
"  L M N M N M N O N M N E P L   ",
"  Q R S T S U T V S T S W X Q   ",
"  Y Z Z Z Z Z Z Z Z Z Z [ ] Y   ",
"  ^ _ ` a _ b a b C a _ c K ^   ",
"  d e f g e g e g G g e h P d   ",
"  i j k l j l j l M l j m X i   ",
"  n j o p q r p r U p q s ] n   ",
"  t u v w x y z { | | } ~ X t   ",
"   !; ; ; ; ; ; ; ; ; E X ]  !  ",
"  !!#!$!%!%!%!#!$!%!%!%!#!&!'!  "};