/* XPM */ 
static char * html_xpm[] = {
"16 16 137 2",
"  	c None",
"! 	c black",
"# 	c #7FAAEA",
"$ 	c #7BA8E8",
"% 	c #76A3E6",
"& 	c #6F9FE2",
"' 	c #6A9AE2",
"( 	c #6196E1",
") 	c #588FDD",
"* 	c #518AD9",
"+ 	c #4884D8",
", 	c #3D7FD6",
"- 	c #3476D2",
". 	c #B6D0F3",
"0 	c #B6D0F2",
"1 	c #B2CEF1",
"2 	c #AFCBF0",
"3 	c #ABC9EF",
"4 	c #A7C5EE",
"5 	c #A2C1ED",
"6 	c #9DBFEB",
"7 	c #98BAEA",
"8 	c #93B6E8",
"9 	c #8EB3E6",
": 	c #88AFE4",
"; 	c #226DCD",
"< 	c #A8C5EF",
"= 	c #A5C3EF",
"> 	c #A1C1EE",
"? 	c #9DBEEC",
"@ 	c #97BBEB",
"A 	c #92B7E9",
"B 	c #8DB3E8",
"C 	c #87AFE6",
"D 	c #80ABE3",
"E 	c #7AA6E2",
"F 	c #73A2E0",
"G 	c #6D9DDE",
"H 	c #7FA9E2",
"I 	c #1961C9",
"J 	c #B4CFF2",
"K 	c #EEF4FC",
"L 	c #9EBEEC",
"M 	c #EDF3FB",
"N 	c #F4F8FD",
"O 	c #F4F7FD",
"P 	c #F3F7FC",
"Q 	c #C9DBF4",
"R 	c #8DB3E7",
"S 	c #DAE6F7",
"T 	c #82ACE3",
"U 	c #D6E4F6",
"V 	c #6196DB",
"W 	c #75A2DF",
"X 	c #1758C3",
"Y 	c #78A6E6",
"Z 	c #F5F8FD",
"[ 	c #97B9EA",
"] 	c #8BB2E7",
"^ 	c #7FA9E3",
"_ 	c #E5EEF9",
"` 	c #B3CDEE",
"a 	c #8DB2E5",
"b 	c #F6F9FD",
"c 	c #568ED8",
"d 	c #6C9DDD",
"e 	c #154DBF",
"f 	c #6D9FE2",
"g 	c #A7C7EE",
"h 	c #FCFDFE",
"i 	c #F3F7FD",
"j 	c #F8FAFE",
"k 	c #F4F7FC",
"l 	c #E3ECF9",
"m 	c #EBF2FA",
"n 	c #85ADE3",
"o 	c #EAF1FA",
"p 	c #4C88D5",
"q 	c #6598DA",
"r 	c #1442BC",
"s 	c #A0C0EC",
"t 	c #83ACE5",
"u 	c #F2F6FC",
"v 	c #76A3E1",
"w 	c #689ADD",
"x 	c #E0EBF8",
"y 	c #BDD3F0",
"z 	c #CEDEF3",
"{ 	c #7EA8E0",
"| 	c #E9F0FA",
"} 	c #4382D2",
"~ 	c #5D93D9",
" !	c #133BB6",
"!!	c #528DDB",
"#!	c #78A5E1",
"$!	c #F1F5FC",
"%!	c #6A9CDD",
"&!	c #5D93DA",
"'!	c #DEE9F7",
"(!	c #508BD6",
")!	c #B9D1EF",
"*!	c #76A3DE",
"+!	c #F7FAFD",
",!	c #DDE8F7",
"-!	c #588ED7",
".!	c #1234B5",
"0!	c #4283D6",
"1!	c #8FB4E7",
"2!	c #6699DC",
"3!	c #5F94DB",
"4!	c #5990D9",
"5!	c #528CD7",
"6!	c #4784D3",
"7!	c #4280D2",
"8!	c #3D7DD0",
"9!	c #387ACF",
":!	c #3478CE",
";!	c #538CD5",
"<!	c #1232B3",
"=!	c #86AEE4",
">!	c #80AAE3",
"?!	c #7AA7E1",
"@!	c #70A0DE",
"A!	c #6C9CDC",
"B!	c #6798DB",
"C!	c #6296DA",
"D!	c #5A90D7",
"E!	c #568ED7",
"F!	c #528BD5",
"G!	c #1A64C9",
"H!	c #195FC8",
"I!	c #1758C5",
"J!	c #1652C1",
"K!	c #1446BC",
"L!	c #1440BA",
"M!	c #133DB8",
"N!	c #1338B6",
"                                ",
"                                ",
"                                ",
"# # # # # # $ % & ' ( ) * + , - ",
"# . . . 0 1 2 3 4 5 6 7 8 9 : ; ",
"# . < = > ? @ A B C D E F G H I ",
"# J K L M N O P Q R S T U V W X ",
"Y 2 Z [ N ] Z ^ _ ` Z a b c d e ",
"f g h i j D k F l m N n o p q r ",
"( s P t u v P w x y z { | } ~  !",
"!!7 u #!$!%!u &!'!(!)!*!+!,!-!.!",
"0!1!F G 2!3!4!5!p 6!7!8!9!:!;!<!",
"- =!>!?!W @!A!B!C!~ D!E!;!F!F!<!",
"; G!H!I!J!e K!L!M!N!.!<!<!<!<!<!",
"                                ",
"                                "};