/* XPM */ 
static char * japanese_xpm[] = {
"16 16 102 2",
"  	c None",
"! 	c black",
"# 	c #D9D4CB",
"$ 	c #8D9397",
"% 	c #D0C7B8",
"& 	c #343E45",
"' 	c #B9B2A7",
"( 	c #25282D",
") 	c #C2C7CA",
"* 	c #C9C9C8",
"+ 	c #C7C8C7",
", 	c #C8C9C8",
"- 	c #CBCDCE",
". 	c #AFA59C",
"0 	c #312F2D",
"1 	c #2D2D2E",
"2 	c #1F1D1C",
"3 	c #050507",
"4 	c #303233",
"5 	c #343533",
"6 	c #343534",
"7 	c #2F2F2C",
"8 	c #20252D",
"9 	c #D3DBE4",
": 	c #E5E3E1",
"; 	c #CCCDCD",
"< 	c #DDDDDE",
"= 	c #B5AD9F",
"> 	c #252B2F",
"? 	c #E4DBCD",
"@ 	c #1E2325",
"A 	c #C5C9CE",
"B 	c #B9B9B7",
"C 	c #A09D97",
"D 	c #707579",
"E 	c #B6ADA4",
"F 	c #312D29",
"G 	c #010102",
"H 	c #191B1F",
"I 	c #333332",
"J 	c #0B0702",
"K 	c #2E3338",
"L 	c #AEB7C0",
"M 	c #928273",
"N 	c #0E1117",
"O 	c #777474",
"P 	c #16181D",
"Q 	c #CFDBE7",
"R 	c #302827",
"S 	c #A9B1BB",
"T 	c #91897F",
"U 	c #020202",
"V 	c #A9B3BE",
"W 	c #D0C7BA",
"X 	c #0D0E0E",
"Y 	c #C6D5E0",
"Z 	c #1C1617",
"[ 	c #9F8E7D",
"] 	c #3B4655",
"^ 	c #938677",
"_ 	c #1C2332",
"` 	c #594A3D",
"a 	c #566577",
"b 	c #1F2323",
"c 	c #AAB3B8",
"d 	c #2E251F",
"e 	c #B5C4D1",
"f 	c #ECE2D8",
"g 	c #161715",
"h 	c #CCDAE3",
"i 	c #2A2119",
"j 	c #A8BACC",
"k 	c #372F2A",
"l 	c #121414",
"m 	c #5C6771",
"n 	c #EEE2D6",
"o 	c #151514",
"p 	c #D2DFE8",
"q 	c #271E14",
"r 	c #93A7BB",
"s 	c #1A110B",
"t 	c #28323C",
"u 	c #CAC6C1",
"v 	c #C6C6C5",
"w 	c #655649",
"x 	c #2C3541",
"y 	c #766858",
"z 	c #171E25",
"{ 	c #676764",
"| 	c #181817",
"} 	c #020100",
"~ 	c #788696",
" !	c #7B6858",
"!!	c #030305",
"#!	c #242932",
"$!	c #CCD4DC",
"%!	c #6F6862",
"&!	c #4E5257",
"'!	c #CACED1",
"(!	c #8C8880",
")!	c #919AAA",
"*!	c #D8D9DB",
"                                ",
"          # $                   ",
"          ' ( ) * + , -         ",
"    . 0 1 2 3 4 5 6 7 8 9       ",
"    : ; < = >                   ",
"          ? @ A B C D           ",
"        E F G H I J ! K L       ",
"      M N O P Q   R S T U V     ",
"    W X Y   Z   [ ]     ^ _     ",
"    ` a     b c d e     f g h   ",
"    i j     k l m       n o p   ",
"    q r     s t     u v w x     ",
"    y z { | } ~      !!!#!$!    ",
"      %!&!'!(!)!      *!        ",
"                                ",
"                                "};