/* XPM */ 
static char * linux_xpm[] = {
"16 16 72 1",
" 	c None",
"!	c black",
"#	c #222E34",
"$	c #1E2A2F",
"%	c #2C373E",
"&	c #263441",
"'	c #37444E",
"(	c #2A363C",
")	c #636C73",
"*	c #7F7C66",
"+	c #838272",
",	c #455056",
"-	c #857432",
".	c #E0A700",
"0	c #E5AF0E",
"1	c #4D5040",
"2	c #555E60",
"3	c #D7C998",
"4	c #FFF5CB",
"5	c #889095",
"6	c #0F1C22",
"7	c #81898E",
"8	c #F6FCFF",
"9	c #EFF5FF",
":	c #D5D9DC",
";	c #333E44",
"<	c #232F34",
"=	c #4E585F",
">	c #DFE2E3",
"?	c #F0F3F4",
"@	c #E9ECEC",
"A	c #F5F8F9",
"B	c #7C8386",
"C	c #2F3A3F",
"D	c #8E959B",
"E	c white",
"F	c #E8EBED",
"G	c #EAEDEE",
"H	c #F1F5FA",
"I	c #AAB3BE",
"J	c #2F3D4B",
"K	c #E7B203",
"L	c #C4A133",
"M	c #BEC7D6",
"N	c #F0F2F1",
"O	c #E5EBF5",
"P	c #FAEFCA",
"Q	c #B5A45E",
"R	c #776F3A",
"S	c #FFC606",
"T	c #FFC708",
"U	c #FBBD00",
"V	c #786E3C",
"W	c #DFE6F2",
"X	c #FAFFFF",
"Y	c #EBDDAB",
"Z	c #F6B600",
"[	c #FFC507",
"]	c #FFCB00",
"^	c #FEC006",
"_	c #FCBF07",
"`	c #FFC605",
"a	c #DFAC10",
"b	c #757B78",
"c	c #788188",
"d	c #8F7C35",
"e	c #FFC803",
"f	c #FDBF07",
"g	c #C2CC3F",
"h	c #FEC007",
"i	c #FFC104",
"j	c #FEC206",
"                ",
"                ",
"       #$       ",
"      %&'(      ",
"      )*+,      ",
"      -.01      ",
"      23456     ",
"      789:;<    ",
"     =>?@ABC    ",
"     DEFGHIJ    ",
"    KLMNOPQR    ",
"   STUVWXYZ[]   ",
"   ^_`abcdefg   ",
"    h^i   j     ",
"                ",
"                "};