/* XPM */ 
static char * linuxlogo_xpm[] = {
"16 16 80 1",
" 	c None",
"!	c black",
"#	c #484849",
"$	c #6F706F",
"%	c #777776",
"&	c #252525",
"'	c #323438",
"(	c #48464C",
")	c #65646D",
"*	c #202224",
"+	c #5C4725",
",	c #DFAD4C",
"-	c #DFB14B",
".	c #362915",
"0	c #020202",
"1	c #4D402A",
"2	c #F6DA6D",
"3	c #FFF188",
"4	c #5D5548",
"5	c #111112",
"6	c #6C6D6F",
"7	c #E9EAF2",
"8	c #E4E4EE",
"9	c #A9A8A6",
":	c #0E0E0E",
";	c #2D2D2E",
"<	c #222425",
"=	c #313233",
">	c #CDCDCD",
"?	c #EEEEED",
"@	c #E5E5E4",
"A	c #E6E6E7",
"B	c #535354",
"C	c #1D1C1C",
"D	c #0C0A0A",
"E	c #787776",
"F	c #F2EEE9",
"G	c #D8D5D1",
"H	c #D9D7D3",
"I	c #E0DDD9",
"J	c #A2A09D",
"K	c #22252A",
"L	c #000005",
"M	c #814B25",
"N	c #C59966",
"O	c #A88765",
"P	c #AEACA7",
"Q	c #E8DED0",
"R	c #DDD6CC",
"S	c #EFDBC4",
"T	c #9B8065",
"U	c #6D563F",
"V	c #8B5A27",
"W	c #E7A13D",
"X	c #FFDD92",
"Y	c #E8A360",
"Z	c #785D48",
"[	c #FFFFEB",
"]	c #FFFFEC",
"^	c #FCDAB7",
"_	c #FFC17C",
"`	c #FFD559",
"a	c #FFC925",
"b	c #DDB619",
"c	c #F8CC23",
"d	c #FFD739",
"e	c #F4B743",
"f	c #867A6D",
"g	c #7C7770",
"h	c #A17F40",
"i	c #FFE639",
"j	c #F2D217",
"k	c #AF9412",
"l	c #272105",
"m	c #4C3F07",
"n	c #95830C",
"o	c #82670C",
"p	c #423001",
"q	c #B4A50E",
"r	c #5D4F09",
"                ",
"                ",
"      #$%&      ",
"      '()*!     ",
"      +,-.0     ",
"      1234!     ",
"     56789:;    ",
"    <=>?@ABC    ",
"    DEFGHIJKL   ",
"   MNOPQRSTUV   ",
"   WXYZ[]^_`a   ",
"   bcdefghijk   ",
"   lmno!!pqr    ",
"                ",
"                ",
"                "};