/* XPM */ 
static char * lock_xpm[] = {
"16 15 86 1",
" 	c None",
"!	c black",
"#	c #DFDEDD",
"$	c #E1E0DF",
"%	c #DCDADB",
"&	c #C2C0C1",
"'	c #BFBEBF",
"(	c #D8D7D7",
")	c #CECDCC",
"*	c #B9B8B8",
"+	c #ADAEAC",
",	c #B9B9B9",
"-	c #B6B5B5",
".	c #CBCACA",
"0	c #D1CFCE",
"1	c #BAB9B8",
"2	c #B4B4B2",
"3	c #CCCBC9",
"4	c #CBCCD2",
"5	c #B2B3B7",
"6	c #B1B2B5",
"7	c #CACBD1",
"8	c #827B52",
"9	c #B0A67F",
":	c #9F987B",
";	c #A9A187",
"<	c #ABA389",
"=	c #A0987C",
">	c #B0A67E",
"?	c #837B50",
"@	c #E2C352",
"A	c #F2CE5F",
"B	c #F8DB89",
"C	c #FFE798",
"D	c #FCE081",
"E	c #F1D159",
"F	c #ECC52F",
"G	c #E1C144",
"H	c #E4C262",
"I	c #EDCB7C",
"J	c #F2D386",
"K	c #AB9452",
"L	c #C0A43B",
"M	c #EAC531",
"N	c #E2BB2D",
"O	c #E2BF54",
"P	c #E6C37A",
"Q	c #EDC979",
"R	c #EECB69",
"S	c #1C1D1D",
"T	c #645723",
"U	c #F5CC37",
"V	c #E4BE4F",
"W	c #E5C375",
"X	c #E4BF74",
"Y	c #E3BB55",
"Z	c #F3C93F",
"[	c #4A4123",
"]	c #7D6A2E",
"^	c #F8CE55",
"_	c #E7C171",
"`	c #E5C17C",
"a	c #DDB350",
"b	c #DFB12A",
"c	c #E2B31E",
"d	c #756D4F",
"e	c #94855E",
"f	c #F2C870",
"g	c #E7C079",
"h	c #E0B762",
"i	c #D8A924",
"j	c #DEAC17",
"k	c #E0B12D",
"l	c #F4CB6B",
"m	c #F4CC81",
"n	c #E9BF72",
"o	c #E7BA5B",
"p	c #DBAC35",
"q	c #8A6A0B",
"r	c #876913",
"s	c #846928",
"t	c #816734",
"u	c #836A3E",
"v	c #876D3B",
"w	c #8A6D27",
"x	c #8A6A12",
"                ",
"       #$       ",
"      %&'(      ",
"     )*+,-.     ",
"     01  23     ",
"     45  67     ",
"    89:;<=>?    ",
"    @ABCDEFG    ",
"    HIJKLMNO    ",
"    PQRSTUVW    ",
"    XYZ[]^_`    ",
"    abcdefgh    ",
"    ijklmnop    ",
"    qrstuvwx    ",
"                "};