/* XPM */
static char *lock_open_xpm[] = {
/* columns rows colors chars-per-pixel */
"16 15 103 2",
"   c None",
"C  c #0A0B0D",
"@. c #200F00",
"(  c #794409",
",  c #232528",
"n  c #D8A563",
"`  c #B58042",
"*  c #64686E",
"u  c #5E3304",
"w  c #646568",
"B  c #6D3F0D",
"k  c #3F4349",
"{  c #9F6726",
"_  c #9F6727",
"~  c #CC9759",
"!  c #AE7635",
"K  c #DBA669",
"&  c #9EA4AC",
")  c #613403",
"Q  c #663806",
".  c #292A28",
"+  c #292A2D",
"'  c #A77235",
"2  c #6F747A",
"L  c #CF9B5E",
";  c #6F747B",
"T  c #D49F60",
"A  c #C58D4C",
"|  c #6E400C",
"5  c #1E0000",
"s  c #BC9552",
"4  c #0B0000",
"<  c #09090A",
"$. c #1F0D00",
"t  c #5E6269",
"$  c #AEB4BA",
"X. c #714410",
"W  c #76450F",
"l  c #393D43",
"O  c #4D5054",
"1  c #7F848C",
"c  c #CB924F",
"N  c #CB9250",
"a  c #BD9956",
"d  c #B89250",
"b  c #DDAB69",
"%. c #200E00",
"%  c #64676C",
"J  c #BF8746",
"p  c #C09D5A",
"9  c #2E0400",
"}  c #482500",
"v  c #EAB774",
"R  c #C79255",
"Y  c #B8803F",
"q  c #58595D",
"S  c #E5B072",
"r  c #6A6F76",
"^  c #C08B4F",
"D  c #D9A568",
"#  c #B0B6BC",
"+. c #1A0E00",
"U  c #693B09",
"V  c #090B0D",
"X  c #545656",
"x  c #6C3F0D",
"h  c #A37136",
"i  c #A87538",
"#. c #1D0C00",
"E  c #C18C4E",
"7  c #2B0200",
"/  c #BA8548",
"F  c #D39F62",
"o. c #6D400C",
"j  c #633504",
"Z  c #81501A",
">  c #08090A",
"g  c #AF935C",
".. c #754814",
"H  c #6B3D0B",
"m  c #DEAB69",
"=  c #383A3E",
"P  c #CA9558",
"@  c #92979D",
"0  c #060000",
" . c #7D501C",
"e  c #090A09",
"z  c #82511B",
"[  c #A06C2E",
"&. c #1F0E00",
"]  c #A06C2F",
"O. c #492500",
"3  c #170000",
"M  c #EBB774",
"-  c #63676C",
"o  c #5E6062",
"f  c #AB8D57",
"6  c #280000",
"I  c #7B4A13",
":  c #7F858C",
"8  c #2B0400",
"y  c #6F4210",
"G  c #7E4E17",
/* pixels */
"                                ",
"                  . X o X .     ",
"              O + @ # $ # @ + O ",
"                % & * = * & -   ",
"                ; : > , < 1 2   ",
"3 4 5 6 7 8 9 0 q w   e   r t   ",
"y u i p a s s d f g h j   k l   ",
"z x c v b n n n m M N B   V C   ",
"Z x A S D F F F D S A x Z       ",
"I U Y T R E E E R T Y U I       ",
"W Q ! ~ ^ / / / ^ ~ ! Q W       ",
"( ) _ ` ' ] [ ] ' ` { ) (       ",
"  } |  ...X.X.X... .o.O.        ",
"  +.@.#.$.%.%.%.$.#.&.+.        ",
"                                "
};
