/* XPM */
static char *lock_xpm[] = {
/* columns rows colors chars-per-pixel */
"16 15 92 1",
"  c None",
"h c #D8A563",
"1 c #323437",
"# c #AAAFB5",
"a c #310F00",
"6 c #373232",
"+ c #080808",
". c #171715",
"t c #86531D",
"{ c #1E0C00",
"w c #FFFFFF",
"P c #3E1B00",
"m c #D6A265",
"G c #C7904F",
"I c #7F4C11",
"8 c #200000",
"D c #3C1800",
"v c #371400",
"0 c #74757A",
"p c #BC9552",
"( c #714410",
"r c #1C0000",
"X c #020200",
"g c #DAA764",
"o c #434544",
"L c #562D00",
"3 c #1A0000",
"x c #D5A064",
") c #794C17",
"< c #8E939C",
"} c #200E00",
"N c #C99558",
"Z c #CE995C",
"n c #D8A160",
"/ c #724511",
"j c #361200",
"b c #956126",
"2 c #4E5156",
"U c #B37C3B",
"_ c #5C3203",
"H c #C79256",
"z c #E0AC6F",
"B c #391600",
"l c #E0A968",
"* c #8F949C",
"^ c #7A4D19",
"u c #AD9460",
"T c #A26D30",
"J c #BB874A",
"W c #FFA700",
", c #4F5257",
"e c #532B00",
"= c #8B9199",
"4 c #272325",
"| c #1D0C00",
"% c #3E4043",
"' c #0C0600",
"S c #C18C4E",
"M c #CB975A",
"O c #5C5E60",
"E c #562C00",
"7 c #1F0000",
"] c #201000",
"y c #AE864B",
"s c #9C672C",
"K c #BA8548",
"c c #D39F62",
"5 c #73757A",
"q c #282426",
"$ c #AFB4BB",
"V c #905C21",
"[ c #1E0D00",
"Y c #AE7A3D",
"f c #E5B270",
"@ c #676A6F",
"C c #D19958",
"i c #AF8D50",
"~ c #7A4C17",
"F c #89551A",
"- c #42454A",
"> c #8D939B",
"d c #E8B06C",
"` c #FFCF00",
"R c #A06C2E",
": c #313337",
"A c #C38E50",
"! c #5D3203",
"9 c #363130",
"& c #202123",
"k c #99652A",
"; c #4D5156",
"Q c #271300",
/* pixels */
"                ",
"    .XoOOoX.    ",
"   + @#$$#@ +   ",
"   %&*=--=*&%   ",
"   ;:>,  ,<12   ",
"  3 4567890qw3  ",
" ertyuippiuytre ",
" easdfghhgfdsae ",
" ejklzxccxzlkje ",
" evbnmMNNMmnbve ",
" eDFGHJKKJHGFDe ",
" LPIUYTRRTYUIPE ",
" WQ!~^/((/^)_Q` ",
"  '][{}}}}{|]'  ",
"                "
};
