/* XPM */ 
static char * lock_open_xpm[] = {
"16 16 100 2",
"  	c None",
"! 	c black",
"# 	c #DEDDDD",
"$ 	c #E1DFDF",
"% 	c #D9D8D8",
"& 	c #BCBCBC",
"' 	c #BBBABA",
"( 	c #D5D3D4",
") 	c #D3D3D2",
"* 	c #CBCACA",
"+ 	c #B4B4B4",
", 	c #A7A7A6",
"- 	c #CECCCC",
". 	c #CECDCC",
"0 	c #BDBCBA",
"1 	c #CCCBCB",
"2 	c #C7C7C7",
"3 	c #C8C9CD",
"4 	c #BCBDC3",
"5 	c #D2D2D3",
"6 	c #C3C3C2",
"7 	c #918444",
"8 	c #A79756",
"9 	c #A09774",
": 	c #A09778",
"; 	c #888166",
"< 	c #AFA88B",
"= 	c #A79D73",
"> 	c #C2BB93",
"? 	c #C8C7BD",
"@ 	c #C9C9C8",
"A 	c #7C7343",
"B 	c #E2C254",
"C 	c #EECD67",
"D 	c #F5DA8A",
"E 	c #FFE799",
"F 	c #FEE386",
"G 	c #EFCF59",
"H 	c #ECC634",
"I 	c #DEBC38",
"J 	c #7B7144",
"K 	c #A08E4E",
"L 	c #E9C563",
"M 	c #EDCB7C",
"N 	c #F2D385",
"O 	c #B19A55",
"P 	c #C4A83E",
"Q 	c #EAC533",
"R 	c #E1BA2C",
"S 	c #E6C352",
"T 	c #A1905E",
"U 	c #9C8859",
"V 	c #E9C67A",
"W 	c #EDCA7A",
"X 	c #ECCA6A",
"Y 	c #17171A",
"Z 	c #605321",
"[ 	c #F4CC36",
"] 	c #E3BD4A",
"^ 	c #E8C572",
"_ 	c #9D8B65",
"` 	c #9B865C",
"a 	c #E8C275",
"b 	c #E3BB56",
"c 	c #F4CA43",
"d 	c #4A4227",
"e 	c #7E6C30",
"f 	c #F7CD50",
"g 	c #E5C06C",
"h 	c #E9C47D",
"i 	c #977F4C",
"j 	c #E1B652",
"k 	c #DEB02C",
"l 	c #E2B421",
"m 	c #605A43",
"n 	c #857752",
"o 	c #F2C86C",
"p 	c #E6BF79",
"q 	c #E4BB68",
"r 	c #977C40",
"s 	c #957629",
"t 	c #DFAF27",
"u 	c #E1AE17",
"v 	c #E3B32B",
"w 	c #F4CE73",
"x 	c #F5CF86",
"y 	c #ECC274",
"z 	c #EBBE63",
"{ 	c #E3B33F",
"| 	c #94741F",
"} 	c #69520D",
"~ 	c #A17C0F",
" !	c #9F7B16",
"!!	c #9E7E2E",
"#!	c #9D7D3D",
"$!	c #A0814B",
"%!	c #A28349",
"&!	c #A28132",
"'!	c #A37D19",
"(!	c #685009",
"                                ",
"                      # $       ",
"                    % & ' ( )   ",
"                  * & +   , -   ",
"                  . 0       1 2 ",
"                  3 4       5 6 ",
"        7 8 9 : ; < = >     ? @ ",
"      A B C D E F G H I J       ",
"      K L M N O P Q R S T       ",
"      U V W X Y Z [ ] ^ _       ",
"      ` a b c d e f g h `       ",
"      i j k l m n o p q r       ",
"      s t u v w x y z { |       ",
"      } ~  !!!#!$!%!&!'!(!      ",
"                                ",
"                                ",
};