/* XPM */ 
static const char * const lock_xpm[] = {
"16 16 85 1",
" 	c None",
"!	c black",
"#	c #DFDEDD",
"$	c #E1E0DF",
"%	c #DCDADB",
"&	c #C2C0C1",
"'	c #BFBEBF",
"(	c #D8D7D7",
")	c #CECDCC",
"*	c #ADAEAC",
"+	c #B9B9B9",
",	c #B9B8B8",
"-	c #B6B5B5",
".	c #CBCACA",
"0	c #D1CFCE",
"1	c #BAB9B8",
"2	c #CCCBC9",
"3	c #CBCCD2",
"4	c #B2B3B7",
"5	c #B1B2B5",
"6	c #CACBD1",
"7	c #827B52",
"8	c #B0A67F",
"9	c #9F987B",
":	c #A9A187",
";	c #ABA389",
"<	c #A0987C",
"=	c #B0A67E",
">	c #837B50",
"?	c #E2C352",
"@	c #F2CE5F",
"A	c #F8DB89",
"B	c #FFE798",
"C	c #FCE081",
"D	c #F1D159",
"E	c #ECC52F",
"F	c #E1C144",
"G	c #E4C262",
"H	c #EDCB7C",
"I	c #F2D386",
"J	c #AB9452",
"K	c #C0A43B",
"L	c #EAC531",
"M	c #E2BB2D",
"N	c #E2BF54",
"O	c #E6C37A",
"P	c #EDC979",
"Q	c #EECB69",
"R	c #1C1D1D",
"S	c #645723",
"T	c #F5CC37",
"U	c #E4BE4F",
"V	c #E5C375",
"W	c #E4BF74",
"X	c #E3BB55",
"Y	c #F3C93F",
"Z	c #4A4123",
"[	c #7D6A2E",
"]	c #F8CE55",
"^	c #E7C171",
"_	c #E5C17C",
"`	c #DDB350",
"a	c #DFB12A",
"b	c #E2B31E",
"c	c #756D4F",
"d	c #94855E",
"e	c #F2C870",
"f	c #E7C079",
"g	c #E0B762",
"h	c #D8A924",
"i	c #DEAC17",
"j	c #E0B12D",
"k	c #F4CB6B",
"l	c #F4CC81",
"m	c #E9BF72",
"n	c #E7BA5B",
"o	c #DBAC35",
"p	c #8A6A0B",
"q	c #876913",
"r	c #846928",
"s	c #816734",
"t	c #836A3E",
"u	c #876D3B",
"v	c #8A6D27",
"w	c #8A6A12",
"                ",
"       #$       ",
"     %%&'(%     ",
"    )*+++,-.    ",
"    01    12    ",
"    34    56    ",
"  78889:;<=8=>  ",
"  ?@@@ABCDE@EF  ",
"  GHHHIJKLMHMN  ",
"  OPPPQRSTUPUV  ",
"  WXXXYZ[]^X^_  ",
"  `aaabcdefafg  ",
"  hiiijklmnino  ",
"  pqqqrstuvqvw  ",
"                ",
"                "};