/* XPM */ 
static char * mac_xpm[] = {
"16 16 137 2",
"  	c None",
"! 	c black",
"# 	c #1AD1FB",
"$ 	c #1AD2FB",
"% 	c #1AD2FC",
"& 	c #16D2FC",
"' 	c #18CDF6",
"( 	c #D5EBF1",
") 	c #FDF7F6",
"* 	c #F6F6F6",
"+ 	c #F5F5F5",
", 	c #F3F3F3",
"- 	c #19CAFA",
". 	c #19CBFB",
"0 	c #1ACBFC",
"1 	c #0CCAFC",
"2 	c #44CAEF",
"3 	c #F6F2F1",
"4 	c #F7F6F6",
"5 	c #F5F6F6",
"6 	c #F4F5F6",
"7 	c #F2F2F3",
"8 	c #19C1F9",
"9 	c #18C1F9",
": 	c #1AC3FB",
"; 	c #1AC5FE",
"< 	c #05BCF9",
"= 	c #81CEE9",
"> 	c #FFF9F5",
"? 	c #F1F3F5",
"@ 	c #F6F8FA",
"A 	c #F3F5F6",
"B 	c #F2F4F5",
"C 	c #EFF1F3",
"D 	c #1AB9F8",
"E 	c #1ABBFD",
"F 	c #17A9E4",
"G 	c #1182AE",
"H 	c #0BB7FC",
"I 	c #A8D4E7",
"J 	c #FEF9F7",
"K 	c #F7FAFD",
"L 	c #A6A8A9",
"M 	c #DEE1E4",
"N 	c #F3F6F9",
"O 	c #EDF0F3",
"P 	c #1AB0F7",
"Q 	c #1AB1FA",
"R 	c #19A6EA",
"S 	c #138DC9",
"T 	c #15ABF4",
"U 	c #C4DAE8",
"V 	c #F8F6F7",
"W 	c #F1F5F9",
"X 	c #BDC0C3",
"Y 	c #E1E5E9",
"Z 	c #EFF3F7",
"[ 	c #EAEFF3",
"] 	c #1BA7F6",
"^ 	c #19A5F6",
"_ 	c #1BA8F9",
"` 	c #15ABFF",
"a 	c #1F9EE8",
"b 	c #DFE7ED",
"c 	c #FBFAFA",
"d 	c #E8EEF4",
"e 	c #F1F7FC",
"f 	c #EBF1F6",
"g 	c #E9EFF4",
"h 	c #E7EDF2",
"i 	c #1C9FF5",
"j 	c #1A9BF4",
"k 	c #1BA1FE",
"l 	c #169EFC",
"m 	c #2094E4",
"n 	c #ACBFCE",
"o 	c #CED8E1",
"p 	c #E7EEF4",
"q 	c #E9F1F8",
"r 	c #EEF5FC",
"s 	c #E6EDF4",
"t 	c #E4ECF2",
"u 	c #1C95F5",
"v 	c #1B94F7",
"w 	c #1573BF",
"x 	c #1A8BE9",
"y 	c #1C99FF",
"z 	c #0885EB",
"{ 	c #3F93DA",
"| 	c #F8FBFF",
"} 	c #D8DFE6",
"~ 	c #B2B9BF",
" !	c #E7F0F7",
"!!	c #E2EBF2",
"#!	c #1D8BF4",
"$!	c #1B8CF9",
"%!	c #1772CB",
"&!	c #115394",
"'!	c #1465B1",
"(!	c #0C71CE",
")!	c #3177BA",
"*!	c #A6A8AA",
"+!	c #8B9094",
",!	c #BEC7CD",
"-!	c #E6F1F9",
".!	c #DFE9F2",
"0!	c #1D82F2",
"1!	c #1B7EF1",
"2!	c #1C85FC",
"3!	c #1B7EEF",
"4!	c #1666C4",
"5!	c #0E5AB4",
"6!	c #225CA3",
"7!	c #B0B7BE",
"8!	c #E6F1FC",
"9!	c #DCE8F2",
":!	c #DCE7F2",
";!	c #1D79F1",
"<!	c #1C75F0",
"=!	c #1D77F3",
">!	c #1D7BFA",
"?!	c #197AFF",
"@!	c #2175EA",
"A!	c #CBDAEC",
"B!	c #E5EFF7",
"C!	c #DBE6F2",
"D!	c #DBE7F2",
"E!	c #DAE6F1",
"F!	c #1D6FE6",
"G!	c #1C6CE6",
"H!	c #1D6CE7",
"I!	c #1B6DE9",
"J!	c #1462DA",
"K!	c #A6B9D4",
"L!	c #DAE3EA",
"M!	c #D0DCE7",
"N!	c #CDD9E4",
"                                ",
"                                ",
"    # # $ % & ' ( ) * * + ,     ",
"    - - . 0 1 2 3 4 5 6 6 7     ",
"    8 9 : ; < = > ? @ A B C     ",
"    D E F G H I J K L M N O     ",
"    P Q R S T U V W X Y Z [     ",
"    ] ^ _ ` a b c d e f g h     ",
"    i j k l m n o p q r s t     ",
"    u v w x y z { | } ~  !!!    ",
"    #!$!%!&!'!(!)!*!+!,!-!.!    ",
"    0!1!2!3!4!5!6!7!.!8!9!:!    ",
"    ;!<!<!=!>!?!@!A!B!C!D!E!    ",
"    F!G!G!H!H!I!J!K!L!M!M!N!    ",
"                                ",
"                                "};