/* XPM */ 
static const char * const maclogo_xpm[] = {
"16 16 118 2",
"  	c None",
"! 	c black",
"# 	c #9DB4C2",
"$ 	c #99AFBE",
"% 	c #9CB3C1",
"& 	c #8A9EAB",
"' 	c #738591",
"( 	c #1A1E20",
") 	c #4D4E4F",
"* 	c #DCDFE3",
"+ 	c #A5A7AA",
", 	c #C2C5C8",
"- 	c #577082",
". 	c #ADCEE4",
"0 	c #B5D5EA",
"1 	c #AECFE4",
"2 	c #BADCF2",
"3 	c #97B5C8",
"4 	c #8A8D90",
"5 	c white",
"6 	c #E8EBEE",
"7 	c #F0F3F5",
"8 	c #E5E8EB",
"9 	c #76787C",
": 	c #23465E",
"; 	c #6AABD7",
"< 	c #74B4E2",
"= 	c #3E5C73",
"> 	c #72AFDC",
"? 	c #47647B",
"@ 	c #D1D9E0",
"A 	c #A0A9B1",
"B 	c #949BA2",
"C 	c #E9F4FE",
"D 	c #D1DAE3",
"E 	c #52565C",
"F 	c #0C3751",
"G 	c #328EC9",
"H 	c #4198D2",
"I 	c #4082B1",
"J 	c #438ABE",
"K 	c #586B7C",
"L 	c #D1E6FA",
"M 	c #ABBED0",
"N 	c #ADBFD0",
"O 	c #CADEF3",
"P 	c #B9CDE1",
"Q 	c #434C55",
"R 	c #0B3651",
"S 	c #2687C5",
"T 	c #48A3E0",
"U 	c #3373A0",
"V 	c #818E9B",
"W 	c #D2ECFF",
"X 	c #C1D7ED",
"Y 	c #C1D6EB",
"Z 	c #BDD2E7",
"[ 	c #B4C9DF",
"] 	c #424A54",
"^ 	c #073550",
"_ 	c #1E80C0",
"` 	c #2E8DCE",
"a 	c #3F9DDF",
"b 	c #3474A2",
"c 	c #405362",
"d 	c #536675",
"e 	c #AABED3",
"f 	c #C6DDF6",
"g 	c #BED4EC",
"h 	c #ADC3D9",
"i 	c #414A53",
"j 	c #01304C",
"k 	c #0E7EC1",
"l 	c #1C6698",
"m 	c #286593",
"n 	c #3883BB",
"o 	c #3787C4",
"p 	c #244965",
"q 	c #98A8BA",
"r 	c #8698AB",
"s 	c #8D9FB2",
"t 	c #ADC4DD",
"u 	c #3C454E",
"v 	c #012E4B",
"w 	c #0176BB",
"x 	c #086CA9",
"y 	c #104D76",
"z 	c #17476B",
"{ 	c #1B4B6F",
"| 	c #1E3141",
"} 	c #606B77",
"~ 	c #6C7B8C",
" !	c #9AAFC7",
"!!	c #A4BDD6",
"#!	c #3B444D",
"$!	c #006CB1",
"%!	c #0075BD",
"&!	c #077DC6",
"'!	c #107ABE",
"(!	c #137EC4",
")!	c #1A4F73",
"*!	c #A1B4C9",
"+!	c #B0CEEA",
",!	c #A6C1DC",
"-!	c #97B1CB",
".!	c #3A444F",
"0!	c #00101C",
"1!	c #001F37",
"2!	c #001D33",
"3!	c #001C31",
"4!	c #001D32",
"5!	c #00233A",
"6!	c #00111D",
"7!	c #1E2126",
"8!	c #2A323A",
"9!	c #29313A",
":!	c #2C343E",
";!	c #14181C",
"                                ",
"                                ",
"      # $ % & ' ( ) * + ,       ",
"    - . 0 1 2 3 4 5 6 7 8 9     ",
"    : ; < = > ? @ A B C D E     ",
"    F G H I J K L M N O P Q     ",
"    R S G T U V W X Y Z [ ]     ",
"    ^ _ ` a b c d e f g h i     ",
"    j k l m n o p q r s t u     ",
"    v w x y z { | } ~  !!!#!    ",
"    v $!%!&!'!(!)!*!+!,!-!.!    ",
"    0!1!2!3!4!5!6!7!8!9!:!;!    ",
"            ! ! ! ! !           ",
"                                ",
"                                ",
"                                "};