/* XPM */ 
static const char * const markdown_xpm[] = {
"16 16 44 1",
" 	c None",
"!	c black",
"#	c #F8F8F8",
"$	c #FBFBFB",
"%	c #FCFCFC",
"&	c #949494",
"'	c #F4F4F4",
"(	c #F5F5F5",
")	c #F1F1F1",
"*	c #EFEFEF",
"+	c #E9E9E9",
",	c #E7E7E7",
"-	c #959595",
".	c #F7F7F7",
"0	c #F9F9F9",
"1	c #F3F3F3",
"2	c #F0F0F0",
"3	c #EAEAEA",
"4	c #F6F6F6",
"5	c #999999",
"6	c #F2F2F2",
"7	c #EBEBEB",
"8	c #ECECEC",
"9	c #E6E6E6",
":	c #92CCE1",
";	c #83C7E0",
"<	c #DCEAEA",
"=	c #D9EAEE",
">	c #69B4D2",
"?	c #80C3DC",
"@	c #EDEDED",
"A	c #5FB4D6",
"B	c #D1E5EA",
"C	c #E1EDED",
"D	c #9FCFE0",
"E	c #489DBF",
"F	c #8EC7DC",
"G	c #E6F0F0",
"H	c #4FA4C6",
"I	c #63AFCC",
"J	c #ECF3F3",
"K	c #F1F6F6",
"L	c #9CCADB",
"M	c #FAFAFA",
"                ",
"  #$%%%%%%#&    ",
"  $'((()*+%,-   ",
"  %.0..123%4'5  ",
"  %000.467%%%%  ",
"  %$%%$#()839%  ",
":;<<;:=:>>?@@%  ",
"?ABBA?=?CDED6%  ",
">FDDF>=>GGEF4%  ",
"H=II=H=HJDED#%  ",
"EKLLKE=EEE?=#%  ",
"  %%%%$$MMMMM%  ",
"  %%%%%$$$$$$%  ",
"  %%%%%%%%%%%%  ",
"  0%%%%%%%%%%0  ",
"                "};