/* XPM */
static char *mpython_xpm[] = {
/* columns rows colors chars-per-pixel */
"16 16 154 2",
"  	c None",
"! 	c black",
"# 	c #C6DAEA",
"$ 	c #ACC8E0",
"% 	c #A7C4DC",
"& 	c #C2D5E6",
"' 	c #80ACD2",
"( 	c #5A92C2",
") 	c #3B7DB3",
"* 	c #3C7CB0",
"+ 	c #3D7AAD",
", 	c #6392BA",
"- 	c #C4D8E9",
". 	c #6298C5",
"0 	c #CFDFEB",
"1 	c #276DA7",
"2 	c #3574A9",
"3 	c #3975A8",
"4 	c #206299",
"5 	c #9EB9D1",
"6 	c #E2ECF4",
"7 	c #5890BE",
"8 	c #6899C2",
"9 	c #5389B6",
": 	c #3B77A9",
"; 	c #3973A4",
"< 	c #2A6799",
"= 	c #95B3CC",
"> 	c #BBD3E6",
"? 	c #82ADD0",
"@ 	c #82ACCE",
"A 	c #78A3C7",
"B 	c #76A0C4",
"C 	c #79A1C3",
"D 	c #4279A8",
"E 	c #37709F",
"F 	c #276397",
"G 	c #96B0BE",
"H 	c #FFF39B",
"I 	c #FBE897",
"J 	c #BAD2E5",
"K 	c #2670AD",
"L 	c #2A71AC",
"M 	c #2A6FA8",
"N 	c #2D6FA5",
"O 	c #2F6EA2",
"P 	c #2E6B9E",
"Q 	c #37709E",
"R 	c #3D729D",
"S 	c #286193",
"T 	c #92AAB2",
"U 	c #FFE955",
"V 	c #FAD22F",
"W 	c #FFE381",
"X 	c #75A4CB",
"Y 	c #2C71AC",
"Z 	c #3D7BAF",
"[ 	c #3B78AA",
"] 	c #2F6EA1",
"^ 	c #29679F",
"_ 	c #29669C",
"` 	c #266297",
"a 	c #276192",
"b 	c #205C99",
"c 	c #B8C4B6",
"d 	c #FEE24F",
"e 	c #FBD344",
"f 	c #FFD651",
"g 	c #6095C0",
"h 	c #2E71A8",
"i 	c #3A77A9",
"j 	c #2C6CA2",
"k 	c #5E8DB9",
"l 	c #8DACBC",
"m 	c #8DAAB8",
"n 	c #8EAAB6",
"o 	c #8AA5B1",
"p 	c #B4C1B7",
"q 	c #FFE26B",
"r 	c #FED43E",
"s 	c #FED142",
"t 	c #FFCF42",
"u 	c #FFF2D0",
"v 	c #6898C0",
"w 	c #2F70A6",
"x 	c #2F6DA1",
"y 	c #6894BB",
"z 	c #FDF59B",
"{ 	c #FFF163",
"| 	c #FFEF65",
"} 	c #FFEC61",
"~ 	c #FFE95E",
" !	c #FFE14C",
"!!	c #FFD33E",
"#!	c #FFD142",
"$!	c #FFCD3C",
"%!	c #FFCC3F",
"&!	c #FFF4D8",
"'!	c #8CAFCC",
"(!	c #26669C",
")!	c #2C6AA3",
"*!	c #B2C4BA",
"+!	c #FFF055",
",!	c #F7DD4F",
"-!	c #FCDC4C",
".!	c #FBD846",
"0!	c #FBD441",
"1!	c #FCD140",
"2!	c #FED041",
"3!	c #FECE40",
"4!	c #FEC72F",
"5!	c #FFCF52",
"6!	c #E0E9F1",
"7!	c #4E81AA",
"8!	c #24639D",
"9!	c #B1C0B2",
":!	c #FEEB57",
";!	c #FBDD51",
"<!	c #FEDB4C",
"=!	c #FFDA52",
">!	c #FFD752",
"?!	c #FFD450",
"@!	c #FFCE41",
"A!	c #FFC938",
"B!	c #FFC531",
"C!	c #FFE8B2",
"D!	c #DAE4EE",
"E!	c #F2EFD3",
"F!	c #FFDF4D",
"G!	c #FEDB4D",
"H!	c #FFD746",
"I!	c #FFE180",
"J!	c #FFE081",
"K!	c #FFDB75",
"L!	c #FFEAB2",
"M!	c #FFD944",
"N!	c #FFD84E",
"O!	c #FFD548",
"P!	c #FFCD32",
"Q!	c #FFE083",
"R!	c #FFD972",
"S!	c #FFDD88",
"T!	c #FEDA58",
"U!	c #FECF32",
"V!	c #FECE38",
"W!	c #FEC626",
"X!	c #FEDB7C",
"Y!	c #FEDB85",
"Z!	c #FEE9B3",
"[!	c #FFE595",
"]!	c #FFD96D",
"^!	c #FFD668",
"_!	c #FFD875",
"`!	c #FFEBBD",
"            # $ % &             ",
"          ' ( ) * + ,           ",
"        - . 0 1 2 3 4 5         ",
"        6 7 8 9 : ; < =         ",
"    > ? @ A B C D E F G H I     ",
"  J K L M N O P Q R S T U V W   ",
"  X Y Z [ ] ^ _ ` a b c d e f   ",
"  g h i j k l m n o p q r s t u ",
"  v w x y z { | } ~  !!!#!$!%!&!",
"  '!(!)!*!+!,!-!.!0!1!2!3!4!5!  ",
"  6!7!8!9!:!;!<!=!>!?!@!A!B!C!  ",
"      D!E!F!G!H!I!J!K!L!        ",
"          M!N!O!P!Q!R!S!        ",
"          T!U!V!W!X!Y!Z!        ",
"            [!]!^!_!`!          ",
"                                "
};