/* XPM */ 
static char * mpython_xpm[] = {
"16 16 82 1",
" 	c None",
"!	c black",
"#	c #547E7E",
"$	c #BACBCB",
"%	c #FDFEFE",
"&	c #FCFDFD",
"'	c #F2F6F6",
"(	c #6E9191",
")	c #477171",
"*	c #F3FCFC",
"+	c #EBF3F3",
",	c #F1FAFA",
"-	c #92AEAE",
".	c #3E6969",
"0	c #E5F4F4",
"1	c #D9E8E8",
"2	c #345F5F",
"3	c #E1F2F2",
"4	c #D4E5E5",
"5	c #2A5555",
"6	c #E3F3F3",
"7	c #D6E6E6",
"8	c #204B4B",
"9	c #E4F4F4",
":	c #D8E8E8",
";	c #164242",
"<	c #E7F5F5",
"=	c #DCEAEA",
">	c #92CCE1",
"?	c #83C7E0",
"@	c #0D3939",
"A	c #EBF6F6",
"B	c #E1EDED",
"C	c #80C3DC",
"D	c #5FB4D6",
"E	c #D1E5EA",
"F	c #063232",
"G	c #EEF8F8",
"H	c #E6F0F0",
"I	c #69B4D2",
"J	c #8EC7DC",
"K	c #9FCFE0",
"L	c #012C2C",
"M	c #F2FAFA",
"N	c #ECF3F3",
"O	c #4FA4C6",
"P	c #D9EAEE",
"Q	c #63AFCC",
"R	c #002626",
"S	c #F5FBFB",
"T	c #F1F6F6",
"U	c #489DBF",
"V	c #9CCADB",
"W	c #002323",
"X	c #EAF1F1",
"Y	c #E8EFEF",
"Z	c #EAF0F0",
"[	c #EBF1F1",
"]	c #EDF3F3",
"^	c #EFF4F4",
"_	c #F1F5F5",
"`	c #F2F7F7",
"a	c #F4F8F8",
"b	c #F8FCFC",
"c	c #4F6B6B",
"d	c #BCCDCD",
"e	c #C1D0D0",
"f	c #C7D5D5",
"g	c #CEDADA",
"h	c #D5E0E0",
"i	c #DDE6E6",
"j	c #E5ECEC",
"k	c #ECF1F1",
"l	c #F9FCFC",
"m	c #2B4848",
"n	c #EAEDED",
"o	c #FEFEFE",
"p	c #FEFFFF",
"q	c #95A4A4",
"r	c #011919",
"s	c #032323",
"t	c #021818",
"    ########### ",
"   $%&&&&&&&&'( ",
"  )*++++++++,-  ",
"  .0111111110.  ",
"  234444444432  ",
"  567777777765  ",
"  89::::::::98  ",
"  ;<=>?==?>=<;  ",
"  @ABCDEEDCBA@  ",
"  FGHIJKKJIHGF  ",
"  LMNOPQQPONML  ",
"  RSTUTVVTUTSR  ",
"  WXYZ[]^_`abW  ",
"  cdefghijk'lW  ",
" mnoooooooopqr  ",
" ssssssssssst   "};