/* XPM */ 
static char * new_xpm[] = {
"16 16 172 2",
"  	c None",
"! 	c black",
"# 	c #437CC0",
"$ 	c #4C8AC8",
"% 	c #4E8BC8",
"& 	c #4E8CC8",
"' 	c #4E8BC9",
"( 	c #4E8AC7",
") 	c #4A88C4",
"* 	c #3A75C3",
"+ 	c #4884C3",
", 	c #ECF2F7",
"- 	c #EEF4F8",
". 	c #EDF4F8",
"0 	c #EDF3F8",
"1 	c #ECF2F8",
"2 	c #D7E6F2",
"3 	c #7CB1E2",
"4 	c #6493DB",
"5 	c #4A87C4",
"6 	c #F2F6FA",
"7 	c #C7E0FA",
"8 	c #C9E1FB",
"9 	c #C9E2FB",
": 	c #C8E0FB",
"; 	c #C4DFF9",
"< 	c #C0DBF8",
"= 	c #B7D6F4",
"> 	c #F8FBFF",
"? 	c #B3D8F6",
"@ 	c #7CAFE1",
"A 	c #6391DB",
"B 	c #4B88C5",
"C 	c #F1F5F9",
"D 	c #CDE3FC",
"E 	c #CEE3FB",
"F 	c #CDE3FB",
"G 	c #CBE2FB",
"H 	c #C8E0F9",
"I 	c #C1DCF8",
"J 	c #B9D6F5",
"K 	c #F8FBFD",
"L 	c #CDE6FC",
"M 	c #C9E5FA",
"N 	c #83B5E2",
"O 	c #4178BE",
"P 	c #4A88C5",
"Q 	c #CFE3FC",
"R 	c #D0E4FB",
"S 	c #CFE4FC",
"T 	c #CAE1FA",
"U 	c #C3DDF9",
"V 	c #BBD9F6",
"W 	c #DFE9F4",
"X 	c #F3F7FB",
"Y 	c #E9EFF5",
"Z 	c #447DC1",
"[ 	c #F0F4F9",
"] 	c #D3E6FC",
"^ 	c #D4E6FC",
"_ 	c #D3E7FD",
"` 	c #D1E4FC",
"a 	c #C8E0FA",
"b 	c #BAD6F5",
"c 	c #B4D4F3",
"d 	c #B2D2F1",
"e 	c #F0F4F8",
"f 	c #4581C3",
"g 	c #4987C5",
"h 	c #EFF4F9",
"i 	c #D7E7FE",
"j 	c #D6E7FD",
"k 	c #D5E7FD",
"l 	c #D4E6FD",
"m 	c #D2E6FC",
"n 	c #CCE1FB",
"o 	c #C7DFFA",
"p 	c #BCDAF6",
"q 	c #BAD8F6",
"r 	c #EFF4FA",
"s 	c #4582C5",
"t 	c #4887C5",
"u 	c #EDF4F9",
"v 	c #D8E8FE",
"w 	c #D7E8FE",
"x 	c #D6E7FE",
"y 	c #D3E5FD",
"z 	c #C2DDF9",
"{ 	c #EDF4FA",
"| 	c #4481C5",
"} 	c #4683C5",
"~ 	c #ECF3F9",
" !	c #D6E8FE",
"!!	c #CCE3FB",
"#!	c #C5DFFA",
"$!	c #EAF2FA",
"%!	c #417FC5",
"&!	c #4481C4",
"'!	c #EBF2F8",
"(!	c #D5E6FD",
")!	c #9EBBAC",
"*!	c #72975F",
"+!	c #658D4E",
",!	c #608949",
"-!	c #437979",
".!	c #417FC4",
"0!	c #E8F1F8",
"1!	c #D5E5FE",
"2!	c #D3E5FC",
"3!	c #9AB7A5",
"4!	c #80AA60",
"5!	c #B3D494",
"6!	c #D0E6B9",
"7!	c #8EBA69",
"8!	c #568E2C",
"9!	c #366A18",
":!	c #3F7BC3",
";!	c #E6F0F7",
"<!	c #54B3F8",
"=!	c #55B3F7",
">!	c #53B4F7",
"?!	c #52B3F8",
"@!	c #52B1F8",
"A!	c #51B2F7",
"B!	c #5C8749",
"C!	c #B0D38F",
"D!	c #B0D691",
"E!	c white",
"F!	c #8BBB64",
"G!	c #8EBB66",
"H!	c #3B77C0",
"I!	c #E3EDF7",
"J!	c #6DC1FD",
"K!	c #9FD8FF",
"L!	c #9DD7FF",
"M!	c #9AD6FF",
"N!	c #97D7FF",
"O!	c #95D6FF",
"P!	c #4B7A30",
"Q!	c #B5D49B",
"R!	c #B1D294",
"S!	c #3770BE",
"T!	c #DFEBF5",
"U!	c #67BEFD",
"V!	c #66BCFC",
"W!	c #64BDFB",
"X!	c #63BDFC",
"Y!	c #61BCFC",
"Z!	c #396E21",
"[!	c #8AB961",
"]!	c #86B95F",
"^!	c #86B85F",
"_!	c #3268BB",
"`!	c #EAF1F8",
"a!	c #DFECF7",
"b!	c #DEEBF6",
"c!	c #DEEAF6",
"d!	c #DCEAF6",
"e!	c #EBF3FA",
"f!	c #8DAC85",
"g!	c #528B27",
"h!	c #8CB963",
"i!	c #3369BA",
"j!	c #2F64B9",
"k!	c #3065BA",
"l!	c #2F65B9",
"m!	c #2E64B9",
"n!	c #2D64B8",
"o!	c #326761",
"p!	c #366A20",
"q!	c #366A1E",
"r!	c #346840",
"  # $ % % % % & ' ( ) *         ",
"  + , - . 0 0 0 1 , 2 3 4       ",
"  5 6 7 8 9 : ; < = > ? @ A     ",
"  B C D E F G H I J K L M N O   ",
"  P C Q R S D T U V W , X Y Z   ",
"  P [ ] ^ _ ` F a I b c d e f   ",
"  g h i j k l m n o I p q r s   ",
"  t u v v w x y ` n 7 z I { |   ",
"  } ~  !w j j k y R !!o #!$!%!  ",
"  &!'!x j j j (!y ` )!*!+!,!-!  ",
"  .!0!1!y y 2!2!` 3!4!5!6!7!8!9!",
"  :!;!<!=!>!?!@!A!B!C!D!E!F!G!9!",
"  H!I!J!K!L!M!N!O!P!Q!E!E!E!R!9!",
"  S!T!U!V!W!X!X!Y!Z![!]!E!^!G!9!",
"  _!`!a!b!c!d!d!e!f!g!h!R!h!g!9!",
"  i!j!k!l!l!l!j!m!n!o!p!9!q!r!  "};