/* XPM */ 
static char * nextwin_xpm[] = {
"16 16 107 2",
"  	c None",
"! 	c #5070A8",
"# 	c #8CB0DD",
"$ 	c #7AA6DC",
"% 	c #79A5DC",
"& 	c #79A3DA",
"' 	c #759FD5",
"( 	c #749DD4",
") 	c #729CD2",
"* 	c #7199CF",
"+ 	c #6F98CE",
", 	c #7899C3",
"- 	c black",
". 	c #84ABDD",
"0 	c #91B8E8",
"1 	c #6E8FC0",
"2 	c #658ABF",
"3 	c #79A3DB",
"4 	c white",
"5 	c #6286BC",
"6 	c #78A2D9",
"7 	c #B3C1DA",
"8 	c #9BBAE1",
"9 	c #87AFDF",
": 	c #86AEDF",
"; 	c #86ACDE",
"< 	c #85AADC",
"= 	c #82A8D9",
"> 	c #80A6D6",
"? 	c #7FA3D4",
"@ 	c #6D96CC",
"A 	c #78A1D8",
"B 	c #90B3E0",
"C 	c #9CBFEA",
"D 	c #8CB3E3",
"E 	c #6B91C8",
"F 	c #76A1D7",
"G 	c #678DC2",
"H 	c #77A1D8",
"I 	c #F0F3F9",
"J 	c #F0F3F8",
"K 	c #EFF2F8",
"L 	c #EFF2F7",
"M 	c #EEF2F7",
"N 	c #6FA53D",
"O 	c #649E30",
"P 	c #B0BED8",
"Q 	c #90B3DE",
"R 	c #68A238",
"S 	c #80B259",
"T 	c #569727",
"U 	c #85ACDD",
"V 	c #6EA43C",
"W 	c #6DA237",
"X 	c #67A133",
"Y 	c #619D2F",
"Z 	c #7BAE54",
"[ 	c #A9CB90",
"] 	c #73AA4E",
"^ 	c #458E17",
"_ 	c #6AA236",
"` 	c #AFCE95",
"a 	c #ACCD93",
"b 	c #A7CB8F",
"c 	c #8FBB73",
"d 	c #A0C789",
"e 	c #67A445",
"f 	c #358608",
"g 	c #629E30",
"h 	c #8DB96E",
"i 	c #88B76A",
"j 	c #84B565",
"k 	c #7FB260",
"l 	c #81B466",
"m 	c #97C182",
"n 	c #5B9F3B",
"o 	c #257E01",
"p 	c #5A9A28",
"q 	c #A8CA8F",
"r 	c #A4C88C",
"s 	c #A0C589",
"t 	c #9DC487",
"u 	c #84B569",
"v 	c #96C181",
"w 	c #65A447",
"x 	c #2D820C",
"y 	c #5F84B9",
"z 	c #509620",
"{ 	c #48901A",
"| 	c #428E14",
"} 	c #3A8A0F",
"~ 	c #5D9E39",
" !	c #95C07F",
"!!	c #61A245",
"#!	c #287E06",
"$!	c #5D80B6",
"%!	c #32860A",
"&!	c #5EA042",
"'!	c #35871A",
"(!	c #5071A8",
")!	c #6387BD",
"*!	c #6084BA",
"+!	c #5E82B8",
",!	c #227C07",
"-!	c #1D7A03",
".!	c #5678AD",
"0!	c #5575AC",
"! # $ % & ' ( ) * + , !         ",
". 0 0 0 0 0 0 0 0 0 0 1         ",
"$ $ $ $ $ $ $ $ $ $ $ 2         ",
"3 4 4 4 4 4 4 4 4 4 4 5         ",
"6 4 7 8 9 : ; < = > ? @ , !     ",
"A 4 B C C C C C C C C D 0 1     ",
"E 4 9 9 9 9 9 9 9 9 9 F $ 2     ",
"! G H I J K L L L M N O 4 5     ",
"    6 4 P Q $ % & A R S T + , ! ",
"    A 4 U 0 V W X Y Z [ ] ^ 0 1 ",
"    E 4 $ $ _ ` a [ b c d e f 2 ",
"    ! G 3 4 g a h i j k l m n o ",
"        6 4 p q r s t u v w x y ",
"        A 4 z { | } ~  !!!#!4 $!",
"        E 4 4 4 4 4 %!&!'!4 4 (!",
"        ! G 2 )!*!+!,!-!.!0!! ! "};