/* XPM */ 
static const char * const nowrap_xpm[] = {
"16 16 127 2",
"  	c None",
"! 	c black",
"# 	c #437CC0",
"$ 	c #4C8AC8",
"% 	c #4E8BC8",
"& 	c #4E8CC8",
"' 	c #4E8BC9",
"( 	c #4E8AC7",
") 	c #4A88C4",
"* 	c #3A75C3",
"+ 	c #4884C3",
", 	c #ECF2F7",
"- 	c #EEF4F8",
". 	c #EDF4F8",
"0 	c #EDF3F8",
"1 	c #ECF2F8",
"2 	c #D7E6F2",
"3 	c #7CB1E2",
"4 	c #6493DB",
"5 	c #4A87C4",
"6 	c #F2F6FA",
"7 	c #C7E0FA",
"8 	c #C9E1FB",
"9 	c #C9E2FB",
": 	c #C8E0FB",
"; 	c #C4DFF9",
"< 	c #C0DBF8",
"= 	c #B7D6F4",
"> 	c #F8FBFF",
"? 	c #B3D8F6",
"@ 	c #7CAFE1",
"A 	c #6391DB",
"B 	c #4B88C5",
"C 	c #F1F5F9",
"D 	c #6C6C6C",
"E 	c #CDE6FC",
"F 	c #C9E5FA",
"G 	c #83B5E2",
"H 	c #4178BE",
"I 	c #4A88C5",
"J 	c #CFE3FC",
"K 	c #D0E4FB",
"L 	c #CFE4FC",
"M 	c #CDE3FC",
"N 	c #CAE1FA",
"O 	c #C3DDF9",
"P 	c #BBD9F6",
"Q 	c #DFE9F4",
"R 	c #F3F7FB",
"S 	c #E9EFF5",
"T 	c #447DC1",
"U 	c #F0F4F9",
"V 	c #4581C3",
"W 	c #4987C5",
"X 	c #EFF4F9",
"Y 	c #D7E7FE",
"Z 	c #D6E7FD",
"[ 	c #D5E7FD",
"] 	c #D4E6FD",
"^ 	c #D2E6FC",
"_ 	c #CCE1FB",
"` 	c #C7DFFA",
"a 	c #C1DCF8",
"b 	c #BCDAF6",
"c 	c #BAD8F6",
"d 	c #EFF4FA",
"e 	c #4582C5",
"f 	c #4887C5",
"g 	c #EDF4F9",
"h 	c #4481C5",
"i 	c #4683C5",
"j 	c #ECF3F9",
"k 	c #D6E8FE",
"l 	c #D7E8FE",
"m 	c #D3E5FD",
"n 	c #CCE3FB",
"o 	c #C5DFFA",
"p 	c #EAF2FA",
"q 	c #417FC5",
"r 	c #4481C4",
"s 	c #EBF2F8",
"t 	c #3E7BC4",
"u 	c #417FC4",
"v 	c #E8F1F8",
"w 	c #D5E5FE",
"x 	c #D3E5FC",
"y 	c #D1E4FC",
"z 	c #CEE2FC",
"{ 	c #CCE2FC",
"| 	c #C9E0FB",
"} 	c #C8E1FB",
"~ 	c #F7FAFD",
" !	c #3A75C0",
"!!	c #3F7BC3",
"#!	c #E6F0F7",
"$!	c #356EBE",
"%!	c #3B77C0",
"&!	c #E3EDF7",
"'!	c #D6E7FE",
"(!	c #D5E6FD",
")!	c #CDE2FC",
"*!	c #CBE1FB",
"+!	c #F4F7FB",
",!	c #3066BA",
"-!	c #3770BE",
".!	c #DFEBF5",
"0!	c #2C63B8",
"1!	c #3268BB",
"2!	c #EAF1F8",
"3!	c #DFECF7",
"4!	c #DEEBF6",
"5!	c #DEEAF6",
"6!	c #DCEAF6",
"7!	c #EBF3FA",
"8!	c #F3F7FC",
"9!	c #F4F8FC",
":!	c #FDFEFE",
";!	c #295FB6",
"<!	c #3369BA",
"=!	c #2F64B9",
">!	c #3065BA",
"?!	c #2F65B9",
"@!	c #2E64B9",
"A!	c #2D64B8",
"B!	c #2D63B8",
"C!	c #2B61B6",
"D!	c #2D61B6",
"  # $ % % % % & ' ( ) *         ",
"  + , - . 0 0 0 1 , 2 3 4       ",
"  5 6 7 8 9 : ; < = > ? @ A     ",
"  B C D D D D D D D D E F G H   ",
"  I C J K L M N O P Q , R S T   ",
"  I U D D D D D D D D D D 6 V   ",
"  W X Y Z [ ] ^ _ ` a b c d e   ",
"  f g D D D D D D D D D D 6 h   ",
"  i j k l Z Z [ m K n ` o p q   ",
"  r s D D D D D D D D D D 6 t   ",
"  u v w m m x x y z { | } ~  !  ",
"  !!#!D D D D D D D D D D 6 $!  ",
"  %!&!'!Z Z Z (!m y )!*!8 +!,!  ",
"  -!.!D D D D D D D D D D 6 0!  ",
"  1!2!3!4!5!6!6!7!7!p 8!9!:!;!  ",
"  <!=!>!?!?!?!=!@!A!A!B!B!C!D!  "};