/* XPM */ 
static char * numbering_xpm[] = {
"16 16 41 1",
" 	c None",
"!	c black",
"#	c #A1C2EE",
"$	c #767676",
"%	c #737373",
"&	c #6F6F6F",
"'	c #6A6A6A",
"(	c #646464",
")	c #5F5F5F",
"*	c #585858",
"+	c #525252",
",	c #A1C0EE",
"-	c #9CBEED",
".	c #99BBEB",
"0	c #8CB3E9",
"1	c #88B1E7",
"2	c #5D5D5D",
"3	c #575757",
"4	c #505050",
"5	c #494949",
"6	c #424242",
"7	c #3B3B3B",
"8	c #333333",
"9	c #2C2C2C",
":	c #252525",
";	c #85AEE7",
"<	c #80ABE5",
"=	c #7BA9E5",
">	c #76A5E3",
"?	c #74A4E3",
"@	c #72A2E3",
"A	c #313131",
"B	c #2A2A2A",
"C	c #232323",
"D	c #1D1D1D",
"E	c #161616",
"F	c #121212",
"G	c #0C0C0C",
"H	c #070707",
"I	c #030303",
"J	c #3D71D4",
"                ",
"  #             ",
" ##             ",
"  #  $$%&'()*+  ",
" ##,            ",
"                ",
" -.             ",
"   0            ",
"  1  23456789:  ",
" ;<=            ",
"                ",
" >?@            ",
"  @             ",
"   @ ABCDEFGHI  ",
" @@J            ",
"                "};