/* XPM */ 
static char * options_xpm[] = {
"16 15 15 1",
" 	c None",
"!	c black",
"#	c #607C8A",
"$	c #607C89",
"%	c #607E8A",
"&	c #5F7C8A",
"'	c #607B8A",
"(	c #607D8B",
")	c #648190",
"*	c #607D8A",
"+	c #607B8B",
",	c #5F7C89",
"-	c #607C8B",
".	c #5F7D8B",
"0	c #627988",
"                ",
"         ##$    ",
"       %#&#     ",
"       '(#      ",
"       (##    # ",
"       ###   )# ",
"       ##*#+#,# ",
"      $*(((*('  ",
"     $#-#####   ",
"    #*#(#       ",
"   #####        ",
"  ###.'         ",
" ## #0          ",
" *###           ",
"  *#            "};