/* XPM */ 
static char * options_xpm[] = {
"16 16 142 2",
"  	c None",
"! 	c black",
"# 	c #CBCBCB",
"$ 	c #C7C7C7",
"% 	c #C3C3C3",
"& 	c #BEBEBE",
"' 	c #E5E5E5",
"( 	c #E4E4E4",
") 	c #ABABAB",
"* 	c #D1D1D1",
"+ 	c #CECECE",
", 	c #CACACA",
"- 	c #C1C1C1",
". 	c #DEDEDE",
"0 	c #DDDDDD",
"1 	c #B1B1B1",
"2 	c #A6A6A6",
"3 	c #A2A2A2",
"4 	c #D0D0D0",
"5 	c #DCDCDC",
"6 	c #EDEDED",
"7 	c #DBDBDB",
"8 	c #BDBDBD",
"9 	c #D6D6D6",
": 	c #D4D4D4",
"; 	c #AFAFAF",
"< 	c #E7E7E7",
"= 	c #B6B6B6",
"> 	c #8A8A8A",
"? 	c #D9D9D9",
"@ 	c #D2D2D2",
"A 	c #C8C8C8",
"B 	c #787878",
"C 	c #707070",
"D 	c #C4C4C4",
"E 	c #CCCCCC",
"F 	c #C9C9C9",
"G 	c #B9B9B9",
"H 	c #9B9B9B",
"I 	c #A0A0A0",
"J 	c #C5C5C5",
"K 	c #CABA91",
"L 	c #D8A457",
"M 	c #DBB084",
"N 	c #D09C45",
"O 	c #D1942A",
"P 	c #BFBFBF",
"Q 	c #D8D8D8",
"R 	c #CDCDCD",
"S 	c #BBBBBB",
"T 	c #818181",
"U 	c #8E8E8E",
"V 	c #CEBE89",
"W 	c #E7BD76",
"X 	c #F0D2B3",
"Y 	c #FFF3E5",
"Z 	c #EFD2AB",
"[ 	c #C18A4B",
"] 	c #E9E9E9",
"^ 	c #A4A4A4",
"_ 	c #C9AB4A",
"` 	c #ECD47E",
"a 	c #F9E3B1",
"b 	c #E7BF8A",
"c 	c #F6D3AD",
"d 	c #FCE0C3",
"e 	c #D09C65",
"f 	c #E2E2E2",
"g 	c #B0B0B0",
"h 	c #EED47B",
"i 	c #FDF6C3",
"j 	c #F6DD6B",
"k 	c #EDCA6C",
"l 	c #D7A262",
"m 	c #D29E65",
"n 	c #70675E",
"o 	c #9F9F9F",
"p 	c #CFCFCF",
"q 	c #9D9D9D",
"r 	c #C0A550",
"s 	c #EED378",
"t 	c #FDF7C7",
"u 	c #F5DC5E",
"v 	c #F7E25A",
"w 	c #F2D679",
"x 	c #D59442",
"y 	c #6F6253",
"z 	c #525252",
"{ 	c #C0C0C0",
"| 	c #C1AF8B",
"} 	c #E7CB76",
"~ 	c #F5DC5D",
" !	c #F7E159",
"!!	c #F1D47A",
"#!	c #D99546",
"$!	c #8D7457",
"%!	c #AAAAAA",
"&!	c #A5A5A5",
"'!	c #D5D5D5",
"(!	c #C3B390",
")!	c #D6B874",
"*!	c #FDF6C1",
"+!	c #F7DF62",
",!	c #F8E25C",
"-!	c #F0D378",
".!	c #DA9546",
"0!	c #CDC2B8",
"1!	c #6D6D6D",
"2!	c #666666",
"3!	c #A3A3A3",
"4!	c #A18D70",
"5!	c #D5B579",
"6!	c #D1B68F",
"7!	c #E4C954",
"8!	c #F5DF5A",
"9!	c #EDD077",
":!	c #D19044",
";!	c #ACA296",
"<!	c #7F7F7F",
"=!	c #515151",
">!	c #808080",
"?!	c #6E6E6E",
"@!	c #A98842",
"A!	c #FFF2E0",
"B!	c #D89953",
"C!	c #BD7919",
"D!	c #C49748",
"E!	c #B77E37",
"F!	c #575757",
"G!	c #4D4D4D",
"H!	c #484848",
"I!	c #82642A",
"J!	c #F9C793",
"K!	c #F9C990",
"L!	c #C98440",
"M!	c #A96722",
"N!	c #6C6051",
"O!	c #543C11",
"P!	c #865E27",
"Q!	c #BB8748",
"R!	c #A88245",
"S!	c #61564A",
"            # $ % &             ",
"            $ ' ( )             ",
"    * + ,   - . 0 1   ) 2 3     ",
"  4 5 6 7 - 8 9 : ; ) # < = >   ",
"  , % 5 : ? 7 9 : ? @ # A B C   ",
"    D : E F G H I - J K L M N O ",
"A % P Q R S T     U V W X Y Z [ ",
"% ] 9 F + ^       _ ` a b c d e ",
"& f @ J R g       h i j k l m n ",
"3 U o p J E q r s t u v w x y z ",
"    ) D { D | } t ~  !!!#!$!    ",
"  %!&!'!D (!)!*!+!,!-!.!0!1!2!  ",
"  3!S . 4!5!6!7!8!9!:!;!@ <!=!  ",
"    >!?!@!A!B!C!D!E!  F!G!H!    ",
"        I!J!K!L!M!N!            ",
"        O!P!Q!R!S!=!            "};