/* XPM */ 
static char * pagesetup_xpm[] = {
"16 16 191 2",
"  	c None",
"! 	c black",
"# 	c #437CC0",
"$ 	c #4C8AC8",
"% 	c #4E8BC8",
"& 	c #4E8CC8",
"' 	c #4E8BC9",
"( 	c #4E8AC7",
") 	c #4A88C4",
"* 	c #3A75C3",
"+ 	c #4884C3",
", 	c #ECF2F7",
"- 	c #EEF4F8",
". 	c #EDF4F8",
"0 	c #EDF3F8",
"1 	c #ECF2F8",
"2 	c #D7E6F2",
"3 	c #7CB1E2",
"4 	c #6493DB",
"5 	c #4A87C4",
"6 	c #F2F6FA",
"7 	c #C7E0FA",
"8 	c #C9E1FB",
"9 	c #C9E2FB",
": 	c #C8E0FB",
"; 	c #C4DFF9",
"< 	c #C0DBF8",
"= 	c #B7D6F4",
"> 	c #F8FBFF",
"? 	c #B3D8F6",
"@ 	c #7CAFE1",
"A 	c #6391DB",
"B 	c #4B88C5",
"C 	c #F1F5F9",
"D 	c #CDE3FC",
"E 	c #CEE3FB",
"F 	c #CDE3FB",
"G 	c #CBE2FB",
"H 	c #C8E0F9",
"I 	c #C1DCF8",
"J 	c #B9D6F5",
"K 	c #F8FBFD",
"L 	c #CDE6FC",
"M 	c #C9E5FA",
"N 	c #83B5E2",
"O 	c #4178BE",
"P 	c #4A88C5",
"Q 	c #CFE3FC",
"R 	c #D0E4FB",
"S 	c #CFE4FC",
"T 	c #CAE1FA",
"U 	c #C3DDF9",
"V 	c #BBD9F6",
"W 	c #DFE9F4",
"X 	c #F3F7FB",
"Y 	c #E9EFF5",
"Z 	c #447DC1",
"[ 	c #F0F4F9",
"] 	c #D3E6FC",
"^ 	c #D4E6FC",
"_ 	c #D3E7FD",
"` 	c #D1E4FC",
"a 	c #C8E0FA",
"b 	c #BAD6F5",
"c 	c #B4D4F3",
"d 	c #B2D2F1",
"e 	c #F0F4F8",
"f 	c #4581C3",
"g 	c #4987C5",
"h 	c #EFF4F9",
"i 	c #D7E7FE",
"j 	c #D6E7FD",
"k 	c #D5E7FD",
"l 	c #D4E6FD",
"m 	c #D2E6FC",
"n 	c #CCE1FB",
"o 	c #C7DFFA",
"p 	c #B7B8B9",
"q 	c #B3B3B3",
"r 	c #BAD8F6",
"s 	c #EFF4FA",
"t 	c #4582C5",
"u 	c #4887C5",
"v 	c #EDF4F9",
"w 	c #D8E8FE",
"x 	c #D7E8FE",
"y 	c #D6E7FE",
"z 	c #C9D3DF",
"{ 	c #BBBCBD",
"| 	c #C8D8ED",
"} 	c #BFBFBF",
"~ 	c #BDBDBD",
" !	c #BBCFE4",
"!!	c #AFAFB0",
"#!	c #7D95B0",
"$!	c #4683C5",
"%!	c #ECF3F9",
"&!	c #D6E8FE",
"'!	c #B9B9B9",
"(!	c #DADADA",
")!	c #BEBEBE",
"*!	c #D6D6D6",
"+!	c #D8D8D8",
",!	c #B7B7B7",
"-!	c #D4D4D4",
".!	c #878787",
"0!	c #4481C4",
"1!	c #EBF2F8",
"2!	c #C3CCD7",
"3!	c #D2D2D2",
"4!	c #AAAAAA",
"5!	c #808080",
"6!	c #898989",
"7!	c #CACACA",
"8!	c #7389A5",
"9!	c #417FC4",
":!	c #E8F1F8",
";!	c #D5E5FE",
"<!	c #D3E5FD",
"=!	c #E8E8E8",
">!	c #858585",
"?!	c #CCE2FC",
"@!	c #C9E0FB",
"A!	c #979899",
"B!	c #E2E2E2",
"C!	c #B5B5B5",
"D!	c #868686",
"E!	c #3F7BC3",
"F!	c #E6F0F7",
"G!	c #54B3F8",
"H!	c #55B3F7",
"I!	c #53B4F7",
"J!	c #A4A4A4",
"K!	c #B6B6B6",
"L!	c #E1E1E1",
"M!	c #9B9B9B",
"N!	c #50B1F7",
"O!	c #4EB1F7",
"P!	c #90969A",
"Q!	c #D5D5D5",
"R!	c #989898",
"S!	c #646464",
"T!	c #3B77C0",
"U!	c #E3EDF7",
"V!	c #6DC1FD",
"W!	c #9FD8FF",
"X!	c #9DD7FF",
"Y!	c #9BD3F9",
"Z!	c #9BB9CD",
"[!	c #C9C9C9",
"]!	c #BCBCBC",
"^!	c #97999B",
"_!	c #939799",
"`!	c #B4B4B4",
"a!	c #C1C1C1",
"b!	c #556A8A",
"c!	c #3770BE",
"d!	c #DFEBF5",
"e!	c #67BEFD",
"f!	c #66BCFC",
"g!	c #64BDFB",
"h!	c #63BDFC",
"i!	c #9F9F9F",
"j!	c #A0A0A0",
"k!	c #C3C3C3",
"l!	c #6C6C6C",
"m!	c #3268BB",
"n!	c #EAF1F8",
"o!	c #DFECF7",
"p!	c #DEEBF6",
"q!	c #DEEAF6",
"r!	c #DCEAF6",
"s!	c #A7ADB2",
"t!	c #686868",
"u!	c #CACFD4",
"v!	c #A1A1A1",
"w!	c #8A8A8A",
"x!	c #C2C5C8",
"y!	c #5D5D5D",
"z!	c #4D5A6E",
"{!	c #3369BA",
"|!	c #2F64B9",
"}!	c #3065BA",
"~!	c #2F65B9",
" #	c #2E64B9",
"!#	c #2D64B8",
"##	c #717171",
"$#	c #5B5B5B",
"%#	c #2D63B8",
"&#	c #2B61B6",
"'#	c #2D61B6",
"  # $ % % % % & ' ( ) *         ",
"  + , - . 0 0 0 1 , 2 3 4       ",
"  5 6 7 8 9 : ; < = > ? @ A     ",
"  B C D E F G H I J K L M N O   ",
"  P C Q R S D T U V W , X Y Z   ",
"  P [ ] ^ _ ` F a I b c d e f   ",
"  g h i j k l m n o p q r s t   ",
"  u v w w x y z { | } ~  !!!#!  ",
"  $!%!&!x j j '!(!)!*!+!,!-!.!  ",
"  0!1!y j j j 2!3!4!5!6!q 7!8!  ",
"  9!:!;!<!<!q 7!=!>!?!@!A!B!C!D!",
"  E!F!G!H!I!J!K!L!M!N!O!P!Q!R!S!",
"  T!U!V!W!X!Y!Z![!]!^!_!`!a!b!  ",
"  c!d!e!f!g!h!i![!J!7!a!j!k!l!  ",
"  m!n!o!p!q!r!s!t!u!v!w!x!y!z!  ",
"  {!|!}!~!~!~!|! #!###$#%#&#'#  "};