/* XPM */ 
static const char * const paste_xpm[] = {
"16 16 123 2",
"  	c None",
"! 	c black",
"# 	c #97621F",
"$ 	c #A37436",
"% 	c #FEEFB5",
"& 	c #F3DB7F",
"' 	c #A06D2D",
"( 	c #DBB270",
") 	c #E4BE7D",
"* 	c #DF9C4D",
"+ 	c #FDEEB4",
", 	c #F0D474",
"- 	c #DE9A4A",
". 	c #E0B36D",
"0 	c #DFB26C",
"1 	c #E4BE7E",
"2 	c #DEB168",
"3 	c #DA9A49",
"4 	c #DC9643",
"5 	c #DC9542",
"6 	c #DC9541",
"7 	c #DC9441",
"8 	c #DB9440",
"9 	c #D69D50",
": 	c #DEB16B",
"; 	c #E4BC7B",
"< 	c #DDAD64",
"= 	c #DCAA61",
"> 	c #DAA75D",
"? 	c #D9A65B",
"@ 	c #D79E51",
"A 	c #D8A261",
"B 	c #E3BA79",
"C 	c #DBA960",
"D 	c #D9A459",
"E 	c #D79F52",
"F 	c #E2B875",
"G 	c #D8A357",
"H 	c #D59D52",
"I 	c #A88A60",
"J 	c #A08763",
"K 	c #A08663",
"L 	c #9F8562",
"M 	c #9E8668",
"N 	c #806749",
"O 	c #696969",
"P 	c #676767",
"Q 	c #646464",
"R 	c #616161",
"S 	c #E1B672",
"T 	c #D7A256",
"U 	c #D59C4F",
"V 	c #CF9851",
"W 	c #AB9374",
"X 	c #F8F8F8",
"Y 	c #F2F2F2",
"Z 	c #F1F1F1",
"[ 	c #F4F4F4",
"] 	c #5D5D5D",
"^ 	c #E0B46F",
"_ 	c #D69B4F",
"` 	c #D4974D",
"a 	c #CD944E",
"b 	c #A99072",
"c 	c #B6B6B6",
"d 	c #B5B5B5",
"e 	c #B4B4B4",
"f 	c #EEEEEE",
"g 	c #595959",
"h 	c #D59B4F",
"i 	c #D3974D",
"j 	c #D1934A",
"k 	c #CB904B",
"l 	c #A68D6F",
"m 	c #E9E9E9",
"n 	c #E8E8E8",
"o 	c #E7E7E7",
"p 	c #EDEDED",
"q 	c #555555",
"r 	c #DEB06A",
"s 	c #D3964C",
"t 	c #D2924A",
"u 	c #D08E47",
"v 	c #C98B49",
"w 	c #A48A6E",
"x 	c #B3B3B3",
"y 	c #525252",
"z 	c #DCAD68",
"{ 	c #D19249",
"| 	c #CE8A45",
"} 	c #C78746",
"~ 	c #A2876B",
" !	c #F0F0F0",
"!!	c #4E4E4E",
"#!	c #DCAA67",
"$!	c #CF8D47",
"%!	c #CD8642",
"&!	c #C58343",
"'!	c #A08467",
"(!	c #B2B2B2",
")!	c #4B4B4B",
"*!	c #D7A461",
"+!	c #DAA764",
",!	c #D9A563",
"-!	c #D8A361",
".!	c #D19E61",
"0!	c #A38D74",
"1!	c #EFEFEF",
"2!	c #E6E6E6",
"3!	c #ECECEC",
"4!	c #484848",
"5!	c #946223",
"6!	c #877257",
"7!	c #F7F7F7",
"8!	c #F3F3F3",
"9!	c #454545",
":!	c #5A5A5A",
";!	c #575757",
"<!	c #545454",
"=!	c #515151",
">!	c #494949",
"?!	c #474747",
"@!	c #434343",
"      # # # # # #               ",
"  # # $ % & & % ' # # #         ",
"# ( ) * + , , + - . 0 #         ",
"# 1 2 3 4 5 6 7 8 9 : #         ",
"# ; < = > ? ? ? ? @ A #         ",
"# B C D E @ @ @ @ @ A #         ",
"# F ? G E H I J K L M N O P Q R ",
"# S T E U V W X Y Y Y Y Y Z [ ] ",
"# ^ @ _ ` a b Z c d d d e e f g ",
"# 0 h i j k l Z m m n n n o p q ",
"# r s t u v w Z d e e x x x p y ",
"# z { u | } ~  !n n o o o o p !!",
"# #!$!| %!&!'! !x x x x x (!p )!",
"# *!+!,!-!.!0!1!o o o o 2!2!3!4!",
"  # # # # 5!6!7! ! ! ! ! ! !8!9!",
"            :!;!<!=!!!)!>!?!9!@!"};