/* XPM */ 
static char * plaintext_xpm[] = {
"16 16 26 1",
" 	c None",
"!	c black",
"#	c #F8F8F8",
"$	c #FBFBFB",
"%	c #FCFCFC",
"&	c #949494",
"'	c #F4F4F4",
"(	c #F5F5F5",
")	c #F1F1F1",
"*	c #EFEFEF",
"+	c #E9E9E9",
",	c #E7E7E7",
"-	c #959595",
".	c #F7F7F7",
"0	c #F9F9F9",
"1	c #F3F3F3",
"2	c #F0F0F0",
"3	c #EAEAEA",
"4	c #F6F6F6",
"5	c #999999",
"6	c #F2F2F2",
"7	c #EBEBEB",
"8	c #ECECEC",
"9	c #E6E6E6",
":	c #EDEDED",
";	c #FAFAFA",
"                ",
"  #$%%%%%%#&    ",
"  $'((()*+%,-   ",
"  %.0..123%4'5  ",
"  %000.467%%%%  ",
"  %$%%$#()839%  ",
"  %%%%%$#(6*:%  ",
"  %%%%%%$#416%  ",
"  %%%%%%%;044%  ",
"  %%%%%%%$00#%  ",
"  %%%%$$$;;##%  ",
"  %%%%$$;;;;;%  ",
"  %%%%%$$$$$$%  ",
"  %%%%%%%%%%%%  ",
"  0%%%%%%%%%%0  ",
"                "};