/* XPM */ 
static char * plaintext_xpm[] = {
"16 16 171 2",
"  	c None",
"! 	c black",
"# 	c #437CC0",
"$ 	c #4C8AC8",
"% 	c #4E8BC8",
"& 	c #4E8CC8",
"' 	c #4E8BC9",
"( 	c #4E8AC7",
") 	c #4A88C4",
"* 	c #3A75C3",
"+ 	c #4884C3",
", 	c #ECF2F7",
"- 	c #EEF4F8",
". 	c #EDF4F8",
"0 	c #EDF3F8",
"1 	c #ECF2F8",
"2 	c #D7E6F2",
"3 	c #7CB1E2",
"4 	c #6493DB",
"5 	c #4A87C4",
"6 	c #F2F6FA",
"7 	c #C7E0FA",
"8 	c #C9E1FB",
"9 	c #C9E2FB",
": 	c #C8E0FB",
"; 	c #C4DFF9",
"< 	c #C0DBF8",
"= 	c #B7D6F4",
"> 	c #F8FBFF",
"? 	c #B3D8F6",
"@ 	c #7CAFE1",
"A 	c #6391DB",
"B 	c #4B88C5",
"C 	c #F1F5F9",
"D 	c #CDE3FC",
"E 	c #CEE3FB",
"F 	c #CDE3FB",
"G 	c #CBE2FB",
"H 	c #C8E0F9",
"I 	c #C1DCF8",
"J 	c #B9D6F5",
"K 	c #F8FBFD",
"L 	c #CDE6FC",
"M 	c #C9E5FA",
"N 	c #83B5E2",
"O 	c #4178BE",
"P 	c #4A88C5",
"Q 	c #CFE3FC",
"R 	c #D0E4FB",
"S 	c #CFE4FC",
"T 	c #CAE1FA",
"U 	c #C3DDF9",
"V 	c #BBD9F6",
"W 	c #DFE9F4",
"X 	c #F3F7FB",
"Y 	c #E9EFF5",
"Z 	c #447DC1",
"[ 	c #F0F4F9",
"] 	c #D3E6FC",
"^ 	c #D4E6FC",
"_ 	c #D3E7FD",
"` 	c #D1E4FC",
"a 	c #C8E0FA",
"b 	c #BAD6F5",
"c 	c #B4D4F3",
"d 	c #B2D2F1",
"e 	c #F0F4F8",
"f 	c #4581C3",
"g 	c #4987C5",
"h 	c #EFF4F9",
"i 	c #D7E7FE",
"j 	c #D6E7FD",
"k 	c #D5E7FD",
"l 	c #D4E6FD",
"m 	c #D2E6FC",
"n 	c #CCE1FB",
"o 	c #C7DFFA",
"p 	c #BCDAF6",
"q 	c #BAD8F6",
"r 	c #EFF4FA",
"s 	c #4582C5",
"t 	c #4887C5",
"u 	c #EDF4F9",
"v 	c #D8E8FE",
"w 	c #D7E8FE",
"x 	c #D6E7FE",
"y 	c #D3E5FD",
"z 	c #C2DDF9",
"{ 	c #EDF4FA",
"| 	c #4481C5",
"} 	c #4683C5",
"~ 	c #ECF3F9",
" !	c #D6E8FE",
"!!	c #CCE3FB",
"#!	c #C5DFFA",
"$!	c #EAF2FA",
"%!	c #417FC5",
"&!	c #4481C4",
"'!	c #EBF2F8",
"(!	c #D5E6FD",
")!	c #CDE2FC",
"*!	c #CBE1FB",
"+!	c #F2F7FB",
",!	c #3E7BC4",
"-!	c #417FC4",
".!	c #E8F1F8",
"0!	c #D5E5FE",
"1!	c #D3E5FC",
"2!	c #CEE2FC",
"3!	c #CCE2FC",
"4!	c #C9E0FB",
"5!	c #C8E1FB",
"6!	c #F7FAFD",
"7!	c #3A75C0",
"8!	c #3F7BC3",
"9!	c #E6F0F7",
":!	c #54B3F8",
";!	c #55B3F7",
"<!	c #53B4F7",
"=!	c #52B3F8",
">!	c #52B1F8",
"?!	c #51B2F7",
"@!	c #50B1F7",
"A!	c #4EB1F7",
"B!	c #F5F9FC",
"C!	c #356EBE",
"D!	c #3B77C0",
"E!	c #E3EDF7",
"F!	c #6DC1FD",
"G!	c #9FD8FF",
"H!	c #9DD7FF",
"I!	c #9AD6FF",
"J!	c #97D7FF",
"K!	c #95D6FF",
"L!	c #94D6FF",
"M!	c #93D5FF",
"N!	c #92D4FF",
"O!	c #64BDFB",
"P!	c #F4F7FB",
"Q!	c #3066BA",
"R!	c #3770BE",
"S!	c #DFEBF5",
"T!	c #67BEFD",
"U!	c #66BCFC",
"V!	c #63BDFC",
"W!	c #61BCFC",
"X!	c #62BCFB",
"Y!	c #60BBFB",
"Z!	c #5FBDFC",
"[!	c #61BBFC",
"]!	c #2C63B8",
"^!	c #3268BB",
"_!	c #EAF1F8",
"`!	c #DFECF7",
"a!	c #DEEBF6",
"b!	c #DEEAF6",
"c!	c #DCEAF6",
"d!	c #EBF3FA",
"e!	c #F3F7FC",
"f!	c #F4F8FC",
"g!	c #FDFEFE",
"h!	c #295FB6",
"i!	c #3369BA",
"j!	c #2F64B9",
"k!	c #3065BA",
"l!	c #2F65B9",
"m!	c #2E64B9",
"n!	c #2D64B8",
"o!	c #2D63B8",
"p!	c #2B61B6",
"q!	c #2D61B6",
"  # $ % % % % & ' ( ) *         ",
"  + , - . 0 0 0 1 , 2 3 4       ",
"  5 6 7 8 9 : ; < = > ? @ A     ",
"  B C D E F G H I J K L M N O   ",
"  P C Q R S D T U V W , X Y Z   ",
"  P [ ] ^ _ ` F a I b c d e f   ",
"  g h i j k l m n o I p q r s   ",
"  t u v v w x y ` n 7 z I { |   ",
"  } ~  !w j j k y R !!o #!$!%!  ",
"  &!'!x j j j (!y ` )!*!8 +!,!  ",
"  -!.!0!y y 1!1!` 2!3!4!5!6!7!  ",
"  8!9!:!;!<!=!>!?!?!@!A!A!B!C!  ",
"  D!E!F!G!H!I!J!K!L!M!N!O!P!Q!  ",
"  R!S!T!U!O!V!V!W!X!Y!Z![!K ]!  ",
"  ^!_!`!a!b!c!c!d!d!$!e!f!g!h!  ",
"  i!j!k!l!l!l!j!m!n!n!o!o!p!q!  "};