/* XPM */ 
static  char * playback_xpm[] = {
"16 16 21 1",
" 	c None",
"!	c black",
"#	c #808080",
"$	c #7BADE7",
"%	c #7BA5E7",
"&	c #A5C6EF",
"'	c #6B9CE7",
"(	c #73A5E7",
")	c #8CB5E7",
"*	c #6394DE",
"+	c #9CBDEF",
",	c #73A5DE",
"-	c #528CDE",
".	c #84ADE7",
"0	c #4A84D6",
"1	c #3173CE",
"2	c #4284D6",
"3	c #427BD6",
"4	c #216BCE",
"5	c #3973CE",
"6	c #1863CE",
"                ",
" #############  ",
" #           #  ",
" #    $      #  ",
" #    %&     #  ",
" #    '()    #  ",
" #    *+*,   #  ",
" #    -.)01  #  ",
" #    2(.3   #  ",
" #    1%3    #  ",
" #    45     #  ",
" #    6      #  ",
" #           #  ",
" #############  ",
"                ",
"                "};