/* XPM */ 
static char * playback_xpm[] = {
"16 16 24 1",
" 	c None",
"!	c black",
"#	c #808080",
"$	c #7BADE7",
"%	c #7BA5E7",
"&	c #A5C6EF",
"'	c #6B9CE7",
"(	c #73A5E7",
")	c #8CB5E7",
"*	c #6394DE",
"+	c #9CBDEF",
",	c #73A5DE",
"-	c #528CDE",
".	c #84ADE7",
"0	c #4A84D6",
"1	c #3173CE",
"2	c #4284D6",
"3	c #427BD6",
"4	c #5A8CD6",
"5	c #638CD6",
"6	c #216BCE",
"7	c #3973CE",
"8	c #1863CE",
"9	c #6B8CD6",
"                ",
" #############  ",
" #           #  ",
" #    $      #  ",
" #    %&     #  ",
" #    '()    #  ",
" #    *+*,   #  ",
" #    -.)01  #  ",
" #    2(.34  #  ",
" #    1%35   #  ",
" #    675    #  ",
" #    89     #  ",
" #           #  ",
" #############  ",
"                ",
"                "};