/* XPM */ 
static const char * const playback_xpm[] = {
"16 16 46 1",
" 	c None",
"!	c black",
"#	c #90A5E7",
"$	c #8EA3E6",
"%	c #8DA2E6",
"&	c #8399E2",
"'	c #8A9FE5",
"(	c #BCCBF6",
")	c #98ABEA",
"*	c #6F89DA",
"+	c #7F97E1",
",	c #BBC9F5",
"-	c #B4C3F2",
".	c #859AE2",
"0	c #5572D2",
"1	c #728BDC",
"2	c #B1C1F2",
"3	c #A2B4ED",
"4	c #AABAF0",
"5	c #718BDC",
"6	c #3B5CC8",
"7	c #637FD7",
"8	c #99ACEA",
"9	c #5A77D3",
":	c #274ABF",
";	c #9FB2EC",
"<	c #8499E2",
"=	c #869CE3",
">	c #4E6DCF",
"?	c #1D40B5",
"@	c #4363CA",
"A	c #95AAE8",
"B	c #8098E1",
"C	c #4867CD",
"D	c #193BAC",
"E	c #3758C6",
"F	c #8BA1E5",
"G	c #899EE3",
"H	c #4465CB",
"I	c #1739A5",
"J	c #4061CA",
"K	c #143499",
"L	c #3C5DC8",
"M	c #102F8F",
"N	c #1737A2",
"O	c #0F2B89",
"                ",
"                ",
"    #$          ",
"    #%&         ",
"    '()*        ",
"    +,-.0       ",
"    123456      ",
"    74$#89:     ",
"    0;<=#>?     ",
"    @AB%CD      ",
"    EFGHI       ",
"    :<JK        ",
"    ?LM         ",
"    NO          ",
"                ",
"                "};