/* XPM */
static char *playback_xpm[] = {
/* columns rows colors chars-per-pixel */
"16 15 49 1",
"X c #325A2F",
"  c None",
"% c #42793F",
"7 c #74D36F",
"y c #74D370",
"x c #58A055",
"+ c #437A40",
"i c #3E733C",
"O c #040804",
"$ c #213C20",
"@ c #80E97B",
". c #070C06",
": c #172B16",
"* c #76D872",
"f c #6EC769",
"4 c #274725",
"w c #71CE6C",
"o c #64B660",
"9 c #6CC467",
"s c #42783F",
"5 c #030603",
"a c #72CF6D",
"# c #7ADD74",
"e c #6BC266",
"j c #244223",
"k c #020402",
"& c #7EE579",
"- c #79DB73",
"g c #64B55F",
"p c #74D470",
"t c #3D703A",
"= c #77D872",
"r c #62B25D",
"u c #62B25E",
"3 c #060C06",
"2 c #40743D",
"8 c #72CE6D",
"q c #335C30",
"< c #75D570",
"l c #3E713C",
"; c #5BA557",
"1 c #63B35E",
"d c #7BE076",
"0 c #66BA62",
"h c #51944D",
"z c #6EC86A",
"6 c #76D670",
", c #76D671",
"> c #7EE478",
/* pixels */
" .              ",
" XoO            ",
" +@#o$          ",
" %&*=-;:        ",
" %>,<<<,12 3    ",
" %>,<<<<<=14 5  ",
" %>,<<<<<<6=12  ",
" %>,<<<<<<<7890q",
" %>,<<<<<7wert  ",
" %>,<<<yweui    ",
" %>,<pa9oi      ",
" sdfghjk        ",
" lzx4k          ",
" X4O            ",
" .              "
};
