/* XPM */ 
static const char * const post_it_xpm[] = {
"16 16 124 2",
"  	c None",
"! 	c black",
"# 	c #B5A35B",
"$ 	c #B19E52",
"% 	c #B29F54",
"& 	c #B19F53",
"' 	c #AD9849",
"( 	c #D5CA9B",
") 	c #ECE8D5",
"* 	c #EAE5C7",
"+ 	c #ECE6CA",
", 	c #D4CA9B",
"- 	c #AB9847",
". 	c #A7913B",
"0 	c #E1DAB7",
"1 	c #FFFFE4",
"2 	c #FCFAC6",
"3 	c #FEFDCC",
"4 	c #FCFBC6",
"5 	c #E0D9B7",
"6 	c #A59039",
"7 	c #A9933E",
"8 	c #DED6B1",
"9 	c #FEFED7",
": 	c #F7F4BA",
"; 	c #F9F6C0",
"< 	c #DDD5B1",
"= 	c #A7923C",
"> 	c #A9923E",
"? 	c #DDD5B2",
"@ 	c #FEFFD6",
"A 	c #F7F4BB",
"B 	c #FAF7C2",
"C 	c #F9F6C1",
"D 	c #FAF6C1",
"E 	c #F8F5BC",
"F 	c #FFFFD9",
"G 	c #DED6B2",
"H 	c #FFFDD1",
"I 	c #F6F2B6",
"J 	c #F9F5BF",
"K 	c #F9F5C0",
"L 	c #F9F7C2",
"M 	c #A9933D",
"N 	c #DED6B0",
"O 	c #FEFACD",
"P 	c #F5EEB1",
"Q 	c #F7F2BB",
"R 	c #F8F4BD",
"S 	c #F8F5C0",
"T 	c #FEFED8",
"U 	c #DED5AF",
"V 	c #FDF9C9",
"W 	c #F4ECAC",
"X 	c #F6F0B6",
"Y 	c #F7F2B8",
"Z 	c #F8F3BB",
"[ 	c #F9F6C2",
"] 	c #F7F5BC",
"^ 	c #A6913B",
"_ 	c #A9943F",
"` 	c #DED5B0",
"a 	c #FCF6C5",
"b 	c #F3EAA8",
"c 	c #F5EEB2",
"d 	c #F6EFB4",
"e 	c #F7F0B7",
"f 	c #F7F3BA",
"g 	c #F8F4BE",
"h 	c #F9F5C1",
"i 	c #F8F4BC",
"j 	c #FBFBD5",
"k 	c #DCD4B0",
"l 	c #A8933D",
"m 	c #A8933E",
"n 	c #FBF4C2",
"o 	c #F2E8A4",
"p 	c #F4ECAE",
"q 	c #F5EDB0",
"r 	c #F6EFB3",
"s 	c #F7F1B7",
"t 	c #F7F2BA",
"u 	c #F9F5BE",
"v 	c #EFEAB5",
"w 	c #EAE9C8",
"x 	c #D9D1AD",
"y 	c #AB953F",
"z 	c #DCD3AE",
"{ 	c #F9EFB5",
"| 	c #EEE295",
"} 	c #F1E69F",
"~ 	c #F1E8A2",
" !	c #F2E9A5",
"!!	c #F1E9AA",
"#!	c #E8E3A8",
"$!	c #D2CC95",
"%!	c #DAD9B8",
"&!	c #DED7B5",
"'!	c #A9943C",
"(!	c #9E8B3C",
")!	c #E2DAB6",
"*!	c #FFFFE3",
"+!	c #FBF4C7",
",!	c #FDF7CD",
"-!	c #FDF8CF",
".!	c #FEF9D2",
"0!	c #FEF9D4",
"1!	c #F7F3D2",
"2!	c #EBE8CB",
"3!	c #E4E2C8",
"4!	c #E7E4CB",
"5!	c #D3C795",
"6!	c #A99953",
"7!	c #94874F",
"8!	c #C8BA7D",
"9!	c #D2C89C",
":!	c #D1C597",
";!	c #D2C798",
"<!	c #D2C698",
"=!	c #D0C597",
">!	c #D0C497",
"?!	c #D2C79B",
"@!	c #D1C693",
"A!	c #AEA065",
"                                ",
"                                ",
"    # $ % & & & & & & % $ #     ",
"  ' ( ) * + + + + + + * ) , -   ",
"  . 0 1 2 3 3 3 3 3 3 4 1 5 6   ",
"  7 8 9 : ; ; ; ; ; ; : 9 < =   ",
"  > ? @ A B C D B B B E F G =   ",
"  7 8 H I J K L C C B E F G =   ",
"  M N O P Q R S D C C A T < =   ",
"  7 U V W X Y Z J [ B ] F G ^   ",
"  _ ` a b c d e f g h i j k l   ",
"  m U n o p q r s t u v w x m   ",
"  y z { | } ~  !b !!#!$!%!&!'!  ",
"  (!)!*!+!,!-!.!0!1!2!3!4!5!6!  ",
"  7!8!9!:!;!<!;!;!=!>!?!@!A!    ",
"                                "};