/* XPM */ 
static char * preview_xpm[] = {
"16 16 183 2",
"  	c None",
"! 	c black",
"# 	c #447DC1",
"$ 	c #4D8BC8",
"% 	c #4F8CC8",
"& 	c #4F8DC8",
"' 	c #4F8CC9",
"( 	c #4F8BC7",
") 	c #4B89C5",
"* 	c #3B76C4",
"+ 	c #4985C4",
", 	c #ECF2F7",
"- 	c #EEF4F8",
". 	c #EDF4F8",
"0 	c #EDF3F8",
"1 	c #ECF2F8",
"2 	c #D7E6F2",
"3 	c #7DB2E2",
"4 	c #6594DB",
"5 	c #4B88C5",
"6 	c #F2F6FA",
"7 	c #C7E0FA",
"8 	c #C9E1FB",
"9 	c #C9E2FB",
": 	c #C8E0FB",
"; 	c #C5DFF9",
"< 	c #C1DBF8",
"= 	c #B8D6F4",
"> 	c #F8FBFF",
"? 	c #B4D8F6",
"@ 	c #7DB0E1",
"A 	c #6492DB",
"B 	c #4C89C6",
"C 	c #F1F5F9",
"D 	c #CDE3FC",
"E 	c #CEE3FB",
"F 	c #CDE3FB",
"G 	c #CBE2FB",
"H 	c #C8E0F9",
"I 	c #C2DCF8",
"J 	c #BAD6F5",
"K 	c #F8FBFD",
"L 	c #CDE6FC",
"M 	c #C9E5FA",
"N 	c #84B6E2",
"O 	c #4279BF",
"P 	c #4B89C6",
"Q 	c #CFE3FC",
"R 	c #D0E4FB",
"S 	c #CFE4FC",
"T 	c #CAE1FA",
"U 	c #C4DDF9",
"V 	c #BCD9F6",
"W 	c #DFE9F4",
"X 	c #F3F7FB",
"Y 	c #E9EFF5",
"Z 	c #457EC2",
"[ 	c #F0F4F9",
"] 	c #D3E6FC",
"^ 	c #D4E6FC",
"_ 	c #D3E7FD",
"` 	c #D1E4FC",
"a 	c #C8E0FA",
"b 	c #BBD6F5",
"c 	c #B5D4F3",
"d 	c #B3D2F1",
"e 	c #F0F4F8",
"f 	c #4682C4",
"g 	c #4A88C6",
"h 	c #EFF4F9",
"i 	c #D7E7FE",
"j 	c #D6E7FD",
"k 	c #D5E7FD",
"l 	c #D4E6FD",
"m 	c #D2E6FC",
"n 	c #CCE1FB",
"o 	c #C7DFFA",
"p 	c #BDDAF6",
"q 	c #BBD8F6",
"r 	c #EFF4FA",
"s 	c #4683C6",
"t 	c #4988C6",
"u 	c #EDF4F9",
"v 	c #D8E8FE",
"w 	c #D7E8FE",
"x 	c #D6E7FE",
"y 	c #D3E5FD",
"z 	c #C1D3E2",
"{ 	c #ACC6DA",
"| 	c #A0BFE1",
"} 	c #A7C4E5",
"~ 	c #B6CDE3",
" !	c #EDF4FA",
"!!	c #4582C6",
"#!	c #4784C6",
"$!	c #ECF3F9",
"%!	c #D6E8FE",
"&!	c #C2D2E1",
"'!	c #B4CDE9",
"(!	c #DBE7F5",
")!	c #DFECF8",
"*!	c #C9DDF2",
"+!	c #B8D0EB",
",!	c #BDCFE2",
"-!	c #4280C6",
".!	c #4582C5",
"0!	c #EBF2F8",
"1!	c #AAC6E6",
"2!	c #D6E4F3",
"3!	c #CAE0F6",
"4!	c #C6DEF5",
"5!	c #C5DEF5",
"6!	c #D3E6F8",
"7!	c #A8C2E0",
"8!	c #3F7CC5",
"9!	c #4280C5",
":!	c #E8F1F8",
";!	c #D5E5FE",
"<!	c #D3E5FC",
"=!	c #9EBDE0",
">!	c #DCEAF8",
"?!	c #54B5F7",
"@!	c #53B4F8",
"A!	c #CDE2F8",
"B!	c #A4C1E4",
"C!	c #3B76C1",
"D!	c #407CC4",
"E!	c #E6F0F7",
"F!	c #55B4F8",
"G!	c #56B4F7",
"H!	c #A8C4E5",
"I!	c #D6E5F5",
"J!	c #9ED7FF",
"K!	c #CCE3F8",
"L!	c #9AB6D9",
"M!	c #366FBF",
"N!	c #3C78C1",
"O!	c #E3EDF7",
"P!	c #6EC2FD",
"Q!	c #A0D8FF",
"R!	c #9BD6FF",
"S!	c #C1D3E7",
"T!	c #C9DCF2",
"U!	c #65BEFB",
"V!	c #64BEFC",
"W!	c #B3D1F3",
"X!	c #99A3B2",
"Y!	c #5E6275",
"Z!	c #3871BF",
"[!	c #DFEBF5",
"]!	c #68BFFD",
"^!	c #67BDFC",
"_!	c #CBDBEE",
"`!	c #ABC6E6",
"a!	c #A9C5E6",
"b!	c #9CBBDF",
"c!	c #97A3B6",
"d!	c #D3B89C",
"e!	c #C09161",
"f!	c #A66C2B",
"g!	c #3369BC",
"h!	c #EAF1F8",
"i!	c #DFECF7",
"j!	c #DEEBF6",
"k!	c #DEEAF6",
"l!	c #DCEAF6",
"m!	c #EBF3FA",
"n!	c #EAF2FA",
"o!	c #F3F7FC",
"p!	c #DECAB5",
"q!	c #CC9E6C",
"r!	c #DEB992",
"s!	c #B68349",
"t!	c #346ABB",
"u!	c #3065BA",
"v!	c #3166BB",
"w!	c #3066BA",
"x!	c #2F65BA",
"y!	c #2E65B9",
"z!	c #2E64B9",
"{!	c #555662",
"|!	c #B98B55",
"}!	c #BA8A50",
"  # $ % % % % & ' ( ) *         ",
"  + , - . 0 0 0 1 , 2 3 4       ",
"  5 6 7 8 9 : ; < = > ? @ A     ",
"  B C D E F G H I J K L M N O   ",
"  P C Q R S D T U V W , X Y Z   ",
"  P [ ] ^ _ ` F a I b c d e f   ",
"  g h i j k l m n o I p q r s   ",
"  t u v v w x y z { | } ~  !!!  ",
"  #!$!%!w j j &!'!(!)!*!+!,!-!  ",
"  .!0!x j j j 1!2!3!4!5!6!7!8!  ",
"  9!:!;!y y <!=!>!?!?!@!A!B!C!  ",
"  D!E!F!G!?!@!H!I!J!J!@!K!L!M!  ",
"  N!O!P!Q!J!R!S!T!U!U!V!W!X!Y!  ",
"  Z![!]!^!U!V!V!_!`!a!b!c!d!e!f!",
"  g!h!i!j!k!l!l!m!m!n!o!p!q!r!s!",
"  t!u!v!w!w!w!u!x!y!y!z!z!{!|!}!"};