/* XPM */ 
static char * preview_xpm[] = {
"16 16 4 1",
" 	c None",
"!	c black",
"#	c white",
"$	c #00FFFF",
"!!!!!!!!!       ",
"!#######!!      ",
"!#######! !     ",
"!#######!!!!    ",
"!##########!    ",
"!#######!!!!    ",
"!######!!  !!   ",
"!#####!!$$ !!!  ",
"!#####! $  ! !  ",
"!#####!    ! !  ",
"!#####!!  $!!!  ",
"!######!!  !!!  ",
"!#######!!!!!!! ",
"!##########! !!!",
"!##########!  !!",
"!!!!!!!!!!!!   !"};