/* XPM */ 
static char * print_xpm[] = {
"16 16 136 2",
"  	c None",
"! 	c black",
"# 	c #437CC0",
"$ 	c #4C8AC8",
"% 	c #4E8BC8",
"& 	c #4E8CC8",
"' 	c #4E8BC9",
"( 	c #4B88C4",
") 	c #3A75C3",
"* 	c #4885C3",
"+ 	c #ECF2F7",
", 	c #EEF4F8",
"- 	c #EDF3F8",
". 	c #ECF2F8",
"0 	c #D7E6F2",
"1 	c #7CB1E2",
"2 	c #6290DA",
"3 	c #4B88C5",
"4 	c #F1F5F9",
"5 	c #CDE3FC",
"6 	c #CDE3FB",
"7 	c #C8E0F9",
"8 	c #C1DCF8",
"9 	c #F8FBFD",
": 	c #CDE6FC",
"; 	c #83B5E2",
"< 	c #4178BE",
"= 	c #4A88C5",
"> 	c #CFE3FC",
"? 	c #CFE4FC",
"@ 	c #CAE1FA",
"A 	c #C3DDF9",
"B 	c #DFE9F4",
"C 	c #E9EFF5",
"D 	c #447DC1",
"E 	c #4A88C4",
"F 	c #F0F4F9",
"G 	c #D3E6FC",
"H 	c #D3E7FD",
"I 	c #C8E0FA",
"J 	c #BAD6F5",
"K 	c #B4D4F3",
"L 	c #F0F4F8",
"M 	c #4581C2",
"N 	c #808080",
"O 	c #EFF4F9",
"P 	c #D7E7FE",
"Q 	c #D5E7FD",
"R 	c #D2E6FC",
"S 	c #CCE1FB",
"T 	c #BCDAF6",
"U 	c #EFF4FA",
"V 	c #4782C3",
"W 	c #585858",
"X 	c #525252",
"Y 	c #999999",
"Z 	c #CCCCCC",
"[ 	c #4D8AC7",
"] 	c #EDF4F9",
"^ 	c #D8E8FE",
"_ 	c #D7E8FE",
"` 	c #D3E5FD",
"a 	c #D1E4FC",
"b 	c #C7E0FA",
"c 	c #C2DDF9",
"d 	c #EDF4FA",
"e 	c #4984C7",
"f 	c #C2C2C2",
"g 	c #737373",
"h 	c #D2D2D2",
"i 	c #E8E8E8",
"j 	c #7C7C7C",
"k 	c #C3C3C3",
"l 	c #555555",
"m 	c #FCFCFC",
"n 	c #CBCBCB",
"o 	c #F2F2F2",
"p 	c #C5C5C5",
"q 	c #6F6F6F",
"r 	c #7D7D7D",
"s 	c #F9F9F9",
"t 	c #AAAAAA",
"u 	c #DFDFDF",
"v 	c #A2A2A2",
"w 	c #606060",
"x 	c #797979",
"y 	c #D7D7D7",
"z 	c #969696",
"{ 	c #D8D8D8",
"| 	c #BEBEBE",
"} 	c #8D8D8D",
"~ 	c #3E3E3E",
" !	c #747474",
"!!	c #BABABA",
"#!	c #8C8C8C",
"$!	c #D4D4D4",
"%!	c #B8B8B8",
"&!	c #D3D3D3",
"'!	c #828282",
"(!	c #292929",
")!	c #B4B4B4",
"*!	c #949494",
"+!	c #787878",
",!	c #6D6D6D",
"-!	c #515151",
".!	c #424242",
"0!	c #414141",
"1!	c #242424",
"2!	c #696969",
"3!	c #A6A6A6",
"4!	c #A9ABAE",
"5!	c #BCBFC4",
"6!	c #A7A9AC",
"7!	c #2B2B2B",
"8!	c #9A9A9A",
"9!	c #222222",
":!	c #626262",
";!	c #5C5C5C",
"<!	c #575757",
"=!	c #6094C7",
">!	c #F6F7F9",
"?!	c #ECF1F9",
"@!	c #EBF1F9",
"A!	c #E9F0F8",
"B!	c #E6EDF7",
"C!	c #E1EAF4",
"D!	c #DEE8F2",
"E!	c #F6F8FA",
"F!	c #6093C7",
"G!	c #232323",
"H!	c #6094C8",
"I!	c #6497CA",
"J!	c #6496CA",
"K!	c #6396CA",
"L!	c #6396C9",
"M!	c #6093C8",
"      # $ % % & ' ( )           ",
"      * + , - - . 0 1 2         ",
"      3 4 5 6 7 8 9 : ; <       ",
"      = 4 > ? @ A B + C D       ",
"      E F G H 6 I J K L M       ",
"  N N ( O P Q R S 8 T U V W X   ",
"  Y Z [ ] ^ _ ` a b c d e f g   ",
"N h i j j j j j j j j j j i k l ",
"N m m n o o o o o o o o p m m q ",
"r s s t u n n n n n n u v s s w ",
"x y y z { | | | | | | y } y y ~ ",
" !!!!!#!$!%!%!%!%!%!%!&!'!!!!!(!",
"q )!)!*!N N +!,!w -!.!0!,!)!)!1!",
"2!3!)!N 4!5!5!5!5!5!5!6!7!)!8!9!",
":!;!<!=!>!?!@!A!B!C!D!E!F!G!9!9!",
"      H!I!J!J!J!K!L!L!I!M!      "};