/* XPM */ 
static const char * const qfind_xpm[] = {
"16 16 96 2",
"  	c None",
"! 	c black",
"# 	c #BEDCFA",
"$ 	c #BAD9F9",
"% 	c #B7D6F6",
"& 	c #B3D3F4",
"' 	c #AECFF1",
"( 	c #AACBEE",
") 	c #BDDBFA",
"* 	c #CDE2F9",
"+ 	c #DEECFA",
", 	c #E2EEF9",
"- 	c #E2EDF9",
". 	c #DAE9F8",
"0 	c #BCD5F0",
"1 	c #9EBFE7",
"2 	c #BCDBFA",
"3 	c #CCE2F8",
"4 	c #E3EEFA",
"5 	c #D6E7F7",
"6 	c #CEE2F6",
"7 	c #CBE1F6",
"8 	c #D0E3F6",
"9 	c #DDEAF9",
": 	c #B4CFEC",
"; 	c #92B5DF",
"< 	c #B8D7F7",
"= 	c #DEEBF9",
"> 	c #CCE1F6",
"? 	c #CAE0F5",
"@ 	c #C8DEF5",
"A 	c #C4DDF5",
"B 	c #D0E2F5",
"C 	c #8BAFDB",
"D 	c #E1EDF9",
"E 	c #C9DFF5",
"F 	c #C7DEF5",
"G 	c #C3DCF4",
"H 	c #C1DBF4",
"I 	c #BFDAF4",
"J 	c #D6E7F8",
"K 	c #85A9D7",
"L 	c #ADCEF0",
"M 	c #DFECF9",
"N 	c #C8DFF5",
"O 	c #C5DDF5",
"P 	c #C2DCF4",
"Q 	c #C0DAF4",
"R 	c #BDD9F3",
"S 	c #BCD7F3",
"T 	c #D3E6F8",
"U 	c #7EA4D3",
"V 	c #A7C8EC",
"W 	c #D7E7F7",
"X 	c #BCD8F3",
"Y 	c #BAD7F3",
"Z 	c #C9DEF3",
"[ 	c #7A9ECD",
"] 	c #A1C2E8",
"^ 	c #B6D0ED",
"_ 	c #D9E8F8",
"` 	c #BAD6F3",
"a 	c #D2E4F7",
"b 	c #9CBADF",
"c 	c #91939C",
"d 	c #95B7E1",
"e 	c #ADC9E8",
"f 	c #CDE1F5",
"g 	c #D3E5F7",
"h 	c #D1E5F7",
"i 	c #C8DDF3",
"j 	c #9BB9DF",
"k 	c #90A7C7",
"l 	c #D5AD85",
"m 	c #B47C40",
"n 	c #89ADD9",
"o 	c #84A8D6",
"p 	c #7A9FD0",
"q 	c #759BCD",
"r 	c #8992A1",
"s 	c #CCA174",
"t 	c #E8CBAA",
"u 	c #CEA375",
"v 	c #A76F2F",
"w 	c #B0783B",
"x 	c #C49663",
"y 	c #E4C09C",
"z 	c #C79865",
"{ 	c #9C641E",
"| 	c #A46C2A",
"} 	c #BB8C54",
"~ 	c #DDB488",
" !	c #965E17",
"!!	c #99611A",
"#!	c #9C6621",
"$!	c #925A11",
"                                ",
"      # $ % & ' (               ",
"    ) * + , - . 0 1             ",
"  2 3 4 5 6 7 8 9 : ;           ",
"  < = 5 > ? @ A 7 B C           ",
"  & D > E F G H I J K           ",
"  L M N O P Q R S T U           ",
"  V W > H I X Y H Z [           ",
"  ] ^ _ @ X ` H a b c           ",
"    d e f g h i j k l m         ",
"      n o U p q r s t u v       ",
"                  w x y z {     ",
"                    | } ~  !    ",
"                      !!#!$!    ",
"                                ",
"                                "};