/* XPM */
static char *recentfiles_xpm[] = {
/* columns rows colors chars-per-pixel */
"16 16 118 2",
"V  c #7CA7AE",
".. c #E3E7F0",
",. c #5D7081",
"9  c #8292B4",
"x  c #255A7A",
"y  c #8AA3C2",
"<  c #768DAD",
"W  c #5484B5",
"s  c #8599BA",
"2. c #ABC5D6",
"=. c #EBECEE",
"X  c #2C5581",
"v  c #94A5C1",
"h  c #A8BEE3",
"*  c #1E5373",
"E  c #9198C4",
"T  c #AEC3C8",
"N  c #C8C4DB",
"z  c #89A4AF",
"g  c #A1AECE",
"e  c #325470",
"+. c #ECE7EB",
"$  c #185981",
",  c #305774",
"#  c #1D5A79",
"4. c #35556C",
"5  c #8E9FBB",
"Q  c #24557E",
"m  c #BBC3C6",
"`  c #FF7F27",
"Y  c #B8BCD7",
"_  c #B2C8C6",
"i  c #225580",
"F  c #ACB1C7",
"5. c #5D6F7D",
"6  c #335578",
"}  c #29538D",
"2  c #7EA0BC",
"Z  c #880015",
"f  c #8DACC1",
"3  c #96A1C1",
"!  c #B9C0D3",
"l  c #8DA0A7",
"@. c #E4EDEC",
"n  c #AFAFBB",
"7. c #437193",
"{  c #C1D1EA",
"0  c #86A8C1",
"D  c #99A8C7",
"H  c #BBB7DA",
"C  c #8592B2",
"|  c #BFD1DF",
"=  c None",
"R  c #C1CBE6",
"u  c #819EBC",
"q  c #7599AF",
"O  c #175177",
":  c #5C7F9D",
"<. c #4B799D",
"B  c #215678",
"r  c #1F596F",
" . c #CEDAF0",
"U  c #ABB5CE",
"c  c #285481",
"w  c #3E5873",
"/  c #EFE4B0",
"1  c #90A4C5",
">  c #214D68",
"&  c #1A5273",
"~  c #ACC2D0",
"-. c #F1EAE4",
"b  c #8FB4BA",
"7  c #265173",
"J  c #C4C6DF",
"K  c #959CB6",
"I  c #245782",
"8  c #7A8EB3",
")  c #CBBEDA",
"P  c #ED1C24",
"k  c #91A2A9",
"*. c #B4CDE3",
".  c #264B77",
"A  c #FFAEC9",
"j  c #225777",
"   c #38648B",
"o. c #C8DDF2",
"L  c #788EB3",
"O. c #D7E0DB",
"&. c #4C7497",
"[  c #DBD1DA",
"4  c #919FBC",
"#. c #C0C0D8",
"@  c #205479",
"+  c #20547B",
";. c #F3FEFF",
"X. c #285968",
"3. c #E2F8FF",
">. c #365267",
"^  c #C3C4D6",
"$. c #215E7A",
"-  c #1C546D",
"]  c #175377",
"M  c #B7C5EA",
"G  c #AECADF",
"S  c #1F5863",
"d  c #93B3C8",
"(  c #1A5774",
"1. c #507C9F",
"%. c #467194",
"t  c #869EC0",
";  c #5F88A6",
"%  c #155378",
"'  c #E1F3CB",
"p  c #226285",
"o  c #245981",
"a  c #7395BB",
":. c #2B4E6A",
"6. c #517A98",
/* pixels */
"  . X X o O + @ @ # $ % & & * = ",
"- ; : : > , < 1 1 2 3 4 5 5 6 = ",
"7 8 9 9 0 q w e e r t y u u i = ",
"p a s s d f g h h j k l z z x = ",
"c v b b n m M N N B V C Z Z A Z ",
"S D F F G H J Z Z Z K L P P Z Z ",
"I U Y Y T R Z P P Z E W Z Z A Z ",
"Q ! ~ ~ ^ Z P P P Z Z Z P P / Z ",
"( ) _ _ Z P ` P P P P P ' ' Z = ",
"] [ { { Z A P P P / / A Z Z = = ",
"} |  . ...Z A P P Z Z Z = = = = ",
"X.o.O.O.+.@.Z / / Z #.$.= = = = ",
"%.&.*.*.=.-.;.Z Z Z :.>.= = = = ",
"= = ,.,.<.1.2.3.3.4.= = = = = = ",
"= = = = = = 5.6.6.7.= = = = = = ",
"= = = = = = = = 6.7.= = = = = = "
};
