/* XPM */
static char *recentfiles_xpm[] = {
/* columns rows colors chars-per-pixel */
"16 15 130 2",
"P  c #7CA7AE",
"-. c #E3E7F0",
"q. c #5D7081",
"N  c #AFBFD9",
"9  c #8292B4",
"x  c #255A7A",
"y  c #8AA3C2",
"<  c #768DAD",
"[  c #5484B5",
"s  c #8599BA",
"r. c #ABC5D6",
"6. c #EBECEE",
"X  c #2C5581",
"D  c #94A5C1",
"h  c #A8BEE3",
"=  c #FFFFFF",
"*  c #1E5373",
"]  c #9198C4",
"`  c #AEC3C8",
"K  c #C8C4DB",
"B  c #26586F",
"z  c #89A4AF",
"M  c #C6C7DC",
"v  c #929FC1",
"g  c #A1AECE",
"e  c #325470",
",. c #ECE7EB",
"$  c #185981",
",  c #305774",
"#  c #1D5A79",
"V  c #909FC6",
"y. c #35556C",
"5  c #8E9FBB",
"{  c #24557E",
"H  c #BBC3C6",
"+. c #FF7F27",
"_  c #B8BCD7",
"Z  c #87A1C4",
"O. c #B2C8C6",
"A  c #1D5789",
"i  c #225580",
"E  c #ACB1C7",
"u. c #5D6F7D",
"6  c #335578",
"&. c #29538D",
"2  c #7EA0BC",
"U  c #880015",
"f  c #8DACC1",
"3  c #96A1C1",
"}  c #B9C0D3",
"l  c #8DA0A7",
"<. c #E4EDEC",
"G  c #AFAFBB",
"p. c #437193",
"%. c #C1D1EA",
"0  c #86A8C1",
"R  c #99A8C7",
"Q  c #BBB7DA",
"I  c #8592B2",
"*. c #BFD1DF",
"'  c #C1CBE6",
"u  c #819EBC",
"q  c #7599AF",
"O  c #175177",
":  c #5C7F9D",
"w. c #4B799D",
"L  c #215678",
"r  c #1F596F",
"=. c #CEDAF0",
")  c #ABB5CE",
"S  c #285481",
"w  c #3E5873",
".. c #EFE4B0",
"1  c #90A4C5",
">  c #214D68",
"&  c #1A5273",
"|  c #ACC2D0",
"C  c #8B9DC1",
"7. c #F1EAE4",
"F  c #8FB4BA",
"7  c #265173",
"!  c #C4C6DF",
"~  c #959CB6",
"(  c #245782",
"8  c #7A8EB3",
"o. c #CBBEDA",
"/  c #ED1C24",
"k  c #91A2A9",
"5. c #B4CDE3",
".  c #264B77",
"Y  c #FFAEC9",
"j  c #225777",
"   c None",
":. c #C8DDF2",
"^  c #788EB3",
">. c #D7E0DB",
"4. c #4C7497",
"$. c #DBD1DA",
"4  c #919FBC",
"1. c #C0C0D8",
"@  c #205479",
"m  c #A8B6BF",
"c  c #205171",
"+  c #20547B",
"8. c #F3FEFF",
";. c #285968",
"t. c #E2F8FF",
"0. c #365267",
" . c #C3C4D6",
"2. c #215E7A",
"-  c #1C546D",
"#. c #175377",
"J  c #B7C5EA",
"W  c #AECADF",
"T  c #1F5863",
"d  c #93B3C8",
"X. c #1A5774",
"e. c #507C9F",
"3. c #467194",
"b  c #A3A3BD",
"t  c #869EC0",
"n  c #9AA8B3",
";  c #5F88A6",
"%  c #155378",
"@. c #E1F3CB",
"p  c #226285",
"o  c #245981",
"a  c #7395BB",
"9. c #2B4E6A",
"i. c #517A98",
/* pixels */
"    . X o o O + @ # $ % % & * = ",
"  - ; : > > , < 1 2 3 4 4 5 6 = ",
"  7 8 9 0 0 q w e r t y y u i = ",
"  p a s d d f g h j k l l z x = ",
"  c v b n n m M N B V C C Z A = ",
"  S D F G G H J K L P I I U Y U ",
"  T R E W W Q ! U U ~ ^ ^ / U U ",
"  ( ) _ ` ` ' U / U ] [ [ U Y U ",
"  { } |  . .U / / U U U U / ..U ",
"  X.o.O.U U / +./ / / / / @.U = ",
"  #.$.%.U U Y / / ....Y Y U = = ",
"  &.*.=.-.-.U Y / U U U U = = = ",
"  ;.:.>.,.,.<.U ..U 1.2.2.= = = ",
"  3.4.5.6.6.7.8.U U 9.0.0.= = = ",
"  = = q.w.w.e.r.t.y.= = = = = = ",
};
