/* XPM */ 
static char * recentfiles_xpm[] = {
"16 16 172 2",
"  	c None",
"! 	c black",
"# 	c #A2C1EF",
"$ 	c #A1C0EF",
"% 	c #9EBFED",
"& 	c #9CBDEB",
"' 	c #99BBEB",
"( 	c #95B9E9",
") 	c #92B6E7",
"* 	c #8FB4E6",
"+ 	c #8BB1E4",
", 	c #87AEE2",
"- 	c #83ABE0",
". 	c #7FA8DD",
"0 	c #7CA4DC",
"1 	c #79A2DA",
"2 	c #A0C0EE",
"3 	c #F4F7FB",
"4 	c #739FD7",
"5 	c #9DBEEC",
"6 	c #FFA364",
"7 	c #FFA263",
"8 	c #FF9F5F",
"9 	c #FF9D5C",
": 	c #FF9857",
"; 	c #FF9553",
"< 	c #FF8F4C",
"= 	c #FF8A46",
"> 	c #FF8341",
"? 	c #FF7E3C",
"@ 	c #6E9AD4",
"A 	c #9ABCEB",
"B 	c #FFA363",
"C 	c #FFBC78",
"D 	c #FFBA74",
"E 	c #FFB870",
"F 	c #FFB76C",
"G 	c #FFB267",
"H 	c #FFAF60",
"I 	c #FFAA59",
"J 	c #FFA653",
"K 	c #FF7C3A",
"L 	c #6996D1",
"M 	c #97B9E9",
"N 	c #FFA161",
"O 	c #FFA060",
"P 	c #FF9E5E",
"Q 	c #FF9C5B",
"R 	c #FF9959",
"S 	c #FF9756",
"T 	c #F49D48",
"U 	c #D8A457",
"V 	c #DBB084",
"W 	c #D09C45",
"X 	c #D1942A",
"Y 	c #93B6E7",
"Z 	c #A5C2E9",
"[ 	c white",
"] 	c #A8C3E8",
"^ 	c #A9C5E9",
"_ 	c #ABC7E8",
"` 	c #F5E6B0",
"a 	c #E7BD76",
"b 	c #F0D2B3",
"c 	c #FFF3E5",
"d 	c #EFD2AB",
"e 	c #C78B47",
"f 	c #8EB3E5",
"g 	c #F2F6FA",
"h 	c #ABC5E9",
"i 	c #ABC7EA",
"j 	c #ACC7E9",
"k 	c #ADC9E9",
"l 	c #AFC9E9",
"m 	c #96B152",
"n 	c #EBD47D",
"o 	c #F9E3B1",
"p 	c #E7BF8A",
"q 	c #F6D3AD",
"r 	c #FCE0C3",
"s 	c #D39E65",
"t 	c #8BB0E3",
"u 	c #F1F6FA",
"v 	c #ADC9EA",
"w 	c #AFC9EA",
"x 	c #B2CBE9",
"y 	c #F7EBC0",
"z 	c #EDD47B",
"{ 	c #FDF6C3",
"| 	c #F6DD6B",
"} 	c #EDCA6C",
"~ 	c #D7A262",
" !	c #C99864",
"!!	c #86ADE1",
"#!	c #F0F4FA",
"$!	c #B1CBEA",
"%!	c #B2CCEA",
"&!	c #79B474",
"'!	c #78B473",
"(!	c #94B25B",
")!	c #EED378",
"*!	c #FDF7C7",
"+!	c #F5DC5E",
",!	c #F7E25A",
"-!	c #F2D679",
".!	c #DD9E4E",
"0!	c #6A86AB",
"1!	c #81A9DF",
"2!	c #EFF3F9",
"3!	c #B6CEEA",
"4!	c #A3B869",
"5!	c #E7CB76",
"6!	c #F5DC5D",
"7!	c #F7E159",
"8!	c #F1D47A",
"9!	c #DB974A",
":!	c #DCD4CC",
";!	c #5E8CC8",
"<!	c #7DA7DD",
"=!	c #B9D0EB",
">!	c #BAD0EB",
"?!	c #8DA456",
"@!	c #D4B772",
"A!	c #FDF6C1",
"B!	c #F7DF62",
"C!	c #F8E25C",
"D!	c #F0D378",
"E!	c #DA9648",
"F!	c #DBD9DA",
"G!	c #F1F4FA",
"H!	c #5B89C5",
"I!	c #79A3D9",
"J!	c #EEF3F9",
"K!	c #BDD2EB",
"L!	c #D9C4A6",
"M!	c #D5B579",
"N!	c #D1B68F",
"O!	c #E4C954",
"P!	c #F5DF5A",
"Q!	c #EDD077",
"R!	c #D9994F",
"S!	c #DBD8D8",
"T!	c #F0F3F9",
"U!	c #EFF2F9",
"V!	c #5E8BC5",
"W!	c #74A0D7",
"X!	c #EDF2F8",
"Y!	c #EAF0F7",
"Z!	c #A98842",
"[!	c #FFF2E0",
"]!	c #D89953",
"^!	c #BD7919",
"_!	c #C49748",
"`!	c #C18A46",
"a!	c #DAD5D2",
"b!	c #F2F5FA",
"c!	c #5C89C4",
"d!	c #719DD6",
"e!	c #6D98D3",
"f!	c #6795D1",
"g!	c #81652D",
"h!	c #F9C793",
"i!	c #F9C990",
"j!	c #C98440",
"k!	c #A56523",
"l!	c #6481A7",
"m!	c #5183C2",
"n!	c #4176BA",
"o!	c #543C11",
"p!	c #865E27",
"q!	c #BC8748",
"r!	c #BB8C41",
"                                ",
"  # $ % & ' ( ) * + , - . 0 1   ",
"  2 3 3 3 3 3 3 3 3 3 3 3 3 4   ",
"  5 3 6 7 8 9 : ; < = > ? 3 @   ",
"  A 3 B C D E F G H I J K 3 L   ",
"  M 3 6 7 N O P Q R S T U V W X ",
"  Y 3 Z [ ] [ ^ [ _ ` a b c d e ",
"  f g ^ h i j k l m n o p q r s ",
"  t u v [ w [ x y z { | } ~  !  ",
"  !!#!$!%!&!'!(!)!*!+!,!-!.!0!  ",
"  1!2!3![ &!4!5!*!6!7!8!9!:!;!  ",
"  <!2!=!>!?!@!A!B!C!D!E!F!G!H!  ",
"  I!J!K!L!M!N!O!P!Q!R!S!T!U!V!  ",
"  W!X!Y!Z![!]!^!_!`!a!G!T!b!c!  ",
"  d!e!f!g!h!i!j!k!l!m!m!m!m!n!  ",
"        o!p!q!r!                "};