/* XPM */ 
static const char * const recentfiles_xpm[] = {
"16 16 107 2",
"  	c None",
"! 	c black",
"# 	c #557F7F",
"$ 	c #527C7C",
"% 	c #F5FCFC",
"& 	c #EEF8F8",
"' 	c #E8F6F6",
"( 	c #E3F3F3",
") 	c #E1F2F2",
"* 	c #B1C2C2",
"+ 	c #507979",
", 	c #F4FAFA",
"- 	c #ECF4F4",
". 	c #E6F0F0",
"0 	c #DDEBEB",
"1 	c #D6E7E7",
"2 	c #A5B6B6",
"3 	c white",
"4 	c #527B7B",
"5 	c #B5C9C9",
"6 	c #B1C6C6",
"7 	c #D7E3E3",
"8 	c #93A4A4",
"9 	c #254949",
": 	c #AFC4C4",
"; 	c #D6E2E2",
"< 	c #487171",
"= 	c #AEC2C2",
"> 	c #D5E2E2",
"? 	c #E3F4F4",
"@ 	c #446C6C",
"A 	c #4C7575",
"B 	c #F5FBFB",
"C 	c #EFF5F5",
"D 	c #8DA1A1",
"E 	c #406767",
"F 	c #F7FCFC",
"G 	c #F1F7F7",
"H 	c #AABFBF",
"I 	c #EFF9F9",
"J 	c #3C6262",
"K 	c #F9FCFC",
"L 	c #F4F8F8",
"M 	c #E7ECEC",
"N 	c #C4C9C9",
"O 	c #B4B9B9",
"P 	c #B3B8B8",
"Q 	c #BEC5C5",
"R 	c #D9E8E8",
"S 	c #375D5D",
"T 	c #FAFDFD",
"U 	c #F6FAFA",
"V 	c #EAEDED",
"W 	c #B8BCBC",
"X 	c #C3CDCD",
"Y 	c #BDC1C1",
"Z 	c #E1E9E9",
"[ 	c #C2CCCC",
"] 	c #B1B8B8",
"^ 	c #D5E1E1",
"_ 	c #325858",
"` 	c #FCFEFE",
"a 	c #F8FBFB",
"b 	c #C5C7C7",
"c 	c #BFC9C9",
"d 	c #CCDDDD",
"e 	c #6C6C6C",
"f 	c #CDDEDE",
"g 	c #BEC9C9",
"h 	c #B9C0C0",
"i 	c #2D5151",
"j 	c #FDFEFE",
"k 	c #FBFCFC",
"l 	c #B1B2B2",
"m 	c #CAD9D9",
"n 	c #E8EFEF",
"o 	c #555555",
"p 	c #EBF1F1",
"q 	c #CEDCDC",
"r 	c #A8ADAD",
"s 	c #1D3F3F",
"t 	c #FEFFFF",
"u 	c #FCFDFD",
"v 	c #ACADAD",
"w 	c #CCDBDB",
"x 	c #EAF1F1",
"y 	c #3F3F3F",
"z 	c #494949",
"{ 	c #616161",
"| 	c #A6ABAB",
"} 	c #A4A9A9",
"~ 	c #0F2F2F",
" !	c #FEFEFE",
"!!	c #BDBEBE",
"#!	c #BEC6C6",
"$!	c #E9F0F0",
"%!	c #C0C7C7",
"&!	c #B4B8B8",
"'!	c #EDEEEE",
"(!	c #A5A7A7",
")!	c #C7CBCB",
"*!	c #E8EDED",
"+!	c #A1A5A5",
",!	c #0D2D2D",
"-!	c #A9A9A9",
".!	c #898A8A",
"0!	c #A5A8A8",
"            # # # # # #         ",
"          $ % & ' ( ) * $       ",
"          + , - . 0 1 2 3 +     ",
"    # # # 4 5 6 7 . 0 8 8 8 9   ",
"  $ % & ' ( ) * : ; . 0 1 ) <   ",
"  + , - . 0 1 2 3 = > . 0 ? @   ",
"  A B C - . 0 8 8 8 D - . ' E   ",
"  < F G C - . 0 1 ) H C - I J   ",
"  @ K L G C L M N O P Q ; R S   ",
"  E T U L G V W X Y Z [ ] ^ _   ",
"  J ` a U L b c d e d f g h i   ",
"  S j k a U l m n o p n q r s   ",
"  _ t u k a v w x y z { | } ~   ",
"  i 3  !u k !!#!$!p p $!%!&!    ",
"  s 3 3 t j '!(!)!*!*!)!+!      ",
"  ~ ,!,!,!,!,!,!-!.!.!0!        "};