/* XPM */ 
static char * record_xpm[] = {
"16 16 4 1",
" 	c None",
"!	c black",
"#	c #808080",
"$	c #C60000",
"                ",
" #############  ",
" #           #  ",
" #           #  ",
" #    $$$    #  ",
" #   $$$$$   #  ",
" #  $$$$$$$  #  ",
" #  $$$$$$$  #  ",
" #  $$$$$$$  #  ",
" #   $$$$$   #  ",
" #    $$$    #  ",
" #           #  ",
" #           #  ",
" #############  ",
"                ",
"                "};