/* XPM */ 
static char * record_xpm[] = {
"16 16 50 1",
" 	c None",
"!	c black",
"#	c #F29D9D",
"$	c #F19797",
"%	c #F08F8F",
"&	c #F08D8D",
"'	c #F3A2A2",
"(	c #F3A6A6",
")	c #F4ABAB",
"*	c #F3A5A5",
"+	c #F3A4A4",
",	c #F3A3A3",
"-	c #F29E9E",
".	c #EE8383",
"0	c #F3A1A1",
"1	c #F29898",
"2	c #F19494",
"3	c #F08E8E",
"4	c #EF8888",
"5	c #EF8787",
"6	c #F19393",
"7	c #EE7E7E",
"8	c #ED7B7B",
"9	c #EF8686",
":	c #E85C5C",
";	c #F29A9A",
"<	c #EC7575",
"=	c #EC6F6F",
">	c #EE7B7B",
"?	c #E33636",
"@	c #EC7171",
"A	c #EB6C6C",
"B	c #EA6666",
"C	c #ED7676",
"D	c #DD2525",
"E	c #EA6767",
"F	c #F19595",
"G	c #E96161",
"H	c #E95D5D",
"I	c #EC7373",
"J	c #E85A5A",
"K	c #E75555",
"L	c #EB6A6A",
"M	c #E23434",
"N	c #EB6E6E",
"O	c #EA6868",
"P	c #EA6464",
"Q	c #DF2C2C",
"R	c #D71E1E",
"S	c #D51D1D",
"                ",
"                ",
"                ",
"     ##$%&&     ",
"    '()*+,-.    ",
"   '0#1234.5.   ",
"   60234.789:   ",
"   6;4.78<=>?   ",
"   @$78<@ABCD   ",
"   EF<=ABGHID   ",
"   H3ABGHJKLM   ",
"    HNNOPGHM    ",
"     QQDRSS     ",
"                ",
"                ",
"                "};