/* XPM */ 
static const char * const redo_xpm[] = {
"16 16 116 2",
"  	c None",
"! 	c black",
"# 	c #5BA851",
"$ 	c #57A24E",
"% 	c #539E4A",
"& 	c #6ABA5F",
"' 	c #67B75C",
"( 	c #64B359",
") 	c #61AF56",
"* 	c #5DAB53",
"+ 	c #5AA650",
", 	c #56A24D",
"- 	c #70B268",
". 	c #6EAE65",
"0 	c #4B9343",
"1 	c #69BA5E",
"2 	c #84C47A",
"3 	c #95CE8C",
"4 	c #A0D397",
"5 	c #A4D59B",
"6 	c #A1D498",
"7 	c #9ED296",
"8 	c #9CD093",
"9 	c #98CF90",
": 	c #93CC8C",
"; 	c #66A75E",
"< 	c #42893B",
"= 	c #69B95E",
"> 	c #91CC87",
"? 	c #A8D79F",
"@ 	c #9FD395",
"A 	c #A2D49A",
"B 	c #A0D398",
"C 	c #9DD195",
"D 	c #9ACF92",
"E 	c #98CE8F",
"F 	c #94CC8C",
"G 	c #90CA89",
"H 	c #61A25A",
"I 	c #3E8437",
"J 	c #68B85D",
"K 	c #83C479",
"L 	c #A6D69D",
"M 	c #99CF91",
"N 	c #75B76C",
"O 	c #549F4B",
"P 	c #509B48",
"Q 	c #4D9645",
"R 	c #499141",
"S 	c #63A55C",
"T 	c #60A259",
"U 	c #3D8337",
"V 	c #65B45A",
"W 	c #92CC89",
"X 	c #9CD192",
"Y 	c #99CE90",
"Z 	c #57A34E",
"[ 	c #40873A",
"] 	c #3D8236",
"^ 	c #61B057",
"_ 	c #9BD193",
"` 	c #9DD194",
"a 	c #7EBB75",
"b 	c #3C8136",
"c 	c #97CE8F",
"d 	c #79B871",
"e 	c #4F9846",
"f 	c #59A550",
"g 	c #86C17E",
"h 	c #8FCA86",
"i 	c #8BC584",
"j 	c #4A9342",
"k 	c #468E3F",
"l 	c #55A04C",
"m 	c #6FB167",
"n 	c #92CB8A",
"o 	c #8FCA88",
"p 	c #84C07D",
"q 	c #5FA158",
"r 	c #3A7F34",
"s 	c #377A31",
"t 	c #33762E",
"u 	c #30722B",
"v 	c #2C6D28",
"w 	c #296A25",
"x 	c #75B46D",
"y 	c #8AC784",
"z 	c #7EC077",
"{ 	c #85C37E",
"| 	c #81C17B",
"} 	c #7FC078",
"~ 	c #7DBE76",
" !	c #79BC73",
"!!	c #77BC71",
"#!	c #74BA6F",
"$!	c #266522",
"%!	c #448C3D",
"&!	c #5FA259",
"'!	c #6FB069",
"(!	c #7BBB74",
")!	c #7CBE77",
"*!	c #7BBD75",
"+!	c #78BC73",
",!	c #76BB70",
"-!	c #73BA6F",
".!	c #72B86C",
"0!	c #23611F",
"1!	c #387D32",
"2!	c #35782F",
"3!	c #31742C",
"4!	c #2E6F29",
"5!	c #2B6B26",
"6!	c #286824",
"7!	c #256421",
"8!	c #22611F",
"9!	c #205E1D",
"                                ",
"                      #         ",
"                      $ %       ",
"        & ' ( ) * + , - . 0     ",
"      1 2 3 4 5 6 7 8 9 : ; <   ",
"    = > ? @ A B C D E F G H I   ",
"  J K L 5 M N O P Q R S T U     ",
"  V W X Y Z O         [ ]       ",
"  ^ _ ` a %           b         ",
"  * c 9 d e                     ",
"  f g h i j k                   ",
"  l m n o p q I r s t u v w     ",
"    Q x y z { | } ~  !!!#!$!    ",
"      %!&!'!(!)!*!+!,!-!.!0!    ",
"        b 1!2!3!4!5!6!7!8!9!    ",
"                                "};