/* XPM */
static char *refresh_xpm[] = {
/* columns rows colors chars-per-pixel */
"16 15 136 2",
"   c None",
"~  c #000001",
"[  c #263852",
"H  c #081424",
"O. c #03070D",
"t. c #1A3C6D",
"g  c #1F3A5B",
"Z  c #658ABA",
"e  c #15325B",
"$. c #1A3969",
"R  c #0B182C",
"u. c #010406",
"K  c #3B6197",
";. c #406290",
"P  c #45699C",
"N  c #010103",
"^  c #45699D",
",  c #2F5F9D",
"2. c #0E1F39",
"M  c #0E1928",
"t  c #345A8E",
"3. c #345A92",
"C  c #668BBA",
"V  c #4D71A3",
"l  c #203E69",
"n  c #2A405D",
">  c #2D5C99",
"1  c #416FA9",
"1. c #285591",
"y. c #070F1A",
"@. c #3C6295",
"W  c #020508",
"*  c #020509",
"s. c #375E96",
".. c #5A7DAB",
"6  c #1E3B65",
"(  c #698CBB",
"@  c #26528E",
"w  c #264F88",
"J  c #1C4175",
"x  c #5D84B6",
"T  c #21457A",
">. c #1C3B67",
"5. c #213C62",
"<  c #3868A4",
",. c #29538B",
"<. c #2E5A97",
"#  c #29538D",
"f  c #426A9D",
"z  c #476EA2",
";  c #03060B",
"r. c #03060C",
"a  c #42679A",
"8. c #6085B6",
"%. c #476B9E",
"4. c #2E4B76",
"B  c #0B1A2F",
"0  c #275390",
"!  c #0B1728",
"I  c #2C548C",
"u  c #547DB2",
"#. c #2C548E",
"s  c #1D4277",
"|  c #6389B8",
"}  c #456B9E",
"`  c #010305",
"Q  c #060A10",
"U  c #010306",
"-. c #5E82B1",
"p  c #6386B5",
"f. c #132B4D",
"O  c #132849",
"y  c #4872A8",
"&  c #091425",
"v  c #43689B",
"{  c #204377",
" . c #668AB9",
"%  c #162F50",
"/  c #6B8EBC",
"w. c #325F9C",
"D  c #070B10",
".  c #020407",
"j  c #020408",
"X. c #1E3A62",
":  c #193662",
"d. c #264E84",
"S  c #0A1525",
"q. c #446FA9",
"h  c #000101",
"G  c #000102",
"A  c #44699B",
"-  c #173661",
"=. c #6C8FBD",
"6. c #536F99",
"i. c #08121F",
"o. c #081222",
"9. c #5B83B5",
"c  c #5B83B6",
"8  c #03050A",
"r  c #1A3761",
"&. c #7E9CC3",
"d  c #315A94",
"i  c #5980B3",
"E  c #010204",
"X  c #010205",
"*. c #7294BF",
"9  c #132A4C",
"m  c #22334A",
"q  c #2A5692",
"=  c #040911",
"7. c #5C81B0",
":. c #25436D",
"5  c #1B3862",
"p. c #203655",
")  c #6B8AB4",
"'  c #0C1724",
"2  c #4671A9",
"$  c #23497A",
"0. c #557DB2",
"L  c #41679A",
"F  c #020305",
"h. c #020306",
"a. c #325588",
"+. c #1E395C",
"e. c #142E53",
"_  c #142845",
"]  c #1E2D40",
"k  c #0A1728",
"3  c #446EA5",
"b  c #214679",
"+  c #21467A",
"g. c #050A12",
"4  c #3A6094",
"Y  c #2B5188",
"o  c #050A13",
"7  c #2B5189",
/* pixels */
"                                ",
"                          . X   ",
"      o O + @ # $ % & * = - ;   ",
"    o : > , < 1 2 3 4 5 6 7 8   ",
"    9 0 q w e r t y u i p a *   ",
"    s d f g h j k l z x c v j   ",
"    b n m M     N B V C Z A .   ",
"    S D F G     H J K L P I U   ",
"    Y v A a T R E U j W Q ! ~   ",
"    ^ / ( ) _ `     ' ] [ {     ",
"    } |  ...X.o.O.; +.@.#.$.    ",
"    %.&.*.=.-.;.:.>.,.<.1.2.    ",
"    3.4.5.6.7.8.9.0.q.w.e.r.    ",
"    t.y.u.i.p.a.s.d d.f.O.      ",
"    g.          h..             "
};
