/* XPM */ 
static char * refresh_xpm[] = {
"16 16 93 2",
"  	c None",
"! 	c black",
"# 	c #56A24D",
"$ 	c #4E9846",
"% 	c #489040",
"& 	c #69BA5E",
"' 	c #64B35A",
"( 	c #5EAC55",
") 	c #59A54F",
"* 	c #529D4A",
"+ 	c #4C9544",
", 	c #67A75F",
"- 	c #61A15A",
". 	c #397D33",
"0 	c #67B85D",
"1 	c #82C278",
"2 	c #91CA88",
"3 	c #9BD093",
"4 	c #9DD194",
"5 	c #98CF8F",
"6 	c #93CB8B",
"7 	c #8EC986",
"8 	c #86C37F",
"9 	c #53944D",
": 	c #2B6C26",
"; 	c #66B55B",
"< 	c #8DC984",
"= 	c #A3D49A",
"> 	c #97CE8E",
"? 	c #99CF91",
"@ 	c #94CC8C",
"A 	c #8FCA87",
"B 	c #8AC582",
"C 	c #84C37D",
"D 	c #7EC078",
"E 	c #4B8C46",
"F 	c #246421",
"G 	c #7DBE74",
"H 	c #A0D297",
"I 	c #9BCF93",
"J 	c #8CC785",
"K 	c #64A65D",
"L 	c #3F8538",
"M 	c #32752D",
"N 	c #4E8F48",
"O 	c #498A44",
"P 	c #23621F",
"Q 	c #5DAA53",
"R 	c #88C27F",
"S 	c #89C382",
"T 	c #438A3C",
"U 	c #3D8236",
"V 	c #266522",
"W 	c #22601E",
"X 	c #54A04C",
"Y 	c #41873A",
"Z 	c #3B7F34",
"[ 	c #205E1D",
"] 	c #509A48",
"^ 	c #4A9242",
"_ 	c #458D3E",
"` 	c #6FC163",
"a 	c #6DBF62",
"b 	c #8DC585",
"c 	c #8EC987",
"d 	c #75B26E",
"e 	c #6CBD61",
"f 	c #84C77A",
"g 	c #80C176",
"h 	c #6AAB62",
"i 	c #8AC282",
"j 	c #88C581",
"k 	c #55964F",
"l 	c #6BBB5F",
"m 	c #82C378",
"n 	c #A6D79D",
"o 	c #9ED296",
"p 	c #81C179",
"q 	c #62A35C",
"r 	c #296A25",
"s 	c #7BBC72",
"t 	c #9ED195",
"u 	c #95CD8E",
"v 	c #90CA89",
"w 	c #8AC784",
"x 	c #80BD79",
"y 	c #6BAC64",
"z 	c #50914A",
"{ 	c #286723",
"| 	c #6DAF65",
"} 	c #67A960",
"~ 	c #367A31",
" !	c #31732B",
"                  #             ",
"                  $ %           ",
"      & ' ( ) * + , - .         ",
"    0 1 2 3 4 5 6 7 8 9 :       ",
"  ; < = > ? @ A B C D E F       ",
"' G H I J K L . M N O P         ",
"Q R @ S T U       V W           ",
"X $ % Y Z         [   Q # ] ^ T ",
"+ _ L . M   `         X $ % Y Z ",
"          a &       * + b c d M ",
"        e f g Q # ] h i 7 j k : ",
"      l m n = o ? @ A p C q r   ",
"      ' s t I u v w x y z {     ",
"        # | } T U ~  !: V       ",
"          % Y                   ",
"            .                   "};