/* XPM */
static char *regex_xpm[] = {
/* columns rows colors chars-per-pixel */
"16 15 15 1",
"o c Black",
". c #FFDB90",
"O c #00003A",
"$ c #660000",
"= c #000066",
"; c #669090",
"X c #3A0000",
"  c None",
"* c #DB903A",
"- c #B6FFFF",
"& c #3A003A",
"% c #0066B6",
"# c #66B6FF",
"@ c #3A90DB",
"+ c #90DBFF",
/* pixels */
"                ",
"                ",
"                ",
"                ",
"                ",
" .XooO+   .Xoo@ ",
" .X# $%   .&+   ",
" .X# $@   .&+   ",
" .Xoo@    .Xoo# ",
" .X#*=-   .&+   ",
" .X# $@   .&+   ",
" .X# *o   ;Xoo% ",
"                ",
"                ",
"                "
};
