/* XPM */ 
static char * reload_xpm[] = {
"16 16 93 2",
"  	c None",
"! 	c black",
"# 	c #4B68B0",
"$ 	c #516EAF",
"% 	c #5972B5",
"& 	c #4162A9",
"' 	c #4666AB",
"( 	c #4D6AB0",
") 	c #536FAF",
"* 	c #7B8FB5",
"+ 	c #8191BA",
", 	c #657DB7",
"- 	c #4363A9",
". 	c #7087B1",
"0 	c #97A5CB",
"1 	c #A3B3D5",
"2 	c #A7B4D7",
"3 	c #A7B6D7",
"4 	c #ACB7DA",
"5 	c #8999C1",
"6 	c #7487BB",
"7 	c #7C8EB5",
"8 	c #A5B3D6",
"9 	c #A0AFD4",
": 	c #AAB5D8",
"; 	c #AAB7D9",
"< 	c #AAB9D8",
"= 	c #B0BADC",
"> 	c #8D9DC5",
"? 	c #7C8BBD",
"@ 	c #4464A9",
"A 	c #7387B2",
"B 	c #A7B5D8",
"C 	c #8494BC",
"D 	c #6A7FBA",
"E 	c #8C9AC3",
"F 	c #929DC8",
"G 	c #7B8DBC",
"H 	c #98A8CB",
"I 	c #A2B1D6",
"J 	c #A7B2D6",
"K 	c #647CB6",
"L 	c #6C80B9",
"M 	c #7789BB",
"N 	c #7E8DBE",
"O 	c #A8B7D7",
"P 	c #ABB8D9",
"Q 	c #8C9CC3",
"R 	c #6A81B7",
"S 	c #7F8EBF",
"T 	c #5774B3",
"U 	c #ADB9DA",
"V 	c #AFBBDB",
"W 	c #939FC7",
"X 	c #7386BA",
"Y 	c #949494",
"Z 	c #6078B6",
"[ 	c #A5B1D4",
"] 	c #B0BCD0",
"^ 	c #798DAD",
"_ 	c #8791A1",
"` 	c #8D96A5",
"a 	c #909AA9",
"b 	c #BDC3CC",
"c 	c #677FB8",
"d 	c #8D9BC4",
"e 	c #B7C0E0",
"f 	c #B9C3D5",
"g 	c #B5C0D2",
"h 	c #A7AEBA",
"i 	c #AAB2BD",
"j 	c #C0C5CE",
"k 	c #C6CBD2",
"l 	c #CCCCCC",
"m 	c #7787BC",
"n 	c #9CA8CE",
"o 	c #BBC5D6",
"p 	c #C3C9D0",
"q 	c #C5CAD2",
"r 	c #C3C8D0",
"s 	c #C8CDD4",
"t 	c #BBBBBB",
"u 	c #ADADAD",
"v 	c #8391C0",
"w 	c #9DACC3",
"x 	c #B7C2D4",
"y 	c #C1C7CF",
"z 	c #B2B9C3",
"{ 	c #8B9DB9",
"| 	c #90A0BB",
"} 	c #9BA4B1",
"~ 	c #9FA8B4",
" !	c #A3ABB7",
"                  #             ",
"                  $ %           ",
"          & ' ( ) * + ,         ",
"        - . 0 1 2 3 4 5 6       ",
"      - 7 8 9 : ; < = > ?       ",
"    @ A 1 B 3 C D E F G         ",
"    # H I J K L   M N           ",
"    $ O P Q R     S             ",
"    T U V W X     Y             ",
"    Z [ U ] ^ _ ` a b           ",
"    c d e f g h i j k l         ",
"      m n o f p q r s t u       ",
"        v w x k s y z u         ",
"          { | } ~  !h           ",
"                                ",
"                                "};