/* XPM */ 
static char * replace_xpm[] = {
"16 16 36 1",
" 	c None",
"!	c black",
"#	c #418C3B",
"$	c #4C9345",
"%	c #3E8B3A",
"&	c #499343",
"'	c #398335",
"(	c #3A8435",
")	c #479140",
"*	c #3B8737",
"+	c #388234",
",	c #3A8536",
"-	c #428D3B",
".	c #3F8C3A",
"0	c #3D8A39",
"1	c #3B8636",
"2	c #388133",
"3	c #3C8938",
"4	c #357C30",
"5	c #2A6B25",
"6	c #46913E",
"7	c #3D8B39",
"8	c #45913E",
"9	c #32782E",
":	c #2F7129",
";	c #266223",
"<	c #488A42",
"=	c #33772E",
">	c #2D6E28",
"?	c #337A2F",
"@	c #225F21",
"A	c #2B6929",
"B	c #666666",
"C	c #E9584C",
"D	c #448F3D",
"E	c #32772D",
"                ",
"  #$ %&'(       ",
"  $) *+ ,       ",
" -.012345       ",
" 67,89: ;       ",
" <  =>?@A       ",
"                ",
" BB             ",
" BB     #$  CCCC",
"  B  B  $) CC   ",
"  BBBBB-. 1CC   ",
"    BB 67,8 C   ",
"       D  E>CCCC",
"                ",
"                ",
"                "};