/* XPM */ 
static char * report_xpm[] = {
"16 16 59 1",
" 	c None",
"!	c black",
"#	c #037603",
"$	c #557F7F",
"%	c white",
"&	c #037403",
"'	c #DDDDDD",
"(	c #BBBBBB",
")	c #999999",
"*	c #FEFEFE",
"+	c #DDE5F6",
",	c #FEFFFF",
"-	c #037203",
".	c #507979",
"0	c #FDFEFE",
"1	c #FCFDFD",
"2	c #036F03",
"3	c #FAFCFC",
"4	c #DBE3F5",
"5	c #FCFEFE",
"6	c #036D03",
"7	c #487171",
"8	c #FAFDFD",
"9	c #F8FBFB",
":	c #036903",
";	c #F6F9F9",
"<	c #D7DFF3",
"=	c #F9FDFD",
">	c #026602",
"?	c #406767",
"@	c #F7FCFC",
"A	c #F3F8F8",
"B	c #026302",
"C	c #F0F7F7",
"D	c #D4DCF2",
"E	c #F5FBFB",
"F	c #025F02",
"G	c #375D5D",
"H	c #F3FAFA",
"I	c #EEF5F5",
"J	c #025B02",
"K	c #ECF4F4",
"L	c #D0D8F0",
"M	c #F2FAFA",
"N	c #025702",
"O	c #2D5151",
"P	c #F1F9F9",
"Q	c #EAF2F2",
"R	c #025302",
"S	c #E8F1F1",
"T	c #CDD5EE",
"U	c #EFF8F8",
"V	c #024D02",
"W	c #0D2D2D",
"X	c #F2FCFC",
"Y	c #EEF8F8",
"Z	c #013E01",
"[	c #002600",
"]	c #003200",
"  ############  ",
"  $%%%%%%%%%%&  ",
" !'()*++++++,-  ",
"  .01111111102  ",
" !'()344444456  ",
"  78999999998:  ",
" !'();<<<<<<=>  ",
"  ?@AAAAAAAA@B  ",
" !'()CDDDDDDEF  ",
"  GHIIIIIIIIHJ  ",
" !'()KLLLLLLMN  ",
"  OPQQQQQQQQPR  ",
" !'()STTTTTTUV  ",
"  WXYYYYYYYYXZ  ",
"  []]]]]]]]]][  ",
"                "};