/* XPM */
static char *runscript_xpm[] = {
/* columns rows colors chars-per-pixel */
"16 15 99 2",
"~  c #CACAC9",
"M  c #938F8F",
"{  c #C5C3C3",
"^  c #82807E",
"S  c #4B4543",
" . c #5A5453",
"F  c #645F60",
"Z  c #AFADAD",
"@  c #8C8889",
"+  c #D2D2D3",
"   c None",
",  c #D2D2D5",
"!  c #C3C0C2",
"*  c #807D7B",
"w  c #807D7D",
"K  c #625C5B",
"D  c #3F3737",
"X  c #A8A6A7",
"T  c #676060",
"I  c #4E4647",
".. c #D0CFD1",
"G  c #ADAAAC",
"'  c #4C4644",
"R  c #B0AEAF",
"&  c #A6A3A4",
"#  c #403836",
"O. c #B3B2B3",
"k  c #595251",
"g  c #403838",
"l  c #9F9C9C",
"y  c #403839",
"U  c #9F9C9E",
"v  c #726C6E",
"V  c #D1D0D2",
"r  c #C7C5C6",
")  c #A4A0A2",
"7  c #433C3A",
"x  c #7F7B7B",
"o  c #A7A4A4",
"q  c #A5A4A5",
"j  c #787475",
"3  c #413938",
"@. c #B4B3B4",
"(  c #969293",
"-  c #696264",
"O  c #D2D1D4",
"[  c #767171",
"8  c #999696",
"2  c #3F3636",
":  c #3F3637",
"b  c #CBCACC",
"u  c #565050",
"h  c #655F5E",
";  c #403737",
"_  c #908C8E",
"A  c #95908F",
"c  c #403738",
"%  c #CCCBCC",
"L  c #CCCBCD",
"5  c #9F9B9C",
"i  c #C2C0C2",
"$  c #8B8586",
"s  c #433B3A",
"X. c #C0C0C2",
"1  c #433B3B",
">  c #666061",
"}  c #CFCFD1",
"J  c #524A4B",
"C  c #C5C4C6",
"9  c #8E8989",
"|  c #504A48",
"Q  c #463F3F",
"=  c #AFAEAF",
"d  c #BEBDBF",
"a  c #645D5D",
"P  c #918D8F",
"0  c #CDCCCE",
"]  c #3F3838",
"z  c #D0D0D2",
"`  c #BCBABB",
"W  c #6C6566",
"t  c #797776",
"o. c #747070",
"/  c #47403F",
"B  c #6A6565",
"N  c #837F7F",
"n  c #797475",
"p  c #C4C2C3",
"E  c #D3D1D4",
"+. c #777473",
"m  c #403938",
"<  c #908E8F",
"e  c #A9A8A9",
"6  c #453D3D",
"Y  c #BDBBBB",
".  c #D1D1D3",
"H  c #CCCACC",
"4  c #7F7C7C",
"f  c #8E8B8A",
/* pixels */
"                    . X o O     ",
"              +     @ # # $     ",
"          % & * =   - ; : > ,   ",
"        < 1 2 ; 3 4 5 6 7 8 9 0 ",
"        q w e r t y u i p a s d ",
"                f g h j k g l   ",
"      z     z x c v b n m M     ",
"        . z N : B V     C       ",
"        . Z A S D F G ,         ",
"        H J K L P I D U         ",
"  + + Y T g R   E W Q !         ",
"  ~ ^ 1 / (     ) c _           ",
"` ' ] [ {     } |  ...          ",
"X.o.O.        z +.@.            ",
"                                "
};
