/* XPM */ 
static char * runscript_xpm[] = {
"16 16 176 2",
"  	c None",
"! 	c black",
"# 	c #5EABE2",
"$ 	c #80BBEA",
"% 	c #76B6E8",
"& 	c #6CB1E6",
"' 	c #67AFE4",
"( 	c #5CA7DE",
") 	c #8BBFEA",
"* 	c white",
"+ 	c #F4F9FD",
", 	c #EAF3FB",
"- 	c #D9EBF8",
". 	c #D3E6F8",
"0 	c #C5DFF5",
"1 	c #A5CBE9",
"2 	c #5AA3DA",
"3 	c #99C5EB",
"4 	c #E2EFFC",
"5 	c #E7F0FD",
"6 	c #EBF1FD",
"7 	c #EEF5FD",
"8 	c #F1F8FD",
"9 	c #F7FAFD",
": 	c #FAFCFF",
"; 	c #F7FBFE",
"< 	c #BFDAF4",
"= 	c #579ED5",
"> 	c #A4CAEB",
"? 	c #FBFDFF",
"@ 	c #D5E9FD",
"A 	c #D8EBFD",
"B 	c #DBEAFD",
"C 	c #DFEDFD",
"D 	c #E2F0FD",
"E 	c #E4F1FD",
"F 	c #E4F0FC",
"G 	c #6F9FE0",
"H 	c #F9FBFF",
"I 	c #86B7DF",
"J 	c #5499D0",
"K 	c #B1D0ED",
"L 	c #F0F6FF",
"M 	c #CAE1FA",
"N 	c #CCE3FB",
"O 	c #D0E3FB",
"P 	c #D3E6FB",
"Q 	c #D5E9FB",
"R 	c #D8E9FC",
"S 	c #DBEAFC",
"T 	c #FDFFFF",
"U 	c #709CD2",
"V 	c #C0D9EE",
"W 	c #5193CA",
"X 	c #C0D9F0",
"Y 	c #E1EDFB",
"Z 	c #BFDAF9",
"[ 	c #C1DCF9",
"] 	c #C4DEF9",
"^ 	c #C7E0FA",
"_ 	c #CAE2FA",
"` 	c #CDE2FA",
"a 	c #D0E5FA",
"b 	c #FDFEFF",
"c 	c #598ECB",
"d 	c #4D8DC3",
"e 	c #D8E7F5",
"f 	c #D2E5FA",
"g 	c #BBDAF9",
"h 	c #BBDBF9",
"i 	c #BEDBFA",
"j 	c #C0DDFA",
"k 	c #C3DDF9",
"l 	c #C8E1FB",
"m 	c #5693C8",
"n 	c #4A87BC",
"o 	c #F0F6FC",
"p 	c #C7DFF9",
"q 	c #BCDCF9",
"r 	c #BEDCFA",
"s 	c #C0DBFA",
"t 	c #C2DDFA",
"u 	c #C1DDFA",
"v 	c #6DA43E",
"w 	c #649E30",
"x 	c #F5F9F8",
"y 	c #528CC0",
"z 	c #4A84B8",
"{ 	c #C0DCF9",
"| 	c #BEDCF8",
"} 	c #BFDBF8",
"~ 	c #BFDDF9",
" !	c #66A038",
"!!	c #80B259",
"#!	c #569727",
"$!	c #4682B1",
"%!	c #5185B8",
"&!	c #F9FCFE",
"'!	c #BEDCF9",
"(!	c #BEDBF8",
")!	c #6EA43C",
"*!	c #6DA238",
"+!	c #67A034",
",!	c #619D30",
"-!	c #7BAE54",
".!	c #A9CB90",
"0!	c #73AA4E",
"1!	c #448E17",
"2!	c #5585B6",
"3!	c #FDFEFE",
"4!	c #C1DEFA",
"5!	c #6AA236",
"6!	c #AFCE95",
"7!	c #ACCD93",
"8!	c #A7CB8F",
"9!	c #8FBB73",
":!	c #A0C789",
";!	c #67A445",
"<!	c #348607",
"=!	c #3B6EA3",
">!	c #8BADD5",
"?!	c #E5F0FD",
"@!	c #A1C7F7",
"A!	c #ACCFF7",
"B!	c #629E30",
"C!	c #8DB96E",
"D!	c #88B76A",
"E!	c #84B565",
"F!	c #7FB260",
"G!	c #81B466",
"H!	c #97C182",
"I!	c #5B9F3B",
"J!	c #247E00",
"K!	c #38689D",
"L!	c #5884B3",
"M!	c #7AA4D9",
"N!	c #6E9DD8",
"O!	c #699AD7",
"P!	c #5A9A28",
"Q!	c #A8CA8F",
"R!	c #A4C88C",
"S!	c #A0C589",
"T!	c #9DC487",
"U!	c #84B569",
"V!	c #96C181",
"W!	c #65A447",
"X!	c #207C00",
"Y!	c #356398",
"Z!	c #84A3C7",
"[!	c #519621",
"]!	c #49901B",
"^!	c #438E15",
"_!	c #3B8A10",
"`!	c #5D9E39",
"a!	c #95C07F",
"b!	c #61A245",
"c!	c #1F7B08",
"d!	c #325E93",
"e!	c #6C8FB7",
"f!	c #A2B9D6",
"g!	c #B2C5DF",
"h!	c #C2D4E7",
"i!	c #D3DFEE",
"j!	c #E2EAF5",
"k!	c #EFF4FB",
"l!	c #F6FAFD",
"m!	c #31860B",
"n!	c #5EA042",
"o!	c #287E13",
"p!	c #2A6667",
"q!	c #305A8F",
"r!	c #386094",
"s!	c #406899",
"t!	c #227C06",
"u!	c #1D7A03",
"v!	c #2C5E7A",
"      # $ % & ' # # # # # #     ",
"    ( ) * * * * + , - . 0 1 ( ( ",
"    2 3 * 4 5 6 7 8 9 : * ; < 2 ",
"    = > ? @ A B C D E F * G H I ",
"    J K L M N O P Q R S T U V J ",
"    W X Y Z [ ] ^ _ ` a b c W   ",
"    d e f g h i j j k l ? m     ",
"    n o p q r s t u v w x y     ",
"    z ; { | | } ~ ~  !!!#!$!    ",
"    %!&!'!(!)!*!+!,!-!.!0!1!    ",
"    2!3!4!r 5!6!7!.!8!9!:!;!<!  ",
"  =!>!?!@!A!B!7!C!D!E!F!G!H!I!J!",
"K!K!L!M!N!O!P!Q!R!S!T!U!V!W!X!  ",
"Y!Z!* * * * [!]!^!_!`!a!b!c!    ",
"d!e!f!g!h!i!j!k!l!b m!n!o!p!    ",
"  q!q!q!q!q!q!q!r!s!t!u!v!      "};