/* XPM */
static char *saverec_xpm[] = {
/* columns rows colors chars-per-pixel */
"16 15 179 2",
"z. c #E3DECE",
"   c None",
"I  c #DED7C4",
"W. c #EDE6D3",
"v. c #DED7C6",
"h  c #504C45",
"Z. c #A09B8E",
"y  c #CDC8B5",
"s. c #AFAA9C",
"F  c #A59F90",
"8  c #969083",
"m. c #CDC8B7",
"C  c #A59F91",
"~  c #D2CCBA",
"s  c #B9B2A1",
"S. c #F0EAD7",
"%  c #A59C8C",
"3. c #1C1B17",
")  c #0F0302",
"N  c #C3BAA9",
"#. c #030101",
"`. c #140706",
"m  c #3F3D37",
"k. c #4E4C47",
"/. c #190807",
" . c #A39F91",
"2. c #ADA797",
"V  c #DAD4C0",
"z  c #CBC5B3",
"@  c #C1BAA9",
"(. c #010101",
"c. c #DFD8C5",
"a  c #BCB3A1",
"Q  c #42413A",
"C. c #6A675F",
"E  c #47423B",
"[  c #A19C8F",
">. c #BFBAAA",
"<  c #C9C2AF",
"u. c #E2DCC9",
"/  c #C9C2B0",
"N. c #D8D1BE",
"'  c #E2DCCA",
"w. c #C9C2B2",
"M  c #090302",
"w  c #8B8679",
"Z  c #A9A495",
"O. c #9F998A",
"a. c #A9A497",
"+. c #D6D1BE",
"p  c #AEA899",
"(  c #513E38",
"Y  c #BDB7A8",
"K  c #453C36",
"!. c #EAE4D0",
"-. c #C2BBAA",
"j  c #DBD5C3",
".  c #252421",
";  c #393731",
"X  c #2A2824",
"0  c #484640",
".. c #433F38",
"~. c #0C0405",
"+  c #ACA594",
"K. c #DED9C7",
"]  c #8E877B",
"D. c #EDE8D5",
"r. c #D4CEBC",
"F. c #EDE8D6",
"u  c #BBB4A4",
"I. c #E3DDCB",
"n  c #C0B8A6",
"V. c #CFC7B4",
"M. c #D9D2C0",
"J. c #DED6C4",
"T. c #8E847A",
"D  c #737066",
",. c #A5A192",
"r  c #8C877A",
",  c #D2CEBB",
"b  c #BEB8A6",
"&  c #878073",
"8. c #CDC7B5",
"9. c #B4AD9E",
"%. c #7D756B",
"g  c #DCD6C4",
"Q. c #EBE5D2",
"P. c #E1DAC7",
"d. c #807C71",
"}  c #C1BCAB",
"7. c #C1BCAC",
"^  c #C6C0AD",
"v  c #B7B1A0",
"4. c #D0CBBB",
"U  c #CBC4B1",
"6. c #E4DECB",
"A. c #D5CFBF",
"h. c #DAD3C0",
"). c #1A1A18",
"$. c #010000",
"&. c #DFD7C4",
"p. c #CEC8B8",
"n. c #DDD7C6",
"o. c #BAB2A2",
";. c #C9C1B0",
">  c #181715",
"-  c #3B3932",
"^. c #260D0B",
"k  c #817D72",
"R  c #B3AE9F",
"<. c #9A9487",
"J  c #C7C1AE",
"q  c #D6D0BD",
"#  c #BDB6A4",
"5  c #BDB6A5",
"U. c #271D1A",
"R. c #B3AB9E",
"_. c #4D4C45",
"c  c #525047",
"B. c #DED8C5",
"B  c #DED8C6",
"$  c #BBB3A1",
"W  c #D4CDBB",
"d  c #3C3A35",
"2  c #5F5C53",
"=  c #646057",
"S  c #918D7F",
"t  c #5A554D",
"o  c #0A0302",
"0. c #A5A090",
"g. c #D2CDBB",
"e  c #C8C2B0",
"x. c #E1DCCA",
"G  c #D7D1BE",
"|  c #C8C2B2",
"6  c #AFA899",
"b. c #E1DCCC",
"*. c #DCD5C3",
"'. c #030202",
"i. c #DCD5C4",
"!  c #D2CAB8",
"E. c #DCD5C5",
"l  c #5D5950",
"1. c #9E998B",
"3  c #857F72",
"{  c #DFD9C6",
"t. c #DFD9C7",
"e. c #D5CEBC",
"q. c #BCB4A4",
"y. c #1A1917",
":. c #DAD2C0",
"@. c #3F322D",
"A  c #656158",
"1  c #837F73",
"*  c #7E786D",
"9  c #B0A997",
"Y. c #785B52",
"P  c #1A100E",
"5. c #E7E1CE",
"=. c #DDD6C4",
"4  c #BAB1A0",
":  c #131211",
"H. c #E2DAC8",
"i  c #36342E",
"_  c #100202",
"x  c #7C786C",
"7  c #7C786D",
"f. c #9F9A8C",
"H  c #CCC7B5",
"G. c #EAE5D3",
"l. c #EFE9D6",
"L. c #DBD3C2",
"L  c #020000",
"`  c #4F3F39",
"f  c #938F82",
"X. c #898478",
"O  c #0C0505",
"T  c #9D978A",
"j. c #D9D3C0",
/* pixels */
"      . X     o O               ",
"      + @ # $ % & * = - ; ; :   ",
"    > , < 1 2 3 4 5 6 7 8 9 ;   ",
"    0 q w e r t y u i p a s d   ",
"    f g h j k l z x c v b n m   ",
"  M N B V C Z A S D F G H J K   ",
"L P I U Y T R E W Q ! ~ ^ / ( ) ",
"_ ` ' ] [ { } |  ...X.o.O.+.@.#.",
"$.%.&.*.=.-.;.:.>.,.<.1.2.g 3.  ",
"  4.5.6.7.<.8.9.0.q.w.e.r.t.    ",
"y.5.u.i.p.a.s.d.f.[ g.u.h.j.    ",
"k.l.z.x.{ c.v.b.n.m.M.N.B.V.    ",
"          U.Y.T.R.E.W.Q.!.5.    ",
"            ~.^./.(.    )._.    ",
"              `.'.              "
};
