/* XPM */ 
static char * saverec_xpm[] = {
"16 16 57 1",
" 	c None",
"!	c #BDCEDE",
"#	c #A5C6EF",
"$	c #9CBDEF",
"%	c #94B5E7",
"&	c #8CB5E7",
"'	c #84ADDE",
"(	c #84A5DE",
")	c #7BA5DE",
"*	c #8CADD6",
"+	c black",
",	c #F7F7FF",
"-	c #73A5D6",
".	c #A5D69C",
"0	c #9CCE94",
"1	c #94CE8C",
"2	c #8CC684",
"3	c #84C67B",
"4	c #7BBD73",
"5	c #6B9CD6",
"6	c white",
"7	c #6B94CE",
"8	c #6394CE",
"9	c #E7EFF7",
":	c #638CCE",
";	c #7B9CD6",
"<	c #84A5D6",
"=	c #6B8CCE",
">	c #638CC6",
"?	c #ADB5C6",
"@	c #ADC6EF",
"A	c #ADCEEF",
"B	c #B5C6E7",
"C	c #A5BDEF",
"D	c #5A84C6",
"E	c #EFF7F7",
"F	c #BDCEEF",
"G	c #527BBD",
"H	c #5A84BD",
"I	c #739CD6",
"J	c #DEE7F7",
"K	c #5284C6",
"L	c #E7F7EF",
"M	c #426BAD",
"N	c #9CB5EF",
"O	c #84BD52",
"P	c #9CCE6B",
"Q	c #9CCE73",
"R	c #EFF7E7",
"S	c #396BAD",
"T	c #FFFFDE",
"U	c #C6EF84",
"V	c #D6F7A5",
"W	c #C6EF8C",
"X	c #6B8CD6",
"Y	c #6B8CDE",
"Z	c #295AA5",
"!#$$$%%%&''()*  ",
"#,,,,,,,,,,,,-  ",
"$,..01122334,5  ",
"$,6666666666,7  ",
"$,##########,8  ",
"%,#6#666#6669:  ",
"&,####7;7<==77>?",
"&,@6@6>A6B6666C>",
"',@@@@D$6=66,,'>",
"(E@6F6:C666666(G",
")EFFFF>$)()));;H",
")EF6F6>%(());I7G",
"-E999JK%9LLLL9;M",
"*778::GNLOPQOR;S",
"      KFTUVVWT(S",
"      HDXYYYX=MZ"};