/* XPM */ 
static char * saverec_xpm[] = {
"16 16 194 2",
"  	c None",
"! 	c black",
"# 	c #5EABE2",
"$ 	c #80BBEA",
"% 	c #76B6E8",
"& 	c #6CB1E6",
"' 	c #67AFE4",
"( 	c #5CA7DE",
") 	c #8BBFEA",
"* 	c white",
"+ 	c #F4F9FD",
", 	c #EAF3FB",
"- 	c #D9EBF8",
". 	c #D3E6F8",
"0 	c #C5DFF5",
"1 	c #A5CBE9",
"2 	c #5AA3DA",
"3 	c #99C5EB",
"4 	c #E2EFFC",
"5 	c #E7F0FD",
"6 	c #EBF1FD",
"7 	c #EEF5FD",
"8 	c #F1F8FD",
"9 	c #F7FAFD",
": 	c #FAFCFF",
"; 	c #F7FBFE",
"< 	c #BFDAF4",
"= 	c #579ED5",
"> 	c #A4CAEB",
"? 	c #FBFDFF",
"@ 	c #D5E9FD",
"A 	c #D8EBFD",
"B 	c #DBEAFD",
"C 	c #DFEDFD",
"D 	c #E2F0FD",
"E 	c #E4F1FD",
"F 	c #E4F0FC",
"G 	c #6F9FE0",
"H 	c #F9FBFF",
"I 	c #86B7DF",
"J 	c #5499D0",
"K 	c #B1D0ED",
"L 	c #F0F6FF",
"M 	c #CAE1FA",
"N 	c #CCE3FB",
"O 	c #D0E3FB",
"P 	c #D3E6FB",
"Q 	c #D5E9FB",
"R 	c #D8E9FC",
"S 	c #DBEAFC",
"T 	c #FDFFFF",
"U 	c #709CD2",
"V 	c #C0D9EE",
"W 	c #5193CA",
"X 	c #C0D9F0",
"Y 	c #E1EDFB",
"Z 	c #BFDAF9",
"[ 	c #C1DCF9",
"] 	c #C4DEF9",
"^ 	c #C7E0FA",
"_ 	c #CAE2FA",
"` 	c #CDE2FA",
"a 	c #D0E5FA",
"b 	c #FDFEFF",
"c 	c #598ECB",
"d 	c #4D8DC3",
"e 	c #D8E7F5",
"f 	c #D2E5FA",
"g 	c #BBDAF9",
"h 	c #6D96D4",
"i 	c #7A9DD4",
"j 	c #7097D0",
"k 	c #81A3D6",
"l 	c #678DCD",
"m 	c #688FCD",
"n 	c #7499D0",
"o 	c #7298D1",
"p 	c #618AC8",
"q 	c #4A87BC",
"r 	c #F0F6FC",
"s 	c #C7DFF9",
"t 	c #BCDCF9",
"u 	c #648CCC",
"v 	c #AFCDF3",
"w 	c #B2C7E3",
"x 	c #A0BEEA",
"y 	c #5F88C9",
"z 	c #4A84B8",
"{ 	c #C0DCF9",
"| 	c #BEDCF8",
"} 	c #5A85C7",
"~ 	c #9DBFEF",
" !	c #6D92CC",
"!!	c #F7FBFF",
"#!	c #F1F8FF",
"$!	c #8BAEE4",
"%!	c #6089C7",
"&!	c #5185B8",
"'!	c #F9FCFE",
"(!	c #BEDCF9",
")!	c #BEDBF8",
"*!	c #5C87C8",
"+!	c #A0BEEF",
",!	c #FAFCFD",
"-!	c #FBFCFE",
".!	c #FDFDFE",
"0!	c #FCFDFE",
"1!	c #FAFBFD",
"2!	c #FBFCFD",
"3!	c #84A7DD",
"4!	c #527EC0",
"5!	c #5585B6",
"6!	c #FDFEFE",
"7!	c #C1DEFA",
"8!	c #BEDCFA",
"9!	c #648CCA",
":!	c #98B7EA",
";!	c #7DA4DD",
"<!	c #7FA5DD",
"=!	c #7BA2DB",
">!	c #799FD9",
"?!	c #789FD9",
"@!	c #779ED8",
"A!	c #779DD8",
"B!	c #5C83BE",
"C!	c #3B6EA3",
"D!	c #8BADD5",
"E!	c #E5F0FD",
"F!	c #A1C7F7",
"G!	c #ACCFF7",
"H!	c #608AC9",
"I!	c #91B4E6",
"J!	c #80A6E2",
"K!	c #80A6E1",
"L!	c #7CA2DE",
"M!	c #7AA0DC",
"N!	c #789EDB",
"O!	c #769DD9",
"P!	c #7299D4",
"Q!	c #567DBA",
"R!	c #38689D",
"S!	c #5884B3",
"T!	c #7AA4D9",
"U!	c #6E9DD8",
"V!	c #699AD7",
"W!	c #5380C3",
"X!	c #96B5EA",
"Y!	c #EAF3F3",
"Z!	c #E6F1ED",
"[!	c #E6F1EF",
"]!	c #E6F0EF",
"^!	c #E5F1ED",
"_!	c #EDF5F3",
"`!	c #789BD5",
"a!	c #436FAF",
"b!	c #356398",
"c!	c #84A3C7",
"d!	c #507EC2",
"e!	c #99B5EF",
"f!	c #E8F3EA",
"g!	c #83BE50",
"h!	c #97C96E",
"i!	c #98C970",
"j!	c #83BE53",
"k!	c #E9F4E4",
"l!	c #7A9BDD",
"m!	c #3968A9",
"n!	c #325E93",
"o!	c #6C8FB7",
"p!	c #A2B9D6",
"q!	c #B2C5DF",
"r!	c #C2D4E7",
"s!	c #D3DFEE",
"t!	c #5482C5",
"u!	c #B9CEEF",
"v!	c #FFFFDD",
"w!	c #C7EE86",
"x!	c #D7F4A1",
"y!	c #D7F6A1",
"z!	c #C7EE8B",
"{!	c #FFFFE0",
"|!	c #84A1DD",
"}!	c #3D69AA",
"~!	c #305A8F",
" #	c #3264B0",
"!#	c #5783C2",
"##	c #678AD3",
"$#	c #6F8EE1",
"%#	c #6B8CDC",
"&#	c #6C8ADA",
"'#	c #6D89D7",
"(#	c #6B8ACD",
")#	c #436CAA",
"*#	c #2D5EA5",
"      # $ % & ' # # # # # #     ",
"    ( ) * * * * + , - . 0 1 ( ( ",
"    2 3 * 4 5 6 7 8 9 : * ; < 2 ",
"    = > ? @ A B C D E F * G H I ",
"    J K L M N O P Q R S T U V J ",
"    W X Y Z [ ] ^ _ ` a b c W   ",
"    d e f g h i j k l m n o p   ",
"    q r s t u v * w * * * * x y ",
"    z ; { | } ~ *  !* * !!#!$!%!",
"    &!'!(!)!*!+!,!-!.!0!1!2!3!4!",
"    5!6!7!8!9!:!;!<!=!>!?!@!A!B!",
"  C!D!E!F!G!H!I!J!K!L!M!N!O!P!Q!",
"R!R!S!T!U!V!W!X!Y!Z![!]!^!_!`!a!",
"b!c!* * * * d!e!f!g!h!i!j!k!l!m!",
"n!o!p!q!r!s!t!u!v!w!x!y!z!{!|!}!",
"  ~!~!~!~!~! #!###$#%#&#'#(#)#*#"};