/* XPM */ 
static char * saveas_xpm[] = {
"16 16 199 2",
"  	c None",
"! 	c #366BBC",
"# 	c #366BBB",
"$ 	c #366ABB",
"% 	c #396CBC",
"& 	c #3B6EBD",
"' 	c #3A6DBB",
"( 	c #386BBB",
") 	c #3E70BB",
"* 	c #3569B6",
"+ 	c black",
", 	c #D1E0F6",
"- 	c #D1E0F7",
". 	c #F8FBFE",
"0 	c #F7FBFE",
"1 	c #F6F9FD",
"2 	c #F0F5FC",
"3 	c #EAF0FA",
"4 	c #EDF2FB",
"5 	c #F7FAFD",
"6 	c #EBF1FB",
"7 	c #DFE9F8",
"8 	c #BDD0EC",
"9 	c #5E89C9",
": 	c #3569B5",
"; 	c #D1DFF6",
"< 	c #80AAE9",
"= 	c #F6FAFE",
"> 	c #F6FAFD",
"? 	c #648CC8",
"@ 	c #EEF3FB",
"A 	c #EAF1FB",
"B 	c #F2F6FC",
"C 	c #F1F6FC",
"D 	c #E2ECF9",
"E 	c #DBE7F8",
"F 	c #BAD0EE",
"G 	c #D0DFF6",
"H 	c #7EA8E8",
"I 	c #E9F1FA",
"J 	c #EEF4FB",
"K 	c #E8F0FA",
"L 	c #DDE8F8",
"M 	c #DBE6F7",
"N 	c #7AA3E1",
"O 	c #C3D5EF",
"P 	c #3569B7",
"Q 	c #CCDDF5",
"R 	c #7EA8E7",
"S 	c #668DC9",
"T 	c #E9F0FA",
"U 	c #F3F8FD",
"V 	c #F8FAFE",
"W 	c #EFF4FC",
"X 	c #DFE9F9",
"Y 	c #DBE7F7",
"Z 	c #D9E5F7",
"[ 	c #78A2E0",
"] 	c #A9C2E7",
"^ 	c #3568B6",
"_ 	c #C9DCF4",
"` 	c #7DA7E7",
"a 	c #E1ECF9",
"b 	c #E3EDF9",
"c 	c #EEF4FC",
"d 	c #F3F7FD",
"e 	c #E5EDFA",
"f 	c #DAD3B5",
"g 	c #D8A558",
"h 	c #DBB185",
"i 	c #D09D46",
"j 	c #928362",
"k 	c #C7D9F4",
"l 	c #7DA6E6",
"m 	c #658DC9",
"n 	c #678EC9",
"o 	c #6C92CB",
"p 	c #6D92CB",
"q 	c #6990CA",
"r 	c #658CC8",
"s 	c #88989A",
"t 	c #E7BE77",
"u 	c #F0D2B4",
"v 	c #FFF3E5",
"w 	c #EFD2AC",
"x 	c #BA8851",
"y 	c #C5D8F2",
"z 	c #7BA4E3",
"{ 	c #7AA3E3",
"| 	c #7AA4E3",
"} 	c #7BA4E2",
"~ 	c #7BA3E2",
" !	c #7BA3E1",
"!!	c #79A2E1",
"#!	c #93A4A7",
"$!	c #EED27D",
"%!	c #F9E3B2",
"&!	c #E7C08B",
"'!	c #F6D3AE",
"(!	c #FCE0C4",
")!	c #CE9D68",
"*!	c #C2D5F2",
"+!	c #91A2A5",
",!	c #EED37C",
"-!	c #FDF6C4",
".!	c #F6DD6C",
"0!	c #EDCA6D",
"1!	c #D7A363",
"2!	c #C79763",
"3!	c #506C9B",
"4!	c #BED2F0",
"5!	c #7AA3E2",
"6!	c #8E9FA2",
"7!	c #EED379",
"8!	c #FDF7C7",
"9!	c #F5DC5F",
":!	c #F7E25B",
";!	c #F2D67A",
"<!	c #D5994E",
"=!	c #9AA5BA",
">!	c #3363AD",
"?!	c #366ABA",
"@!	c #BBD0EF",
"A!	c #7AA2E2",
"B!	c #E7DDB6",
"C!	c #E7CB77",
"D!	c #F5DC5E",
"E!	c #F7E15A",
"F!	c #F1D47B",
"G!	c #DD9A4C",
"H!	c #8394B3",
"I!	c #8AA7D2",
"J!	c #3262AB",
"K!	c #B8CEEF",
"L!	c #F7FAFE",
"M!	c #88C062",
"N!	c #97AC4A",
"O!	c #D4B873",
"P!	c #FDF6C2",
"Q!	c #F7DF63",
"R!	c #F8E25D",
"S!	c #F0D379",
"T!	c #D89744",
"U!	c #F2EBE4",
"V!	c #6A93CF",
"W!	c #84A3CE",
"X!	c #3261AA",
"Y!	c #386CBB",
"Z!	c #B6CCEE",
"[!	c #7AA2E1",
"]!	c #B3AF80",
"^!	c #D5B67A",
"_!	c #D1B790",
"`!	c #E4C955",
"a!	c #F5DF5B",
"b!	c #EDD078",
"c!	c #D89A4C",
"d!	c #C5D1AD",
"e!	c #6890CD",
"f!	c #819ECC",
"g!	c #3261A8",
"h!	c #376BBA",
"i!	c #B3CAED",
"j!	c #7AA2E0",
"k!	c #AA8943",
"l!	c #FFF2E0",
"m!	c #D89A54",
"n!	c #BE7A1A",
"o!	c #C59849",
"p!	c #BB8839",
"q!	c #95B65B",
"r!	c #658DCA",
"s!	c #7C9BC9",
"t!	c #3160A7",
"u!	c #356ABA",
"v!	c #ADC6EB",
"w!	c #ADC5EA",
"x!	c #85672E",
"y!	c #F9C794",
"z!	c #F9C991",
"{!	c #C98541",
"|!	c #AE6B27",
"}!	c #ECE3D8",
"~!	c #7C9AC8",
" #	c #7998C7",
"!#	c #3569B9",
"##	c #3569B8",
"$#	c #3568B7",
"%#	c #543E16",
"&#	c #865F2A",
"'#	c #BB874B",
"(#	c #9B835D",
")#	c #44679D",
"*#	c #3263AC",
"+#	c #3262AA",
",#	c #3261A9",
"-#	c #3160A8",
".#	c #3160A6",
"0#	c #3161A8",
"! ! ! ! ! # # $ $ % & ' ( ) *   ",
"! , - . 0 1 2 3 4 1 5 6 7 8 9 : ",
"! ; < = > ? @ A B . C D E F 8 ) ",
"! G H C C ? I J 5 1 K L M N O P ",
"! Q R K K S T U V W X Y Z [ ] ^ ",
"# _ ` a a b c 5 d e Y f g h i j ",
"# k l ? m n o p q r s t u v w x ",
"$ y z { | } ~  !!!#!$!%!&!'!(!)!",
"$ *!{ { ~ ~ } !!+!,!-!.!0!1!2!3!",
"$ 4!5!5!N ~  !6!7!8!9!:!;!<!=!>!",
"?!@!A!. . . B!C!8!D!E!F!G!H!I!J!",
"( K!!!L!M!N!O!P!Q!R!S!T!U!V!W!X!",
"Y!Z![!L!]!^!_!`!a!b!c!d!1 e!f!g!",
"h!i!j!L!k!l!m!n!o!p!q!M!1 r!s!t!",
"u!v!w!. x!y!z!{!|!}!. . . ~! #t!",
"?!!###$#%#&#'#(#)#*#+#,#-#t!.#0#"};