/* XPM */ 
static const char * const saveall_xpm[] = {
"16 16 120 2",
"  	c None",
"! 	c black",
"# 	c #6D96D4",
"$ 	c #7A9DD4",
"% 	c #7097D0",
"& 	c #81A3D6",
"' 	c #678DCD",
"( 	c #688FCD",
") 	c #7499D0",
"* 	c #7298D1",
"+ 	c #618AC8",
", 	c #648CCC",
"- 	c #AFCDF3",
". 	c white",
"0 	c #B2C7E3",
"1 	c #A0BEEA",
"2 	c #5F88C9",
"3 	c #5A85C7",
"4 	c #9DBFEF",
"5 	c #7CA1D9",
"6 	c #799CD3",
"7 	c #7FA2D5",
"8 	c #8EADDA",
"9 	c #7699D2",
": 	c #769AD2",
"; 	c #769BD2",
"< 	c #7096D0",
"= 	c #5C87C8",
"> 	c #A0BEEF",
"? 	c #7498D1",
"@ 	c #B7D2F4",
"A 	c #BACDE6",
"B 	c #FEFFFF",
"C 	c #F2F6FB",
"D 	c #EDF1F8",
"E 	c #648CCA",
"F 	c #98B7EA",
"G 	c #5E88C9",
"H 	c #9ABCED",
"I 	c #608AC9",
"J 	c #91B4E6",
"K 	c #608ACB",
"L 	c #9DBBEE",
"M 	c #5380C3",
"N 	c #96B5EA",
"O 	c #7297CE",
"P 	c #A0BDEA",
"Q 	c #6D92CC",
"R 	c #F7FBFF",
"S 	c #F1F8FF",
"T 	c #8BAEE4",
"U 	c #6089C7",
"V 	c #507EC2",
"W 	c #99B5EF",
"X 	c #6E95CC",
"Y 	c #90B5D6",
"Z 	c #FAFCFD",
"[ 	c #FBFCFE",
"] 	c #FDFDFE",
"^ 	c #FCFDFE",
"_ 	c #FAFBFD",
"` 	c #FBFCFD",
"a 	c #84A7DD",
"b 	c #527EC0",
"c 	c #5482C5",
"d 	c #B9CEEF",
"e 	c #658DC7",
"f 	c #9BBBE0",
"g 	c #7DA4DD",
"h 	c #7FA5DD",
"i 	c #7BA2DB",
"j 	c #799FD9",
"k 	c #789FD9",
"l 	c #779ED8",
"m 	c #779DD8",
"n 	c #5C83BE",
"o 	c #3267B9",
"p 	c #5783C2",
"q 	c #527FC4",
"r 	c #95B1EE",
"s 	c #80A6E2",
"t 	c #80A6E1",
"u 	c #7CA2DE",
"v 	c #7AA0DC",
"w 	c #789EDB",
"x 	c #769DD9",
"y 	c #7299D4",
"z 	c #567DBA",
"{ 	c #EAF3F3",
"| 	c #E6F1ED",
"} 	c #E6F1EF",
"~ 	c #E6F0EF",
" !	c #E5F1ED",
"!!	c #EDF5F3",
"#!	c #789BD5",
"$!	c #436FAF",
"%!	c #E8F3EA",
"&!	c #83BE50",
"'!	c #97C96E",
"(!	c #98C970",
")!	c #83BE53",
"*!	c #E9F4E4",
"+!	c #7A9BDD",
",!	c #3968A9",
"-!	c #FFFFDD",
".!	c #C7EE86",
"0!	c #D7F4A1",
"1!	c #D7F6A1",
"2!	c #C7EE8B",
"3!	c #FFFFE0",
"4!	c #84A1DD",
"5!	c #3D69AA",
"6!	c #678AD3",
"7!	c #6F8EE1",
"8!	c #6B8CDC",
"9!	c #6C8ADA",
":!	c #6D89D7",
";!	c #6B8ACD",
"<!	c #436CAA",
"=!	c #2D5EA5",
"                                ",
"  # $ % & ' ( ) * +             ",
"  , - . 0 . . . . 1 2           ",
"  3 4 5 6 7 8 9 : ; < +         ",
"  = > ? @ . A B . C D 1 2       ",
"  E F G H # $ % & ' ( ) * +     ",
"  I J K L , - . 0 . . . . 1 2   ",
"  M N O P 3 4 . Q . . R S T U   ",
"  V W X Y = > Z [ ] ^ _ ` a b   ",
"  c d e f E F g h i j k l m n   ",
"  o p q r I J s t u v w x y z   ",
"      c d M N { | } ~  !!!#!$!  ",
"      o p V W %!&!'!(!)!*!+!,!  ",
"          c d -!.!0!1!2!3!4!5!  ",
"          o p 6!7!8!9!:!;!<!=!  ",
"                                "};