/* XPM */ 
static char * schinese_xpm[] = {
"16 16 73 1",
" 	c None",
"!	c black",
"#	c #959595",
"$	c #9E9E9E",
"%	c #969696",
"&	c #949494",
"'	c #818181",
"(	c #787878",
")	c #191919",
"*	c #404040",
"+	c #DADADA",
",	c #606060",
"-	c #0F0F0F",
".	c #3F3F3F",
"0	c #6A6A6A",
"1	c #727272",
"2	c #121212",
"3	c #DFDFDF",
"4	c #828282",
"5	c #151515",
"6	c #1A1A1A",
"7	c #B0B0B0",
"8	c #B3B3B3",
"9	c #8C8C8C",
":	c #626262",
";	c #AEAEAE",
"<	c #B2B2B2",
"=	c #DBDBDB",
">	c #050505",
"?	c #7F7F7F",
"@	c #0E0E0E",
"A	c #D8D8D8",
"B	c #C7C7C7",
"C	c #B6B6B6",
"D	c #ABABAB",
"E	c #CECECE",
"F	c #9B9B9B",
"G	c #7D7D7D",
"H	c #494949",
"I	c #2A2A2A",
"J	c #838383",
"K	c #A1A1A1",
"L	c #060606",
"M	c #595959",
"N	c #E8E8E8",
"O	c #BFBFBF",
"P	c #0D0D0D",
"Q	c #303030",
"R	c #D3D3D3",
"S	c #BCBCBC",
"T	c #585858",
"U	c #111111",
"V	c #1D1D1D",
"W	c #313131",
"X	c #525252",
"Y	c #7C7C7C",
"Z	c #E9E9E9",
"[	c #E6E6E6",
"]	c #848484",
"^	c #6B6B6B",
"_	c #636363",
"`	c #181818",
"a	c #555555",
"b	c #9A9A9A",
"c	c #C5C5C5",
"d	c #EFEFEF",
"e	c #2F2F2F",
"f	c #474747",
"g	c #CDCDCD",
"h	c #4B4B4B",
"i	c #464646",
"j	c #8E8E8E",
"k	c #9D9D9D",
"                ",
"                ",
"       #$%&'(   ",
"  )*+ ,-.012!3  ",
"  456789   :)   ",
";<    =>?  6,   ",
"!!@'A  B!CD!E   ",
"FGHIJ   KL-M    ",
"    NO   P!QR   ",
"  STU  BVWX!-YZ ",
" [!!]$*L^  _!!`a",
"  bcdefg    h!!i",
"             jk ",
"                ",
"                ",
"                "};