/* XPM */ 
static char * scriptcode_xpm[] = {
"16 16 176 2",
"  	c None",
"! 	c black",
"# 	c #5EABE2",
"$ 	c #80BBEA",
"% 	c #76B6E8",
"& 	c #6CB1E6",
"' 	c #67AFE4",
"( 	c #5CA7DE",
") 	c #8BBFEA",
"* 	c white",
"+ 	c #F4F9FD",
", 	c #EAF3FB",
"- 	c #D9EBF8",
". 	c #D3E6F8",
"0 	c #C5DFF5",
"1 	c #A5CBE9",
"2 	c #5AA3DA",
"3 	c #99C5EB",
"4 	c #E2EFFC",
"5 	c #E7F0FD",
"6 	c #EBF1FD",
"7 	c #EEF5FD",
"8 	c #F1F8FD",
"9 	c #F7FAFD",
": 	c #FAFCFF",
"; 	c #F7FBFE",
"< 	c #BFDAF4",
"= 	c #579ED5",
"> 	c #9DC5EA",
"? 	c #FBFDFF",
"@ 	c #D5E9FD",
"A 	c #D8EBFD",
"B 	c #DBEAFD",
"C 	c #DFEDFD",
"D 	c #E2F0FD",
"E 	c #E4F1FD",
"F 	c #E4F0FC",
"G 	c #6F9FE0",
"H 	c #F9FBFF",
"I 	c #86B7DF",
"J 	c #5197D1",
"K 	c #5FA8E7",
"L 	c #60ADE8",
"M 	c #CAE1FA",
"N 	c #63B5EC",
"O 	c #68B0EB",
"P 	c #C9E1F9",
"Q 	c #D5E9FB",
"R 	c #D8E9FC",
"S 	c #DBEAFC",
"T 	c #FDFFFF",
"U 	c #709CD2",
"V 	c #C0D9EE",
"W 	c #5499D0",
"X 	c #4999E0",
"Y 	c #71B5EB",
"Z 	c #61A6E8",
"[ 	c #BFDAF9",
"] 	c #61AFEB",
"^ 	c #75BAEC",
"_ 	c #63A9EA",
"` 	c #BEDBF8",
"a 	c #CDE2FA",
"b 	c #D0E5FA",
"c 	c #FDFEFF",
"d 	c #598ECB",
"e 	c #5193CA",
"f 	c #2D83DE",
"g 	c #5AAAE9",
"h 	c #70B4EA",
"i 	c #5FA3E7",
"j 	c #BFD9F6",
"k 	c #BBDAF9",
"l 	c #ACD2F6",
"m 	c #5DA8E9",
"n 	c #5AA6E8",
"o 	c #8DB6EE",
"p 	c #C8E1FB",
"q 	c #5693C8",
"r 	c #56A6E7",
"s 	c #78B7EC",
"t 	c #57A4E5",
"u 	c #C7DAF4",
"v 	c #C7DFF9",
"w 	c #BCDCF9",
"x 	c #BEDCFA",
"y 	c #A2C7F4",
"z 	c #59A5E6",
"{ 	c #74B1E9",
"| 	c #569CE4",
"} 	c #C4DDFA",
"~ 	c #528CC0",
" !	c #2672D9",
"!!	c #549EE5",
"#!	c #69A9E8",
"$!	c #5E9BE4",
"%!	c #AFCFF5",
"&!	c #BEDCF8",
"'!	c #AED1F5",
"(!	c #599DE5",
")!	c #549AE3",
"*!	c #89B0EC",
"+!	c #CBE2FB",
",!	c #F5F9FC",
"-!	c #4681B6",
".!	c #4180D4",
"0!	c #64A2E5",
"1!	c #548EE1",
"2!	c #589BE5",
"3!	c #67A7E7",
"4!	c #5A94E2",
"5!	c #B5D4F6",
"6!	c #C2DDFA",
"7!	c #D4E7FB",
"8!	c #E2EDF5",
"9!	c #427AB0",
":!	c #5282B7",
";!	c #6494E1",
"<!	c #518DE0",
"=!	c #5597E2",
">!	c #5991E2",
"?!	c #B6D5F7",
"@!	c #BFDBFA",
"A!	c #C2DCFA",
"B!	c #DEEBFD",
"C!	c #CDDCEC",
"D!	c #3F74A9",
"E!	c #3B6EA3",
"F!	c #8BADD5",
"G!	c #E5F0FD",
"H!	c #A1C7F7",
"I!	c #ACCFF7",
"J!	c #B4D5F9",
"K!	c #BCDAF8",
"L!	c #C1DEF8",
"M!	c #C5E1FA",
"N!	c #CCE4FA",
"O!	c #ECF5FD",
"P!	c #B9CEE2",
"Q!	c #38689D",
"R!	c #5884B3",
"S!	c #7AA4D9",
"T!	c #6E9DD8",
"U!	c #699AD7",
"V!	c #6295D8",
"W!	c #5C91D6",
"X!	c #588ED4",
"Y!	c #568DD3",
"Z!	c #689CE2",
"[!	c #D1E3FA",
"]!	c #A1BAD8",
"^!	c #356398",
"_!	c #84A3C7",
"`!	c #FCFEFF",
"a!	c #F1F7FE",
"b!	c #F1F6FE",
"c!	c #85ADE4",
"d!	c #DBE8FA",
"e!	c #94AECE",
"f!	c #325E93",
"g!	c #6C8FB7",
"h!	c #A2B9D6",
"i!	c #B2C5DF",
"j!	c #C2D4E7",
"k!	c #D3DFEE",
"l!	c #E2EAF5",
"m!	c #EFF4FB",
"n!	c #F6FAFD",
"o!	c #DFEBFB",
"p!	c #E6EFFB",
"q!	c #7F9CC0",
"r!	c #305A8F",
"s!	c #386094",
"t!	c #406899",
"u!	c #4E73A2",
"v!	c #5E81AC",
"      # $ % & ' # # # # # #     ",
"    ( ) * * * * + , - . 0 1 ( ( ",
"    2 3 * 4 5 6 7 8 9 : * ; < 2 ",
"    = > ? @ A B C D E F * G H I ",
"    J K L M N O P Q R S T U V W ",
"    X Y Z [ ] ^ _ ` a b c d e   ",
"f g h i j k l m h n o p ? q     ",
"r s t u v w x y z { | } : ~     ",
" !!!#!$!%!&!'!(!#!)!*!+!,!-!    ",
"    .!0!1!` 2!3!4!5!6!7!8!9!    ",
"    :!;!<!x =!>!?!@!A!B!C!D!    ",
"  E!F!G!H!I!J!K!L!M!N!O!P!E!    ",
"Q!Q!R!S!T!U!V!W!X!Y!Z![!]!Q!    ",
"^!_!* * * * `!; a!b!c!d!e!^!    ",
"f!g!h!i!j!k!l!m!n!c o!p!q!f!    ",
"  r!r!r!r!r!r!r!s!t!u!v!r!      "};