/* XPM */ 
static const char * const scriptedit_xpm[] = {
"16 16 184 2",
"  	c None",
"! 	c black",
"# 	c #5EABE2",
"$ 	c #80BBEA",
"% 	c #76B6E8",
"& 	c #6CB1E6",
"' 	c #67AFE4",
"( 	c #5CA7DE",
") 	c #8BBFEA",
"* 	c white",
"+ 	c #F4F9FD",
", 	c #EAF3FB",
"- 	c #D9EBF8",
". 	c #D3E6F8",
"0 	c #C5DFF5",
"1 	c #A5CBE9",
"2 	c #5AA3DA",
"3 	c #99C5EB",
"4 	c #E2EFFC",
"5 	c #E7F0FD",
"6 	c #EBF1FD",
"7 	c #EEF5FD",
"8 	c #F1F8FD",
"9 	c #F7FAFD",
": 	c #FAFCFF",
"; 	c #F7FBFE",
"< 	c #BFDAF4",
"= 	c #579ED5",
"> 	c #A4CAEB",
"? 	c #FBFDFF",
"@ 	c #D5E9FD",
"A 	c #D8EBFD",
"B 	c #DBEAFD",
"C 	c #DFEDFD",
"D 	c #E2F0FD",
"E 	c #E4F1FD",
"F 	c #E4F0FC",
"G 	c #6F9FE0",
"H 	c #F9FBFF",
"I 	c #86B7DF",
"J 	c #5499D0",
"K 	c #B1D0ED",
"L 	c #F0F6FF",
"M 	c #CAE1FA",
"N 	c #CCE3FB",
"O 	c #D0E3FB",
"P 	c #D3E6FB",
"Q 	c #D5E9FB",
"R 	c #D8E9FC",
"S 	c #DBEAFC",
"T 	c #FDFFFF",
"U 	c #709CD2",
"V 	c #C0D9EE",
"W 	c #5193CA",
"X 	c #C0D9F0",
"Y 	c #E1EDFB",
"Z 	c #BFDAF9",
"[ 	c #C1DCF9",
"] 	c #C4DEF9",
"^ 	c #C7E0FA",
"_ 	c #CAE2FA",
"` 	c #CDE2FA",
"a 	c #D5D4B8",
"b 	c #D8A457",
"c 	c #DBB084",
"d 	c #D09C45",
"e 	c #A8945D",
"f 	c #4D8DC3",
"g 	c #D8E7F5",
"h 	c #D2E5FA",
"i 	c #BBDAF9",
"j 	c #BBDBF9",
"k 	c #BEDBFA",
"l 	c #C0DDFA",
"m 	c #CFD0AC",
"n 	c #E7BD76",
"o 	c #F0D2B3",
"p 	c #FFF3E5",
"q 	c #EFD2AB",
"r 	c #C78B47",
"s 	c #4A87BC",
"t 	c #F0F6FC",
"u 	c #C7DFF9",
"v 	c #BCDCF9",
"w 	c #BEDCFA",
"x 	c #C0DBFA",
"y 	c #C2DDFA",
"z 	c #CDD0B1",
"{ 	c #EDD580",
"| 	c #F9E3B1",
"} 	c #E7BF8A",
"~ 	c #F6D3AD",
" !	c #FCE0C3",
"!!	c #D39E65",
"#!	c #4A84B8",
"$!	c #C0DCF9",
"%!	c #BEDCF8",
"&!	c #BFDBF8",
"'!	c #CAD2BC",
"(!	c #EED47C",
")!	c #FDF6C3",
"*!	c #F6DD6B",
"+!	c #EDCA6C",
",!	c #D7A262",
"-!	c #D29A5C",
".!	c #5185B8",
"0!	c #F9FCFE",
"1!	c #BEDCF9",
"2!	c #BEDBF8",
"3!	c #BFDCF8",
"4!	c #C9CEBA",
"5!	c #EED378",
"6!	c #FDF7C7",
"7!	c #F5DC5E",
"8!	c #F7E25A",
"9!	c #F2D679",
":!	c #D29648",
";!	c #5585B6",
"<!	c #FDFEFE",
"=!	c #C1DEFA",
">!	c #BCBDAC",
"?!	c #E7CB76",
"@!	c #F5DC5D",
"A!	c #F7E159",
"B!	c #F1D47A",
"C!	c #DB984A",
"D!	c #647A8D",
"E!	c #3B6EA3",
"F!	c #8BADD5",
"G!	c #E5F0FD",
"H!	c #A1C7F7",
"I!	c #AFB5AE",
"J!	c #D5B875",
"K!	c #FDF6C1",
"L!	c #F7DF62",
"M!	c #F8E25C",
"N!	c #F0D378",
"O!	c #DC9749",
"P!	c #BDC5CD",
"Q!	c #38689D",
"R!	c #5884B3",
"S!	c #7AA4D9",
"T!	c #7F888E",
"U!	c #D5B579",
"V!	c #D1B68F",
"W!	c #E4C954",
"X!	c #F5DF5A",
"Y!	c #EDD077",
"Z!	c #D0944E",
"[!	c #D2D8E0",
"]!	c #A1BAD8",
"^!	c #356398",
"_!	c #84A3C7",
"`!	c #A98842",
"a!	c #FFF2E0",
"b!	c #D89953",
"c!	c #BD7919",
"d!	c #C49748",
"e!	c #C58D48",
"f!	c #92A6C5",
"g!	c #DBE8FA",
"h!	c #94AECE",
"i!	c #325E93",
"j!	c #6C8FB7",
"k!	c #A2B9D6",
"l!	c #B2C5DF",
"m!	c #83662D",
"n!	c #F9C793",
"o!	c #F9C990",
"p!	c #C98440",
"q!	c #AD6A26",
"r!	c #F0E5D8",
"s!	c #DFEBFB",
"t!	c #E6EFFB",
"u!	c #7F9CC0",
"v!	c #305A8F",
"w!	c #533D13",
"x!	c #855E28",
"y!	c #BA8649",
"z!	c #9A8054",
"{!	c #486386",
"|!	c #406899",
"}!	c #4E73A2",
"~!	c #5E81AC",
"      # $ % & ' # # # # # #     ",
"    ( ) * * * * + , - . 0 1 ( ( ",
"    2 3 * 4 5 6 7 8 9 : * ; < 2 ",
"    = > ? @ A B C D E F * G H I ",
"    J K L M N O P Q R S T U V J ",
"    W X Y Z [ ] ^ _ ` a b c d e ",
"    f g h i j k l l m n o p q r ",
"    s t u v w x y z { | } ~  !!!",
"    #!; $!%!%!&!'!(!)!*!+!,!-!  ",
"    .!0!1!2!3!4!5!6!7!8!9!:!    ",
"    ;!<!=!w >!?!6!@!A!B!C!D!    ",
"  E!F!G!H!I!J!K!L!M!N!O!P!E!    ",
"Q!Q!R!S!T!U!V!W!X!Y!Z![!]!Q!    ",
"^!_!* * `!a!b!c!d!e!f!g!h!^!    ",
"i!j!k!l!m!n!o!p!q!r!s!t!u!i!    ",
"  v!v!v!w!x!y!z!{!|!}!~!v!      "};