/* XPM */ 
static char * searchregex_xpm[] = {
"16 16 50 1",
" 	c None",
"!	c black",
"#	c #DAE4F2",
"$	c #A6C0E2",
"%	c #E5ECF5",
"&	c #CAD8EE",
"'	c #4275CA",
"(	c #DAE4F1",
")	c #7B9ED1",
"*	c #4574C2",
"+	c #97B2DC",
",	c #5883C9",
"-	c #9DB6DB",
".	c #4373C1",
"0	c #B4C8E4",
"1	c #C5D4EA",
"2	c #799BD1",
"3	c #3768B9",
"4	c #3D6BBB",
"5	c #3869B9",
"6	c #7E9FD3",
"7	c #D9E3F1",
"8	c #C4D3E7",
"9	c #7696C8",
":	c #2155A9",
";	c #295AAE",
"<	c #2558AB",
"=	c #7A99CA",
">	c #DAE3F0",
"?	c #6288C0",
"@	c #1449A0",
"A	c #809DCB",
"B	c #2152A3",
"C	c #91ACD3",
"D	c #13489F",
"E	c #ABBFDD",
"F	c #B8C9E2",
"G	c #00278C",
"H	c #D6E1EE",
"I	c #D4DFEE",
"J	c #92AED4",
"K	c #E2E9F3",
"L	c #AAC0E2",
"M	c #ADC3E2",
"N	c #BCCEEB",
"O	c #ADC3E4",
"P	c #BDD0F0",
"Q	c #A2BDE4",
"R	c #A1BEEB",
"S	c #A4C0EB",
"                ",
"                ",
"          #$%   ",
"          &'(   ",
"        )*+,-.0 ",
"        1234567 ",
"        89:;<=> ",
"        ?@ABCDE ",
"          FGH   ",
"          IJK   ",
"  LM            ",
" N<<O           ",
" P44Q           ",
"  RS            ",
"                ",
"                "};