/* XPM */
static char *searchregex_xpm[] = {
/* columns rows colors chars-per-pixel */
"16 15 44 1",
"a c Black",
"> c #0F0F0F",
"1 c #D9D9D9",
"X c #F7F7F7",
"q c #696969",
"2 c #787878",
"< c #B4B4B4",
"6 c #D2D2D2",
"i c #F0F0F0",
"  c None",
"5 c #626262",
", c #363636",
"= c #909090",
". c #F9F9F9",
"4 c #0A0A0A",
"y c #E3E3E3",
"w c #737373",
"u c #DCDCDC",
"7 c #8A8A8A",
"@ c #656565",
"f c #929292",
"g c #DDDDDD",
"h c #FBFBFB",
"8 c #5E5E5E",
"$ c #8B8B8B",
"; c #484848",
"% c #848484",
"# c #A2A2A2",
"o c #FCFCFC",
"s c #6E6E6E",
"t c #E6E6E6",
"d c #676767",
"& c #606060",
"e c #6F6F6F",
"* c #9C9C9C",
"3 c #0E0E0E",
"r c #F6F6F6",
"0 c #595959",
"9 c #868686",
"- c #C2C2C2",
": c #161616",
"O c #FEFEFE",
"p c #434343",
"+ c #707070",
/* pixels */
"                ",
"          .X    ",
"        oO+@Oo  ",
"        #$%&*=  ",
"        -;:>,<  ",
"        123456  ",
"        7890qw  ",
"        ..e5or  ",
"          ty    ",
"  u7i           ",
"  pas           ",
"  daf           ",
"  rgh           ",
"                ",
"                "
};
