/* XPM */
static char *searchwholeword_xpm[] = {
/* columns rows colors chars-per-pixel */
"16 15 62 1",
"> c #5B767E",
"= c #FFFFE7",
"% c #FFFFF3",
"2 c #FFF9E0",
"p c #886568",
"l c #FFFFF9",
"  c None",
"5 c #88A0B7",
"Z c #C0AA9E",
"C c #9EAAC0",
"8 c #3D4034",
", c #ABC5E0",
"A c #808080",
"u c #7FB1DA",
"x c #B3D3ED",
"S c #808093",
"c c #EDBC83",
"@ c #FFE7CC",
"k c #CCE7FF",
"i c #F9FFE7",
"g c #1F1C41",
"w c #7895AF",
"1 c #B5E7FF",
"e c #F9E7CC",
"3 c #9284A3",
"t c #F3FFE7",
"o c #271521",
"z c #8E7B60",
"V c #E6F3FF",
"a c #D3EDFF",
"r c #76809B",
"M c #787AB2",
"y c #995550",
"4 c #CEC5AB",
"+ c #BFBFBF",
"X c #40403A",
". c #404040",
"f c #403D37",
"< c #995563",
"7 c #6E7A61",
"m c #BFAD92",
"N c #EDFFFF",
"6 c #995570",
"d c #2C242B",
"$ c #DEEDF9",
"- c #995581",
"n c #88ADBF",
"* c #DAF3FF",
": c #DAA683",
"b c #93555A",
"# c #8A98A4",
"q c #EDD2AF",
"s c #C59D6D",
"& c #CCAAB2",
"h c #C1EDE7",
"0 c #F6FCFF",
"B c #C1B2AA",
"O c #344040",
"v c #6C9DBB",
"j c #9C8155",
"; c #CEFFFF",
"9 c #5D85B9",
/* pixels */
"                ",
"                ",
"                ",
"  ..........XoO+",
"   @#$%&*   =-; ",
"   :>,=<1   =-; ",
"  2345=67890=-; ",
"  qwertyuipa=-; ",
"  sdfgh<1 jk=-; ",
" lzx cvbnmMN=-; ",
" %BV @CZAS* =-; ",
"            =-; ",
"  ..............",
"                ",
"                "
};
