/* XPM */
static char *searchselectedonly_xpm[] = {
/* columns rows colors chars-per-pixel */
"16 15 125 2",
"6. c #191A19",
"   c None",
".. c #737A82",
"D  c #3C3C3C",
"@  c #4B4B4B",
",  c #B4B4B4",
"Z  c #99ACC4",
"C  c #9EB0C8",
"=  c #262626",
"7  c #444444",
"2. c #8F8F8F",
"X. c #BCC2CA",
"h  c #9CB0C7",
"2  c #ADADAD",
"(  c #92A5BC",
"g  c #A1B4CB",
"~  c #1E5FA9",
"i  c #04172E",
"e. c #2E2E2E",
"z  c #424141",
"X  c #515051",
"%. c #B0B1B1",
"v  c #2D62A0",
"9. c #181817",
"8. c #181818",
"*  c #272727",
"[  c #363636",
"P  c #A9B9D1",
"w. c #454546",
"!  c #03366D",
"<. c #909090",
">. c #959494",
"S  c #C7C8C7",
"W  c #588FCF",
"J  c #1F60AA",
"9  c #7F8790",
"&. c #343333",
"O. c #B6BCC3",
"<  c #B1B2B2",
"7. c #191919",
"O  c #5F6060",
"H  c #04376E",
"@. c #AFB5BC",
"1  c #AFAFB0",
"Y  c #94A7BF",
"B  c #A8BAD1",
"6  c #DCDCDC",
"L  c #ADBED5",
"#  c #3F3F3F",
"o  c #626161",
"b  c #2A609C",
";. c #999999",
" . c #091D35",
"5  c #474746",
":  c #474747",
"n  c #053870",
"t  c #BAC1C9",
"w  c #C4CCD5",
"d  c #596C85",
",. c #929293",
"`  c #8699AF",
":. c #979697",
"F  c #5A91D1",
"8  c #0C2440",
"f  c #A4B7CF",
"U  c #9AACC4",
"T  c #3B3C3C",
"^  c #4D6178",
"+  c #5E5E5E",
"r  c #BDC5CD",
"|  c #03356D",
"3. c #A9A9A9",
"]  c #B8B8B9",
"y  c #D6D6D6",
"E  c #393939",
"/  c #96A9C1",
"R  c #C0C0C0",
"p  c #03172C",
".  c #050505",
"x  c #CFCFCF",
"%  c #DEDEDE",
"5. c #232323",
"0. c #323232",
"u  c #414141",
"$. c #373637",
"o. c #B9BFC6",
"l  c #8FA2B9",
"Q  c #548BCB",
"I  c #9EB1C9",
"V  c #A3B5CD",
"=. c #011122",
"s  c #2060AB",
"A  c #3F3E3E",
"1. c #585858",
"+. c #B2B8BF",
"0  c #CBD2DC",
"r. c #060606",
"-. c #888988",
">  c #9C9C9C",
"'  c #8194AB",
"3  c #ABABAB",
"K  c #63738A",
"a  c #02152A",
"*. c #021224",
"&  c #3B3B3B",
"N  c #AEBED5",
";  c #4A4A49",
"q  c #C7CFD8",
"4. c #868686",
"}  c #215591",
"k  c #93A7BE",
"m  c #66778E",
"_  c #899CB4",
"4  c #A9A8A8",
"j  c #98ABC3",
"$  c #C2C2C2",
")  c #8EA0B8",
"-  c #252525",
"c  c #3E3F3F",
"M  c #B1C2D9",
"q. c #484747",
"#. c #ACB2B8",
"e  c #C0C8D1",
"{  c #245996",
"G  c #568DCD",
/* pixels */
"                . . . . .       ",
"                X o O + @       ",
"                # $ % $ &       ",
"    * * * = = - - ; % :         ",
"    > , < 1 2 3 4 5 6 7         ",
"  8 9 0 q w e r t 7 y u i p a   ",
"  s d f g h j k l z x c v b n   ",
"  s m M N B V C Z A S D F G H   ",
"  J K L P V I U Y T R E W Q !   ",
"  ~ ^ / ( ) _ ` ' E ] [ { } |   ",
"   ...X.o.O.+.@.#.$.%.&.*.=.=.  ",
"    -.;.:.>.,.<.1.2.3.4.5.      ",
"    6.7.7.8.8.9.0.q.w.7 e.      ",
"                r.r.r.r.r.      ",
"                                "
};
