/* XPM */
static char *searchcase_xpm[] = {
/* columns rows colors chars-per-pixel */
"16 16 96 2",
"+  c Black",
"u  c #CACACA",
"P  c #1E1E1E",
"!  c #E8E8E8",
"D  c #2D2D2D",
"M  c #F7F7F7",
"Q  c #5A5A5A",
"6  c #171717",
"a  c #F0F0F0",
"   c None",
"s  c #535353",
"l  c #626262",
"n  c #808080",
"{  c #8F8F8F",
"F  c #010101",
".  c #CBCBCB",
"g  c #E9E9E9",
"(  c #4C4C4C",
"w  c #6A6A6A",
"2  c #090909",
"&  c #181818",
"S  c #272727",
"x  c #818181",
"r  c #909090",
".. c #9F9F9F",
"T  c #020202",
"0  c #CCCCCC",
"p  c #202020",
"-  c #EAEAEA",
"N  c #2F2F2F",
"8  c #F9F9F9",
"z  c #3E3E3E",
"o. c #B6B6B6",
"q  c #282828",
"~  c #828282",
"e  c #A0A0A0",
"Y  c #BEBEBE",
"m  c #030303",
"=  c #CDCDCD",
"A  c #121212",
"c  c #EBEBEB",
"f  c #FAFAFA",
"%  c #3F3F3F",
"R  c #7B7B7B",
"o  c #999999",
"|  c #A8A8A8",
"G  c #0B0B0B",
";  c #D5D5D5",
"L  c #F3F3F3",
"d  c #383838",
"X. c #474747",
"W  c #838383",
"h  c #040404",
" . c #131313",
"J  c #222222",
"U  c #ECECEC",
"v  c #FBFBFB",
"'  c #5E5E5E",
"^  c #B8B8B8",
"/  c #1B1B1B",
",  c #F4F4F4",
"[  c #575757",
"B  c #666666",
"1  c #848484",
"t  c #B1B1B1",
"*  c #050505",
"5  c #141414",
"}  c #DEDEDE",
")  c #EDEDED",
">  c #FCFCFC",
"X  c #7D7D7D",
"3  c #9B9B9B",
"4  c #1C1C1C",
"H  c #2B2B2B",
"I  c #585858",
"E  c #858585",
"i  c #949494",
"C  c #A3A3A3",
"j  c #B2B2B2",
"y  c #060606",
"9  c #D0D0D0",
"]  c #151515",
":  c #DFDFDF",
"_  c #242424",
"$  c #FDFDFD",
"O  c #6F6F6F",
"K  c #8D8D8D",
"@  c #0E0E0E",
"V  c #E7E7E7",
"#  c #F6F6F6",
"7  c #686868",
"Z  c #959595",
"b  c #C2C2C2",
"<  c #070707",
"`  c #252525",
"k  c #FEFEFE",
/* pixels */
"                                ",
"      . X o                     ",
"      O + @ #                   ",
"    $ % & * =       - ; : >     ",
"    , < 1 2 3     o 4 5 6 7 8   ",
"    9 + 0 q w     e r t O y u   ",
"    i p a s d f   8     g h j   ",
"  k l z > x 2 c   v b o n m t   ",
"  M N B V C + u k Z A S D F t   ",
"  : G & H J + K L P I c U * t   ",
"  Y T R E W P Q ! + ~ k ^ m t   ",
"  1 / v   $ ( S ) _ ` ' 4 ] t   ",
"  l [       { P } |  .6 ..X.o.  ",
"                    a ,         ",
"                                ",
"                                "
};
