/* XPM */ 
static char * searchcase_xpm[] = {
"16 16 87 1",
" 	c None",
"!	c black",
"#	c #93C1E2",
"$	c #82B7DE",
"%	c #2985C7",
"&	c #5BA1D4",
"'	c #B9D7EB",
"(	c #006ABC",
")	c #529DD2",
"*	c #87BADF",
"+	c #2986C8",
",	c #2683C7",
"-	c #A3CAE6",
".	c #B6D5EB",
"0	c #D8E8F4",
"1	c #2E88C9",
"2	c #559ED2",
"3	c #0F76C2",
"4	c #61A5D5",
"5	c #9BC5E4",
"6	c #3D90CC",
"7	c #368BCA",
"8	c #C8DFF0",
"9	c #77B1DC",
":	c #036DBE",
";	c #D2E5F2",
"<	c #61A5D6",
"=	c #3F91CD",
">	c #4695CF",
"?	c #77B1DB",
"@	c #BDD8ED",
"A	c #89BBE0",
"B	c #0065BA",
"C	c #AED0E8",
"D	c #D0E3F1",
"E	c #016BBC",
"F	c #1579C3",
"G	c #589FD3",
"H	c #DFECF5",
"I	c #5DA3D4",
"J	c #75AFDA",
"K	c #0067BB",
"L	c #A0C9E5",
"M	c #AACEE8",
"N	c #006CBD",
"O	c #C4DDEF",
"P	c #0772BF",
"Q	c #7BB4DC",
"R	c #9BC6E4",
"S	c #B2D3EA",
"T	c #BFD9ED",
"U	c #0068BB",
"V	c #7EB5DD",
"W	c #A3CBE6",
"X	c #026DBD",
"Y	c #D1E4F1",
"Z	c #0069BB",
"[	c #A9CEE8",
"]	c #0A74C0",
"^	c #549DD3",
"_	c #B2D2EA",
"`	c #0063B9",
"a	c #9EC7E5",
"b	c #83B9DE",
"c	c #0166BA",
"d	c #CFE3F2",
"e	c #69A9D7",
"f	c #3F92CE",
"g	c #A9CEE7",
"h	c #026FBE",
"i	c #2180C6",
"j	c #CCE1F1",
"k	c #2A86C8",
"l	c #2B86C8",
"m	c #71AED9",
"n	c #0066BB",
"o	c #90BFE2",
"p	c #C2DBEE",
"q	c #B3D3EB",
"r	c #B1D2EA",
"s	c #C2DCEE",
"t	c #B5D4EB",
"u	c #B2D3EB",
"v	c #CDE1F0",
"w	c #D4E5F2",
"x	c #AFD0E9",
"y	c #AACFE7",
"                ",
"                ",
"     #$         ",
"     %&         ",
"    '()         ",
"    *+,     -.0 ",
"   0123    4561 ",
"  0789:;  <= >7 ",
"  0?@ABC DE# FG ",
"  HI1JKL MNO PQ ",
"  RS TUV WXY8Z[ ",
" 0Q   ]^ _`abc8 ",
"def  ghij klmno ",
"pqr  stuv wx ys ",
"                ",
"                "};