/* XPM */ 
static const char * const searchcase_xpm[] = {
"16 16 125 2",
"  	c None",
"! 	c black",
"# 	c #5C7EAC",
"$ 	c #83A1C0",
"% 	c #476D9A",
"& 	c #245593",
"' 	c #315C97",
"( 	c #90A8C6",
") 	c #225390",
"* 	c #D6FFFF",
"+ 	c #90C3FF",
", 	c #597AA3",
"- 	c #B7CADE",
". 	c #8FA7C5",
"0 	c #9EB2CB",
"1 	c #ADBFD7",
"2 	c #5378A6",
"3 	c #5D8CCB",
"4 	c #95C7FF",
"5 	c #78ABEE",
"6 	c #5D87BB",
"7 	c #A6B9D2",
"8 	c #6588AF",
"9 	c #083C81",
": 	c #2C64B0",
"; 	c #2B69AF",
"< 	c #356CB4",
"= 	c #4C73A5",
"> 	c #1D4B87",
"? 	c #9FD5FF",
"@ 	c #295996",
"A 	c #4D7FBE",
"B 	c #83B8F9",
"C 	c #305683",
"D 	c #4577B0",
"E 	c #72ADF4",
"F 	c #77ABEC",
"G 	c #6C9DDE",
"H 	c #99CDFF",
"I 	c #5289CF",
"J 	c #6F8DB3",
"K 	c #9BB2CE",
"L 	c #3062A1",
"M 	c #A4DAFF",
"N 	c #285281",
"O 	c #5D83B9",
"P 	c #80BCFF",
"Q 	c #3C6498",
"R 	c #698AB8",
"S 	c #2C5D9B",
"T 	c #082662",
"U 	c #082563",
"V 	c #0C3D79",
"W 	c #75AEF5",
"X 	c #2B5E9E",
"Y 	c #26568A",
"Z 	c #72ABED",
"[ 	c #3F71AE",
"] 	c #3D5D89",
"^ 	c #4B709F",
"_ 	c #4D87C8",
"` 	c #5C8ECA",
"a 	c #1E4577",
"b 	c #4075B8",
"c 	c #82BBFF",
"d 	c #92C4FF",
"e 	c #87BBFA",
"f 	c #99CBF9",
"g 	c #205597",
"h 	c #CBD9EB",
"i 	c #0A3B7A",
"j 	c #C6F9FF",
"k 	c #AEDEFF",
"l 	c #ACDAFF",
"m 	c #A9DAFF",
"n 	c #B6EAFF",
"o 	c #7BAEED",
"p 	c #255D9E",
"q 	c #7FB8FF",
"r 	c #275D9F",
"s 	c #0E4384",
"t 	c #305D93",
"u 	c #A3C8F6",
"v 	c #3B6395",
"w 	c #4E83C7",
"x 	c #72A5E5",
"y 	c #224E87",
"z 	c #1C4A88",
"{ 	c #325D92",
"| 	c #205496",
"} 	c #7DA7DC",
"~ 	c #548BCF",
" !	c #7EBCFF",
"!!	c #08397B",
"#!	c #315C90",
"$!	c #6897D1",
"%!	c #9BCBF9",
"&!	c #184F93",
"'!	c #C7D6E9",
"(!	c #174681",
")!	c #96CDFF",
"*!	c #2D62A0",
"+!	c #87A1C0",
",!	c #B5C7DE",
"-!	c #B7C8DE",
".!	c #1F518B",
"0!	c #76A2DE",
"1!	c #83B2EB",
"2!	c #4E88CD",
"3!	c #96D2FF",
"4!	c #4682CD",
"5!	c #8EC5FF",
"6!	c #BECDE2",
"7!	c #2C5B92",
"8!	c #11407A",
"9!	c #426A9B",
":!	c #7492B8",
";!	c #082968",
"<!	c #082868",
"=!	c #082464",
">!	c #082165",
"?!	c #08316F",
"@!	c #718FB4",
"A!	c #1D4679",
"B!	c #234F88",
"                                ",
"                                ",
"        # $                     ",
"      % & ' (                   ",
"      ) * + ,     - . 0 1       ",
"    2 3 4 5 6 7 8 9 : ; < =     ",
"    > ? @ A B C D E F G H I J   ",
"  K L M N O P Q R S T U V W X   ",
"  Y Z [ ] ^ _ ` a b c d e f g h ",
"  i j k l m n o p q r s t u g   ",
"v w x y z { | } ~  !!!#!$!%!&!'!",
"(!)!*!+!,!-!.!0!1!2!3!3!4!5!&!6!",
"7!8!9!      :!;!<!=!>!?!@!A!B!  ",
"                                ",
"                                ",
"                                "};