/* XPM */ 
static const char * const settop_xpm[] = {
"16 16 52 1",
" 	c None",
"!	c black",
"#	c #E50101",
"$	c #FFA8A8",
"%	c #DB0101",
"&	c #E30101",
"'	c #FF8D8D",
"(	c #FC9393",
")	c #C70101",
"*	c #DE0101",
"+	c #F98080",
",	c #E14F4F",
"-	c #DC5454",
".	c #A90000",
"0	c #FF9C9C",
"1	c #EC5D5D",
"2	c #D54343",
"3	c #E44C4C",
"4	c #EF5656",
"5	c #960000",
"6	c #E45A5A",
"7	c #A50000",
"8	c #9C0000",
"9	c #BF0000",
":	c #FF8E8E",
";	c #FC8686",
"<	c #F27676",
"=	c #990000",
">	c #B80000",
"?	c #FE9B9B",
"@	c #EE6060",
"A	c #DC4949",
"B	c #D54747",
"C	c #5B0000",
"D	c #B10000",
"E	c #EB7272",
"F	c #CE3636",
"G	c #D84141",
"H	c #C4C4C4",
"I	c #A80000",
"J	c #DC4B4B",
"K	c #E84F4F",
"L	c #010101",
"M	c #D7D7D7",
"N	c #030303",
"O	c #530202",
"P	c #A00000",
"Q	c #EE5555",
"R	c #950000",
"S	c #A7A7A7",
"T	c #040404",
"U	c #4C4C4C",
"                ",
"          #     ",
"         #$%    ",
"         &'()   ",
"         *+,-.  ",
"        #012345 ",
"   ###&%016785  ",
"   9$:;<16=     ",
"    >?@AB.      ",
"    CDEFG8      ",
"    !HIJK5      ",
"   LMNOPQR      ",
"   ST   =R      ",
"  U             ",
" T              ",
"                "};