/* XPM */
static const char *showsymbol_xpm[] = {
/* columns rows colors chars-per-pixel */
"16 15 25 1",
"% c Black",
": c #F7F7F7",
"2 c #3C3C3C",
"  c None",
"4 c #3D3D3D",
"& c #020202",
"1 c #3E3E3E",
"X c #282828",
"O c #030303",
", c #0B0B0B",
"- c #E4E4E4",
"o c #040404",
"@ c #222222",
"+ c #666666",
"$ c #141414",
"* c #505050",
"5 c #AAAAAA",
"= c #D7D7D7",
". c #E6E6E6",
"; c #2B2B2B",
"< c #3A3A3A",
"6 c #B2B2B2",
"3 c #3B3B3B",
"> c #686868",
"# c #868686",
/* pixels */
"                ",
"    .X%%%%%     ",
"    $%%% %      ",
"   =%%%% %      ",
"   -%%%% %      ",
"    ;%%% %      ",
"    :>;% %      ",
"       % %      ",
"       % %      ",
"       % %      ",
"       % %      ",
"       % %      ",
"       % %      ",
"       % %      ",
"                "
};
