/* XPM */ 
static char * showsymbol_xpm[] = {
"16 16 44 1",
" 	c None",
"!	c black",
"#	c #4BA1EB",
"$	c #70BAF1",
"%	c #70B8EF",
"&	c #70B7EF",
"'	c #4092E9",
"(	c #54AAED",
")	c #85C4F2",
"*	c #92C9F3",
"+	c #89C3F2",
",	c #4195E9",
"-	c #4091E9",
".	c #92C8F3",
"0	c #88C2F2",
"1	c #3F90E9",
"2	c #3F90E7",
"3	c #4196E9",
"4	c #7FBEF1",
"5	c #91C7F3",
"6	c #3F8EE7",
"7	c #3E8DE7",
"8	c #378AE6",
"9	c #71B5EF",
":	c #7EBBF1",
";	c #3E8DE6",
"<	c #3E8AE6",
"=	c #4896E9",
">	c #3D89E6",
"?	c #3D88E5",
"@	c #3E8CE6",
"A	c #3E89E6",
"B	c #3C86E5",
"C	c #3C85E5",
"D	c #3B84E5",
"E	c #3D86E5",
"F	c #3B81E5",
"G	c #3B80E5",
"H	c #3B83E5",
"I	c #3A7FE5",
"J	c #397FE5",
"K	c #3A80E5",
"L	c #397DE5",
"M	c #397DE3",
"                ",
"    #$%&&&'     ",
"   ()*+, '-     ",
"   %..0' 12     ",
"   3450- 67     ",
"    89:6 ;<     ",
"      =; >?     ",
"      @A ?B     ",
"      >? CD     ",
"      EC DF     ",
"      DD FG     ",
"      HF IJ     ",
"      GK LM     ",
"      HF IJ     ",
"      GK LM     ",
"                "};