/* XPM */
static const char *spellchecker_xpm[] = {
/* columns rows colors chars-per-pixel */
"16 15 15 1",
". c Black",
"o c #808080",
"- c #E04040",
"= c #E06040",
"X c #202040",
"+ c #A0A0A4",
"; c #C0A080",
"& c #E06080",
"% c #E08080",
"# c #404040",
"$ c #E0A080",
"* c #C0A0C0",
"  c #C0C0C0",
"O c #606040",
"@ c #606080",
/* pixels */
"                ",
"                ",
"  .X  ....o o.O.",
"  +.+  . @X X++.",
"  # #  ...+ .   ",
" +...+ . +X .   ",
" O@ @O . o. #@  ",
" .. ......o +X.O",
"    $$     %&   ",
" * &==&  =---=- ",
"*%--====-------%",
"%=--=&==--& ;=-%",
" &==  %&&$    % ",
"                ",
"                "
};
