/* XPM */ 
static const char * const spellchecker_xpm[] = {
"16 16 45 1",
" 	c None",
"!	c black",
"#	c #919191",
"$	c #8F8F8F",
"%	c #949494",
"&	c #8A8A8A",
"'	c #898989",
"(	c #8E8E8E",
")	c #8D8D8D",
"*	c #959595",
"+	c #808080",
",	c #858585",
"-	c #818181",
".	c #7E7E7E",
"0	c #7C7C7C",
"1	c #939393",
"2	c #9A9A9A",
"3	c #7A7A7A",
"4	c #969696",
"5	c #888888",
"6	c #838383",
"7	c #737373",
"8	c #878787",
"9	c #9F9F9F",
":	c #757575",
";	c #7B7B7B",
"<	c #9C9C9C",
"=	c #929292",
">	c #767676",
"?	c #848484",
"@	c #717171",
"A	c #6F6F6F",
"B	c #686868",
"C	c #616161",
"D	c #8B8B8B",
"E	c #6C6C6C",
"F	c #6E6E6E",
"G	c #636363",
"H	c #6D6D6D",
"I	c #5E5E5E",
"J	c #727272",
"K	c #BC4040",
"L	c #BC4343",
"M	c #BC4242",
"N	c #BC4141",
"                ",
"                ",
"                ",
"         #$%    ",
"          &'    ",
"  #()*'+  $,-.0 ",
"  1' -23 ,4.0(0 ",
"  56+0%7 .0  7+ ",
" 8-539.  0: ;*1 ",
" '0 7<= >?@ 7%. ",
"+#:A*.# @?@ *%0 ",
" BAC#DE FGHI'J  ",
" K   K   K   K  ",
"LMNKKKKKKKKNNMM ",
"   N   K   K   K",
"                "};