/* XPM */ 
static char * stop_xpm[] = {
"16 16 56 1",
" 	c None",
"!	c black",
"#	c #A8BAEF",
"$	c #A2B5ED",
"%	c #9FB2EC",
"&	c #9CAFEB",
"'	c #9AADEB",
"(	c #94A8E8",
")	c #92A7E7",
"*	c #889EE3",
"+	c #98ACEA",
",	c #ABBCF0",
"-	c #B1C1F2",
".	c #A8BAF0",
"0	c #A3B5ED",
"1	c #6580D7",
"2	c #A7B9EF",
"3	c #9EB1EC",
"4	c #99ADEB",
"5	c #93A8E8",
"6	c #8DA2E6",
"7	c #A6B9EF",
"8	c #8499E2",
"9	c #8097E1",
":	c #8AA1E5",
";	c #5A77D3",
"<	c #869DE3",
"=	c #7A93DF",
">	c #758EDD",
"?	c #8098E1",
"@	c #5270D0",
"A	c #7E95DF",
"B	c #9DB0EB",
"C	c #768FDD",
"D	c #728BDC",
"E	c #6D88DA",
"F	c #7B93DF",
"G	c #4A6ACD",
"H	c #9AAFEB",
"I	c #6884D8",
"J	c #6681D8",
"K	c #7992DE",
"L	c #4363CA",
"M	c #6F89DA",
"N	c #93A7E7",
"O	c #637FD7",
"P	c #5E7BD4",
"Q	c #718ADC",
"R	c #3F60C9",
"S	c #748DDD",
"T	c #6C86D9",
"U	c #6681D7",
"V	c #3C5DC8",
"W	c #3759C6",
"X	c #3658C5",
"Y	c #4968CD",
"                ",
"                ",
"                ",
"   #$$%&'())*   ",
"   +,,-,,.001   ",
"   +203456*61   ",
"   67456*89:;   ",
"   <%6*89=>?@   ",
"   AB89=CDEFG   ",
"   CH=>DEIJKL   ",
"   MNDEIJOPQR   ",
"   MSSSMTIUUR   ",
"   JLLRVWXXXY   ",
"                ",
"                ",
"                "};