/* XPM */ 
static const char * const syntax_xpm[] = {
"16 16 163 2",
"  	c None",
"! 	c black",
"# 	c #D4925E",
"$ 	c #D1905B",
"% 	c #CF8E58",
"& 	c #CC8C54",
"' 	c #D59360",
"( 	c #DCA376",
") 	c #E4B891",
"* 	c #ECCAA8",
"+ 	c #ECC7A5",
", 	c #E2B58D",
"- 	c #D29A68",
". 	c #C28349",
"0 	c #D79561",
"1 	c #D5935F",
"2 	c #E3B68E",
"3 	c #F3D7B9",
"4 	c #FBD55D",
"5 	c #FFD52A",
"6 	c #FBD141",
"7 	c #F2D2B3",
"8 	c #F1D0B1",
"9 	c #E2B892",
": 	c #CC9562",
"; 	c #B87B3D",
"< 	c #D69461",
"= 	c #E1AE85",
"> 	c #F9B25A",
"? 	c #FFA32B",
"@ 	c #FBA940",
"A 	c #FED330",
"B 	c #FFE26C",
"C 	c #FFD52B",
"D 	c #E8B07F",
"E 	c #E7AD7C",
"F 	c #EFCAA9",
"G 	c #EDC5A5",
"H 	c #B57737",
"I 	c #E1AF86",
"J 	c #FEA632",
"K 	c #FFBF6C",
"L 	c #F0BE66",
"M 	c #FBCE3A",
"N 	c #F1BE5A",
"O 	c #A0B352",
"P 	c #79B73B",
"Q 	c #90B347",
"R 	c #EEC8A7",
"S 	c #D6A577",
"T 	c #AE712F",
"U 	c #D2915C",
"V 	c #F5A492",
"W 	c #F65A59",
"X 	c #F48651",
"Y 	c #FBA63B",
"Z 	c #F2AB5C",
"[ 	c #E7AF7E",
"] 	c #E7AD7B",
"^ 	c #E6AA78",
"_ 	c #80B63F",
"` 	c #97C860",
"a 	c #7AB73B",
"b 	c #E7AC7D",
"c 	c #E3B58F",
"d 	c #AA6E2A",
"e 	c #E5B992",
"f 	c #F6746E",
"g 	c #F58481",
"h 	c #F04040",
"i 	c #EBBB90",
"j 	c #F0CDAE",
"k 	c #F0CCAC",
"l 	c #F0CAAA",
"m 	c #E9B285",
"n 	c #C1A95E",
"o 	c #8DB344",
"p 	c #B6A856",
"q 	c #E4A170",
"r 	c #E8BA97",
"s 	c #A66A25",
"t 	c #CE8D57",
"u 	c #EDC9A8",
"v 	c #EDA784",
"w 	c #ED6A58",
"x 	c #E98E6A",
"y 	c #F0CDAD",
"z 	c #D29D6D",
"{ 	c #B97C3E",
"| 	c #CE9967",
"} 	c #EEC5A5",
"~ 	c #699A95",
" !	c #2697AD",
"!!	c #4D979D",
"#!	c #E29B66",
"$!	c #EABB98",
"%!	c #A26721",
"&!	c #CB8A52",
"'!	c #F0CFB0",
"(!	c #ECBF98",
")!	c #E7AE7E",
"*!	c #EFCAAA",
"+!	c #B37635",
",!	c #EDC3A2",
"-!	c #3197A8",
".!	c #5AB5C4",
"0!	c #2697AC",
"1!	c #DF935B",
"2!	c #EBBB98",
"3!	c #9F641C",
"4!	c #C7874E",
"5!	c #CF9764",
"6!	c #D9A87B",
"7!	c #E2B48D",
"8!	c #EDC4A3",
"9!	c #EEC7A7",
":!	c #CD9764",
";!	c #B27534",
"<!	c #C9935F",
"=!	c #EDC09F",
">!	c #A39678",
"?!	c #48969E",
"@!	c #91947C",
"A!	c #E9B38D",
"B!	c #D8A579",
"C!	c #9C6118",
"D!	c #BC7E41",
"E!	c #B7793A",
"F!	c #D7A476",
"G!	c #EDC2A1",
"H!	c #EDBF9D",
"I!	c #E4A374",
"J!	c #DF925A",
"K!	c #DE9058",
"L!	c #E6A77B",
"M!	c #E8B692",
"N!	c #B77F43",
"O!	c #995F14",
"P!	c #B07331",
"Q!	c #ECBF9D",
"R!	c #E29C69",
"S!	c #DF9158",
"T!	c #E0945F",
"U!	c #EAB895",
"V!	c #E1AD86",
"W!	c #BB8349",
"X!	c #985E13",
"Y!	c #AC6F2C",
"Z!	c #D19D6D",
"[!	c #EBBC99",
"]!	c #E3A071",
"^!	c #EAB996",
"_!	c #EAB894",
"`!	c #CA9360",
"a!	c #995F15",
"b!	c #975D13",
"c!	c #A56A24",
"d!	c #DCA87E",
"e!	c #C9925F",
"f!	c #AB7230",
"g!	c #A26620",
"h!	c #9D6219",
"i!	c #9A6016",
"              # $ % &           ",
"          ' ( ) * + , - .       ",
"      0 1 2 3 4 5 6 7 8 9 : ;   ",
"    < = > ? @ A B C D E F G H   ",
"  ' I 3 J K ? L M N O P Q R S T ",
"  U V W X Y Z [ ] ^ _ ` a b c d ",
"$ e f g h i j k l m n o p q r s ",
"t u v w x y z { | } ~  !!!#!$!%!",
"&!j '!(!)!*!;   +!,!-!.!0!1!2!3!",
"4!5!6!7!8!9!:!;!<!=!>!?!@!A!B!C!",
"    D!{ E!F!G!=!H!I!J!K!L!M!N!O!",
"          P!Q!R!1!S!T!U!V!W!X!  ",
"          Y!Z![!]!^!_!`!a!b!    ",
"            c!V!d!e!f!O!        ",
"            g!3!h!i!            ",
"                                "};