/* XPM */ 
static char * syntax_xpm[] = {
"16 16 120 2",
"  	c None",
"! 	c black",
"# 	c #65A9E2",
"$ 	c #7DBBE8",
"% 	c #95C5EB",
"& 	c #8FC1EA",
"' 	c #7EB8E7",
"( 	c #61A2E0",
") 	c #7DC7EC",
"* 	c #C5E5F6",
"+ 	c #C4E3F6",
", 	c #4098DD",
"- 	c #2E8FD9",
". 	c #A1D4F0",
"0 	c #3A93DB",
"1 	c #6CB4E6",
"2 	c #3888D7",
"3 	c #1F7FD4",
"4 	c #B0D9F3",
"5 	c #2A7DD4",
"6 	c #79B7E7",
"7 	c #458FD9",
"8 	c #2882DA",
"9 	c #368CDE",
": 	c #3388DD",
"; 	c #3384DC",
"< 	c #3584DA",
"= 	c #2874D6",
"> 	c #73B8E8",
"? 	c #98CBEE",
"@ 	c #93C0EB",
"A 	c #4E93DB",
"B 	c #2277D9",
"C 	c #4B9DE3",
"D 	c #6AB0E8",
"E 	c #68ABE8",
"F 	c #2B74D8",
"G 	c #165CD0",
"H 	c #3183D5",
"I 	c #B2D7F2",
"J 	c #9DC9EE",
"K 	c #8FBFEA",
"L 	c #97C0EB",
"M 	c #BFD9F2",
"N 	c #5C99DD",
"O 	c #2E7FDA",
"P 	c #4F9DE2",
"Q 	c #418CDD",
"R 	c #60A5E4",
"S 	c #175ACF",
"T 	c #1B68CC",
"U 	c #A3CCEE",
"V 	c #4D95DC",
"W 	c #1854C4",
"X 	c #1750C2",
"Y 	c #164DC0",
"Z 	c #94BBE8",
"[ 	c #639ADD",
"] 	c #185FCD",
"^ 	c #5BA3E5",
"_ 	c #3C85DD",
"` 	c #579CE3",
"a 	c #1B59CF",
"b 	c #6AABE3",
"c 	c #91BFEA",
"d 	c #6197DC",
"e 	c #6799DE",
"f 	c #4592DF",
"g 	c #458FDE",
"h 	c #1556CD",
"i 	c #5898E1",
"j 	c #2460D0",
"k 	c #87B8E7",
"l 	c #95C0EA",
"m 	c #82B4E6",
"n 	c #6297DB",
"o 	c #528BD8",
"p 	c #A5C1EC",
"q 	c #5A91DE",
"r 	c #60A3E4",
"s 	c #1557CD",
"t 	c #5694DF",
"u 	c #2A62D0",
"v 	c #5A9EE3",
"w 	c #62A1E4",
"x 	c #5B9BE1",
"y 	c #4C8DDE",
"z 	c #5692DE",
"{ 	c #639CE1",
"| 	c #295DD0",
"} 	c #3A7ED9",
"~ 	c #498CDD",
" !	c #1D59CF",
"!!	c #134FC9",
"#!	c #134DC8",
"$!	c #2659CF",
"%!	c #6298E0",
"&!	c #2D5ECF",
"'!	c #286AD2",
"(!	c #5F9DE2",
")!	c #1552C9",
"*!	c #1148C3",
"+!	c #4378D8",
",!	c #2D5ACF",
"-!	c #1454CC",
".!	c #4685DC",
"0!	c #4785DC",
"1!	c #1045C2",
"2!	c #4578D6",
"3!	c #3C6BD2",
"4!	c #0E41BF",
"5!	c #4688DD",
"6!	c #4C8DDD",
"7!	c #4C8BDC",
"8!	c #4B87DC",
"9!	c #3165D1",
":!	c #3563D1",
";!	c #497BD8",
"<!	c #497AD8",
"=!	c #4676D6",
"                                ",
"        # $ % & ' (             ",
"          ) * + ,               ",
"        - . 0 1 2               ",
"      3 4 5   6 7   8 9 : ; < = ",
"      > ?     @ A   B C D E F G ",
"    H I J K L M N   O P Q R S   ",
"  T U V W X Y Z [ ] ^ _   ` a   ",
"  b c         d e f g   h i j   ",
"k l m n     o p q r s     t u   ",
"              G v w x y z { |   ",
"              } ~  !!!#!$!%!&!  ",
"            '!(!)!      *!+!,!  ",
"          -!.!0!#!      1!2!3!4!",
"        5!6!7!8!9!    :!;!;!<!=!",
"                                "};