/* XPM */ 
static char * tchinese_xpm[] = {
"16 16 89 1",
" 	c None",
"!	c black",
"#	c #7C7C7C",
"$	c #9B9B9B",
"%	c #AEAEAE",
"&	c #CECECE",
"'	c #9E9E9E",
"(	c #272727",
")	c #8C8C8C",
"*	c #C1C1C1",
"+	c #444444",
",	c #838383",
"-	c #9A9A9A",
".	c #CACACA",
"0	c #E6E6E6",
"1	c #373737",
"2	c #797979",
"3	c #8E8E8E",
"4	c #A8A8A8",
"5	c #555555",
"6	c #737373",
"7	c #949494",
"8	c #3F3F3F",
"9	c #878787",
":	c #B0B0B0",
";	c #E3E3E3",
"<	c #CFCFCF",
"=	c #C6C6C6",
">	c #7F7F7F",
"?	c #A4A4A4",
"@	c #525252",
"A	c #AAAAAA",
"B	c #B3B3B3",
"C	c #929292",
"D	c #898989",
"E	c #2E2E2E",
"F	c #A0A0A0",
"G	c #ECECEC",
"H	c #EEEEEE",
"I	c #404040",
"J	c #232323",
"K	c #ADADAD",
"L	c #626262",
"M	c #717171",
"N	c #616161",
"O	c #222222",
"P	c #DDDDDD",
"Q	c #E7E7E7",
"R	c #8F8F8F",
"S	c #424242",
"T	c #B4B4B4",
"U	c #B7B7B7",
"V	c #D6D6D6",
"W	c #E1E1E1",
"X	c #848484",
"Y	c #8D8D8D",
"Z	c #919191",
"[	c #6B6B6B",
"]	c #DADADA",
"^	c #C9C9C9",
"_	c #5C5C5C",
"`	c #D0D0D0",
"a	c #CCCCCC",
"b	c #DCDCDC",
"c	c #E5E5E5",
"d	c #606060",
"e	c #666666",
"f	c #9D9D9D",
"g	c #888888",
"h	c #4D4D4D",
"i	c #B1B1B1",
"j	c #7B7B7B",
"k	c #181818",
"l	c #464646",
"m	c #7A7A7A",
"n	c #484848",
"o	c #B2B2B2",
"p	c #ABABAB",
"q	c #7D7D7D",
"r	c #C2C2C2",
"s	c #A2A2A2",
"t	c #CBCBCB",
"u	c #212121",
"v	c #A9A9A9",
"w	c #414141",
"x	c #121212",
"y	c #363636",
"z	c #BCBCBC",
"{	c #1F1F1F",
"                ",
"       #  $%    ",
"  &  $'()*+,-.  ",
" 012 3456789:;  ",
"   <  =>?@AB    ",
"      )CDE$6F   ",
" GH   I7?JKLM   ",
" NOP  QFRSTU    ",
"  V;  WXY1Z[    ",
"       ]^_`ab   ",
"   c'defghij1klb",
"  mnop  q`rb sY ",
" tu`  vw$ rx,   ",
"     oyz   :{r  ",
"                ",
"                "};