/* XPM */ 
static char * textmode_xpm[] = {
"16 16 199 2",
"  	c None",
"! 	c black",
"# 	c #437CC0",
"$ 	c #4C8AC8",
"% 	c #4E8BC8",
"& 	c #4E8CC8",
"' 	c #4E8BC9",
"( 	c #4E8AC7",
") 	c #4A88C4",
"* 	c #3A75C3",
"+ 	c #4884C3",
", 	c #ECF2F7",
"- 	c #EEF4F8",
". 	c #EDF4F8",
"0 	c #EDF3F8",
"1 	c #ECF2F8",
"2 	c #D7E6F2",
"3 	c #7CB1E2",
"4 	c #6493DB",
"5 	c #4A87C4",
"6 	c #F2F6FA",
"7 	c #C7E0FA",
"8 	c #C9E1FB",
"9 	c #C9E2FB",
": 	c #C8E0FB",
"; 	c #C4DFF9",
"< 	c #C0DBF8",
"= 	c #B7D6F4",
"> 	c #F8FBFF",
"? 	c #C1CBB5",
"@ 	c #D8A457",
"A 	c #DBB084",
"B 	c #D09C45",
"C 	c #D1942A",
"D 	c #4B88C5",
"E 	c #F1F5F9",
"F 	c #CDE3FC",
"G 	c #CEE3FB",
"H 	c #CDE3FB",
"I 	c #CBE2FB",
"J 	c #C8E0F9",
"K 	c #C1DCF8",
"L 	c #B9D6F5",
"M 	c #F1E3AE",
"N 	c #E7BD76",
"O 	c #F0D2B3",
"P 	c #FFF3E5",
"Q 	c #EFD2AB",
"R 	c #C78B47",
"S 	c #4A88C5",
"T 	c #CFE3FC",
"U 	c #D0E4FB",
"V 	c #CFE4FC",
"W 	c #CAE1FA",
"X 	c #C3DDF9",
"Y 	c #C9CDAE",
"Z 	c #EED580",
"[ 	c #F9E3B1",
"] 	c #E7BF8A",
"^ 	c #F6D3AD",
"_ 	c #FCE0C3",
"` 	c #D39E65",
"a 	c #F0F4F9",
"b 	c #D3E6FC",
"c 	c #D4E6FC",
"d 	c #D3E7FD",
"e 	c #D1E4FC",
"f 	c #D0D4BD",
"g 	c #EED47C",
"h 	c #FDF6C3",
"i 	c #F6DD6B",
"j 	c #EDCA6C",
"k 	c #D7A262",
"l 	c #C89863",
"m 	c #4987C5",
"n 	c #EFF4F9",
"o 	c #D7E7FE",
"p 	c #D6E7FD",
"q 	c #D5E7FD",
"r 	c #D4E6FD",
"s 	c #D5D6BC",
"t 	c #EED378",
"u 	c #FDF7C7",
"v 	c #F5DC5E",
"w 	c #F7E25A",
"x 	c #F2D679",
"y 	c #E0A050",
"z 	c #5F84AC",
"{ 	c #4887C5",
"| 	c #EDF4F9",
"} 	c #D8E8FE",
"~ 	c #D7E8FE",
" !	c #CCC5AF",
"!!	c #E7CB76",
"#!	c #F5DC5D",
"$!	c #F7E159",
"%!	c #F1D47A",
"&!	c #DB984A",
"'!	c #E9DFD2",
"(!	c #4481C5",
")!	c #4683C5",
"*!	c #ECF3F9",
"+!	c #D6E8FE",
",!	c #CCC5B2",
"-!	c #D6B875",
".!	c #FDF6C1",
"0!	c #F7DF62",
"1!	c #F8E25C",
"2!	c #F0D378",
"3!	c #DA9748",
"4!	c #C8D5E2",
"5!	c #EAF2FA",
"6!	c #417FC5",
"7!	c #4481C4",
"8!	c #EBF2F8",
"9!	c #D6E7FE",
":!	c #BEB5A5",
";!	c #D5B579",
"<!	c #D1B68F",
"=!	c #E4C954",
">!	c #F5DF5A",
"?!	c #EDD077",
"@!	c #D99A50",
"A!	c #CDD6E1",
"B!	c #F2F7FB",
"C!	c #3E7BC4",
"D!	c #417FC4",
"E!	c #E8F1F8",
"F!	c #D5E5FE",
"G!	c #A98842",
"H!	c #FFF2E0",
"I!	c #D89953",
"J!	c #BD7919",
"K!	c #C49748",
"L!	c #C18B47",
"M!	c #CDD2DA",
"N!	c #C9E0FB",
"O!	c #C8E1FB",
"P!	c #F7FAFD",
"Q!	c #3A75C0",
"R!	c #3F7BC3",
"S!	c #E6F0F7",
"T!	c #54B3F8",
"U!	c #81652D",
"V!	c #F9C793",
"W!	c #F9C990",
"X!	c #C98440",
"Y!	c #A56725",
"Z!	c #64A7D2",
"[!	c #50B1F7",
"]!	c #4EB1F7",
"^!	c #F5F9FC",
"_!	c #356EBE",
"`!	c #3B77C0",
"a!	c #E3EDF7",
"b!	c #6DC1FD",
"c!	c #564117",
"d!	c #86602A",
"e!	c #BB884B",
"f!	c #B29E6F",
"g!	c #99C9E3",
"h!	c #94D6FF",
"i!	c #93D5FF",
"j!	c #92D4FF",
"k!	c #64BDFB",
"l!	c #F4F7FB",
"m!	c #3066BA",
"n!	c #3770BE",
"o!	c #DFEBF5",
"p!	c #67BEFD",
"q!	c #66BCFC",
"r!	c #63BDFC",
"s!	c #61BCFC",
"t!	c #62BCFB",
"u!	c #60BBFB",
"v!	c #5FBDFC",
"w!	c #61BBFC",
"x!	c #F8FBFD",
"y!	c #2C63B8",
"z!	c #3268BB",
"{!	c #EAF1F8",
"|!	c #DFECF7",
"}!	c #DEEBF6",
"~!	c #DEEAF6",
" #	c #DCEAF6",
"!#	c #EBF3FA",
"##	c #F3F7FC",
"$#	c #F4F8FC",
"%#	c #FDFEFE",
"&#	c #295FB6",
"'#	c #3369BA",
"(#	c #2F64B9",
")#	c #3065BA",
"*#	c #2F65B9",
"+#	c #2E64B9",
",#	c #2D64B8",
"-#	c #2D63B8",
".#	c #2B61B6",
"0#	c #2D61B6",
"  # $ % % % % & ' ( ) *         ",
"  + , - . 0 0 0 1 , 2 3 4       ",
"  5 6 7 8 9 : ; < = > ? @ A B C ",
"  D E F G H I J K L M N O P Q R ",
"  S E T U V F W X Y Z [ ] ^ _ ` ",
"  S a b c d e H f g h i j k l   ",
"  m n o p q r s t u v w x y z   ",
"  { | } } ~  !!!u #!$!%!&!'!(!  ",
"  )!*!+!~ ,!-!.!0!1!2!3!4!5!6!  ",
"  7!8!9!:!;!<!=!>!?!@!A!8 B!C!  ",
"  D!E!F!G!H!I!J!K!L!M!N!O!P!Q!  ",
"  R!S!T!U!V!W!X!Y!Z![!]!]!^!_!  ",
"  `!a!b!c!d!e!f!g!h!i!j!k!l!m!  ",
"  n!o!p!q!k!r!r!s!t!u!v!w!x!y!  ",
"  z!{!|!}!~! # #!#!#5!##$#%#&#  ",
"  '#(#)#*#*#*#(#+#,#,#-#-#.#0#  "};