/* XPM */ 
static const char * const togglewin_xpm[] = {
"16 16 124 2",
"  	c None",
"! 	c black",
"# 	c #6188BA",
"$ 	c #A4C1E4",
"% 	c #94B9E3",
"& 	c #87AED8",
"' 	c #85AAD6",
"( 	c #80A8D4",
") 	c #8FACCF",
"* 	c #5E83B7",
"+ 	c #9EBCE2",
", 	c #8CB3E1",
"- 	c #89B1E1",
". 	c #7BA1D1",
"0 	c #769ECE",
"1 	c #83A1C9",
"2 	c #5577AE",
"3 	c #9EBDE4",
"4 	c #A8C8ED",
"5 	c #A7C7ED",
"6 	c #A6C5EC",
"7 	c #A4C4EC",
"8 	c #A3C3EC",
"9 	c #96B7E2",
": 	c #A0C2EB",
"; 	c #9EC0EB",
"< 	c #9CBFEA",
"= 	c #9BBEEA",
"> 	c #99BDEA",
"? 	c #97BCE9",
"@ 	c #7293C2",
"A 	c #94B8E3",
"B 	c #93B8E3",
"C 	c #92B7E3",
"D 	c #90B6E2",
"E 	c #8FB5E2",
"F 	c #8DB4E2",
"G 	c #8BB2E1",
"H 	c #89B1E0",
"I 	c #88B0E0",
"J 	c #86AEDF",
"K 	c #84ADDF",
"L 	c #81ABDE",
"M 	c #7FAADD",
"N 	c #7DA8DD",
"O 	c #668BBF",
"P 	c #91B5E2",
"Q 	c white",
"R 	c #85ACDF",
"S 	c #6083BA",
"T 	c #8EB3E0",
"U 	c #81A9DC",
"V 	c #5A7EB5",
"W 	c #8BB0DE",
"X 	c #7DA5DA",
"Y 	c #5576B0",
"Z 	c #85ACDB",
"[ 	c #77A0D6",
"] 	c #516FAC",
"^ 	c #81A8D9",
"_ 	c #729CD3",
"` 	c #4D6AA7",
"a 	c #7BA3D5",
"b 	c #FCFEFE",
"c 	c #F4F6F6",
"d 	c #B7B9B9",
"e 	c #8C8C8C",
"f 	c #9D9D9D",
"g 	c #8A8A8A",
"h 	c #DBDCDC",
"i 	c #EAEDEE",
"j 	c #8B8C8C",
"k 	c #4966A3",
"l 	c #749CCF",
"m 	c #F8FAFA",
"n 	c #9C9D9D",
"o 	c #909090",
"p 	c #E8E8E8",
"q 	c #DDDDDD",
"r 	c #C0C0C0",
"s 	c #989999",
"t 	c #DADADA",
"u 	c #C3C3C3",
"v 	c #445F9C",
"w 	c #7096CB",
"x 	c #BEBFBF",
"y 	c #7A7A7A",
"z 	c #CED3D3",
"{ 	c #868787",
"| 	c #4C4C4C",
"} 	c #646464",
"~ 	c #919191",
" !	c #787878",
"!!	c #878787",
"#!	c #425C98",
"$!	c #6A90C8",
"%!	c #8F8F8F",
"&!	c #858585",
"'!	c #F8F8F8",
"(!	c #474747",
")!	c #BCBCBC",
"*!	c #CECECE",
"+!	c #C1C1C1",
",!	c #ACACAC",
"-!	c #818181",
".!	c #3F5996",
"0!	c #4D6CA5",
"1!	c #4C6281",
"2!	c #66686B",
"3!	c #545D6C",
"4!	c #404142",
"5!	c #454545",
"6!	c #505050",
"7!	c #515A69",
"8!	c #3F5896",
"9!	c #A9A9A9",
":!	c #ADADAD",
";!	c #969696",
"<!	c #707070",
"=!	c #777777",
">!	c #494949",
"?!	c #636363",
"@!	c #6A6A6A",
"A!	c #565656",
"                                ",
"# $ % & ' ( ) * + , - . 0 1 2   ",
"3 4 5 5 6 7 8 9 : ; < = > ? @   ",
"A B C D E F G H I J K L M N O   ",
"P Q Q Q Q Q Q R Q Q Q Q Q Q S   ",
"T Q Q Q Q Q Q U Q Q Q Q Q Q V   ",
"W Q Q Q Q Q Q X Q Q Q Q Q Q Y   ",
"Z Q Q Q Q Q Q [ Q Q Q Q Q Q ]   ",
"^ Q Q Q Q Q Q _ Q Q Q Q Q Q `   ",
"a b c d e f g h i j f e Q Q k   ",
"l m n o p q r o s t q u o m v   ",
"w x y z { | } ~  !} | !!y x #!  ",
"$!%!&!z '!(!)!*!+!,!(!'!&!-!.!  ",
"0!1!2!z 3!4!5!6!6!5!4!7!2!1!8!  ",
"    | e 9!:!;!<!=!;!:!9!|       ",
"      >!?!@!@!A!  @!@!?!>!      "};