/* XPM */ 
static const char * const tolowercase_xpm[] = {
"16 16 112 2",
"  	c None",
"! 	c black",
"# 	c #72A6E0",
"$ 	c #6DA5E2",
"% 	c #699EE0",
"& 	c #6497D8",
"' 	c #6CA5E6",
"( 	c #88AFE2",
") 	c #77AAE8",
"* 	c #5C98E3",
"+ 	c #6498DA",
", 	c #5F97DF",
"- 	c #66A1EB",
". 	c #619BE2",
"0 	c #5C8FD7",
"1 	c #5693E5",
"2 	c #4D8AE2",
"3 	c #5F9DE8",
"4 	c #6796D6",
"5 	c #5484CF",
"6 	c #5893E2",
"7 	c #4786E0",
"8 	c #6091D8",
"9 	c #6FBF64",
": 	c #5DA788",
"; 	c #4282DD",
"< 	c #5997E5",
"= 	c #5491E2",
"> 	c #5084D5",
"? 	c #6FC063",
"@ 	c #8FCB87",
"A 	c #8AC582",
"B 	c #509980",
"C 	c #479058",
"D 	c #4291E2",
"E 	c #3F8FE2",
"F 	c #3B8CE2",
"G 	c #398AE2",
"H 	c #3886E1",
"I 	c #69B95E",
"J 	c #87C47F",
"K 	c #B5DCAF",
"L 	c #7BB774",
"M 	c #45908D",
"N 	c #4995E4",
"O 	c #60A2E8",
"P 	c #3B8AE2",
"Q 	c #5B9DE6",
"R 	c #6EA8E9",
"S 	c #5598E4",
"T 	c #2F81DF",
"U 	c #59A650",
"V 	c #79B570",
"W 	c #8FC4B5",
"X 	c #549AE6",
"Y 	c #64A3E8",
"Z 	c #3888E2",
"[ 	c #3483DF",
"] 	c #609EE6",
"^ 	c #5797E5",
"_ 	c #297ADD",
"` 	c #489040",
"a 	c #71B1BB",
"b 	c #5D9FE8",
"c 	c #3681BC",
"d 	c #2D7DDF",
"e 	c #609DE6",
"f 	c #4D91E1",
"g 	c #2476DB",
"h 	c #3E8438",
"i 	c #367930",
"j 	c #31797E",
"k 	c #2D7894",
"l 	c #2B7DDF",
"m 	c #4F91E3",
"n 	c #85B2EB",
"o 	c #2776DC",
"p 	c #5597E5",
"q 	c #5294E5",
"r 	c #2676DB",
"s 	c #629CE6",
"t 	c #6CA3E8",
"u 	c #1D6FD9",
"v 	c #3081DF",
"w 	c #5898E6",
"x 	c #5496E4",
"y 	c #277ADB",
"z 	c #2073DB",
"{ 	c #4B8BE1",
"| 	c #488AE1",
"} 	c #1A6BD8",
"~ 	c #438CE2",
" !	c #87B4EC",
"!!	c #2B79DC",
"#!	c #70A3E6",
"$!	c #3379DC",
"%!	c #4B8EE1",
"&!	c #82B0EB",
"'!	c #4D90E3",
"(!	c #2272DA",
")!	c #2773DA",
"*!	c #4787E0",
"+!	c #6FA1E7",
",!	c #5B92E3",
"-!	c #3274DB",
".!	c #1E6FD9",
"0!	c #1B6DD9",
"1!	c #1968D8",
"2!	c #1966D8",
"3!	c #1964D6",
"4!	c #1961D6",
"5!	c #1861D4",
"        # $ % &                 ",
"        ' ( ) *                 ",
"        + , -                   ",
"      . 0   1 2                 ",
"    3 4 5   6 7                 ",
"    8     9 : ;                 ",
"< = >   ? @ A B   C D E F G H   ",
"        I J K L M N O P Q R S T ",
"          U V W X Y Z   [ ] ^ _ ",
"            ` a b c     d e f g ",
"          ` h i j k T l m n o   ",
"              [ p q _ r s t u   ",
"            v w x y   z { | }   ",
"            ~  !!!    u #!$!    ",
"          _ %!&!'!(!)!*!+!,!-!  ",
"            z .!0!} 1!2!3!4!5!  "};