/* XPM */ 
static const char * const touppercase_xpm[] = {
"16 16 116 2",
"  	c None",
"! 	c black",
"# 	c #4696E6",
"$ 	c #4493E4",
"% 	c #4392E3",
"& 	c #5199E6",
"' 	c #428DE2",
"( 	c #3083DF",
") 	c #4D97E6",
"* 	c #3F8DE2",
"+ 	c #3484DF",
", 	c #5F9EE6",
"- 	c #297ADD",
". 	c #3B8CE2",
"0 	c #3886E1",
"1 	c #2D7DDF",
"2 	c #5897E4",
"3 	c #2273DB",
"4 	c #398AE2",
"5 	c #408BE1",
"6 	c #6BA2E7",
"7 	c #3980DE",
"8 	c #418DE1",
"9 	c #5CA991",
": 	c #50A084",
"; 	c #5494E4",
"< 	c #2476DB",
"= 	c #1E6FDB",
"> 	c #52A38B",
"? 	c #8FCB87",
"@ 	c #8AC582",
"A 	c #519E60",
"B 	c #489040",
"C 	c #77ABE6",
"D 	c #76A9E5",
"E 	c #75A8E7",
"F 	c #73A8E6",
"G 	c #70A5E5",
"H 	c #6FA1E2",
"I 	c #1D6FD9",
"J 	c #1A6AD8",
"K 	c #519F83",
"L 	c #87C47F",
"M 	c #B5DCAF",
"N 	c #7BB774",
"O 	c #3E8438",
"P 	c #75A8E5",
"Q 	c #73A7E5",
"R 	c #91BAEA",
"S 	c #92B9E9",
"T 	c #88B3E7",
"U 	c #6B9DE0",
"V 	c #59A650",
"W 	c #79B570",
"X 	c #ACD8A5",
"Y 	c #A4D39D",
"Z 	c #367930",
"[ 	c #6FA5E5",
"] 	c #6EA1E3",
"^ 	c #94BBEE",
"_ 	c #74A8EA",
"` 	c #A1D29A",
"a 	c #9CD094",
"b 	c #2E6F29",
"c 	c #6FA5E7",
"d 	c #6CA0E2",
"e 	c #699EE2",
"f 	c #86B3ED",
"g 	c #71A5E9",
"h 	c #498585",
"i 	c #7BA9E4",
"j 	c #689BDF",
"k 	c #67A0E7",
"l 	c #78A9EA",
"m 	c #75A7E9",
"n 	c #6099E6",
"o 	c #71A3E5",
"p 	c #679ADF",
"q 	c #659BE5",
"r 	c #639BE7",
"s 	c #72A5E9",
"t 	c #71A4E8",
"u 	c #5C94E5",
"v 	c #68A0E6",
"w 	c #7FA9E3",
"x 	c #6394DC",
"y 	c #5C96E5",
"z 	c #75A5E9",
"{ 	c #5992E3",
"| 	c #78A4E1",
"} 	c #6193DC",
"~ 	c #6090DB",
" !	c #5D8FDA",
"!!	c #5A8CD8",
"#!	c #6B99DF",
"$!	c #78A6E9",
"%!	c #558FE3",
"&!	c #659DE7",
"'!	c #74A4E5",
"(!	c #6797DD",
")!	c #568FE3",
"*!	c #79A6E9",
"+!	c #538CE2",
",!	c #72A4E8",
"-!	c #5E90DB",
".!	c #5C8FDC",
"0!	c #6799E5",
"1!	c #82ACEA",
"2!	c #5D93E4",
"3!	c #619AE6",
"4!	c #5D96E5",
"5!	c #5A93E2",
"6!	c #538EE3",
"7!	c #528CE2",
"8!	c #508BE2",
"9!	c #4F89E2",
"  # $ % & ' (                   ",
"  ) *   + , -                   ",
"  . 0 ( 1 2 3                   ",
"4 + 5 - 6 7                     ",
"8 1   3 9 :                     ",
"; < = > ? @ A   B C D E F G H   ",
"3 I J K L M N B O P Q R S T U   ",
"        V W X Y Z   [ ] ^ _     ",
"          B ` a b c d e f g     ",
"        B O Z b h i j k l m n   ",
"                o p q r s t u   ",
"              v w x     y z {   ",
"            k | } ~  !!!#!$!%!  ",
"          &!'!(!        )!*!+!  ",
"        r ,!-!.!      %!0!1!2!  ",
"      3!n 4!5!{     6!7!8!9!9!9!"};