/* XPM */ 
static const char * const undo_xpm[] = {
"16 16 117 2",
"  	c None",
"! 	c black",
"# 	c #71C365",
"$ 	c #6FC163",
"% 	c #6DBE61",
"& 	c #6ABB5F",
"' 	c #67B75C",
"( 	c #64B45A",
") 	c #61B057",
"* 	c #5EAB54",
"+ 	c #5AA751",
", 	c #57A24E",
"- 	c #6FC063",
". 	c #AFDBA5",
"0 	c #AEDAA5",
"1 	c #ACD9A2",
"2 	c #AAD8A1",
"3 	c #A7D79E",
"4 	c #A4D59B",
"5 	c #9CD093",
"6 	c #8BC482",
"7 	c #73B36B",
"8 	c #4F9846",
"9 	c #6CBD61",
": 	c #ADDAA4",
"; 	c #ABD8A1",
"< 	c #A9D8A0",
"= 	c #A6D69D",
"> 	c #A1D498",
"? 	c #9ED296",
"@ 	c #94CD8B",
"A 	c #98CF90",
"B 	c #7AB772",
"C 	c #468E3F",
"D 	c #69B95E",
"E 	c #66B55B",
"F 	c #63B258",
"G 	c #5FAD55",
"H 	c #5CA952",
"I 	c #58A54F",
"J 	c #55A04C",
"K 	c #6FB067",
"L 	c #8FC887",
"M 	c #94CC8C",
"N 	c #91CB8A",
"O 	c #63A45C",
"P 	c #3E8437",
"Q 	c #4D9645",
"R 	c #499141",
"S 	c #87C280",
"T 	c #84C37C",
"U 	c #74B26D",
"V 	c #3A7E34",
"W 	c #448C3D",
"X 	c #6AAA63",
"Y 	c #85C37E",
"Z 	c #80BD78",
"[ 	c #357930",
"] 	c #408639",
"^ 	c #66A760",
"_ 	c #81C17A",
"` 	c #7BBB75",
"a 	c #31742C",
"b 	c #56A24D",
"c 	c #529D4A",
"d 	c #3F8539",
"e 	c #3B8035",
"f 	c #7ABA74",
"g 	c #76BC6F",
"h 	c #68AA62",
"i 	c #2D6F29",
"j 	c #55A14C",
"k 	c #6EB066",
"l 	c #6AAC63",
"m 	c #4A9342",
"n 	c #42893B",
"o 	c #3F8438",
"p 	c #599C53",
"q 	c #79B973",
"r 	c #7EC078",
"s 	c #7CBE76",
"t 	c #4E9049",
"u 	c #2A6A25",
"v 	c #6DAF65",
"w 	c #91CA89",
"x 	c #8FCA88",
"y 	c #8CC885",
"z 	c #89C582",
"{ 	c #86C47F",
"| 	c #83C27D",
"} 	c #80C17A",
"~ 	c #73BA6C",
" !	c #7BBD75",
"!!	c #5C9F58",
"#!	c #296A25",
"$!	c #509B48",
"%!	c #69AB61",
"&!	c #8CC884",
"'!	c #8AC784",
"(!	c #87C581",
")!	c #81C17B",
"*!	c #7FC078",
"+!	c #77B870",
",!	c #64A75E",
"-!	c #4D9048",
".!	c #296924",
"0!	c #489041",
"1!	c #61A359",
"2!	c #5DA057",
"3!	c #3D8236",
"4!	c #397D33",
"5!	c #32742D",
"6!	c #2E702A",
"7!	c #2B6C27",
"8!	c #286824",
"9!	c #3C8136",
":!	c #387C32",
"                                ",
"                                ",
"    # $ % & ' ( ) * + ,         ",
"    - . 0 1 2 3 4 5 6 7 8       ",
"    9 : ; < = 4 > ? @ A B C     ",
"    D E F G H I J K L M N O P   ",
"                  Q R S T U V   ",
"                    W X Y Z [   ",
"        ,           ] ^ _ ` a   ",
"      b c         d e f g h i   ",
"    j k l m C n o p q r s t u   ",
"  J v w x y z { | } ~  !!!#!    ",
"  $!%!&!'!(!Y )!*!+!,!-!.!      ",
"    0!1!2!3!4![ 5!6!7!8!        ",
"      ] 9!                      ",
"        :!                      "};