/* XPM */
static char * up_xpm[] = {
"16 16 3 1",
" 	c None",
".	c Black",
"X	c #9c9c9c",
"                ",
"       ..       ",
"      .XX.      ",
"     .XXXX.     ",
"    .XXXXXX.    ",
"   .XXXXXXXX.   ",
"  ....XXXX....  ",
"     .XXXX.     ",
"     .XXXX.     ",
"     .XXXX.     ",
"     .XXXX.     ",
"     .XXXX.     ",
"     .XXXX.     ",
"     .XXXX.     ",
"     ......     ",
"                "};
