/* XPM */ 
static char * up_xpm[] = {
"16 16 26 1",
" 	c None",
"!	c black",
"#	c #90A1B7",
"$	c #B3C1D3",
"%	c #B2C1D3",
"&	c #DAE9F9",
"'	c #B1BFD1",
"(	c #D7E5F5",
")	c #CBDDF2",
"*	c #B0BED0",
"+	c #D4E2F1",
",	c #C7D9ED",
"-	c #AFBDCF",
".	c #D1DEED",
"0	c #C3D4E8",
"1	c #AEBCCE",
"2	c #CDDAE9",
"3	c #BECFE2",
"4	c #ACBBCC",
"5	c #C9D6E4",
"6	c #B9C9DC",
"7	c #9FB0C4",
"8	c #B4C5D7",
"9	c #AFBFD1",
":	c #C4CDD7",
";	c #99A7B7",
"       ##       ",
"      #$$#      ",
"     #%&&%#     ",
"    #'())('#    ",
"   #*+,,,,+*#   ",
"  #-.000000.-#  ",
" #123333333321# ",
"#45666666666654#",
"###7888888887###",
"   #99999999#   ",
"   ##########   ",
"                ",
"   ##########   ",
"   #::::::::#   ",
"   #;;;;;;;;#   ",
"   ##########   "};