/* XPM */
static char *wholeword_xpm[] = {
/* columns rows colors chars-per-pixel */
"16 16 26 1",
"6 c #FFFFE4",
"$ c #DBFFFF",
"1 c #90908E",
"> c #00006F",
"+ c #00008E",
"X c #66004E",
"  c None",
"7 c #903A4E",
"& c #B6666F",
"4 c #66006F",
"o c #003AAC",
"# c #3A004E",
"5 c #0066C8",
"; c #DB906F",
"@ c #B6DBAC",
", c #66666F",
"< c #66B6FF",
"= c #DBB68E",
": c #66668E",
"* c #90DBC8",
"3 c #FFB68E",
"- c #3A90E4",
"% c #663AAC",
"2 c #90DBFF",
"O c #DBFFC8",
". c #FFFFC8",
/* pixels */
"                ",
"                ",
"                ",
"                ",
"                ",
"  .XoOX+@#oOXo$ ",
"  .%$ &*%=- .%$ ",
"  .%$ ;:>,< .%$ ",
"  .%$ ;>1>2 .%$ ",
"  .%$ 3oO42 .%$ ",
"  .X5      67o$ ",
"                ",
"                ",
"                ",
"                ",
"                "
};
