/* XPM */ 
static const char * const windowslogo_xpm[] = {
"16 16 102 2",
"  	c None",
"! 	c black",
"# 	c #960E04",
"$ 	c #BF1502",
"% 	c #CB2404",
"& 	c #CD2B05",
"' 	c #BB2E06",
"( 	c #AD1C05",
") 	c #D83507",
"* 	c #E15B0B",
"+ 	c #EC6C0D",
", 	c #A94E0F",
"- 	c #569820",
". 	c #4D8212",
"0 	c #336114",
"1 	c #245415",
"2 	c #38601D",
"3 	c #C93408",
"4 	c #EA6D0F",
"5 	c #EB9B11",
"6 	c #EDA30F",
"7 	c #7A631A",
"8 	c #91BF3A",
"9 	c #7FAE1E",
": 	c #518717",
"; 	c #356D1C",
"< 	c #2C4A19",
"= 	c #7C1700",
"> 	c #D73E00",
"? 	c #D06700",
"@ 	c #E19D04",
"A 	c #E3B10A",
"B 	c #747C35",
"C 	c #B3D95C",
"D 	c #96C132",
"E 	c #6BA017",
"F 	c #42751C",
"G 	c #111A0C",
"H 	c #5D2A21",
"I 	c #544A52",
"J 	c #59697A",
"K 	c #746A5F",
"L 	c #704909",
"M 	c #92AB56",
"N 	c #CFEF74",
"O 	c #ABD244",
"P 	c #7DB51D",
"Q 	c #42701A",
"R 	c #1F5E94",
"S 	c #418FC1",
"T 	c #89BEDB",
"U 	c #BEE5F8",
"V 	c #647683",
"W 	c #515721",
"X 	c #799446",
"Y 	c #789E3A",
"Z 	c #527717",
"[ 	c #2C3B0C",
"] 	c #2D629A",
"^ 	c #4085B4",
"_ 	c #76ABC9",
"` 	c #9EC6E0",
"a 	c #898A6B",
"b 	c #EDD77F",
"c 	c #AD9745",
"d 	c #A4881B",
"e 	c #C4870C",
"f 	c #613C0A",
"g 	c #1B3056",
"h 	c #2C5DA0",
"i 	c #357AB2",
"j 	c #5C9FC6",
"k 	c #5E90B8",
"l 	c #9C8C42",
"m 	c #FFEA71",
"n 	c #FFE650",
"o 	c #FFDE21",
"p 	c #E9A610",
"q 	c #1D140A",
"r 	c #22406E",
"s 	c #1C4377",
"t 	c #18446D",
"u 	c #2D6995",
"v 	c #316287",
"w 	c #D9B320",
"x 	c #FFDE31",
"y 	c #FACF1B",
"z 	c #FFB40B",
"{ 	c #BD790E",
"| 	c #08141D",
"} 	c #000005",
"~ 	c #1D231F",
" !	c #E0A60D",
"!!	c #FFBB0D",
"#!	c #FFAA09",
"$!	c #FB9406",
"%!	c #7F4F0C",
"&!	c #372102",
"'!	c #875604",
"(!	c #905703",
")!	c #693F03",
"*!	c #110C02",
"                                ",
"                                ",
"        # $ % & '               ",
"        ( ) * + , - . 0 1 2     ",
"        3 4 5 6 7 8 9 : ; <     ",
"      = > ? @ A B C D E F G     ",
"      H I J K L M N O P Q       ",
"      R S T U V W X Y Z [       ",
"      ] ^ _ ` a b c d e f       ",
"    g h i j k l m n o p q       ",
"    r s t u v w x y z {         ",
"    | ! ! } ~  !!!#!$!%!        ",
"              &!'!(!)!*!        ",
"                  !             ",
"                                ",
"                                "};