/* XPM */ 
static char * windows_xpm[] = {
"16 16 69 1",
" 	c None",
"!	c black",
"#	c #FF5621",
"$	c #FE5621",
"%	c #FE5A23",
"&	c #FF5622",
"'	c #FD5722",
"(	c #FF4D1E",
")	c #5CC748",
"*	c #9B9C39",
"+	c #45D424",
",	c #7BB141",
"-	c #FB5723",
".	c #FC5724",
"0	c #FE5623",
"1	c #FE5521",
"2	c #F35C23",
"3	c #73B843",
"4	c #77B442",
"5	c #7BB242",
"6	c #80B043",
"7	c #7BB241",
"8	c #FF5011",
"9	c #FF5113",
":	c #FF5615",
";	c #FF4E1A",
"<	c #A79337",
"=	c #76B543",
">	c #7DB140",
"?	c #7CB241",
"@	c #7AB340",
"A	c #2F98CC",
"B	c #269DD5",
"C	c #21AAC6",
"D	c #7DAE3E",
"E	c #7BB33F",
"F	c #78B242",
"G	c #7AB242",
"H	c #79B242",
"I	c #00ABFA",
"J	c #00AAF8",
"K	c #00A8F9",
"L	c #00AEFA",
"M	c #6CB05E",
"N	c #8CB43A",
"O	c #84B33C",
"P	c #02A9F3",
"Q	c #03A8F4",
"R	c #05A8F1",
"S	c #52AFA7",
"T	c #FFC200",
"U	c #FBBF0E",
"V	c #FFC103",
"W	c #FFC101",
"X	c #02A8F3",
"Y	c #01A8F4",
"Z	c #01A6FE",
"[	c #E4BE1D",
"]	c #FEC004",
"^	c #FFC005",
"_	c #FDC007",
"`	c #FDC006",
"a	c #1EABD9",
"b	c #00A5FF",
"c	c #FCC008",
"d	c #FFC006",
"e	c #FFC007",
"f	c #FEBE0C",
"g	c #FEC006",
"                ",
"                ",
"                ",
"     #$#%       ",
"    #&#'()* +,  ",
"    -.01234567  ",
"    89:;<=>?@   ",
"    ABC DEFGH   ",
"   IJJKL MNO    ",
"   PQRKSTUVW    ",
"  XXPYZ[]^_`    ",
"  XX abTcde^    ",
"       fdgd     ",
"                ",
"                ",
"                "};