/* XPM */ 
static char * winlist_xpm[] = {
"16 16 62 1",
" 	c None",
"!	c #5070A8",
"#	c #8CB0DD",
"$	c #7AA6DC",
"%	c #79A5DC",
"&	c #79A3DA",
"'	c #759FD5",
"(	c #749DD4",
")	c #729CD2",
"*	c #7199CF",
"+	c #6F98CE",
",	c #7899C3",
"-	c black",
".	c #84ABDD",
"0	c #91B8E8",
"1	c #6E8FC0",
"2	c #658ABF",
"3	c #79A3DB",
"4	c white",
"5	c #6286BC",
"6	c #78A2D9",
"7	c #B3C1DA",
"8	c #9BBAE1",
"9	c #87AFDF",
":	c #86AEDF",
";	c #86ACDE",
"<	c #85AADC",
"=	c #82A8D9",
">	c #80A6D6",
"?	c #7FA3D4",
"@	c #6D96CC",
"A	c #78A1D8",
"B	c #90B3E0",
"C	c #9CBFEA",
"D	c #8CB3E3",
"E	c #6B91C8",
"F	c #76A1D7",
"G	c #678DC2",
"H	c #77A1D8",
"I	c #F0F3F9",
"J	c #F0F3F8",
"K	c #EFF2F8",
"L	c #EFF2F7",
"M	c #EEF2F7",
"N	c #EEF1F7",
"O	c #F3F6F9",
"P	c #B0BED8",
"Q	c #90B3DE",
"R	c #85ACDD",
"S	c #FEFFFF",
"T	c #FEFEFF",
"U	c #FEFEFE",
"V	c #5F84B9",
"W	c #5D80B6",
"X	c #5071A8",
"Y	c #6387BD",
"Z	c #6084BA",
"[	c #5E82B8",
"]	c #5B7DB3",
"^	c #577AB0",
"_	c #5678AD",
"`	c #5575AC",
"!#$%&'()*+,!    ",
".00000000001    ",
"$$$$$$$$$$$2    ",
"344444444445    ",
"64789:;<=>?@,!  ",
"A4BCCCCCCCCD01  ",
"E4999999999F$2  ",
"!GHIJKLLLMNO45  ",
"  64PQ$%&A')*+,!",
"  A4R00000000001",
"  E4$$$$$$$$$$$2",
"  !G344444444445",
"    6444444STU4V",
"    A4444444ST4W",
"    E4444444444X",
"    !G2YZ[]^_`!!"};