/* XPM */ 
static char * wrapbycol_xpm[] = {
"16 16 115 2",
"  	c None",
"! 	c black",
"# 	c #437CC0",
"$ 	c #4C8AC8",
"% 	c #4E8BC8",
"& 	c #4E8CC8",
"' 	c #4E8BC9",
"( 	c #4E8AC7",
") 	c #4A88C4",
"* 	c #3A75C3",
"+ 	c #4884C3",
", 	c #ECF2F7",
"- 	c #EEF4F8",
". 	c #EDF4F8",
"0 	c #EDF3F8",
"1 	c #ECF2F8",
"2 	c #D7E6F2",
"3 	c #7CB1E2",
"4 	c #6493DB",
"5 	c #4A87C4",
"6 	c #F2F6FA",
"7 	c #C7E0FA",
"8 	c #C9E1FB",
"9 	c #C9E2FB",
": 	c #C8E0FB",
"; 	c #C4DFF9",
"< 	c #C0DBF8",
"= 	c #B7D6F4",
"> 	c #F8FBFF",
"? 	c #B3D8F6",
"@ 	c #7CAFE1",
"A 	c #6391DB",
"B 	c #4B88C5",
"C 	c #F1F5F9",
"D 	c #6C6C6C",
"E 	c #CDE6FC",
"F 	c #C9E5FA",
"G 	c #83B5E2",
"H 	c #4178BE",
"I 	c #4A88C5",
"J 	c #CFE3FC",
"K 	c #D0E4FB",
"L 	c #CFE4FC",
"M 	c #CDE3FC",
"N 	c #CAE1FA",
"O 	c #C3DDF9",
"P 	c #BBD9F6",
"Q 	c #DFE9F4",
"R 	c #F3F7FB",
"S 	c #E9EFF5",
"T 	c #447DC1",
"U 	c #F0F4F9",
"V 	c #C7DFFA",
"W 	c #D2E6FC",
"X 	c #CCE1FB",
"Y 	c #4581C3",
"Z 	c #4987C5",
"[ 	c #EFF4F9",
"] 	c #D7E7FE",
"^ 	c #D6E7FD",
"_ 	c #D5E7FD",
"` 	c #D4E6FD",
"a 	c #EFF4FA",
"b 	c #4582C5",
"c 	c #4887C5",
"d 	c #EDF4F9",
"e 	c #4481C5",
"f 	c #4683C5",
"g 	c #ECF3F9",
"h 	c #D6E8FE",
"i 	c #D7E8FE",
"j 	c #EAF2FA",
"k 	c #417FC5",
"l 	c #4481C4",
"m 	c #EBF2F8",
"n 	c #3E7BC4",
"o 	c #417FC4",
"p 	c #E8F1F8",
"q 	c #D5E5FE",
"r 	c #D3E5FD",
"s 	c #D3E5FC",
"t 	c #F7FAFD",
"u 	c #3A75C0",
"v 	c #3F7BC3",
"w 	c #E6F0F7",
"x 	c #356EBE",
"y 	c #3B77C0",
"z 	c #E3EDF7",
"{ 	c #D6E7FE",
"| 	c #D5E6FD",
"} 	c #F4F7FB",
"~ 	c #3066BA",
" !	c #3770BE",
"!!	c #DFEBF5",
"#!	c #2C63B8",
"$!	c #3268BB",
"%!	c #EAF1F8",
"&!	c #DFECF7",
"'!	c #DEEBF6",
"(!	c #DEEAF6",
")!	c #DCEAF6",
"*!	c #EBF3FA",
"+!	c #F3F7FC",
",!	c #F4F8FC",
"-!	c #FDFEFE",
".!	c #295FB6",
"0!	c #3369BA",
"1!	c #2F64B9",
"2!	c #3065BA",
"3!	c #2F65B9",
"4!	c #2E64B9",
"5!	c #2D64B8",
"6!	c #2D63B8",
"7!	c #2B61B6",
"8!	c #2D61B6",
"  # $ % % % % & ' ( ) *         ",
"  + , - . 0 0 0 1 , 2 3 4       ",
"  5 6 7 8 9 : ; < = > ? @ A     ",
"  B C D D D D D D = > E F G H   ",
"  I C J K L M N O P Q , R S T   ",
"  I U D D D D D D V W X V > Y   ",
"  Z [ ] ^ _ ` W X V W X V a b   ",
"  c d D D D D D D V W X V > e   ",
"  f g h i ^ ^ _ X V W X V j k   ",
"  l m D D D D D D V W X V > n   ",
"  o p q r r s s X V W X V t u   ",
"  v w D D D D D D V W X V > x   ",
"  y z { ^ ^ ^ | X V W X V } ~   ",
"   !!!D D D D D D V W X V > #!  ",
"  $!%!&!'!(!)!)!*!*!j +!,!-!.!  ",
"  0!1!2!3!3!3!1!4!5!5!6!6!7!8!  "};