/* XPM */ 
static char * xml_xpm[] = {
"16 16 194 2",
"  	c None",
"! 	c black",
"# 	c #437CC0",
"$ 	c #4C8AC8",
"% 	c #4E8BC8",
"& 	c #4E8CC8",
"' 	c #4E8BC9",
"( 	c #4E8AC7",
") 	c #4A88C4",
"* 	c #3A75C3",
"+ 	c #4884C3",
", 	c #ECF2F7",
"- 	c #EEF4F8",
". 	c #EDF4F8",
"0 	c #EDF3F8",
"1 	c #ECF2F8",
"2 	c #D7E6F2",
"3 	c #7CB1E2",
"4 	c #6493DB",
"5 	c #4A87C4",
"6 	c #F2F6FA",
"7 	c #C7E0FA",
"8 	c #C9E1FB",
"9 	c #C9E2FB",
": 	c #C8E0FB",
"; 	c #C4DFF9",
"< 	c #C0DBF8",
"= 	c #B7D6F4",
"> 	c #F8FBFF",
"? 	c #B3D8F6",
"@ 	c #7CAFE1",
"A 	c #6391DB",
"B 	c #4B88C5",
"C 	c #F1F5F9",
"D 	c #CDE3FC",
"E 	c #CEE3FB",
"F 	c #CDE3FB",
"G 	c #CBE2FB",
"H 	c #C8E0F9",
"I 	c #C1DCF8",
"J 	c #B9D6F5",
"K 	c #F8FBFD",
"L 	c #CDE6FC",
"M 	c #C9E5FA",
"N 	c #83B5E2",
"O 	c #4178BE",
"P 	c #4A88C5",
"Q 	c #E6EFF8",
"R 	c #CFE3FC",
"S 	c #D0E4FB",
"T 	c #CFE4FC",
"U 	c #CAE1FA",
"V 	c #C3DDF9",
"W 	c #BBD9F6",
"X 	c #DFE9F4",
"Y 	c #F3F7FB",
"Z 	c #E9EFF5",
"[ 	c #447DC1",
"] 	c #4888C8",
"^ 	c #6DB0E9",
"_ 	c #5EADE8",
"` 	c #D4E6FC",
"a 	c #64B5EC",
"b 	c #68B1EC",
"c 	c #C3DEF9",
"d 	c #C8E0FA",
"e 	c #BAD6F5",
"f 	c #B4D4F3",
"g 	c #B2D2F1",
"h 	c #F0F4F8",
"i 	c #4581C3",
"j 	c #4796DE",
"k 	c #71B5EB",
"l 	c #60A6E8",
"m 	c #D6E7FD",
"n 	c #64B1EC",
"o 	c #75BAEC",
"p 	c #66ABEA",
"q 	c #C0DAF9",
"r 	c #C7DFFA",
"s 	c #BCDAF6",
"t 	c #BAD8F6",
"u 	c #EFF4FA",
"v 	c #4582C5",
"w 	c #2D83DE",
"x 	c #5AAAE9",
"y 	c #70B4EA",
"z 	c #62A5E8",
"{ 	c #C4DBFA",
"| 	c #D8E8FE",
"} 	c #C4DDFB",
"~ 	c #60AAE9",
" !	c #5BA6E8",
"!!	c #92B9EF",
"#!	c #C2DDF9",
"$!	c #EDF4FA",
"%!	c #4481C5",
"&!	c #56A6E7",
"'!	c #78B7EC",
"(!	c #57A3E5",
")!	c #C3D8F2",
"*!	c #D6E8FE",
"+!	c #D7E8FE",
",!	c #B2D1F6",
"-!	c #59A5E6",
".!	c #74B1E9",
"0!	c #579CE4",
"1!	c #C5DFFA",
"2!	c #EAF2FA",
"3!	c #417FC5",
"4!	c #2672D9",
"5!	c #549EE5",
"6!	c #69A9E8",
"7!	c #5C9AE3",
"8!	c #C2D8F9",
"9!	c #C2DBF9",
":!	c #5C9FE5",
";!	c #559AE3",
"<!	c #93B5EE",
"=!	c #CDE2FC",
">!	c #CBE1FB",
"?!	c #F2F7FB",
"@!	c #3E7BC4",
"A!	c #3D7FD7",
"B!	c #64A2E5",
"C!	c #5790E1",
"D!	c #D3E5FD",
"E!	c #5B9CE5",
"F!	c #67A7E7",
"G!	c #5E96E3",
"H!	c #C3DAF9",
"I!	c #CEE2FC",
"J!	c #CCE2FC",
"K!	c #C9E0FB",
"L!	c #C8E1FB",
"M!	c #F7FAFD",
"N!	c #3A75C0",
"O!	c #3D79C4",
"P!	c #5F91E0",
"Q!	c #4B8BE0",
"R!	c #55B3F7",
"S!	c #4E95E2",
"T!	c #4088E2",
"U!	c #4FACF6",
"V!	c #51B2F7",
"W!	c #50B1F7",
"X!	c #4EB1F7",
"Y!	c #F5F9FC",
"Z!	c #356EBE",
"[!	c #3B77C0",
"]!	c #E3EDF7",
"^!	c #6DC1FD",
"_!	c #9FD8FF",
"`!	c #9DD7FF",
"a!	c #9AD6FF",
"b!	c #97D7FF",
"c!	c #95D6FF",
"d!	c #94D6FF",
"e!	c #93D5FF",
"f!	c #92D4FF",
"g!	c #64BDFB",
"h!	c #F4F7FB",
"i!	c #3066BA",
"j!	c #3770BE",
"k!	c #DFEBF5",
"l!	c #67BEFD",
"m!	c #66BCFC",
"n!	c #63BDFC",
"o!	c #61BCFC",
"p!	c #62BCFB",
"q!	c #60BBFB",
"r!	c #5FBDFC",
"s!	c #61BBFC",
"t!	c #2C63B8",
"u!	c #3268BB",
"v!	c #EAF1F8",
"w!	c #DFECF7",
"x!	c #DEEBF6",
"y!	c #DEEAF6",
"z!	c #DCEAF6",
"{!	c #EBF3FA",
"|!	c #F3F7FC",
"}!	c #F4F8FC",
"~!	c #FDFEFE",
" #	c #295FB6",
"!#	c #3369BA",
"##	c #2F64B9",
"$#	c #3065BA",
"%#	c #2F65B9",
"&#	c #2E64B9",
"'#	c #2D64B8",
"(#	c #2D63B8",
")#	c #2B61B6",
"*#	c #2D61B6",
"    # $ % % % % & ' ( ) *       ",
"    + , - . 0 0 0 1 , 2 3 4     ",
"    5 6 7 8 9 : ; < = > ? @ A   ",
"    B C D E F G H I J K L M N O ",
"    P Q R S T D U V W X , Y Z [ ",
"    ] ^ _ ` a b c d I e f g h i ",
"    j k l m n o p q r I s t u v ",
"w x y z { | } ~ y  !!!7 #!I $!%!",
"&!'!(!)!*!+!m ,!-!.!0!d r 1!2!3!",
"4!5!6!7!8!m 9!:!6!;!<!=!>!8 ?!@!",
"    A!B!C!D!E!F!G!H!I!J!K!L!M!N!",
"    O!P!Q!R!S!T!U!V!V!W!X!X!Y!Z!",
"    [!]!^!_!`!a!b!c!d!e!f!g!h!i!",
"    j!k!l!m!g!n!n!o!p!q!r!s!K t!",
"    u!v!w!x!y!z!z!{!{!2!|!}!~! #",
"    !###$#%#%#%###&#'#'#(#(#)#*#"};