/* XPM */ 
static char * xml_xpm[] = {
"16 16 77 1",
" 	c None",
"!	c black",
"#	c #F8F8F8",
"$	c #FBFBFB",
"%	c #FCFCFC",
"&	c #939393",
"'	c #F4F4F4",
"(	c #F5F5F5",
")	c #F1F1F1",
"*	c #EFEFEF",
"+	c #E9E9E9",
",	c #E7E7E7",
"-	c #949494",
".	c #F7F7F7",
"0	c #F9F9F9",
"1	c #F3F3F3",
"2	c #F0F0F0",
"3	c #EAEAEA",
"4	c #F6F6F6",
"5	c #989898",
"6	c #F0F5FA",
"7	c #F2F2F2",
"8	c #EBEBEB",
"9	c #70B2EA",
":	c #61AEE8",
";	c #66B6EC",
"<	c #71B6EB",
"=	c #ECF1F7",
">	c #ECECEC",
"?	c #E6E6E6",
"@	c #4391D8",
"A	c #71B5EB",
"B	c #64A8E8",
"C	c #69B4EB",
"D	c #75BAEC",
"E	c #6FAFEA",
"F	c #EAEFF6",
"G	c #EDEDED",
"H	c #2D83DE",
"I	c #5AAAE9",
"J	c #70B4EA",
"K	c #64A6E8",
"L	c #E5EDF8",
"M	c #E6EFF9",
"N	c #65ADE9",
"O	c #5CA7E8",
"P	c #AFC9ED",
"Q	c #56A6E7",
"R	c #78B7EC",
"S	c #57A3E5",
"T	c #D1DFF4",
"U	c #D2E1F5",
"V	c #5AA5E6",
"W	c #74B1E9",
"X	c #599DE4",
"Y	c #F4F5F8",
"Z	c #2672D9",
"[	c #549EE5",
"]	c #69A9E8",
"^	c #5E9BE4",
"_	c #E5EBF8",
"`	c #61A1E5",
"a	c #569BE3",
"b	c #AEC4ED",
"c	c #3877CF",
"d	c #64A2E5",
"e	c #5C93E1",
"f	c #609FE5",
"g	c #67A7E7",
"h	c #669AE3",
"i	c #EBF0F8",
"j	c #FAFAFA",
"k	c #6494E1",
"l	c #548FE0",
"m	c #5899E3",
"n	c #6698E3",
"o	c #EEF1F8",
"                ",
"   #$%%%%%%#&   ",
"   $'((()*+%,-  ",
"   %.0..123%4'5 ",
"   6000.478%%%% ",
"   9:%;<=()>3?% ",
"  @AB%CDEF(7*G% ",
"HIJKL%MNJOP417% ",
"QRST%%%UVWXY44% ",
"Z[]^_%L`]ab00#% ",
"  cde%fghijj##% ",
"   kl%mnojjjjj% ",
"   %%%%%$$$$$$% ",
"   %%%%%%%%%%%% ",
"   0%%%%%%%%%%0 ",
"                "};