/* XPM */
static char *zerolen_xpm[] = {
/* columns rows colors chars-per-pixel */
"16 16 62 1",
"0 c #5FAD56",
"< c #A3D49A",
"2 c #86C37D",
": c #71C365",
"7 c #9CD094",
"g c #468D3F",
"  c None",
"r c #95CC8E",
"# c #74C768",
"% c #87CA7C",
"$ c #72C466",
"a c #4C9545",
"8 c #65AC5D",
"& c #A7D69E",
"M c #33752D",
"y c #4A9242",
"b c #7EC079",
"S c #22601E",
"v c #397D33",
"e c #509A48",
"N c #7ABD74",
"A c #256421",
"1 c #A1D398",
"4 c #539E4A",
"B c #78BD72",
"d c #89C682",
"q c #9ACF93",
"5 c #65B45B",
"l c #3F8539",
"z c #82C27D",
"t c #93CB8B",
"@ c #68B85D",
"s c #8CC785",
"V c #266522",
"f c #3D8236",
"; c #59A650",
"j c #85C37E",
", c #83C679",
"Z c #296925",
"O c #88CA7E",
"9 c #529C49",
"n c #7CBF76",
"p c #438A3C",
"3 c #58A44F",
"= c #7DC073",
"C c #2D6E28",
"i c #8EC987",
"6 c #9FD296",
"o c #72C566",
"h c #87C581",
"w c #98CE90",
"c c #30722B",
"+ c #85C87B",
"m c #2B6B26",
"x c #80C17A",
"- c #5EAC55",
"u c #91CA8A",
"X c #70C265",
"k c #367A31",
"* c #A5D49C",
". c #73C667",
"> c #6EBF62",
/* pixels */
"                ",
"       .X       ",
"      oO+@      ",
"    #$%&*=-;    ",
"    :>,<1234    ",
"      56789     ",
"      0qwe      ",
"      ;rty      ",
"      4uip      ",
"      asdf      ",
"      ghjk      ",
"      lzxc      ",
"      vbnm      ",
"      MNBV      ",
"      CZAS      ",
"                "
};
